%TF.GenerationSoftware,KiCad,Pcbnew,9.0.7*%
%TF.CreationDate,2026-03-14T17:46:06+01:00*%
%TF.ProjectId,blastpad,626c6173-7470-4616-942e-6b696361645f,rev?*%
%TF.SameCoordinates,Original*%
%TF.FileFunction,Drillmap*%
%TF.FilePolarity,Positive*%
%FSLAX45Y45*%
G04 Gerber Fmt 4.5, Leading zero omitted, Abs format (unit mm)*
G04 Created by KiCad (PCBNEW 9.0.7) date 2026-03-14 17:46:06*
%MOMM*%
%LPD*%
G01*
G04 APERTURE LIST*
%ADD10C,0.200000*%
%ADD11C,0.150000*%
%ADD12C,0.170180*%
%ADD13C,0.180000*%
%ADD14C,0.304800*%
%ADD15C,0.310000*%
%ADD16C,0.320000*%
%ADD17C,0.398780*%
G04 APERTURE END LIST*
D10*
X49795192Y-2437868D02*
G75*
G02*
X50007324Y-2350003I212128J-212132D01*
G01*
X32832893Y-10092893D02*
G75*
G02*
X32540002Y-9385787I707107J707103D01*
G01*
X36354214Y-13200000D02*
X51205000Y-13200000D01*
X49795192Y-2437868D02*
X49725878Y-2507182D01*
X48206696Y-2350000D02*
X33040000Y-2350000D01*
X48206696Y-2350000D02*
G75*
G02*
X48418830Y-2437866I4J-300000D01*
G01*
X51705000Y-5898957D02*
G75*
G02*
X51558507Y-6252560I-500000J-3D01*
G01*
X48488142Y-2507182D02*
X48418828Y-2437868D01*
X49725878Y-2507182D02*
G75*
G02*
X49513746Y-2595047I-212128J212132D01*
G01*
X50425079Y-8234091D02*
G75*
G02*
X50425190Y-7385559I424321J424211D01*
G01*
X32540000Y-2850000D02*
X32540000Y-9385787D01*
X51705000Y-12700000D02*
X51704784Y-9720765D01*
X51205000Y-2350000D02*
X50007324Y-2350000D01*
X32832893Y-10092893D02*
X35647107Y-12907107D01*
X51205000Y-2350000D02*
G75*
G02*
X51705000Y-2850000I0J-500000D01*
G01*
X36354213Y-13200000D02*
G75*
G02*
X35647105Y-12907109I-3J1000000D01*
G01*
X51705000Y-5898957D02*
X51705000Y-2850000D01*
X32540000Y-2850000D02*
G75*
G02*
X33040000Y-2350000I500000J0D01*
G01*
X50425194Y-7385563D02*
X51558506Y-6252558D01*
X51558322Y-9367232D02*
X50425079Y-8234091D01*
X48700274Y-2595050D02*
G75*
G02*
X48488140Y-2507184I-4J300000D01*
G01*
X51705000Y-12700000D02*
G75*
G02*
X51205000Y-13200000I-500000J0D01*
G01*
X49513746Y-2595050D02*
X48700274Y-2595050D01*
X51558322Y-9367232D02*
G75*
G02*
X51704782Y-9720765I-353542J-353568D01*
G01*
D11*
X34782500Y-2688000D02*
X34932500Y-2838000D01*
X34932500Y-2688000D02*
X34782500Y-2838000D01*
X35267500Y-2688000D02*
X35417500Y-2838000D01*
X35417500Y-2688000D02*
X35267500Y-2838000D01*
D12*
X37577090Y-4000000D02*
G75*
G02*
X37406910Y-4000000I-85090J0D01*
G01*
X37406910Y-4000000D02*
G75*
G02*
X37577090Y-4000000I85090J0D01*
G01*
X37577090Y-5905000D02*
G75*
G02*
X37406910Y-5905000I-85090J0D01*
G01*
X37406910Y-5905000D02*
G75*
G02*
X37577090Y-5905000I85090J0D01*
G01*
X37577090Y-7810000D02*
G75*
G02*
X37406910Y-7810000I-85090J0D01*
G01*
X37406910Y-7810000D02*
G75*
G02*
X37577090Y-7810000I85090J0D01*
G01*
X37577090Y-11620000D02*
G75*
G02*
X37406910Y-11620000I-85090J0D01*
G01*
X37406910Y-11620000D02*
G75*
G02*
X37577090Y-11620000I85090J0D01*
G01*
X38529590Y-9715000D02*
G75*
G02*
X38359410Y-9715000I-85090J0D01*
G01*
X38359410Y-9715000D02*
G75*
G02*
X38529590Y-9715000I85090J0D01*
G01*
X38593090Y-4000000D02*
G75*
G02*
X38422910Y-4000000I-85090J0D01*
G01*
X38422910Y-4000000D02*
G75*
G02*
X38593090Y-4000000I85090J0D01*
G01*
X38593090Y-5905000D02*
G75*
G02*
X38422910Y-5905000I-85090J0D01*
G01*
X38422910Y-5905000D02*
G75*
G02*
X38593090Y-5905000I85090J0D01*
G01*
X38593090Y-7810000D02*
G75*
G02*
X38422910Y-7810000I-85090J0D01*
G01*
X38422910Y-7810000D02*
G75*
G02*
X38593090Y-7810000I85090J0D01*
G01*
X38593090Y-11620000D02*
G75*
G02*
X38422910Y-11620000I-85090J0D01*
G01*
X38422910Y-11620000D02*
G75*
G02*
X38593090Y-11620000I85090J0D01*
G01*
X39482090Y-4000000D02*
G75*
G02*
X39311910Y-4000000I-85090J0D01*
G01*
X39311910Y-4000000D02*
G75*
G02*
X39482090Y-4000000I85090J0D01*
G01*
X39482090Y-5905000D02*
G75*
G02*
X39311910Y-5905000I-85090J0D01*
G01*
X39311910Y-5905000D02*
G75*
G02*
X39482090Y-5905000I85090J0D01*
G01*
X39482090Y-7810000D02*
G75*
G02*
X39311910Y-7810000I-85090J0D01*
G01*
X39311910Y-7810000D02*
G75*
G02*
X39482090Y-7810000I85090J0D01*
G01*
X39482090Y-11620000D02*
G75*
G02*
X39311910Y-11620000I-85090J0D01*
G01*
X39311910Y-11620000D02*
G75*
G02*
X39482090Y-11620000I85090J0D01*
G01*
X39545590Y-9715000D02*
G75*
G02*
X39375410Y-9715000I-85090J0D01*
G01*
X39375410Y-9715000D02*
G75*
G02*
X39545590Y-9715000I85090J0D01*
G01*
X40498090Y-4000000D02*
G75*
G02*
X40327910Y-4000000I-85090J0D01*
G01*
X40327910Y-4000000D02*
G75*
G02*
X40498090Y-4000000I85090J0D01*
G01*
X40498090Y-5905000D02*
G75*
G02*
X40327910Y-5905000I-85090J0D01*
G01*
X40327910Y-5905000D02*
G75*
G02*
X40498090Y-5905000I85090J0D01*
G01*
X40498090Y-7810000D02*
G75*
G02*
X40327910Y-7810000I-85090J0D01*
G01*
X40327910Y-7810000D02*
G75*
G02*
X40498090Y-7810000I85090J0D01*
G01*
X40498090Y-11620000D02*
G75*
G02*
X40327910Y-11620000I-85090J0D01*
G01*
X40327910Y-11620000D02*
G75*
G02*
X40498090Y-11620000I85090J0D01*
G01*
X41387090Y-4000000D02*
G75*
G02*
X41216910Y-4000000I-85090J0D01*
G01*
X41216910Y-4000000D02*
G75*
G02*
X41387090Y-4000000I85090J0D01*
G01*
X41387090Y-5905000D02*
G75*
G02*
X41216910Y-5905000I-85090J0D01*
G01*
X41216910Y-5905000D02*
G75*
G02*
X41387090Y-5905000I85090J0D01*
G01*
X41387090Y-7810000D02*
G75*
G02*
X41216910Y-7810000I-85090J0D01*
G01*
X41216910Y-7810000D02*
G75*
G02*
X41387090Y-7810000I85090J0D01*
G01*
X41387090Y-9715000D02*
G75*
G02*
X41216910Y-9715000I-85090J0D01*
G01*
X41216910Y-9715000D02*
G75*
G02*
X41387090Y-9715000I85090J0D01*
G01*
X41387090Y-11620000D02*
G75*
G02*
X41216910Y-11620000I-85090J0D01*
G01*
X41216910Y-11620000D02*
G75*
G02*
X41387090Y-11620000I85090J0D01*
G01*
X42403090Y-4000000D02*
G75*
G02*
X42232910Y-4000000I-85090J0D01*
G01*
X42232910Y-4000000D02*
G75*
G02*
X42403090Y-4000000I85090J0D01*
G01*
X42403090Y-5905000D02*
G75*
G02*
X42232910Y-5905000I-85090J0D01*
G01*
X42232910Y-5905000D02*
G75*
G02*
X42403090Y-5905000I85090J0D01*
G01*
X42403090Y-7810000D02*
G75*
G02*
X42232910Y-7810000I-85090J0D01*
G01*
X42232910Y-7810000D02*
G75*
G02*
X42403090Y-7810000I85090J0D01*
G01*
X42403090Y-9715000D02*
G75*
G02*
X42232910Y-9715000I-85090J0D01*
G01*
X42232910Y-9715000D02*
G75*
G02*
X42403090Y-9715000I85090J0D01*
G01*
X42403090Y-11620000D02*
G75*
G02*
X42232910Y-11620000I-85090J0D01*
G01*
X42232910Y-11620000D02*
G75*
G02*
X42403090Y-11620000I85090J0D01*
G01*
X43292090Y-4000000D02*
G75*
G02*
X43121910Y-4000000I-85090J0D01*
G01*
X43121910Y-4000000D02*
G75*
G02*
X43292090Y-4000000I85090J0D01*
G01*
X43292090Y-5905000D02*
G75*
G02*
X43121910Y-5905000I-85090J0D01*
G01*
X43121910Y-5905000D02*
G75*
G02*
X43292090Y-5905000I85090J0D01*
G01*
X43292090Y-7810000D02*
G75*
G02*
X43121910Y-7810000I-85090J0D01*
G01*
X43121910Y-7810000D02*
G75*
G02*
X43292090Y-7810000I85090J0D01*
G01*
X43292090Y-9715000D02*
G75*
G02*
X43121910Y-9715000I-85090J0D01*
G01*
X43121910Y-9715000D02*
G75*
G02*
X43292090Y-9715000I85090J0D01*
G01*
X44244590Y-11620000D02*
G75*
G02*
X44074410Y-11620000I-85090J0D01*
G01*
X44074410Y-11620000D02*
G75*
G02*
X44244590Y-11620000I85090J0D01*
G01*
X44308090Y-4000000D02*
G75*
G02*
X44137910Y-4000000I-85090J0D01*
G01*
X44137910Y-4000000D02*
G75*
G02*
X44308090Y-4000000I85090J0D01*
G01*
X44308090Y-5905000D02*
G75*
G02*
X44137910Y-5905000I-85090J0D01*
G01*
X44137910Y-5905000D02*
G75*
G02*
X44308090Y-5905000I85090J0D01*
G01*
X44308090Y-7810000D02*
G75*
G02*
X44137910Y-7810000I-85090J0D01*
G01*
X44137910Y-7810000D02*
G75*
G02*
X44308090Y-7810000I85090J0D01*
G01*
X44308090Y-9715000D02*
G75*
G02*
X44137910Y-9715000I-85090J0D01*
G01*
X44137910Y-9715000D02*
G75*
G02*
X44308090Y-9715000I85090J0D01*
G01*
X45197090Y-4000000D02*
G75*
G02*
X45026910Y-4000000I-85090J0D01*
G01*
X45026910Y-4000000D02*
G75*
G02*
X45197090Y-4000000I85090J0D01*
G01*
X45197090Y-5905000D02*
G75*
G02*
X45026910Y-5905000I-85090J0D01*
G01*
X45026910Y-5905000D02*
G75*
G02*
X45197090Y-5905000I85090J0D01*
G01*
X45197090Y-7810000D02*
G75*
G02*
X45026910Y-7810000I-85090J0D01*
G01*
X45026910Y-7810000D02*
G75*
G02*
X45197090Y-7810000I85090J0D01*
G01*
X45197090Y-9715000D02*
G75*
G02*
X45026910Y-9715000I-85090J0D01*
G01*
X45026910Y-9715000D02*
G75*
G02*
X45197090Y-9715000I85090J0D01*
G01*
X45260590Y-11620000D02*
G75*
G02*
X45090410Y-11620000I-85090J0D01*
G01*
X45090410Y-11620000D02*
G75*
G02*
X45260590Y-11620000I85090J0D01*
G01*
X46213090Y-4000000D02*
G75*
G02*
X46042910Y-4000000I-85090J0D01*
G01*
X46042910Y-4000000D02*
G75*
G02*
X46213090Y-4000000I85090J0D01*
G01*
X46213090Y-5905000D02*
G75*
G02*
X46042910Y-5905000I-85090J0D01*
G01*
X46042910Y-5905000D02*
G75*
G02*
X46213090Y-5905000I85090J0D01*
G01*
X46213090Y-7810000D02*
G75*
G02*
X46042910Y-7810000I-85090J0D01*
G01*
X46042910Y-7810000D02*
G75*
G02*
X46213090Y-7810000I85090J0D01*
G01*
X46213090Y-9715000D02*
G75*
G02*
X46042910Y-9715000I-85090J0D01*
G01*
X46042910Y-9715000D02*
G75*
G02*
X46213090Y-9715000I85090J0D01*
G01*
X48830880Y-8169210D02*
G75*
G02*
X48660700Y-8169210I-85090J0D01*
G01*
X48660700Y-8169210D02*
G75*
G02*
X48830880Y-8169210I85090J0D01*
G01*
X49549300Y-7450790D02*
G75*
G02*
X49379120Y-7450790I-85090J0D01*
G01*
X49379120Y-7450790D02*
G75*
G02*
X49549300Y-7450790I85090J0D01*
G01*
D13*
X34827500Y-2370000D02*
X34827500Y-2550000D01*
X34737500Y-2460000D02*
X34917500Y-2460000D01*
X35372500Y-2370000D02*
X35372500Y-2550000D01*
X35282500Y-2460000D02*
X35462500Y-2460000D01*
D14*
X37866464Y-9124264D02*
X37866464Y-8908736D01*
X37650936Y-8908736D01*
X37650936Y-9124264D01*
X37866464Y-9124264D01*
X40254064Y-9124264D02*
X40254064Y-8908736D01*
X40038536Y-8908736D01*
X40038536Y-9124264D01*
X40254064Y-9124264D01*
X43581464Y-11029264D02*
X43581464Y-10813736D01*
X43365936Y-10813736D01*
X43365936Y-11029264D01*
X43581464Y-11029264D01*
X45969064Y-11029264D02*
X45969064Y-10813736D01*
X45753536Y-10813736D01*
X45753536Y-11029264D01*
X45969064Y-11029264D01*
D15*
X47567740Y-3188300D02*
X47722740Y-3033300D01*
X47567740Y-2878300D01*
X47412740Y-3033300D01*
X47567740Y-3188300D01*
X47567740Y-6045700D02*
X47722740Y-5890700D01*
X47567740Y-5735700D01*
X47412740Y-5890700D01*
X47567740Y-6045700D01*
X50648260Y-3188300D02*
X50803260Y-3033300D01*
X50648260Y-2878300D01*
X50493260Y-3033300D01*
X50648260Y-3188300D01*
X50648260Y-6045700D02*
X50803260Y-5890700D01*
X50648260Y-5735700D01*
X50493260Y-5890700D01*
X50648260Y-6045700D01*
D16*
X32880000Y-2690000D02*
X33200000Y-3010000D01*
X33200000Y-2690000D02*
X32880000Y-3010000D01*
X33200000Y-2850000D02*
G75*
G02*
X32880000Y-2850000I-160000J0D01*
G01*
X32880000Y-2850000D02*
G75*
G02*
X33200000Y-2850000I160000J0D01*
G01*
X32880000Y-9374000D02*
X33200000Y-9694000D01*
X33200000Y-9374000D02*
X32880000Y-9694000D01*
X33200000Y-9534000D02*
G75*
G02*
X32880000Y-9534000I-160000J0D01*
G01*
X32880000Y-9534000D02*
G75*
G02*
X33200000Y-9534000I160000J0D01*
G01*
X36194214Y-12541000D02*
X36514214Y-12861000D01*
X36514214Y-12541000D02*
X36194214Y-12861000D01*
X36514214Y-12701000D02*
G75*
G02*
X36194214Y-12701000I-160000J0D01*
G01*
X36194214Y-12701000D02*
G75*
G02*
X36514214Y-12701000I160000J0D01*
G01*
X47040000Y-7650000D02*
X47360000Y-7970000D01*
X47360000Y-7650000D02*
X47040000Y-7970000D01*
X47360000Y-7810000D02*
G75*
G02*
X47040000Y-7810000I-160000J0D01*
G01*
X47040000Y-7810000D02*
G75*
G02*
X47360000Y-7810000I160000J0D01*
G01*
X51045000Y-2690000D02*
X51365000Y-3010000D01*
X51365000Y-2690000D02*
X51045000Y-3010000D01*
X51365000Y-2850000D02*
G75*
G02*
X51045000Y-2850000I-160000J0D01*
G01*
X51045000Y-2850000D02*
G75*
G02*
X51365000Y-2850000I160000J0D01*
G01*
X51052000Y-12541000D02*
X51372000Y-12861000D01*
X51372000Y-12541000D02*
X51052000Y-12861000D01*
X51372000Y-12701000D02*
G75*
G02*
X51052000Y-12701000I-160000J0D01*
G01*
X51052000Y-12701000D02*
G75*
G02*
X51372000Y-12701000I160000J0D01*
G01*
D17*
X37559310Y-10341110D02*
X37958090Y-10739890D01*
X37958090Y-10341110D02*
X37559310Y-10739890D01*
X37758700Y-10341110D02*
X37758700Y-10739890D01*
X37559310Y-10540500D02*
X37958090Y-10540500D01*
X37800610Y-3800610D02*
X38199390Y-4199390D01*
X38199390Y-3800610D02*
X37800610Y-4199390D01*
X38000000Y-3800610D02*
X38000000Y-4199390D01*
X37800610Y-4000000D02*
X38199390Y-4000000D01*
X37800610Y-5705610D02*
X38199390Y-6104390D01*
X38199390Y-5705610D02*
X37800610Y-6104390D01*
X38000000Y-5705610D02*
X38000000Y-6104390D01*
X37800610Y-5905000D02*
X38199390Y-5905000D01*
X37800610Y-7610610D02*
X38199390Y-8009390D01*
X38199390Y-7610610D02*
X37800610Y-8009390D01*
X38000000Y-7610610D02*
X38000000Y-8009390D01*
X37800610Y-7810000D02*
X38199390Y-7810000D01*
X37800610Y-11420610D02*
X38199390Y-11819390D01*
X38199390Y-11420610D02*
X37800610Y-11819390D01*
X38000000Y-11420610D02*
X38000000Y-11819390D01*
X37800610Y-11620000D02*
X38199390Y-11620000D01*
X38753110Y-9515610D02*
X39151890Y-9914390D01*
X39151890Y-9515610D02*
X38753110Y-9914390D01*
X38952500Y-9515610D02*
X38952500Y-9914390D01*
X38753110Y-9715000D02*
X39151890Y-9715000D01*
X39705610Y-3800610D02*
X40104390Y-4199390D01*
X40104390Y-3800610D02*
X39705610Y-4199390D01*
X39905000Y-3800610D02*
X39905000Y-4199390D01*
X39705610Y-4000000D02*
X40104390Y-4000000D01*
X39705610Y-5705610D02*
X40104390Y-6104390D01*
X40104390Y-5705610D02*
X39705610Y-6104390D01*
X39905000Y-5705610D02*
X39905000Y-6104390D01*
X39705610Y-5905000D02*
X40104390Y-5905000D01*
X39705610Y-7610610D02*
X40104390Y-8009390D01*
X40104390Y-7610610D02*
X39705610Y-8009390D01*
X39905000Y-7610610D02*
X39905000Y-8009390D01*
X39705610Y-7810000D02*
X40104390Y-7810000D01*
X39705610Y-11420610D02*
X40104390Y-11819390D01*
X40104390Y-11420610D02*
X39705610Y-11819390D01*
X39905000Y-11420610D02*
X39905000Y-11819390D01*
X39705610Y-11620000D02*
X40104390Y-11620000D01*
X39946910Y-10341110D02*
X40345690Y-10739890D01*
X40345690Y-10341110D02*
X39946910Y-10739890D01*
X40146300Y-10341110D02*
X40146300Y-10739890D01*
X39946910Y-10540500D02*
X40345690Y-10540500D01*
X41610610Y-3800610D02*
X42009390Y-4199390D01*
X42009390Y-3800610D02*
X41610610Y-4199390D01*
X41810000Y-3800610D02*
X41810000Y-4199390D01*
X41610610Y-4000000D02*
X42009390Y-4000000D01*
X41610610Y-5705610D02*
X42009390Y-6104390D01*
X42009390Y-5705610D02*
X41610610Y-6104390D01*
X41810000Y-5705610D02*
X41810000Y-6104390D01*
X41610610Y-5905000D02*
X42009390Y-5905000D01*
X41610610Y-7610610D02*
X42009390Y-8009390D01*
X42009390Y-7610610D02*
X41610610Y-8009390D01*
X41810000Y-7610610D02*
X41810000Y-8009390D01*
X41610610Y-7810000D02*
X42009390Y-7810000D01*
X41610610Y-9515610D02*
X42009390Y-9914390D01*
X42009390Y-9515610D02*
X41610610Y-9914390D01*
X41810000Y-9515610D02*
X41810000Y-9914390D01*
X41610610Y-9715000D02*
X42009390Y-9715000D01*
X41610610Y-11420610D02*
X42009390Y-11819390D01*
X42009390Y-11420610D02*
X41610610Y-11819390D01*
X41810000Y-11420610D02*
X41810000Y-11819390D01*
X41610610Y-11620000D02*
X42009390Y-11620000D01*
X43274310Y-12246110D02*
X43673090Y-12644890D01*
X43673090Y-12246110D02*
X43274310Y-12644890D01*
X43473700Y-12246110D02*
X43473700Y-12644890D01*
X43274310Y-12445500D02*
X43673090Y-12445500D01*
X43515610Y-3800610D02*
X43914390Y-4199390D01*
X43914390Y-3800610D02*
X43515610Y-4199390D01*
X43715000Y-3800610D02*
X43715000Y-4199390D01*
X43515610Y-4000000D02*
X43914390Y-4000000D01*
X43515610Y-5705610D02*
X43914390Y-6104390D01*
X43914390Y-5705610D02*
X43515610Y-6104390D01*
X43715000Y-5705610D02*
X43715000Y-6104390D01*
X43515610Y-5905000D02*
X43914390Y-5905000D01*
X43515610Y-7610610D02*
X43914390Y-8009390D01*
X43914390Y-7610610D02*
X43515610Y-8009390D01*
X43715000Y-7610610D02*
X43715000Y-8009390D01*
X43515610Y-7810000D02*
X43914390Y-7810000D01*
X43515610Y-9515610D02*
X43914390Y-9914390D01*
X43914390Y-9515610D02*
X43515610Y-9914390D01*
X43715000Y-9515610D02*
X43715000Y-9914390D01*
X43515610Y-9715000D02*
X43914390Y-9715000D01*
X44468110Y-11420610D02*
X44866890Y-11819390D01*
X44866890Y-11420610D02*
X44468110Y-11819390D01*
X44667500Y-11420610D02*
X44667500Y-11819390D01*
X44468110Y-11620000D02*
X44866890Y-11620000D01*
X45420610Y-3800610D02*
X45819390Y-4199390D01*
X45819390Y-3800610D02*
X45420610Y-4199390D01*
X45620000Y-3800610D02*
X45620000Y-4199390D01*
X45420610Y-4000000D02*
X45819390Y-4000000D01*
X45420610Y-5705610D02*
X45819390Y-6104390D01*
X45819390Y-5705610D02*
X45420610Y-6104390D01*
X45620000Y-5705610D02*
X45620000Y-6104390D01*
X45420610Y-5905000D02*
X45819390Y-5905000D01*
X45420610Y-7610610D02*
X45819390Y-8009390D01*
X45819390Y-7610610D02*
X45420610Y-8009390D01*
X45620000Y-7610610D02*
X45620000Y-8009390D01*
X45420610Y-7810000D02*
X45819390Y-7810000D01*
X45420610Y-9515610D02*
X45819390Y-9914390D01*
X45819390Y-9515610D02*
X45420610Y-9914390D01*
X45620000Y-9515610D02*
X45620000Y-9914390D01*
X45420610Y-9715000D02*
X45819390Y-9715000D01*
X45661910Y-12246110D02*
X46060690Y-12644890D01*
X46060690Y-12246110D02*
X45661910Y-12644890D01*
X45861300Y-12246110D02*
X45861300Y-12644890D01*
X45661910Y-12445500D02*
X46060690Y-12445500D01*
X48905610Y-7610610D02*
X49304390Y-8009390D01*
X49304390Y-7610610D02*
X48905610Y-8009390D01*
X49105000Y-7610610D02*
X49105000Y-8009390D01*
X48905610Y-7810000D02*
X49304390Y-7810000D01*
D10*
X32790777Y-13521484D02*
X32790777Y-13321484D01*
X32790777Y-13321484D02*
X32838396Y-13321484D01*
X32838396Y-13321484D02*
X32866967Y-13331008D01*
X32866967Y-13331008D02*
X32886015Y-13350055D01*
X32886015Y-13350055D02*
X32895539Y-13369103D01*
X32895539Y-13369103D02*
X32905062Y-13407198D01*
X32905062Y-13407198D02*
X32905062Y-13435770D01*
X32905062Y-13435770D02*
X32895539Y-13473865D01*
X32895539Y-13473865D02*
X32886015Y-13492912D01*
X32886015Y-13492912D02*
X32866967Y-13511960D01*
X32866967Y-13511960D02*
X32838396Y-13521484D01*
X32838396Y-13521484D02*
X32790777Y-13521484D01*
X32990777Y-13521484D02*
X32990777Y-13388150D01*
X32990777Y-13426246D02*
X33000300Y-13407198D01*
X33000300Y-13407198D02*
X33009824Y-13397674D01*
X33009824Y-13397674D02*
X33028872Y-13388150D01*
X33028872Y-13388150D02*
X33047920Y-13388150D01*
X33114586Y-13521484D02*
X33114586Y-13388150D01*
X33114586Y-13321484D02*
X33105062Y-13331008D01*
X33105062Y-13331008D02*
X33114586Y-13340531D01*
X33114586Y-13340531D02*
X33124110Y-13331008D01*
X33124110Y-13331008D02*
X33114586Y-13321484D01*
X33114586Y-13321484D02*
X33114586Y-13340531D01*
X33238396Y-13521484D02*
X33219348Y-13511960D01*
X33219348Y-13511960D02*
X33209824Y-13492912D01*
X33209824Y-13492912D02*
X33209824Y-13321484D01*
X33343158Y-13521484D02*
X33324110Y-13511960D01*
X33324110Y-13511960D02*
X33314586Y-13492912D01*
X33314586Y-13492912D02*
X33314586Y-13321484D01*
X33571729Y-13521484D02*
X33571729Y-13321484D01*
X33571729Y-13321484D02*
X33638396Y-13464341D01*
X33638396Y-13464341D02*
X33705062Y-13321484D01*
X33705062Y-13321484D02*
X33705062Y-13521484D01*
X33886015Y-13521484D02*
X33886015Y-13416722D01*
X33886015Y-13416722D02*
X33876491Y-13397674D01*
X33876491Y-13397674D02*
X33857443Y-13388150D01*
X33857443Y-13388150D02*
X33819348Y-13388150D01*
X33819348Y-13388150D02*
X33800301Y-13397674D01*
X33886015Y-13511960D02*
X33866967Y-13521484D01*
X33866967Y-13521484D02*
X33819348Y-13521484D01*
X33819348Y-13521484D02*
X33800301Y-13511960D01*
X33800301Y-13511960D02*
X33790777Y-13492912D01*
X33790777Y-13492912D02*
X33790777Y-13473865D01*
X33790777Y-13473865D02*
X33800301Y-13454817D01*
X33800301Y-13454817D02*
X33819348Y-13445293D01*
X33819348Y-13445293D02*
X33866967Y-13445293D01*
X33866967Y-13445293D02*
X33886015Y-13435770D01*
X33981253Y-13388150D02*
X33981253Y-13588150D01*
X33981253Y-13397674D02*
X34000301Y-13388150D01*
X34000301Y-13388150D02*
X34038396Y-13388150D01*
X34038396Y-13388150D02*
X34057443Y-13397674D01*
X34057443Y-13397674D02*
X34066967Y-13407198D01*
X34066967Y-13407198D02*
X34076491Y-13426246D01*
X34076491Y-13426246D02*
X34076491Y-13483389D01*
X34076491Y-13483389D02*
X34066967Y-13502436D01*
X34066967Y-13502436D02*
X34057443Y-13511960D01*
X34057443Y-13511960D02*
X34038396Y-13521484D01*
X34038396Y-13521484D02*
X34000301Y-13521484D01*
X34000301Y-13521484D02*
X33981253Y-13511960D01*
X34162205Y-13502436D02*
X34171729Y-13511960D01*
X34171729Y-13511960D02*
X34162205Y-13521484D01*
X34162205Y-13521484D02*
X34152682Y-13511960D01*
X34152682Y-13511960D02*
X34162205Y-13502436D01*
X34162205Y-13502436D02*
X34162205Y-13521484D01*
X34162205Y-13397674D02*
X34171729Y-13407198D01*
X34171729Y-13407198D02*
X34162205Y-13416722D01*
X34162205Y-13416722D02*
X34152682Y-13407198D01*
X34152682Y-13407198D02*
X34162205Y-13397674D01*
X34162205Y-13397674D02*
X34162205Y-13416722D01*
D11*
X32380000Y-13775000D02*
X32530000Y-13925000D01*
X32530000Y-13775000D02*
X32380000Y-13925000D01*
D10*
X32895539Y-13941484D02*
X32781253Y-13941484D01*
X32838396Y-13941484D02*
X32838396Y-13741484D01*
X32838396Y-13741484D02*
X32819348Y-13770055D01*
X32819348Y-13770055D02*
X32800300Y-13789103D01*
X32800300Y-13789103D02*
X32781253Y-13798627D01*
X32981253Y-13922436D02*
X32990777Y-13931960D01*
X32990777Y-13931960D02*
X32981253Y-13941484D01*
X32981253Y-13941484D02*
X32971729Y-13931960D01*
X32971729Y-13931960D02*
X32981253Y-13922436D01*
X32981253Y-13922436D02*
X32981253Y-13941484D01*
X33171729Y-13741484D02*
X33076491Y-13741484D01*
X33076491Y-13741484D02*
X33066967Y-13836722D01*
X33066967Y-13836722D02*
X33076491Y-13827198D01*
X33076491Y-13827198D02*
X33095539Y-13817674D01*
X33095539Y-13817674D02*
X33143158Y-13817674D01*
X33143158Y-13817674D02*
X33162205Y-13827198D01*
X33162205Y-13827198D02*
X33171729Y-13836722D01*
X33171729Y-13836722D02*
X33181253Y-13855770D01*
X33181253Y-13855770D02*
X33181253Y-13903389D01*
X33181253Y-13903389D02*
X33171729Y-13922436D01*
X33171729Y-13922436D02*
X33162205Y-13931960D01*
X33162205Y-13931960D02*
X33143158Y-13941484D01*
X33143158Y-13941484D02*
X33095539Y-13941484D01*
X33095539Y-13941484D02*
X33076491Y-13931960D01*
X33076491Y-13931960D02*
X33066967Y-13922436D01*
X33305062Y-13741484D02*
X33324110Y-13741484D01*
X33324110Y-13741484D02*
X33343158Y-13751008D01*
X33343158Y-13751008D02*
X33352681Y-13760531D01*
X33352681Y-13760531D02*
X33362205Y-13779579D01*
X33362205Y-13779579D02*
X33371729Y-13817674D01*
X33371729Y-13817674D02*
X33371729Y-13865293D01*
X33371729Y-13865293D02*
X33362205Y-13903389D01*
X33362205Y-13903389D02*
X33352681Y-13922436D01*
X33352681Y-13922436D02*
X33343158Y-13931960D01*
X33343158Y-13931960D02*
X33324110Y-13941484D01*
X33324110Y-13941484D02*
X33305062Y-13941484D01*
X33305062Y-13941484D02*
X33286015Y-13931960D01*
X33286015Y-13931960D02*
X33276491Y-13922436D01*
X33276491Y-13922436D02*
X33266967Y-13903389D01*
X33266967Y-13903389D02*
X33257443Y-13865293D01*
X33257443Y-13865293D02*
X33257443Y-13817674D01*
X33257443Y-13817674D02*
X33266967Y-13779579D01*
X33266967Y-13779579D02*
X33276491Y-13760531D01*
X33276491Y-13760531D02*
X33286015Y-13751008D01*
X33286015Y-13751008D02*
X33305062Y-13741484D01*
X33495539Y-13741484D02*
X33514586Y-13741484D01*
X33514586Y-13741484D02*
X33533634Y-13751008D01*
X33533634Y-13751008D02*
X33543158Y-13760531D01*
X33543158Y-13760531D02*
X33552681Y-13779579D01*
X33552681Y-13779579D02*
X33562205Y-13817674D01*
X33562205Y-13817674D02*
X33562205Y-13865293D01*
X33562205Y-13865293D02*
X33552681Y-13903389D01*
X33552681Y-13903389D02*
X33543158Y-13922436D01*
X33543158Y-13922436D02*
X33533634Y-13931960D01*
X33533634Y-13931960D02*
X33514586Y-13941484D01*
X33514586Y-13941484D02*
X33495539Y-13941484D01*
X33495539Y-13941484D02*
X33476491Y-13931960D01*
X33476491Y-13931960D02*
X33466967Y-13922436D01*
X33466967Y-13922436D02*
X33457443Y-13903389D01*
X33457443Y-13903389D02*
X33447920Y-13865293D01*
X33447920Y-13865293D02*
X33447920Y-13817674D01*
X33447920Y-13817674D02*
X33457443Y-13779579D01*
X33457443Y-13779579D02*
X33466967Y-13760531D01*
X33466967Y-13760531D02*
X33476491Y-13751008D01*
X33476491Y-13751008D02*
X33495539Y-13741484D01*
X33647920Y-13941484D02*
X33647920Y-13808150D01*
X33647920Y-13827198D02*
X33657443Y-13817674D01*
X33657443Y-13817674D02*
X33676491Y-13808150D01*
X33676491Y-13808150D02*
X33705063Y-13808150D01*
X33705063Y-13808150D02*
X33724110Y-13817674D01*
X33724110Y-13817674D02*
X33733634Y-13836722D01*
X33733634Y-13836722D02*
X33733634Y-13941484D01*
X33733634Y-13836722D02*
X33743158Y-13817674D01*
X33743158Y-13817674D02*
X33762205Y-13808150D01*
X33762205Y-13808150D02*
X33790777Y-13808150D01*
X33790777Y-13808150D02*
X33809824Y-13817674D01*
X33809824Y-13817674D02*
X33819348Y-13836722D01*
X33819348Y-13836722D02*
X33819348Y-13941484D01*
X33914586Y-13941484D02*
X33914586Y-13808150D01*
X33914586Y-13827198D02*
X33924110Y-13817674D01*
X33924110Y-13817674D02*
X33943158Y-13808150D01*
X33943158Y-13808150D02*
X33971729Y-13808150D01*
X33971729Y-13808150D02*
X33990777Y-13817674D01*
X33990777Y-13817674D02*
X34000301Y-13836722D01*
X34000301Y-13836722D02*
X34000301Y-13941484D01*
X34000301Y-13836722D02*
X34009824Y-13817674D01*
X34009824Y-13817674D02*
X34028872Y-13808150D01*
X34028872Y-13808150D02*
X34057443Y-13808150D01*
X34057443Y-13808150D02*
X34076491Y-13817674D01*
X34076491Y-13817674D02*
X34086015Y-13836722D01*
X34086015Y-13836722D02*
X34086015Y-13941484D01*
X34476491Y-13731960D02*
X34305063Y-13989103D01*
X34733634Y-13741484D02*
X34752682Y-13741484D01*
X34752682Y-13741484D02*
X34771729Y-13751008D01*
X34771729Y-13751008D02*
X34781253Y-13760531D01*
X34781253Y-13760531D02*
X34790777Y-13779579D01*
X34790777Y-13779579D02*
X34800301Y-13817674D01*
X34800301Y-13817674D02*
X34800301Y-13865293D01*
X34800301Y-13865293D02*
X34790777Y-13903389D01*
X34790777Y-13903389D02*
X34781253Y-13922436D01*
X34781253Y-13922436D02*
X34771729Y-13931960D01*
X34771729Y-13931960D02*
X34752682Y-13941484D01*
X34752682Y-13941484D02*
X34733634Y-13941484D01*
X34733634Y-13941484D02*
X34714586Y-13931960D01*
X34714586Y-13931960D02*
X34705063Y-13922436D01*
X34705063Y-13922436D02*
X34695539Y-13903389D01*
X34695539Y-13903389D02*
X34686015Y-13865293D01*
X34686015Y-13865293D02*
X34686015Y-13817674D01*
X34686015Y-13817674D02*
X34695539Y-13779579D01*
X34695539Y-13779579D02*
X34705063Y-13760531D01*
X34705063Y-13760531D02*
X34714586Y-13751008D01*
X34714586Y-13751008D02*
X34733634Y-13741484D01*
X34886015Y-13922436D02*
X34895539Y-13931960D01*
X34895539Y-13931960D02*
X34886015Y-13941484D01*
X34886015Y-13941484D02*
X34876491Y-13931960D01*
X34876491Y-13931960D02*
X34886015Y-13922436D01*
X34886015Y-13922436D02*
X34886015Y-13941484D01*
X35019348Y-13741484D02*
X35038396Y-13741484D01*
X35038396Y-13741484D02*
X35057444Y-13751008D01*
X35057444Y-13751008D02*
X35066967Y-13760531D01*
X35066967Y-13760531D02*
X35076491Y-13779579D01*
X35076491Y-13779579D02*
X35086015Y-13817674D01*
X35086015Y-13817674D02*
X35086015Y-13865293D01*
X35086015Y-13865293D02*
X35076491Y-13903389D01*
X35076491Y-13903389D02*
X35066967Y-13922436D01*
X35066967Y-13922436D02*
X35057444Y-13931960D01*
X35057444Y-13931960D02*
X35038396Y-13941484D01*
X35038396Y-13941484D02*
X35019348Y-13941484D01*
X35019348Y-13941484D02*
X35000301Y-13931960D01*
X35000301Y-13931960D02*
X34990777Y-13922436D01*
X34990777Y-13922436D02*
X34981253Y-13903389D01*
X34981253Y-13903389D02*
X34971729Y-13865293D01*
X34971729Y-13865293D02*
X34971729Y-13817674D01*
X34971729Y-13817674D02*
X34981253Y-13779579D01*
X34981253Y-13779579D02*
X34990777Y-13760531D01*
X34990777Y-13760531D02*
X35000301Y-13751008D01*
X35000301Y-13751008D02*
X35019348Y-13741484D01*
X35266967Y-13741484D02*
X35171729Y-13741484D01*
X35171729Y-13741484D02*
X35162206Y-13836722D01*
X35162206Y-13836722D02*
X35171729Y-13827198D01*
X35171729Y-13827198D02*
X35190777Y-13817674D01*
X35190777Y-13817674D02*
X35238396Y-13817674D01*
X35238396Y-13817674D02*
X35257444Y-13827198D01*
X35257444Y-13827198D02*
X35266967Y-13836722D01*
X35266967Y-13836722D02*
X35276491Y-13855770D01*
X35276491Y-13855770D02*
X35276491Y-13903389D01*
X35276491Y-13903389D02*
X35266967Y-13922436D01*
X35266967Y-13922436D02*
X35257444Y-13931960D01*
X35257444Y-13931960D02*
X35238396Y-13941484D01*
X35238396Y-13941484D02*
X35190777Y-13941484D01*
X35190777Y-13941484D02*
X35171729Y-13931960D01*
X35171729Y-13931960D02*
X35162206Y-13922436D01*
X35371729Y-13941484D02*
X35409825Y-13941484D01*
X35409825Y-13941484D02*
X35428872Y-13931960D01*
X35428872Y-13931960D02*
X35438396Y-13922436D01*
X35438396Y-13922436D02*
X35457444Y-13893865D01*
X35457444Y-13893865D02*
X35466967Y-13855770D01*
X35466967Y-13855770D02*
X35466967Y-13779579D01*
X35466967Y-13779579D02*
X35457444Y-13760531D01*
X35457444Y-13760531D02*
X35447920Y-13751008D01*
X35447920Y-13751008D02*
X35428872Y-13741484D01*
X35428872Y-13741484D02*
X35390777Y-13741484D01*
X35390777Y-13741484D02*
X35371729Y-13751008D01*
X35371729Y-13751008D02*
X35362206Y-13760531D01*
X35362206Y-13760531D02*
X35352682Y-13779579D01*
X35352682Y-13779579D02*
X35352682Y-13827198D01*
X35352682Y-13827198D02*
X35362206Y-13846246D01*
X35362206Y-13846246D02*
X35371729Y-13855770D01*
X35371729Y-13855770D02*
X35390777Y-13865293D01*
X35390777Y-13865293D02*
X35428872Y-13865293D01*
X35428872Y-13865293D02*
X35447920Y-13855770D01*
X35447920Y-13855770D02*
X35457444Y-13846246D01*
X35457444Y-13846246D02*
X35466967Y-13827198D01*
X35657444Y-13941484D02*
X35543158Y-13941484D01*
X35600301Y-13941484D02*
X35600301Y-13741484D01*
X35600301Y-13741484D02*
X35581253Y-13770055D01*
X35581253Y-13770055D02*
X35562206Y-13789103D01*
X35562206Y-13789103D02*
X35543158Y-13798627D01*
X35733634Y-13741484D02*
X35733634Y-13779579D01*
X35809825Y-13741484D02*
X35809825Y-13779579D01*
X36105063Y-14017674D02*
X36095539Y-14008150D01*
X36095539Y-14008150D02*
X36076491Y-13979579D01*
X36076491Y-13979579D02*
X36066968Y-13960531D01*
X36066968Y-13960531D02*
X36057444Y-13931960D01*
X36057444Y-13931960D02*
X36047920Y-13884341D01*
X36047920Y-13884341D02*
X36047920Y-13846246D01*
X36047920Y-13846246D02*
X36057444Y-13798627D01*
X36057444Y-13798627D02*
X36066968Y-13770055D01*
X36066968Y-13770055D02*
X36076491Y-13751008D01*
X36076491Y-13751008D02*
X36095539Y-13722436D01*
X36095539Y-13722436D02*
X36105063Y-13712912D01*
X36171729Y-13760531D02*
X36181253Y-13751008D01*
X36181253Y-13751008D02*
X36200301Y-13741484D01*
X36200301Y-13741484D02*
X36247920Y-13741484D01*
X36247920Y-13741484D02*
X36266968Y-13751008D01*
X36266968Y-13751008D02*
X36276491Y-13760531D01*
X36276491Y-13760531D02*
X36286015Y-13779579D01*
X36286015Y-13779579D02*
X36286015Y-13798627D01*
X36286015Y-13798627D02*
X36276491Y-13827198D01*
X36276491Y-13827198D02*
X36162206Y-13941484D01*
X36162206Y-13941484D02*
X36286015Y-13941484D01*
X36524110Y-13941484D02*
X36524110Y-13741484D01*
X36609825Y-13941484D02*
X36609825Y-13836722D01*
X36609825Y-13836722D02*
X36600301Y-13817674D01*
X36600301Y-13817674D02*
X36581253Y-13808150D01*
X36581253Y-13808150D02*
X36552682Y-13808150D01*
X36552682Y-13808150D02*
X36533634Y-13817674D01*
X36533634Y-13817674D02*
X36524110Y-13827198D01*
X36733634Y-13941484D02*
X36714587Y-13931960D01*
X36714587Y-13931960D02*
X36705063Y-13922436D01*
X36705063Y-13922436D02*
X36695539Y-13903389D01*
X36695539Y-13903389D02*
X36695539Y-13846246D01*
X36695539Y-13846246D02*
X36705063Y-13827198D01*
X36705063Y-13827198D02*
X36714587Y-13817674D01*
X36714587Y-13817674D02*
X36733634Y-13808150D01*
X36733634Y-13808150D02*
X36762206Y-13808150D01*
X36762206Y-13808150D02*
X36781253Y-13817674D01*
X36781253Y-13817674D02*
X36790777Y-13827198D01*
X36790777Y-13827198D02*
X36800301Y-13846246D01*
X36800301Y-13846246D02*
X36800301Y-13903389D01*
X36800301Y-13903389D02*
X36790777Y-13922436D01*
X36790777Y-13922436D02*
X36781253Y-13931960D01*
X36781253Y-13931960D02*
X36762206Y-13941484D01*
X36762206Y-13941484D02*
X36733634Y-13941484D01*
X36914587Y-13941484D02*
X36895539Y-13931960D01*
X36895539Y-13931960D02*
X36886015Y-13912912D01*
X36886015Y-13912912D02*
X36886015Y-13741484D01*
X37066968Y-13931960D02*
X37047920Y-13941484D01*
X37047920Y-13941484D02*
X37009825Y-13941484D01*
X37009825Y-13941484D02*
X36990777Y-13931960D01*
X36990777Y-13931960D02*
X36981253Y-13912912D01*
X36981253Y-13912912D02*
X36981253Y-13836722D01*
X36981253Y-13836722D02*
X36990777Y-13817674D01*
X36990777Y-13817674D02*
X37009825Y-13808150D01*
X37009825Y-13808150D02*
X37047920Y-13808150D01*
X37047920Y-13808150D02*
X37066968Y-13817674D01*
X37066968Y-13817674D02*
X37076491Y-13836722D01*
X37076491Y-13836722D02*
X37076491Y-13855770D01*
X37076491Y-13855770D02*
X36981253Y-13874817D01*
X37152682Y-13931960D02*
X37171730Y-13941484D01*
X37171730Y-13941484D02*
X37209825Y-13941484D01*
X37209825Y-13941484D02*
X37228872Y-13931960D01*
X37228872Y-13931960D02*
X37238396Y-13912912D01*
X37238396Y-13912912D02*
X37238396Y-13903389D01*
X37238396Y-13903389D02*
X37228872Y-13884341D01*
X37228872Y-13884341D02*
X37209825Y-13874817D01*
X37209825Y-13874817D02*
X37181253Y-13874817D01*
X37181253Y-13874817D02*
X37162206Y-13865293D01*
X37162206Y-13865293D02*
X37152682Y-13846246D01*
X37152682Y-13846246D02*
X37152682Y-13836722D01*
X37152682Y-13836722D02*
X37162206Y-13817674D01*
X37162206Y-13817674D02*
X37181253Y-13808150D01*
X37181253Y-13808150D02*
X37209825Y-13808150D01*
X37209825Y-13808150D02*
X37228872Y-13817674D01*
X37305063Y-14017674D02*
X37314587Y-14008150D01*
X37314587Y-14008150D02*
X37333634Y-13979579D01*
X37333634Y-13979579D02*
X37343158Y-13960531D01*
X37343158Y-13960531D02*
X37352682Y-13931960D01*
X37352682Y-13931960D02*
X37362206Y-13884341D01*
X37362206Y-13884341D02*
X37362206Y-13846246D01*
X37362206Y-13846246D02*
X37352682Y-13798627D01*
X37352682Y-13798627D02*
X37343158Y-13770055D01*
X37343158Y-13770055D02*
X37333634Y-13751008D01*
X37333634Y-13751008D02*
X37314587Y-13722436D01*
X37314587Y-13722436D02*
X37305063Y-13712912D01*
X37666968Y-14017674D02*
X37657444Y-14008150D01*
X37657444Y-14008150D02*
X37638396Y-13979579D01*
X37638396Y-13979579D02*
X37628872Y-13960531D01*
X37628872Y-13960531D02*
X37619349Y-13931960D01*
X37619349Y-13931960D02*
X37609825Y-13884341D01*
X37609825Y-13884341D02*
X37609825Y-13846246D01*
X37609825Y-13846246D02*
X37619349Y-13798627D01*
X37619349Y-13798627D02*
X37628872Y-13770055D01*
X37628872Y-13770055D02*
X37638396Y-13751008D01*
X37638396Y-13751008D02*
X37657444Y-13722436D01*
X37657444Y-13722436D02*
X37666968Y-13712912D01*
X37743158Y-13808150D02*
X37743158Y-13941484D01*
X37743158Y-13827198D02*
X37752682Y-13817674D01*
X37752682Y-13817674D02*
X37771730Y-13808150D01*
X37771730Y-13808150D02*
X37800301Y-13808150D01*
X37800301Y-13808150D02*
X37819349Y-13817674D01*
X37819349Y-13817674D02*
X37828872Y-13836722D01*
X37828872Y-13836722D02*
X37828872Y-13941484D01*
X37952682Y-13941484D02*
X37933634Y-13931960D01*
X37933634Y-13931960D02*
X37924111Y-13922436D01*
X37924111Y-13922436D02*
X37914587Y-13903389D01*
X37914587Y-13903389D02*
X37914587Y-13846246D01*
X37914587Y-13846246D02*
X37924111Y-13827198D01*
X37924111Y-13827198D02*
X37933634Y-13817674D01*
X37933634Y-13817674D02*
X37952682Y-13808150D01*
X37952682Y-13808150D02*
X37981253Y-13808150D01*
X37981253Y-13808150D02*
X38000301Y-13817674D01*
X38000301Y-13817674D02*
X38009825Y-13827198D01*
X38009825Y-13827198D02*
X38019349Y-13846246D01*
X38019349Y-13846246D02*
X38019349Y-13903389D01*
X38019349Y-13903389D02*
X38009825Y-13922436D01*
X38009825Y-13922436D02*
X38000301Y-13931960D01*
X38000301Y-13931960D02*
X37981253Y-13941484D01*
X37981253Y-13941484D02*
X37952682Y-13941484D01*
X38076492Y-13808150D02*
X38152682Y-13808150D01*
X38105063Y-13741484D02*
X38105063Y-13912912D01*
X38105063Y-13912912D02*
X38114587Y-13931960D01*
X38114587Y-13931960D02*
X38133634Y-13941484D01*
X38133634Y-13941484D02*
X38152682Y-13941484D01*
X38371730Y-13808150D02*
X38371730Y-14008150D01*
X38371730Y-13817674D02*
X38390777Y-13808150D01*
X38390777Y-13808150D02*
X38428873Y-13808150D01*
X38428873Y-13808150D02*
X38447920Y-13817674D01*
X38447920Y-13817674D02*
X38457444Y-13827198D01*
X38457444Y-13827198D02*
X38466968Y-13846246D01*
X38466968Y-13846246D02*
X38466968Y-13903389D01*
X38466968Y-13903389D02*
X38457444Y-13922436D01*
X38457444Y-13922436D02*
X38447920Y-13931960D01*
X38447920Y-13931960D02*
X38428873Y-13941484D01*
X38428873Y-13941484D02*
X38390777Y-13941484D01*
X38390777Y-13941484D02*
X38371730Y-13931960D01*
X38581253Y-13941484D02*
X38562206Y-13931960D01*
X38562206Y-13931960D02*
X38552682Y-13912912D01*
X38552682Y-13912912D02*
X38552682Y-13741484D01*
X38743158Y-13941484D02*
X38743158Y-13836722D01*
X38743158Y-13836722D02*
X38733634Y-13817674D01*
X38733634Y-13817674D02*
X38714587Y-13808150D01*
X38714587Y-13808150D02*
X38676492Y-13808150D01*
X38676492Y-13808150D02*
X38657444Y-13817674D01*
X38743158Y-13931960D02*
X38724111Y-13941484D01*
X38724111Y-13941484D02*
X38676492Y-13941484D01*
X38676492Y-13941484D02*
X38657444Y-13931960D01*
X38657444Y-13931960D02*
X38647920Y-13912912D01*
X38647920Y-13912912D02*
X38647920Y-13893865D01*
X38647920Y-13893865D02*
X38657444Y-13874817D01*
X38657444Y-13874817D02*
X38676492Y-13865293D01*
X38676492Y-13865293D02*
X38724111Y-13865293D01*
X38724111Y-13865293D02*
X38743158Y-13855770D01*
X38809825Y-13808150D02*
X38886015Y-13808150D01*
X38838396Y-13741484D02*
X38838396Y-13912912D01*
X38838396Y-13912912D02*
X38847920Y-13931960D01*
X38847920Y-13931960D02*
X38866968Y-13941484D01*
X38866968Y-13941484D02*
X38886015Y-13941484D01*
X39028873Y-13931960D02*
X39009825Y-13941484D01*
X39009825Y-13941484D02*
X38971730Y-13941484D01*
X38971730Y-13941484D02*
X38952682Y-13931960D01*
X38952682Y-13931960D02*
X38943158Y-13912912D01*
X38943158Y-13912912D02*
X38943158Y-13836722D01*
X38943158Y-13836722D02*
X38952682Y-13817674D01*
X38952682Y-13817674D02*
X38971730Y-13808150D01*
X38971730Y-13808150D02*
X39009825Y-13808150D01*
X39009825Y-13808150D02*
X39028873Y-13817674D01*
X39028873Y-13817674D02*
X39038396Y-13836722D01*
X39038396Y-13836722D02*
X39038396Y-13855770D01*
X39038396Y-13855770D02*
X38943158Y-13874817D01*
X39209825Y-13941484D02*
X39209825Y-13741484D01*
X39209825Y-13931960D02*
X39190777Y-13941484D01*
X39190777Y-13941484D02*
X39152682Y-13941484D01*
X39152682Y-13941484D02*
X39133634Y-13931960D01*
X39133634Y-13931960D02*
X39124111Y-13922436D01*
X39124111Y-13922436D02*
X39114587Y-13903389D01*
X39114587Y-13903389D02*
X39114587Y-13846246D01*
X39114587Y-13846246D02*
X39124111Y-13827198D01*
X39124111Y-13827198D02*
X39133634Y-13817674D01*
X39133634Y-13817674D02*
X39152682Y-13808150D01*
X39152682Y-13808150D02*
X39190777Y-13808150D01*
X39190777Y-13808150D02*
X39209825Y-13817674D01*
X39286015Y-14017674D02*
X39295539Y-14008150D01*
X39295539Y-14008150D02*
X39314587Y-13979579D01*
X39314587Y-13979579D02*
X39324111Y-13960531D01*
X39324111Y-13960531D02*
X39333634Y-13931960D01*
X39333634Y-13931960D02*
X39343158Y-13884341D01*
X39343158Y-13884341D02*
X39343158Y-13846246D01*
X39343158Y-13846246D02*
X39333634Y-13798627D01*
X39333634Y-13798627D02*
X39324111Y-13770055D01*
X39324111Y-13770055D02*
X39314587Y-13751008D01*
X39314587Y-13751008D02*
X39295539Y-13722436D01*
X39295539Y-13722436D02*
X39286015Y-13712912D01*
D12*
X32530000Y-14120000D02*
G75*
G02*
X32359820Y-14120000I-85090J0D01*
G01*
X32359820Y-14120000D02*
G75*
G02*
X32530000Y-14120000I85090J0D01*
G01*
D10*
X32895539Y-14211484D02*
X32781253Y-14211484D01*
X32838396Y-14211484D02*
X32838396Y-14011484D01*
X32838396Y-14011484D02*
X32819348Y-14040055D01*
X32819348Y-14040055D02*
X32800300Y-14059103D01*
X32800300Y-14059103D02*
X32781253Y-14068627D01*
X32981253Y-14192436D02*
X32990777Y-14201960D01*
X32990777Y-14201960D02*
X32981253Y-14211484D01*
X32981253Y-14211484D02*
X32971729Y-14201960D01*
X32971729Y-14201960D02*
X32981253Y-14192436D01*
X32981253Y-14192436D02*
X32981253Y-14211484D01*
X33057443Y-14011484D02*
X33190777Y-14011484D01*
X33190777Y-14011484D02*
X33105062Y-14211484D01*
X33305062Y-14011484D02*
X33324110Y-14011484D01*
X33324110Y-14011484D02*
X33343158Y-14021008D01*
X33343158Y-14021008D02*
X33352681Y-14030531D01*
X33352681Y-14030531D02*
X33362205Y-14049579D01*
X33362205Y-14049579D02*
X33371729Y-14087674D01*
X33371729Y-14087674D02*
X33371729Y-14135293D01*
X33371729Y-14135293D02*
X33362205Y-14173389D01*
X33362205Y-14173389D02*
X33352681Y-14192436D01*
X33352681Y-14192436D02*
X33343158Y-14201960D01*
X33343158Y-14201960D02*
X33324110Y-14211484D01*
X33324110Y-14211484D02*
X33305062Y-14211484D01*
X33305062Y-14211484D02*
X33286015Y-14201960D01*
X33286015Y-14201960D02*
X33276491Y-14192436D01*
X33276491Y-14192436D02*
X33266967Y-14173389D01*
X33266967Y-14173389D02*
X33257443Y-14135293D01*
X33257443Y-14135293D02*
X33257443Y-14087674D01*
X33257443Y-14087674D02*
X33266967Y-14049579D01*
X33266967Y-14049579D02*
X33276491Y-14030531D01*
X33276491Y-14030531D02*
X33286015Y-14021008D01*
X33286015Y-14021008D02*
X33305062Y-14011484D01*
X33447920Y-14030531D02*
X33457443Y-14021008D01*
X33457443Y-14021008D02*
X33476491Y-14011484D01*
X33476491Y-14011484D02*
X33524110Y-14011484D01*
X33524110Y-14011484D02*
X33543158Y-14021008D01*
X33543158Y-14021008D02*
X33552681Y-14030531D01*
X33552681Y-14030531D02*
X33562205Y-14049579D01*
X33562205Y-14049579D02*
X33562205Y-14068627D01*
X33562205Y-14068627D02*
X33552681Y-14097198D01*
X33552681Y-14097198D02*
X33438396Y-14211484D01*
X33438396Y-14211484D02*
X33562205Y-14211484D01*
X33647920Y-14211484D02*
X33647920Y-14078150D01*
X33647920Y-14097198D02*
X33657443Y-14087674D01*
X33657443Y-14087674D02*
X33676491Y-14078150D01*
X33676491Y-14078150D02*
X33705063Y-14078150D01*
X33705063Y-14078150D02*
X33724110Y-14087674D01*
X33724110Y-14087674D02*
X33733634Y-14106722D01*
X33733634Y-14106722D02*
X33733634Y-14211484D01*
X33733634Y-14106722D02*
X33743158Y-14087674D01*
X33743158Y-14087674D02*
X33762205Y-14078150D01*
X33762205Y-14078150D02*
X33790777Y-14078150D01*
X33790777Y-14078150D02*
X33809824Y-14087674D01*
X33809824Y-14087674D02*
X33819348Y-14106722D01*
X33819348Y-14106722D02*
X33819348Y-14211484D01*
X33914586Y-14211484D02*
X33914586Y-14078150D01*
X33914586Y-14097198D02*
X33924110Y-14087674D01*
X33924110Y-14087674D02*
X33943158Y-14078150D01*
X33943158Y-14078150D02*
X33971729Y-14078150D01*
X33971729Y-14078150D02*
X33990777Y-14087674D01*
X33990777Y-14087674D02*
X34000301Y-14106722D01*
X34000301Y-14106722D02*
X34000301Y-14211484D01*
X34000301Y-14106722D02*
X34009824Y-14087674D01*
X34009824Y-14087674D02*
X34028872Y-14078150D01*
X34028872Y-14078150D02*
X34057443Y-14078150D01*
X34057443Y-14078150D02*
X34076491Y-14087674D01*
X34076491Y-14087674D02*
X34086015Y-14106722D01*
X34086015Y-14106722D02*
X34086015Y-14211484D01*
X34476491Y-14001960D02*
X34305063Y-14259103D01*
X34733634Y-14011484D02*
X34752682Y-14011484D01*
X34752682Y-14011484D02*
X34771729Y-14021008D01*
X34771729Y-14021008D02*
X34781253Y-14030531D01*
X34781253Y-14030531D02*
X34790777Y-14049579D01*
X34790777Y-14049579D02*
X34800301Y-14087674D01*
X34800301Y-14087674D02*
X34800301Y-14135293D01*
X34800301Y-14135293D02*
X34790777Y-14173389D01*
X34790777Y-14173389D02*
X34781253Y-14192436D01*
X34781253Y-14192436D02*
X34771729Y-14201960D01*
X34771729Y-14201960D02*
X34752682Y-14211484D01*
X34752682Y-14211484D02*
X34733634Y-14211484D01*
X34733634Y-14211484D02*
X34714586Y-14201960D01*
X34714586Y-14201960D02*
X34705063Y-14192436D01*
X34705063Y-14192436D02*
X34695539Y-14173389D01*
X34695539Y-14173389D02*
X34686015Y-14135293D01*
X34686015Y-14135293D02*
X34686015Y-14087674D01*
X34686015Y-14087674D02*
X34695539Y-14049579D01*
X34695539Y-14049579D02*
X34705063Y-14030531D01*
X34705063Y-14030531D02*
X34714586Y-14021008D01*
X34714586Y-14021008D02*
X34733634Y-14011484D01*
X34886015Y-14192436D02*
X34895539Y-14201960D01*
X34895539Y-14201960D02*
X34886015Y-14211484D01*
X34886015Y-14211484D02*
X34876491Y-14201960D01*
X34876491Y-14201960D02*
X34886015Y-14192436D01*
X34886015Y-14192436D02*
X34886015Y-14211484D01*
X35019348Y-14011484D02*
X35038396Y-14011484D01*
X35038396Y-14011484D02*
X35057444Y-14021008D01*
X35057444Y-14021008D02*
X35066967Y-14030531D01*
X35066967Y-14030531D02*
X35076491Y-14049579D01*
X35076491Y-14049579D02*
X35086015Y-14087674D01*
X35086015Y-14087674D02*
X35086015Y-14135293D01*
X35086015Y-14135293D02*
X35076491Y-14173389D01*
X35076491Y-14173389D02*
X35066967Y-14192436D01*
X35066967Y-14192436D02*
X35057444Y-14201960D01*
X35057444Y-14201960D02*
X35038396Y-14211484D01*
X35038396Y-14211484D02*
X35019348Y-14211484D01*
X35019348Y-14211484D02*
X35000301Y-14201960D01*
X35000301Y-14201960D02*
X34990777Y-14192436D01*
X34990777Y-14192436D02*
X34981253Y-14173389D01*
X34981253Y-14173389D02*
X34971729Y-14135293D01*
X34971729Y-14135293D02*
X34971729Y-14087674D01*
X34971729Y-14087674D02*
X34981253Y-14049579D01*
X34981253Y-14049579D02*
X34990777Y-14030531D01*
X34990777Y-14030531D02*
X35000301Y-14021008D01*
X35000301Y-14021008D02*
X35019348Y-14011484D01*
X35257444Y-14011484D02*
X35219348Y-14011484D01*
X35219348Y-14011484D02*
X35200301Y-14021008D01*
X35200301Y-14021008D02*
X35190777Y-14030531D01*
X35190777Y-14030531D02*
X35171729Y-14059103D01*
X35171729Y-14059103D02*
X35162206Y-14097198D01*
X35162206Y-14097198D02*
X35162206Y-14173389D01*
X35162206Y-14173389D02*
X35171729Y-14192436D01*
X35171729Y-14192436D02*
X35181253Y-14201960D01*
X35181253Y-14201960D02*
X35200301Y-14211484D01*
X35200301Y-14211484D02*
X35238396Y-14211484D01*
X35238396Y-14211484D02*
X35257444Y-14201960D01*
X35257444Y-14201960D02*
X35266967Y-14192436D01*
X35266967Y-14192436D02*
X35276491Y-14173389D01*
X35276491Y-14173389D02*
X35276491Y-14125770D01*
X35276491Y-14125770D02*
X35266967Y-14106722D01*
X35266967Y-14106722D02*
X35257444Y-14097198D01*
X35257444Y-14097198D02*
X35238396Y-14087674D01*
X35238396Y-14087674D02*
X35200301Y-14087674D01*
X35200301Y-14087674D02*
X35181253Y-14097198D01*
X35181253Y-14097198D02*
X35171729Y-14106722D01*
X35171729Y-14106722D02*
X35162206Y-14125770D01*
X35343158Y-14011484D02*
X35476491Y-14011484D01*
X35476491Y-14011484D02*
X35390777Y-14211484D01*
X35590777Y-14011484D02*
X35609825Y-14011484D01*
X35609825Y-14011484D02*
X35628872Y-14021008D01*
X35628872Y-14021008D02*
X35638396Y-14030531D01*
X35638396Y-14030531D02*
X35647920Y-14049579D01*
X35647920Y-14049579D02*
X35657444Y-14087674D01*
X35657444Y-14087674D02*
X35657444Y-14135293D01*
X35657444Y-14135293D02*
X35647920Y-14173389D01*
X35647920Y-14173389D02*
X35638396Y-14192436D01*
X35638396Y-14192436D02*
X35628872Y-14201960D01*
X35628872Y-14201960D02*
X35609825Y-14211484D01*
X35609825Y-14211484D02*
X35590777Y-14211484D01*
X35590777Y-14211484D02*
X35571729Y-14201960D01*
X35571729Y-14201960D02*
X35562206Y-14192436D01*
X35562206Y-14192436D02*
X35552682Y-14173389D01*
X35552682Y-14173389D02*
X35543158Y-14135293D01*
X35543158Y-14135293D02*
X35543158Y-14087674D01*
X35543158Y-14087674D02*
X35552682Y-14049579D01*
X35552682Y-14049579D02*
X35562206Y-14030531D01*
X35562206Y-14030531D02*
X35571729Y-14021008D01*
X35571729Y-14021008D02*
X35590777Y-14011484D01*
X35733634Y-14011484D02*
X35733634Y-14049579D01*
X35809825Y-14011484D02*
X35809825Y-14049579D01*
X36105063Y-14287674D02*
X36095539Y-14278150D01*
X36095539Y-14278150D02*
X36076491Y-14249579D01*
X36076491Y-14249579D02*
X36066968Y-14230531D01*
X36066968Y-14230531D02*
X36057444Y-14201960D01*
X36057444Y-14201960D02*
X36047920Y-14154341D01*
X36047920Y-14154341D02*
X36047920Y-14116246D01*
X36047920Y-14116246D02*
X36057444Y-14068627D01*
X36057444Y-14068627D02*
X36066968Y-14040055D01*
X36066968Y-14040055D02*
X36076491Y-14021008D01*
X36076491Y-14021008D02*
X36095539Y-13992436D01*
X36095539Y-13992436D02*
X36105063Y-13982912D01*
X36266968Y-14078150D02*
X36266968Y-14211484D01*
X36219348Y-14001960D02*
X36171729Y-14144817D01*
X36171729Y-14144817D02*
X36295539Y-14144817D01*
X36400301Y-14097198D02*
X36381253Y-14087674D01*
X36381253Y-14087674D02*
X36371729Y-14078150D01*
X36371729Y-14078150D02*
X36362206Y-14059103D01*
X36362206Y-14059103D02*
X36362206Y-14049579D01*
X36362206Y-14049579D02*
X36371729Y-14030531D01*
X36371729Y-14030531D02*
X36381253Y-14021008D01*
X36381253Y-14021008D02*
X36400301Y-14011484D01*
X36400301Y-14011484D02*
X36438396Y-14011484D01*
X36438396Y-14011484D02*
X36457444Y-14021008D01*
X36457444Y-14021008D02*
X36466968Y-14030531D01*
X36466968Y-14030531D02*
X36476491Y-14049579D01*
X36476491Y-14049579D02*
X36476491Y-14059103D01*
X36476491Y-14059103D02*
X36466968Y-14078150D01*
X36466968Y-14078150D02*
X36457444Y-14087674D01*
X36457444Y-14087674D02*
X36438396Y-14097198D01*
X36438396Y-14097198D02*
X36400301Y-14097198D01*
X36400301Y-14097198D02*
X36381253Y-14106722D01*
X36381253Y-14106722D02*
X36371729Y-14116246D01*
X36371729Y-14116246D02*
X36362206Y-14135293D01*
X36362206Y-14135293D02*
X36362206Y-14173389D01*
X36362206Y-14173389D02*
X36371729Y-14192436D01*
X36371729Y-14192436D02*
X36381253Y-14201960D01*
X36381253Y-14201960D02*
X36400301Y-14211484D01*
X36400301Y-14211484D02*
X36438396Y-14211484D01*
X36438396Y-14211484D02*
X36457444Y-14201960D01*
X36457444Y-14201960D02*
X36466968Y-14192436D01*
X36466968Y-14192436D02*
X36476491Y-14173389D01*
X36476491Y-14173389D02*
X36476491Y-14135293D01*
X36476491Y-14135293D02*
X36466968Y-14116246D01*
X36466968Y-14116246D02*
X36457444Y-14106722D01*
X36457444Y-14106722D02*
X36438396Y-14097198D01*
X36714587Y-14211484D02*
X36714587Y-14011484D01*
X36800301Y-14211484D02*
X36800301Y-14106722D01*
X36800301Y-14106722D02*
X36790777Y-14087674D01*
X36790777Y-14087674D02*
X36771730Y-14078150D01*
X36771730Y-14078150D02*
X36743158Y-14078150D01*
X36743158Y-14078150D02*
X36724110Y-14087674D01*
X36724110Y-14087674D02*
X36714587Y-14097198D01*
X36924110Y-14211484D02*
X36905063Y-14201960D01*
X36905063Y-14201960D02*
X36895539Y-14192436D01*
X36895539Y-14192436D02*
X36886015Y-14173389D01*
X36886015Y-14173389D02*
X36886015Y-14116246D01*
X36886015Y-14116246D02*
X36895539Y-14097198D01*
X36895539Y-14097198D02*
X36905063Y-14087674D01*
X36905063Y-14087674D02*
X36924110Y-14078150D01*
X36924110Y-14078150D02*
X36952682Y-14078150D01*
X36952682Y-14078150D02*
X36971730Y-14087674D01*
X36971730Y-14087674D02*
X36981253Y-14097198D01*
X36981253Y-14097198D02*
X36990777Y-14116246D01*
X36990777Y-14116246D02*
X36990777Y-14173389D01*
X36990777Y-14173389D02*
X36981253Y-14192436D01*
X36981253Y-14192436D02*
X36971730Y-14201960D01*
X36971730Y-14201960D02*
X36952682Y-14211484D01*
X36952682Y-14211484D02*
X36924110Y-14211484D01*
X37105063Y-14211484D02*
X37086015Y-14201960D01*
X37086015Y-14201960D02*
X37076491Y-14182912D01*
X37076491Y-14182912D02*
X37076491Y-14011484D01*
X37257444Y-14201960D02*
X37238396Y-14211484D01*
X37238396Y-14211484D02*
X37200301Y-14211484D01*
X37200301Y-14211484D02*
X37181253Y-14201960D01*
X37181253Y-14201960D02*
X37171730Y-14182912D01*
X37171730Y-14182912D02*
X37171730Y-14106722D01*
X37171730Y-14106722D02*
X37181253Y-14087674D01*
X37181253Y-14087674D02*
X37200301Y-14078150D01*
X37200301Y-14078150D02*
X37238396Y-14078150D01*
X37238396Y-14078150D02*
X37257444Y-14087674D01*
X37257444Y-14087674D02*
X37266968Y-14106722D01*
X37266968Y-14106722D02*
X37266968Y-14125770D01*
X37266968Y-14125770D02*
X37171730Y-14144817D01*
X37343158Y-14201960D02*
X37362206Y-14211484D01*
X37362206Y-14211484D02*
X37400301Y-14211484D01*
X37400301Y-14211484D02*
X37419349Y-14201960D01*
X37419349Y-14201960D02*
X37428872Y-14182912D01*
X37428872Y-14182912D02*
X37428872Y-14173389D01*
X37428872Y-14173389D02*
X37419349Y-14154341D01*
X37419349Y-14154341D02*
X37400301Y-14144817D01*
X37400301Y-14144817D02*
X37371730Y-14144817D01*
X37371730Y-14144817D02*
X37352682Y-14135293D01*
X37352682Y-14135293D02*
X37343158Y-14116246D01*
X37343158Y-14116246D02*
X37343158Y-14106722D01*
X37343158Y-14106722D02*
X37352682Y-14087674D01*
X37352682Y-14087674D02*
X37371730Y-14078150D01*
X37371730Y-14078150D02*
X37400301Y-14078150D01*
X37400301Y-14078150D02*
X37419349Y-14087674D01*
X37495539Y-14287674D02*
X37505063Y-14278150D01*
X37505063Y-14278150D02*
X37524111Y-14249579D01*
X37524111Y-14249579D02*
X37533634Y-14230531D01*
X37533634Y-14230531D02*
X37543158Y-14201960D01*
X37543158Y-14201960D02*
X37552682Y-14154341D01*
X37552682Y-14154341D02*
X37552682Y-14116246D01*
X37552682Y-14116246D02*
X37543158Y-14068627D01*
X37543158Y-14068627D02*
X37533634Y-14040055D01*
X37533634Y-14040055D02*
X37524111Y-14021008D01*
X37524111Y-14021008D02*
X37505063Y-13992436D01*
X37505063Y-13992436D02*
X37495539Y-13982912D01*
X37857444Y-14287674D02*
X37847920Y-14278150D01*
X37847920Y-14278150D02*
X37828872Y-14249579D01*
X37828872Y-14249579D02*
X37819349Y-14230531D01*
X37819349Y-14230531D02*
X37809825Y-14201960D01*
X37809825Y-14201960D02*
X37800301Y-14154341D01*
X37800301Y-14154341D02*
X37800301Y-14116246D01*
X37800301Y-14116246D02*
X37809825Y-14068627D01*
X37809825Y-14068627D02*
X37819349Y-14040055D01*
X37819349Y-14040055D02*
X37828872Y-14021008D01*
X37828872Y-14021008D02*
X37847920Y-13992436D01*
X37847920Y-13992436D02*
X37857444Y-13982912D01*
X37933634Y-14078150D02*
X37933634Y-14211484D01*
X37933634Y-14097198D02*
X37943158Y-14087674D01*
X37943158Y-14087674D02*
X37962206Y-14078150D01*
X37962206Y-14078150D02*
X37990777Y-14078150D01*
X37990777Y-14078150D02*
X38009825Y-14087674D01*
X38009825Y-14087674D02*
X38019349Y-14106722D01*
X38019349Y-14106722D02*
X38019349Y-14211484D01*
X38143158Y-14211484D02*
X38124111Y-14201960D01*
X38124111Y-14201960D02*
X38114587Y-14192436D01*
X38114587Y-14192436D02*
X38105063Y-14173389D01*
X38105063Y-14173389D02*
X38105063Y-14116246D01*
X38105063Y-14116246D02*
X38114587Y-14097198D01*
X38114587Y-14097198D02*
X38124111Y-14087674D01*
X38124111Y-14087674D02*
X38143158Y-14078150D01*
X38143158Y-14078150D02*
X38171730Y-14078150D01*
X38171730Y-14078150D02*
X38190777Y-14087674D01*
X38190777Y-14087674D02*
X38200301Y-14097198D01*
X38200301Y-14097198D02*
X38209825Y-14116246D01*
X38209825Y-14116246D02*
X38209825Y-14173389D01*
X38209825Y-14173389D02*
X38200301Y-14192436D01*
X38200301Y-14192436D02*
X38190777Y-14201960D01*
X38190777Y-14201960D02*
X38171730Y-14211484D01*
X38171730Y-14211484D02*
X38143158Y-14211484D01*
X38266968Y-14078150D02*
X38343158Y-14078150D01*
X38295539Y-14011484D02*
X38295539Y-14182912D01*
X38295539Y-14182912D02*
X38305063Y-14201960D01*
X38305063Y-14201960D02*
X38324111Y-14211484D01*
X38324111Y-14211484D02*
X38343158Y-14211484D01*
X38562206Y-14078150D02*
X38562206Y-14278150D01*
X38562206Y-14087674D02*
X38581253Y-14078150D01*
X38581253Y-14078150D02*
X38619349Y-14078150D01*
X38619349Y-14078150D02*
X38638396Y-14087674D01*
X38638396Y-14087674D02*
X38647920Y-14097198D01*
X38647920Y-14097198D02*
X38657444Y-14116246D01*
X38657444Y-14116246D02*
X38657444Y-14173389D01*
X38657444Y-14173389D02*
X38647920Y-14192436D01*
X38647920Y-14192436D02*
X38638396Y-14201960D01*
X38638396Y-14201960D02*
X38619349Y-14211484D01*
X38619349Y-14211484D02*
X38581253Y-14211484D01*
X38581253Y-14211484D02*
X38562206Y-14201960D01*
X38771730Y-14211484D02*
X38752682Y-14201960D01*
X38752682Y-14201960D02*
X38743158Y-14182912D01*
X38743158Y-14182912D02*
X38743158Y-14011484D01*
X38933634Y-14211484D02*
X38933634Y-14106722D01*
X38933634Y-14106722D02*
X38924111Y-14087674D01*
X38924111Y-14087674D02*
X38905063Y-14078150D01*
X38905063Y-14078150D02*
X38866968Y-14078150D01*
X38866968Y-14078150D02*
X38847920Y-14087674D01*
X38933634Y-14201960D02*
X38914587Y-14211484D01*
X38914587Y-14211484D02*
X38866968Y-14211484D01*
X38866968Y-14211484D02*
X38847920Y-14201960D01*
X38847920Y-14201960D02*
X38838396Y-14182912D01*
X38838396Y-14182912D02*
X38838396Y-14163865D01*
X38838396Y-14163865D02*
X38847920Y-14144817D01*
X38847920Y-14144817D02*
X38866968Y-14135293D01*
X38866968Y-14135293D02*
X38914587Y-14135293D01*
X38914587Y-14135293D02*
X38933634Y-14125770D01*
X39000301Y-14078150D02*
X39076492Y-14078150D01*
X39028873Y-14011484D02*
X39028873Y-14182912D01*
X39028873Y-14182912D02*
X39038396Y-14201960D01*
X39038396Y-14201960D02*
X39057444Y-14211484D01*
X39057444Y-14211484D02*
X39076492Y-14211484D01*
X39219349Y-14201960D02*
X39200301Y-14211484D01*
X39200301Y-14211484D02*
X39162206Y-14211484D01*
X39162206Y-14211484D02*
X39143158Y-14201960D01*
X39143158Y-14201960D02*
X39133634Y-14182912D01*
X39133634Y-14182912D02*
X39133634Y-14106722D01*
X39133634Y-14106722D02*
X39143158Y-14087674D01*
X39143158Y-14087674D02*
X39162206Y-14078150D01*
X39162206Y-14078150D02*
X39200301Y-14078150D01*
X39200301Y-14078150D02*
X39219349Y-14087674D01*
X39219349Y-14087674D02*
X39228873Y-14106722D01*
X39228873Y-14106722D02*
X39228873Y-14125770D01*
X39228873Y-14125770D02*
X39133634Y-14144817D01*
X39400301Y-14211484D02*
X39400301Y-14011484D01*
X39400301Y-14201960D02*
X39381254Y-14211484D01*
X39381254Y-14211484D02*
X39343158Y-14211484D01*
X39343158Y-14211484D02*
X39324111Y-14201960D01*
X39324111Y-14201960D02*
X39314587Y-14192436D01*
X39314587Y-14192436D02*
X39305063Y-14173389D01*
X39305063Y-14173389D02*
X39305063Y-14116246D01*
X39305063Y-14116246D02*
X39314587Y-14097198D01*
X39314587Y-14097198D02*
X39324111Y-14087674D01*
X39324111Y-14087674D02*
X39343158Y-14078150D01*
X39343158Y-14078150D02*
X39381254Y-14078150D01*
X39381254Y-14078150D02*
X39400301Y-14087674D01*
X39476492Y-14287674D02*
X39486015Y-14278150D01*
X39486015Y-14278150D02*
X39505063Y-14249579D01*
X39505063Y-14249579D02*
X39514587Y-14230531D01*
X39514587Y-14230531D02*
X39524111Y-14201960D01*
X39524111Y-14201960D02*
X39533634Y-14154341D01*
X39533634Y-14154341D02*
X39533634Y-14116246D01*
X39533634Y-14116246D02*
X39524111Y-14068627D01*
X39524111Y-14068627D02*
X39514587Y-14040055D01*
X39514587Y-14040055D02*
X39505063Y-14021008D01*
X39505063Y-14021008D02*
X39486015Y-13992436D01*
X39486015Y-13992436D02*
X39476492Y-13982912D01*
D13*
X32440000Y-14320180D02*
X32440000Y-14500180D01*
X32350000Y-14410180D02*
X32530000Y-14410180D01*
D10*
X32895539Y-14501664D02*
X32781253Y-14501664D01*
X32838396Y-14501664D02*
X32838396Y-14301664D01*
X32838396Y-14301664D02*
X32819348Y-14330235D01*
X32819348Y-14330235D02*
X32800300Y-14349283D01*
X32800300Y-14349283D02*
X32781253Y-14358807D01*
X32981253Y-14482616D02*
X32990777Y-14492140D01*
X32990777Y-14492140D02*
X32981253Y-14501664D01*
X32981253Y-14501664D02*
X32971729Y-14492140D01*
X32971729Y-14492140D02*
X32981253Y-14482616D01*
X32981253Y-14482616D02*
X32981253Y-14501664D01*
X33105062Y-14387378D02*
X33086015Y-14377854D01*
X33086015Y-14377854D02*
X33076491Y-14368330D01*
X33076491Y-14368330D02*
X33066967Y-14349283D01*
X33066967Y-14349283D02*
X33066967Y-14339759D01*
X33066967Y-14339759D02*
X33076491Y-14320711D01*
X33076491Y-14320711D02*
X33086015Y-14311188D01*
X33086015Y-14311188D02*
X33105062Y-14301664D01*
X33105062Y-14301664D02*
X33143158Y-14301664D01*
X33143158Y-14301664D02*
X33162205Y-14311188D01*
X33162205Y-14311188D02*
X33171729Y-14320711D01*
X33171729Y-14320711D02*
X33181253Y-14339759D01*
X33181253Y-14339759D02*
X33181253Y-14349283D01*
X33181253Y-14349283D02*
X33171729Y-14368330D01*
X33171729Y-14368330D02*
X33162205Y-14377854D01*
X33162205Y-14377854D02*
X33143158Y-14387378D01*
X33143158Y-14387378D02*
X33105062Y-14387378D01*
X33105062Y-14387378D02*
X33086015Y-14396902D01*
X33086015Y-14396902D02*
X33076491Y-14406426D01*
X33076491Y-14406426D02*
X33066967Y-14425473D01*
X33066967Y-14425473D02*
X33066967Y-14463569D01*
X33066967Y-14463569D02*
X33076491Y-14482616D01*
X33076491Y-14482616D02*
X33086015Y-14492140D01*
X33086015Y-14492140D02*
X33105062Y-14501664D01*
X33105062Y-14501664D02*
X33143158Y-14501664D01*
X33143158Y-14501664D02*
X33162205Y-14492140D01*
X33162205Y-14492140D02*
X33171729Y-14482616D01*
X33171729Y-14482616D02*
X33181253Y-14463569D01*
X33181253Y-14463569D02*
X33181253Y-14425473D01*
X33181253Y-14425473D02*
X33171729Y-14406426D01*
X33171729Y-14406426D02*
X33162205Y-14396902D01*
X33162205Y-14396902D02*
X33143158Y-14387378D01*
X33305062Y-14301664D02*
X33324110Y-14301664D01*
X33324110Y-14301664D02*
X33343158Y-14311188D01*
X33343158Y-14311188D02*
X33352681Y-14320711D01*
X33352681Y-14320711D02*
X33362205Y-14339759D01*
X33362205Y-14339759D02*
X33371729Y-14377854D01*
X33371729Y-14377854D02*
X33371729Y-14425473D01*
X33371729Y-14425473D02*
X33362205Y-14463569D01*
X33362205Y-14463569D02*
X33352681Y-14482616D01*
X33352681Y-14482616D02*
X33343158Y-14492140D01*
X33343158Y-14492140D02*
X33324110Y-14501664D01*
X33324110Y-14501664D02*
X33305062Y-14501664D01*
X33305062Y-14501664D02*
X33286015Y-14492140D01*
X33286015Y-14492140D02*
X33276491Y-14482616D01*
X33276491Y-14482616D02*
X33266967Y-14463569D01*
X33266967Y-14463569D02*
X33257443Y-14425473D01*
X33257443Y-14425473D02*
X33257443Y-14377854D01*
X33257443Y-14377854D02*
X33266967Y-14339759D01*
X33266967Y-14339759D02*
X33276491Y-14320711D01*
X33276491Y-14320711D02*
X33286015Y-14311188D01*
X33286015Y-14311188D02*
X33305062Y-14301664D01*
X33495539Y-14301664D02*
X33514586Y-14301664D01*
X33514586Y-14301664D02*
X33533634Y-14311188D01*
X33533634Y-14311188D02*
X33543158Y-14320711D01*
X33543158Y-14320711D02*
X33552681Y-14339759D01*
X33552681Y-14339759D02*
X33562205Y-14377854D01*
X33562205Y-14377854D02*
X33562205Y-14425473D01*
X33562205Y-14425473D02*
X33552681Y-14463569D01*
X33552681Y-14463569D02*
X33543158Y-14482616D01*
X33543158Y-14482616D02*
X33533634Y-14492140D01*
X33533634Y-14492140D02*
X33514586Y-14501664D01*
X33514586Y-14501664D02*
X33495539Y-14501664D01*
X33495539Y-14501664D02*
X33476491Y-14492140D01*
X33476491Y-14492140D02*
X33466967Y-14482616D01*
X33466967Y-14482616D02*
X33457443Y-14463569D01*
X33457443Y-14463569D02*
X33447920Y-14425473D01*
X33447920Y-14425473D02*
X33447920Y-14377854D01*
X33447920Y-14377854D02*
X33457443Y-14339759D01*
X33457443Y-14339759D02*
X33466967Y-14320711D01*
X33466967Y-14320711D02*
X33476491Y-14311188D01*
X33476491Y-14311188D02*
X33495539Y-14301664D01*
X33647920Y-14501664D02*
X33647920Y-14368330D01*
X33647920Y-14387378D02*
X33657443Y-14377854D01*
X33657443Y-14377854D02*
X33676491Y-14368330D01*
X33676491Y-14368330D02*
X33705063Y-14368330D01*
X33705063Y-14368330D02*
X33724110Y-14377854D01*
X33724110Y-14377854D02*
X33733634Y-14396902D01*
X33733634Y-14396902D02*
X33733634Y-14501664D01*
X33733634Y-14396902D02*
X33743158Y-14377854D01*
X33743158Y-14377854D02*
X33762205Y-14368330D01*
X33762205Y-14368330D02*
X33790777Y-14368330D01*
X33790777Y-14368330D02*
X33809824Y-14377854D01*
X33809824Y-14377854D02*
X33819348Y-14396902D01*
X33819348Y-14396902D02*
X33819348Y-14501664D01*
X33914586Y-14501664D02*
X33914586Y-14368330D01*
X33914586Y-14387378D02*
X33924110Y-14377854D01*
X33924110Y-14377854D02*
X33943158Y-14368330D01*
X33943158Y-14368330D02*
X33971729Y-14368330D01*
X33971729Y-14368330D02*
X33990777Y-14377854D01*
X33990777Y-14377854D02*
X34000301Y-14396902D01*
X34000301Y-14396902D02*
X34000301Y-14501664D01*
X34000301Y-14396902D02*
X34009824Y-14377854D01*
X34009824Y-14377854D02*
X34028872Y-14368330D01*
X34028872Y-14368330D02*
X34057443Y-14368330D01*
X34057443Y-14368330D02*
X34076491Y-14377854D01*
X34076491Y-14377854D02*
X34086015Y-14396902D01*
X34086015Y-14396902D02*
X34086015Y-14501664D01*
X34476491Y-14292140D02*
X34305063Y-14549283D01*
X34733634Y-14301664D02*
X34752682Y-14301664D01*
X34752682Y-14301664D02*
X34771729Y-14311188D01*
X34771729Y-14311188D02*
X34781253Y-14320711D01*
X34781253Y-14320711D02*
X34790777Y-14339759D01*
X34790777Y-14339759D02*
X34800301Y-14377854D01*
X34800301Y-14377854D02*
X34800301Y-14425473D01*
X34800301Y-14425473D02*
X34790777Y-14463569D01*
X34790777Y-14463569D02*
X34781253Y-14482616D01*
X34781253Y-14482616D02*
X34771729Y-14492140D01*
X34771729Y-14492140D02*
X34752682Y-14501664D01*
X34752682Y-14501664D02*
X34733634Y-14501664D01*
X34733634Y-14501664D02*
X34714586Y-14492140D01*
X34714586Y-14492140D02*
X34705063Y-14482616D01*
X34705063Y-14482616D02*
X34695539Y-14463569D01*
X34695539Y-14463569D02*
X34686015Y-14425473D01*
X34686015Y-14425473D02*
X34686015Y-14377854D01*
X34686015Y-14377854D02*
X34695539Y-14339759D01*
X34695539Y-14339759D02*
X34705063Y-14320711D01*
X34705063Y-14320711D02*
X34714586Y-14311188D01*
X34714586Y-14311188D02*
X34733634Y-14301664D01*
X34886015Y-14482616D02*
X34895539Y-14492140D01*
X34895539Y-14492140D02*
X34886015Y-14501664D01*
X34886015Y-14501664D02*
X34876491Y-14492140D01*
X34876491Y-14492140D02*
X34886015Y-14482616D01*
X34886015Y-14482616D02*
X34886015Y-14501664D01*
X35019348Y-14301664D02*
X35038396Y-14301664D01*
X35038396Y-14301664D02*
X35057444Y-14311188D01*
X35057444Y-14311188D02*
X35066967Y-14320711D01*
X35066967Y-14320711D02*
X35076491Y-14339759D01*
X35076491Y-14339759D02*
X35086015Y-14377854D01*
X35086015Y-14377854D02*
X35086015Y-14425473D01*
X35086015Y-14425473D02*
X35076491Y-14463569D01*
X35076491Y-14463569D02*
X35066967Y-14482616D01*
X35066967Y-14482616D02*
X35057444Y-14492140D01*
X35057444Y-14492140D02*
X35038396Y-14501664D01*
X35038396Y-14501664D02*
X35019348Y-14501664D01*
X35019348Y-14501664D02*
X35000301Y-14492140D01*
X35000301Y-14492140D02*
X34990777Y-14482616D01*
X34990777Y-14482616D02*
X34981253Y-14463569D01*
X34981253Y-14463569D02*
X34971729Y-14425473D01*
X34971729Y-14425473D02*
X34971729Y-14377854D01*
X34971729Y-14377854D02*
X34981253Y-14339759D01*
X34981253Y-14339759D02*
X34990777Y-14320711D01*
X34990777Y-14320711D02*
X35000301Y-14311188D01*
X35000301Y-14311188D02*
X35019348Y-14301664D01*
X35152682Y-14301664D02*
X35286015Y-14301664D01*
X35286015Y-14301664D02*
X35200301Y-14501664D01*
X35400301Y-14301664D02*
X35419348Y-14301664D01*
X35419348Y-14301664D02*
X35438396Y-14311188D01*
X35438396Y-14311188D02*
X35447920Y-14320711D01*
X35447920Y-14320711D02*
X35457444Y-14339759D01*
X35457444Y-14339759D02*
X35466967Y-14377854D01*
X35466967Y-14377854D02*
X35466967Y-14425473D01*
X35466967Y-14425473D02*
X35457444Y-14463569D01*
X35457444Y-14463569D02*
X35447920Y-14482616D01*
X35447920Y-14482616D02*
X35438396Y-14492140D01*
X35438396Y-14492140D02*
X35419348Y-14501664D01*
X35419348Y-14501664D02*
X35400301Y-14501664D01*
X35400301Y-14501664D02*
X35381253Y-14492140D01*
X35381253Y-14492140D02*
X35371729Y-14482616D01*
X35371729Y-14482616D02*
X35362206Y-14463569D01*
X35362206Y-14463569D02*
X35352682Y-14425473D01*
X35352682Y-14425473D02*
X35352682Y-14377854D01*
X35352682Y-14377854D02*
X35362206Y-14339759D01*
X35362206Y-14339759D02*
X35371729Y-14320711D01*
X35371729Y-14320711D02*
X35381253Y-14311188D01*
X35381253Y-14311188D02*
X35400301Y-14301664D01*
X35562206Y-14501664D02*
X35600301Y-14501664D01*
X35600301Y-14501664D02*
X35619348Y-14492140D01*
X35619348Y-14492140D02*
X35628872Y-14482616D01*
X35628872Y-14482616D02*
X35647920Y-14454045D01*
X35647920Y-14454045D02*
X35657444Y-14415950D01*
X35657444Y-14415950D02*
X35657444Y-14339759D01*
X35657444Y-14339759D02*
X35647920Y-14320711D01*
X35647920Y-14320711D02*
X35638396Y-14311188D01*
X35638396Y-14311188D02*
X35619348Y-14301664D01*
X35619348Y-14301664D02*
X35581253Y-14301664D01*
X35581253Y-14301664D02*
X35562206Y-14311188D01*
X35562206Y-14311188D02*
X35552682Y-14320711D01*
X35552682Y-14320711D02*
X35543158Y-14339759D01*
X35543158Y-14339759D02*
X35543158Y-14387378D01*
X35543158Y-14387378D02*
X35552682Y-14406426D01*
X35552682Y-14406426D02*
X35562206Y-14415950D01*
X35562206Y-14415950D02*
X35581253Y-14425473D01*
X35581253Y-14425473D02*
X35619348Y-14425473D01*
X35619348Y-14425473D02*
X35638396Y-14415950D01*
X35638396Y-14415950D02*
X35647920Y-14406426D01*
X35647920Y-14406426D02*
X35657444Y-14387378D01*
X35733634Y-14301664D02*
X35733634Y-14339759D01*
X35809825Y-14301664D02*
X35809825Y-14339759D01*
X36105063Y-14577854D02*
X36095539Y-14568330D01*
X36095539Y-14568330D02*
X36076491Y-14539759D01*
X36076491Y-14539759D02*
X36066968Y-14520711D01*
X36066968Y-14520711D02*
X36057444Y-14492140D01*
X36057444Y-14492140D02*
X36047920Y-14444521D01*
X36047920Y-14444521D02*
X36047920Y-14406426D01*
X36047920Y-14406426D02*
X36057444Y-14358807D01*
X36057444Y-14358807D02*
X36066968Y-14330235D01*
X36066968Y-14330235D02*
X36076491Y-14311188D01*
X36076491Y-14311188D02*
X36095539Y-14282616D01*
X36095539Y-14282616D02*
X36105063Y-14273092D01*
X36171729Y-14320711D02*
X36181253Y-14311188D01*
X36181253Y-14311188D02*
X36200301Y-14301664D01*
X36200301Y-14301664D02*
X36247920Y-14301664D01*
X36247920Y-14301664D02*
X36266968Y-14311188D01*
X36266968Y-14311188D02*
X36276491Y-14320711D01*
X36276491Y-14320711D02*
X36286015Y-14339759D01*
X36286015Y-14339759D02*
X36286015Y-14358807D01*
X36286015Y-14358807D02*
X36276491Y-14387378D01*
X36276491Y-14387378D02*
X36162206Y-14501664D01*
X36162206Y-14501664D02*
X36286015Y-14501664D01*
X36524110Y-14501664D02*
X36524110Y-14301664D01*
X36609825Y-14501664D02*
X36609825Y-14396902D01*
X36609825Y-14396902D02*
X36600301Y-14377854D01*
X36600301Y-14377854D02*
X36581253Y-14368330D01*
X36581253Y-14368330D02*
X36552682Y-14368330D01*
X36552682Y-14368330D02*
X36533634Y-14377854D01*
X36533634Y-14377854D02*
X36524110Y-14387378D01*
X36733634Y-14501664D02*
X36714587Y-14492140D01*
X36714587Y-14492140D02*
X36705063Y-14482616D01*
X36705063Y-14482616D02*
X36695539Y-14463569D01*
X36695539Y-14463569D02*
X36695539Y-14406426D01*
X36695539Y-14406426D02*
X36705063Y-14387378D01*
X36705063Y-14387378D02*
X36714587Y-14377854D01*
X36714587Y-14377854D02*
X36733634Y-14368330D01*
X36733634Y-14368330D02*
X36762206Y-14368330D01*
X36762206Y-14368330D02*
X36781253Y-14377854D01*
X36781253Y-14377854D02*
X36790777Y-14387378D01*
X36790777Y-14387378D02*
X36800301Y-14406426D01*
X36800301Y-14406426D02*
X36800301Y-14463569D01*
X36800301Y-14463569D02*
X36790777Y-14482616D01*
X36790777Y-14482616D02*
X36781253Y-14492140D01*
X36781253Y-14492140D02*
X36762206Y-14501664D01*
X36762206Y-14501664D02*
X36733634Y-14501664D01*
X36914587Y-14501664D02*
X36895539Y-14492140D01*
X36895539Y-14492140D02*
X36886015Y-14473092D01*
X36886015Y-14473092D02*
X36886015Y-14301664D01*
X37066968Y-14492140D02*
X37047920Y-14501664D01*
X37047920Y-14501664D02*
X37009825Y-14501664D01*
X37009825Y-14501664D02*
X36990777Y-14492140D01*
X36990777Y-14492140D02*
X36981253Y-14473092D01*
X36981253Y-14473092D02*
X36981253Y-14396902D01*
X36981253Y-14396902D02*
X36990777Y-14377854D01*
X36990777Y-14377854D02*
X37009825Y-14368330D01*
X37009825Y-14368330D02*
X37047920Y-14368330D01*
X37047920Y-14368330D02*
X37066968Y-14377854D01*
X37066968Y-14377854D02*
X37076491Y-14396902D01*
X37076491Y-14396902D02*
X37076491Y-14415950D01*
X37076491Y-14415950D02*
X36981253Y-14434997D01*
X37152682Y-14492140D02*
X37171730Y-14501664D01*
X37171730Y-14501664D02*
X37209825Y-14501664D01*
X37209825Y-14501664D02*
X37228872Y-14492140D01*
X37228872Y-14492140D02*
X37238396Y-14473092D01*
X37238396Y-14473092D02*
X37238396Y-14463569D01*
X37238396Y-14463569D02*
X37228872Y-14444521D01*
X37228872Y-14444521D02*
X37209825Y-14434997D01*
X37209825Y-14434997D02*
X37181253Y-14434997D01*
X37181253Y-14434997D02*
X37162206Y-14425473D01*
X37162206Y-14425473D02*
X37152682Y-14406426D01*
X37152682Y-14406426D02*
X37152682Y-14396902D01*
X37152682Y-14396902D02*
X37162206Y-14377854D01*
X37162206Y-14377854D02*
X37181253Y-14368330D01*
X37181253Y-14368330D02*
X37209825Y-14368330D01*
X37209825Y-14368330D02*
X37228872Y-14377854D01*
X37305063Y-14577854D02*
X37314587Y-14568330D01*
X37314587Y-14568330D02*
X37333634Y-14539759D01*
X37333634Y-14539759D02*
X37343158Y-14520711D01*
X37343158Y-14520711D02*
X37352682Y-14492140D01*
X37352682Y-14492140D02*
X37362206Y-14444521D01*
X37362206Y-14444521D02*
X37362206Y-14406426D01*
X37362206Y-14406426D02*
X37352682Y-14358807D01*
X37352682Y-14358807D02*
X37343158Y-14330235D01*
X37343158Y-14330235D02*
X37333634Y-14311188D01*
X37333634Y-14311188D02*
X37314587Y-14282616D01*
X37314587Y-14282616D02*
X37305063Y-14273092D01*
X37666968Y-14577854D02*
X37657444Y-14568330D01*
X37657444Y-14568330D02*
X37638396Y-14539759D01*
X37638396Y-14539759D02*
X37628872Y-14520711D01*
X37628872Y-14520711D02*
X37619349Y-14492140D01*
X37619349Y-14492140D02*
X37609825Y-14444521D01*
X37609825Y-14444521D02*
X37609825Y-14406426D01*
X37609825Y-14406426D02*
X37619349Y-14358807D01*
X37619349Y-14358807D02*
X37628872Y-14330235D01*
X37628872Y-14330235D02*
X37638396Y-14311188D01*
X37638396Y-14311188D02*
X37657444Y-14282616D01*
X37657444Y-14282616D02*
X37666968Y-14273092D01*
X37743158Y-14368330D02*
X37743158Y-14501664D01*
X37743158Y-14387378D02*
X37752682Y-14377854D01*
X37752682Y-14377854D02*
X37771730Y-14368330D01*
X37771730Y-14368330D02*
X37800301Y-14368330D01*
X37800301Y-14368330D02*
X37819349Y-14377854D01*
X37819349Y-14377854D02*
X37828872Y-14396902D01*
X37828872Y-14396902D02*
X37828872Y-14501664D01*
X37952682Y-14501664D02*
X37933634Y-14492140D01*
X37933634Y-14492140D02*
X37924111Y-14482616D01*
X37924111Y-14482616D02*
X37914587Y-14463569D01*
X37914587Y-14463569D02*
X37914587Y-14406426D01*
X37914587Y-14406426D02*
X37924111Y-14387378D01*
X37924111Y-14387378D02*
X37933634Y-14377854D01*
X37933634Y-14377854D02*
X37952682Y-14368330D01*
X37952682Y-14368330D02*
X37981253Y-14368330D01*
X37981253Y-14368330D02*
X38000301Y-14377854D01*
X38000301Y-14377854D02*
X38009825Y-14387378D01*
X38009825Y-14387378D02*
X38019349Y-14406426D01*
X38019349Y-14406426D02*
X38019349Y-14463569D01*
X38019349Y-14463569D02*
X38009825Y-14482616D01*
X38009825Y-14482616D02*
X38000301Y-14492140D01*
X38000301Y-14492140D02*
X37981253Y-14501664D01*
X37981253Y-14501664D02*
X37952682Y-14501664D01*
X38076492Y-14368330D02*
X38152682Y-14368330D01*
X38105063Y-14301664D02*
X38105063Y-14473092D01*
X38105063Y-14473092D02*
X38114587Y-14492140D01*
X38114587Y-14492140D02*
X38133634Y-14501664D01*
X38133634Y-14501664D02*
X38152682Y-14501664D01*
X38371730Y-14368330D02*
X38371730Y-14568330D01*
X38371730Y-14377854D02*
X38390777Y-14368330D01*
X38390777Y-14368330D02*
X38428873Y-14368330D01*
X38428873Y-14368330D02*
X38447920Y-14377854D01*
X38447920Y-14377854D02*
X38457444Y-14387378D01*
X38457444Y-14387378D02*
X38466968Y-14406426D01*
X38466968Y-14406426D02*
X38466968Y-14463569D01*
X38466968Y-14463569D02*
X38457444Y-14482616D01*
X38457444Y-14482616D02*
X38447920Y-14492140D01*
X38447920Y-14492140D02*
X38428873Y-14501664D01*
X38428873Y-14501664D02*
X38390777Y-14501664D01*
X38390777Y-14501664D02*
X38371730Y-14492140D01*
X38581253Y-14501664D02*
X38562206Y-14492140D01*
X38562206Y-14492140D02*
X38552682Y-14473092D01*
X38552682Y-14473092D02*
X38552682Y-14301664D01*
X38743158Y-14501664D02*
X38743158Y-14396902D01*
X38743158Y-14396902D02*
X38733634Y-14377854D01*
X38733634Y-14377854D02*
X38714587Y-14368330D01*
X38714587Y-14368330D02*
X38676492Y-14368330D01*
X38676492Y-14368330D02*
X38657444Y-14377854D01*
X38743158Y-14492140D02*
X38724111Y-14501664D01*
X38724111Y-14501664D02*
X38676492Y-14501664D01*
X38676492Y-14501664D02*
X38657444Y-14492140D01*
X38657444Y-14492140D02*
X38647920Y-14473092D01*
X38647920Y-14473092D02*
X38647920Y-14454045D01*
X38647920Y-14454045D02*
X38657444Y-14434997D01*
X38657444Y-14434997D02*
X38676492Y-14425473D01*
X38676492Y-14425473D02*
X38724111Y-14425473D01*
X38724111Y-14425473D02*
X38743158Y-14415950D01*
X38809825Y-14368330D02*
X38886015Y-14368330D01*
X38838396Y-14301664D02*
X38838396Y-14473092D01*
X38838396Y-14473092D02*
X38847920Y-14492140D01*
X38847920Y-14492140D02*
X38866968Y-14501664D01*
X38866968Y-14501664D02*
X38886015Y-14501664D01*
X39028873Y-14492140D02*
X39009825Y-14501664D01*
X39009825Y-14501664D02*
X38971730Y-14501664D01*
X38971730Y-14501664D02*
X38952682Y-14492140D01*
X38952682Y-14492140D02*
X38943158Y-14473092D01*
X38943158Y-14473092D02*
X38943158Y-14396902D01*
X38943158Y-14396902D02*
X38952682Y-14377854D01*
X38952682Y-14377854D02*
X38971730Y-14368330D01*
X38971730Y-14368330D02*
X39009825Y-14368330D01*
X39009825Y-14368330D02*
X39028873Y-14377854D01*
X39028873Y-14377854D02*
X39038396Y-14396902D01*
X39038396Y-14396902D02*
X39038396Y-14415950D01*
X39038396Y-14415950D02*
X38943158Y-14434997D01*
X39209825Y-14501664D02*
X39209825Y-14301664D01*
X39209825Y-14492140D02*
X39190777Y-14501664D01*
X39190777Y-14501664D02*
X39152682Y-14501664D01*
X39152682Y-14501664D02*
X39133634Y-14492140D01*
X39133634Y-14492140D02*
X39124111Y-14482616D01*
X39124111Y-14482616D02*
X39114587Y-14463569D01*
X39114587Y-14463569D02*
X39114587Y-14406426D01*
X39114587Y-14406426D02*
X39124111Y-14387378D01*
X39124111Y-14387378D02*
X39133634Y-14377854D01*
X39133634Y-14377854D02*
X39152682Y-14368330D01*
X39152682Y-14368330D02*
X39190777Y-14368330D01*
X39190777Y-14368330D02*
X39209825Y-14377854D01*
X39286015Y-14577854D02*
X39295539Y-14568330D01*
X39295539Y-14568330D02*
X39314587Y-14539759D01*
X39314587Y-14539759D02*
X39324111Y-14520711D01*
X39324111Y-14520711D02*
X39333634Y-14492140D01*
X39333634Y-14492140D02*
X39343158Y-14444521D01*
X39343158Y-14444521D02*
X39343158Y-14406426D01*
X39343158Y-14406426D02*
X39333634Y-14358807D01*
X39333634Y-14358807D02*
X39324111Y-14330235D01*
X39324111Y-14330235D02*
X39314587Y-14311188D01*
X39314587Y-14311188D02*
X39295539Y-14282616D01*
X39295539Y-14282616D02*
X39286015Y-14273092D01*
X32500711Y-14780891D02*
X32500711Y-14639469D01*
X32359288Y-14639469D01*
X32359288Y-14780891D01*
X32500711Y-14780891D01*
X32771729Y-14601664D02*
X32895539Y-14601664D01*
X32895539Y-14601664D02*
X32828872Y-14677854D01*
X32828872Y-14677854D02*
X32857443Y-14677854D01*
X32857443Y-14677854D02*
X32876491Y-14687378D01*
X32876491Y-14687378D02*
X32886015Y-14696902D01*
X32886015Y-14696902D02*
X32895539Y-14715950D01*
X32895539Y-14715950D02*
X32895539Y-14763569D01*
X32895539Y-14763569D02*
X32886015Y-14782616D01*
X32886015Y-14782616D02*
X32876491Y-14792140D01*
X32876491Y-14792140D02*
X32857443Y-14801664D01*
X32857443Y-14801664D02*
X32800300Y-14801664D01*
X32800300Y-14801664D02*
X32781253Y-14792140D01*
X32781253Y-14792140D02*
X32771729Y-14782616D01*
X32981253Y-14782616D02*
X32990777Y-14792140D01*
X32990777Y-14792140D02*
X32981253Y-14801664D01*
X32981253Y-14801664D02*
X32971729Y-14792140D01*
X32971729Y-14792140D02*
X32981253Y-14782616D01*
X32981253Y-14782616D02*
X32981253Y-14801664D01*
X33114586Y-14601664D02*
X33133634Y-14601664D01*
X33133634Y-14601664D02*
X33152681Y-14611188D01*
X33152681Y-14611188D02*
X33162205Y-14620711D01*
X33162205Y-14620711D02*
X33171729Y-14639759D01*
X33171729Y-14639759D02*
X33181253Y-14677854D01*
X33181253Y-14677854D02*
X33181253Y-14725473D01*
X33181253Y-14725473D02*
X33171729Y-14763569D01*
X33171729Y-14763569D02*
X33162205Y-14782616D01*
X33162205Y-14782616D02*
X33152681Y-14792140D01*
X33152681Y-14792140D02*
X33133634Y-14801664D01*
X33133634Y-14801664D02*
X33114586Y-14801664D01*
X33114586Y-14801664D02*
X33095539Y-14792140D01*
X33095539Y-14792140D02*
X33086015Y-14782616D01*
X33086015Y-14782616D02*
X33076491Y-14763569D01*
X33076491Y-14763569D02*
X33066967Y-14725473D01*
X33066967Y-14725473D02*
X33066967Y-14677854D01*
X33066967Y-14677854D02*
X33076491Y-14639759D01*
X33076491Y-14639759D02*
X33086015Y-14620711D01*
X33086015Y-14620711D02*
X33095539Y-14611188D01*
X33095539Y-14611188D02*
X33114586Y-14601664D01*
X33352681Y-14668330D02*
X33352681Y-14801664D01*
X33305062Y-14592140D02*
X33257443Y-14734997D01*
X33257443Y-14734997D02*
X33381253Y-14734997D01*
X33486015Y-14687378D02*
X33466967Y-14677854D01*
X33466967Y-14677854D02*
X33457443Y-14668330D01*
X33457443Y-14668330D02*
X33447920Y-14649283D01*
X33447920Y-14649283D02*
X33447920Y-14639759D01*
X33447920Y-14639759D02*
X33457443Y-14620711D01*
X33457443Y-14620711D02*
X33466967Y-14611188D01*
X33466967Y-14611188D02*
X33486015Y-14601664D01*
X33486015Y-14601664D02*
X33524110Y-14601664D01*
X33524110Y-14601664D02*
X33543158Y-14611188D01*
X33543158Y-14611188D02*
X33552681Y-14620711D01*
X33552681Y-14620711D02*
X33562205Y-14639759D01*
X33562205Y-14639759D02*
X33562205Y-14649283D01*
X33562205Y-14649283D02*
X33552681Y-14668330D01*
X33552681Y-14668330D02*
X33543158Y-14677854D01*
X33543158Y-14677854D02*
X33524110Y-14687378D01*
X33524110Y-14687378D02*
X33486015Y-14687378D01*
X33486015Y-14687378D02*
X33466967Y-14696902D01*
X33466967Y-14696902D02*
X33457443Y-14706426D01*
X33457443Y-14706426D02*
X33447920Y-14725473D01*
X33447920Y-14725473D02*
X33447920Y-14763569D01*
X33447920Y-14763569D02*
X33457443Y-14782616D01*
X33457443Y-14782616D02*
X33466967Y-14792140D01*
X33466967Y-14792140D02*
X33486015Y-14801664D01*
X33486015Y-14801664D02*
X33524110Y-14801664D01*
X33524110Y-14801664D02*
X33543158Y-14792140D01*
X33543158Y-14792140D02*
X33552681Y-14782616D01*
X33552681Y-14782616D02*
X33562205Y-14763569D01*
X33562205Y-14763569D02*
X33562205Y-14725473D01*
X33562205Y-14725473D02*
X33552681Y-14706426D01*
X33552681Y-14706426D02*
X33543158Y-14696902D01*
X33543158Y-14696902D02*
X33524110Y-14687378D01*
X33647920Y-14801664D02*
X33647920Y-14668330D01*
X33647920Y-14687378D02*
X33657443Y-14677854D01*
X33657443Y-14677854D02*
X33676491Y-14668330D01*
X33676491Y-14668330D02*
X33705063Y-14668330D01*
X33705063Y-14668330D02*
X33724110Y-14677854D01*
X33724110Y-14677854D02*
X33733634Y-14696902D01*
X33733634Y-14696902D02*
X33733634Y-14801664D01*
X33733634Y-14696902D02*
X33743158Y-14677854D01*
X33743158Y-14677854D02*
X33762205Y-14668330D01*
X33762205Y-14668330D02*
X33790777Y-14668330D01*
X33790777Y-14668330D02*
X33809824Y-14677854D01*
X33809824Y-14677854D02*
X33819348Y-14696902D01*
X33819348Y-14696902D02*
X33819348Y-14801664D01*
X33914586Y-14801664D02*
X33914586Y-14668330D01*
X33914586Y-14687378D02*
X33924110Y-14677854D01*
X33924110Y-14677854D02*
X33943158Y-14668330D01*
X33943158Y-14668330D02*
X33971729Y-14668330D01*
X33971729Y-14668330D02*
X33990777Y-14677854D01*
X33990777Y-14677854D02*
X34000301Y-14696902D01*
X34000301Y-14696902D02*
X34000301Y-14801664D01*
X34000301Y-14696902D02*
X34009824Y-14677854D01*
X34009824Y-14677854D02*
X34028872Y-14668330D01*
X34028872Y-14668330D02*
X34057443Y-14668330D01*
X34057443Y-14668330D02*
X34076491Y-14677854D01*
X34076491Y-14677854D02*
X34086015Y-14696902D01*
X34086015Y-14696902D02*
X34086015Y-14801664D01*
X34476491Y-14592140D02*
X34305063Y-14849283D01*
X34733634Y-14601664D02*
X34752682Y-14601664D01*
X34752682Y-14601664D02*
X34771729Y-14611188D01*
X34771729Y-14611188D02*
X34781253Y-14620711D01*
X34781253Y-14620711D02*
X34790777Y-14639759D01*
X34790777Y-14639759D02*
X34800301Y-14677854D01*
X34800301Y-14677854D02*
X34800301Y-14725473D01*
X34800301Y-14725473D02*
X34790777Y-14763569D01*
X34790777Y-14763569D02*
X34781253Y-14782616D01*
X34781253Y-14782616D02*
X34771729Y-14792140D01*
X34771729Y-14792140D02*
X34752682Y-14801664D01*
X34752682Y-14801664D02*
X34733634Y-14801664D01*
X34733634Y-14801664D02*
X34714586Y-14792140D01*
X34714586Y-14792140D02*
X34705063Y-14782616D01*
X34705063Y-14782616D02*
X34695539Y-14763569D01*
X34695539Y-14763569D02*
X34686015Y-14725473D01*
X34686015Y-14725473D02*
X34686015Y-14677854D01*
X34686015Y-14677854D02*
X34695539Y-14639759D01*
X34695539Y-14639759D02*
X34705063Y-14620711D01*
X34705063Y-14620711D02*
X34714586Y-14611188D01*
X34714586Y-14611188D02*
X34733634Y-14601664D01*
X34886015Y-14782616D02*
X34895539Y-14792140D01*
X34895539Y-14792140D02*
X34886015Y-14801664D01*
X34886015Y-14801664D02*
X34876491Y-14792140D01*
X34876491Y-14792140D02*
X34886015Y-14782616D01*
X34886015Y-14782616D02*
X34886015Y-14801664D01*
X35086015Y-14801664D02*
X34971729Y-14801664D01*
X35028872Y-14801664D02*
X35028872Y-14601664D01*
X35028872Y-14601664D02*
X35009825Y-14630235D01*
X35009825Y-14630235D02*
X34990777Y-14649283D01*
X34990777Y-14649283D02*
X34971729Y-14658807D01*
X35162206Y-14620711D02*
X35171729Y-14611188D01*
X35171729Y-14611188D02*
X35190777Y-14601664D01*
X35190777Y-14601664D02*
X35238396Y-14601664D01*
X35238396Y-14601664D02*
X35257444Y-14611188D01*
X35257444Y-14611188D02*
X35266967Y-14620711D01*
X35266967Y-14620711D02*
X35276491Y-14639759D01*
X35276491Y-14639759D02*
X35276491Y-14658807D01*
X35276491Y-14658807D02*
X35266967Y-14687378D01*
X35266967Y-14687378D02*
X35152682Y-14801664D01*
X35152682Y-14801664D02*
X35276491Y-14801664D01*
X35400301Y-14601664D02*
X35419348Y-14601664D01*
X35419348Y-14601664D02*
X35438396Y-14611188D01*
X35438396Y-14611188D02*
X35447920Y-14620711D01*
X35447920Y-14620711D02*
X35457444Y-14639759D01*
X35457444Y-14639759D02*
X35466967Y-14677854D01*
X35466967Y-14677854D02*
X35466967Y-14725473D01*
X35466967Y-14725473D02*
X35457444Y-14763569D01*
X35457444Y-14763569D02*
X35447920Y-14782616D01*
X35447920Y-14782616D02*
X35438396Y-14792140D01*
X35438396Y-14792140D02*
X35419348Y-14801664D01*
X35419348Y-14801664D02*
X35400301Y-14801664D01*
X35400301Y-14801664D02*
X35381253Y-14792140D01*
X35381253Y-14792140D02*
X35371729Y-14782616D01*
X35371729Y-14782616D02*
X35362206Y-14763569D01*
X35362206Y-14763569D02*
X35352682Y-14725473D01*
X35352682Y-14725473D02*
X35352682Y-14677854D01*
X35352682Y-14677854D02*
X35362206Y-14639759D01*
X35362206Y-14639759D02*
X35371729Y-14620711D01*
X35371729Y-14620711D02*
X35381253Y-14611188D01*
X35381253Y-14611188D02*
X35400301Y-14601664D01*
X35590777Y-14601664D02*
X35609825Y-14601664D01*
X35609825Y-14601664D02*
X35628872Y-14611188D01*
X35628872Y-14611188D02*
X35638396Y-14620711D01*
X35638396Y-14620711D02*
X35647920Y-14639759D01*
X35647920Y-14639759D02*
X35657444Y-14677854D01*
X35657444Y-14677854D02*
X35657444Y-14725473D01*
X35657444Y-14725473D02*
X35647920Y-14763569D01*
X35647920Y-14763569D02*
X35638396Y-14782616D01*
X35638396Y-14782616D02*
X35628872Y-14792140D01*
X35628872Y-14792140D02*
X35609825Y-14801664D01*
X35609825Y-14801664D02*
X35590777Y-14801664D01*
X35590777Y-14801664D02*
X35571729Y-14792140D01*
X35571729Y-14792140D02*
X35562206Y-14782616D01*
X35562206Y-14782616D02*
X35552682Y-14763569D01*
X35552682Y-14763569D02*
X35543158Y-14725473D01*
X35543158Y-14725473D02*
X35543158Y-14677854D01*
X35543158Y-14677854D02*
X35552682Y-14639759D01*
X35552682Y-14639759D02*
X35562206Y-14620711D01*
X35562206Y-14620711D02*
X35571729Y-14611188D01*
X35571729Y-14611188D02*
X35590777Y-14601664D01*
X35733634Y-14601664D02*
X35733634Y-14639759D01*
X35809825Y-14601664D02*
X35809825Y-14639759D01*
X36105063Y-14877854D02*
X36095539Y-14868330D01*
X36095539Y-14868330D02*
X36076491Y-14839759D01*
X36076491Y-14839759D02*
X36066968Y-14820711D01*
X36066968Y-14820711D02*
X36057444Y-14792140D01*
X36057444Y-14792140D02*
X36047920Y-14744521D01*
X36047920Y-14744521D02*
X36047920Y-14706426D01*
X36047920Y-14706426D02*
X36057444Y-14658807D01*
X36057444Y-14658807D02*
X36066968Y-14630235D01*
X36066968Y-14630235D02*
X36076491Y-14611188D01*
X36076491Y-14611188D02*
X36095539Y-14582616D01*
X36095539Y-14582616D02*
X36105063Y-14573092D01*
X36266968Y-14668330D02*
X36266968Y-14801664D01*
X36219348Y-14592140D02*
X36171729Y-14734997D01*
X36171729Y-14734997D02*
X36295539Y-14734997D01*
X36524110Y-14801664D02*
X36524110Y-14601664D01*
X36609825Y-14801664D02*
X36609825Y-14696902D01*
X36609825Y-14696902D02*
X36600301Y-14677854D01*
X36600301Y-14677854D02*
X36581253Y-14668330D01*
X36581253Y-14668330D02*
X36552682Y-14668330D01*
X36552682Y-14668330D02*
X36533634Y-14677854D01*
X36533634Y-14677854D02*
X36524110Y-14687378D01*
X36733634Y-14801664D02*
X36714587Y-14792140D01*
X36714587Y-14792140D02*
X36705063Y-14782616D01*
X36705063Y-14782616D02*
X36695539Y-14763569D01*
X36695539Y-14763569D02*
X36695539Y-14706426D01*
X36695539Y-14706426D02*
X36705063Y-14687378D01*
X36705063Y-14687378D02*
X36714587Y-14677854D01*
X36714587Y-14677854D02*
X36733634Y-14668330D01*
X36733634Y-14668330D02*
X36762206Y-14668330D01*
X36762206Y-14668330D02*
X36781253Y-14677854D01*
X36781253Y-14677854D02*
X36790777Y-14687378D01*
X36790777Y-14687378D02*
X36800301Y-14706426D01*
X36800301Y-14706426D02*
X36800301Y-14763569D01*
X36800301Y-14763569D02*
X36790777Y-14782616D01*
X36790777Y-14782616D02*
X36781253Y-14792140D01*
X36781253Y-14792140D02*
X36762206Y-14801664D01*
X36762206Y-14801664D02*
X36733634Y-14801664D01*
X36914587Y-14801664D02*
X36895539Y-14792140D01*
X36895539Y-14792140D02*
X36886015Y-14773092D01*
X36886015Y-14773092D02*
X36886015Y-14601664D01*
X37066968Y-14792140D02*
X37047920Y-14801664D01*
X37047920Y-14801664D02*
X37009825Y-14801664D01*
X37009825Y-14801664D02*
X36990777Y-14792140D01*
X36990777Y-14792140D02*
X36981253Y-14773092D01*
X36981253Y-14773092D02*
X36981253Y-14696902D01*
X36981253Y-14696902D02*
X36990777Y-14677854D01*
X36990777Y-14677854D02*
X37009825Y-14668330D01*
X37009825Y-14668330D02*
X37047920Y-14668330D01*
X37047920Y-14668330D02*
X37066968Y-14677854D01*
X37066968Y-14677854D02*
X37076491Y-14696902D01*
X37076491Y-14696902D02*
X37076491Y-14715950D01*
X37076491Y-14715950D02*
X36981253Y-14734997D01*
X37152682Y-14792140D02*
X37171730Y-14801664D01*
X37171730Y-14801664D02*
X37209825Y-14801664D01*
X37209825Y-14801664D02*
X37228872Y-14792140D01*
X37228872Y-14792140D02*
X37238396Y-14773092D01*
X37238396Y-14773092D02*
X37238396Y-14763569D01*
X37238396Y-14763569D02*
X37228872Y-14744521D01*
X37228872Y-14744521D02*
X37209825Y-14734997D01*
X37209825Y-14734997D02*
X37181253Y-14734997D01*
X37181253Y-14734997D02*
X37162206Y-14725473D01*
X37162206Y-14725473D02*
X37152682Y-14706426D01*
X37152682Y-14706426D02*
X37152682Y-14696902D01*
X37152682Y-14696902D02*
X37162206Y-14677854D01*
X37162206Y-14677854D02*
X37181253Y-14668330D01*
X37181253Y-14668330D02*
X37209825Y-14668330D01*
X37209825Y-14668330D02*
X37228872Y-14677854D01*
X37305063Y-14877854D02*
X37314587Y-14868330D01*
X37314587Y-14868330D02*
X37333634Y-14839759D01*
X37333634Y-14839759D02*
X37343158Y-14820711D01*
X37343158Y-14820711D02*
X37352682Y-14792140D01*
X37352682Y-14792140D02*
X37362206Y-14744521D01*
X37362206Y-14744521D02*
X37362206Y-14706426D01*
X37362206Y-14706426D02*
X37352682Y-14658807D01*
X37352682Y-14658807D02*
X37343158Y-14630235D01*
X37343158Y-14630235D02*
X37333634Y-14611188D01*
X37333634Y-14611188D02*
X37314587Y-14582616D01*
X37314587Y-14582616D02*
X37305063Y-14573092D01*
X37666968Y-14877854D02*
X37657444Y-14868330D01*
X37657444Y-14868330D02*
X37638396Y-14839759D01*
X37638396Y-14839759D02*
X37628872Y-14820711D01*
X37628872Y-14820711D02*
X37619349Y-14792140D01*
X37619349Y-14792140D02*
X37609825Y-14744521D01*
X37609825Y-14744521D02*
X37609825Y-14706426D01*
X37609825Y-14706426D02*
X37619349Y-14658807D01*
X37619349Y-14658807D02*
X37628872Y-14630235D01*
X37628872Y-14630235D02*
X37638396Y-14611188D01*
X37638396Y-14611188D02*
X37657444Y-14582616D01*
X37657444Y-14582616D02*
X37666968Y-14573092D01*
X37743158Y-14668330D02*
X37743158Y-14801664D01*
X37743158Y-14687378D02*
X37752682Y-14677854D01*
X37752682Y-14677854D02*
X37771730Y-14668330D01*
X37771730Y-14668330D02*
X37800301Y-14668330D01*
X37800301Y-14668330D02*
X37819349Y-14677854D01*
X37819349Y-14677854D02*
X37828872Y-14696902D01*
X37828872Y-14696902D02*
X37828872Y-14801664D01*
X37952682Y-14801664D02*
X37933634Y-14792140D01*
X37933634Y-14792140D02*
X37924111Y-14782616D01*
X37924111Y-14782616D02*
X37914587Y-14763569D01*
X37914587Y-14763569D02*
X37914587Y-14706426D01*
X37914587Y-14706426D02*
X37924111Y-14687378D01*
X37924111Y-14687378D02*
X37933634Y-14677854D01*
X37933634Y-14677854D02*
X37952682Y-14668330D01*
X37952682Y-14668330D02*
X37981253Y-14668330D01*
X37981253Y-14668330D02*
X38000301Y-14677854D01*
X38000301Y-14677854D02*
X38009825Y-14687378D01*
X38009825Y-14687378D02*
X38019349Y-14706426D01*
X38019349Y-14706426D02*
X38019349Y-14763569D01*
X38019349Y-14763569D02*
X38009825Y-14782616D01*
X38009825Y-14782616D02*
X38000301Y-14792140D01*
X38000301Y-14792140D02*
X37981253Y-14801664D01*
X37981253Y-14801664D02*
X37952682Y-14801664D01*
X38076492Y-14668330D02*
X38152682Y-14668330D01*
X38105063Y-14601664D02*
X38105063Y-14773092D01*
X38105063Y-14773092D02*
X38114587Y-14792140D01*
X38114587Y-14792140D02*
X38133634Y-14801664D01*
X38133634Y-14801664D02*
X38152682Y-14801664D01*
X38371730Y-14668330D02*
X38371730Y-14868330D01*
X38371730Y-14677854D02*
X38390777Y-14668330D01*
X38390777Y-14668330D02*
X38428873Y-14668330D01*
X38428873Y-14668330D02*
X38447920Y-14677854D01*
X38447920Y-14677854D02*
X38457444Y-14687378D01*
X38457444Y-14687378D02*
X38466968Y-14706426D01*
X38466968Y-14706426D02*
X38466968Y-14763569D01*
X38466968Y-14763569D02*
X38457444Y-14782616D01*
X38457444Y-14782616D02*
X38447920Y-14792140D01*
X38447920Y-14792140D02*
X38428873Y-14801664D01*
X38428873Y-14801664D02*
X38390777Y-14801664D01*
X38390777Y-14801664D02*
X38371730Y-14792140D01*
X38581253Y-14801664D02*
X38562206Y-14792140D01*
X38562206Y-14792140D02*
X38552682Y-14773092D01*
X38552682Y-14773092D02*
X38552682Y-14601664D01*
X38743158Y-14801664D02*
X38743158Y-14696902D01*
X38743158Y-14696902D02*
X38733634Y-14677854D01*
X38733634Y-14677854D02*
X38714587Y-14668330D01*
X38714587Y-14668330D02*
X38676492Y-14668330D01*
X38676492Y-14668330D02*
X38657444Y-14677854D01*
X38743158Y-14792140D02*
X38724111Y-14801664D01*
X38724111Y-14801664D02*
X38676492Y-14801664D01*
X38676492Y-14801664D02*
X38657444Y-14792140D01*
X38657444Y-14792140D02*
X38647920Y-14773092D01*
X38647920Y-14773092D02*
X38647920Y-14754045D01*
X38647920Y-14754045D02*
X38657444Y-14734997D01*
X38657444Y-14734997D02*
X38676492Y-14725473D01*
X38676492Y-14725473D02*
X38724111Y-14725473D01*
X38724111Y-14725473D02*
X38743158Y-14715950D01*
X38809825Y-14668330D02*
X38886015Y-14668330D01*
X38838396Y-14601664D02*
X38838396Y-14773092D01*
X38838396Y-14773092D02*
X38847920Y-14792140D01*
X38847920Y-14792140D02*
X38866968Y-14801664D01*
X38866968Y-14801664D02*
X38886015Y-14801664D01*
X39028873Y-14792140D02*
X39009825Y-14801664D01*
X39009825Y-14801664D02*
X38971730Y-14801664D01*
X38971730Y-14801664D02*
X38952682Y-14792140D01*
X38952682Y-14792140D02*
X38943158Y-14773092D01*
X38943158Y-14773092D02*
X38943158Y-14696902D01*
X38943158Y-14696902D02*
X38952682Y-14677854D01*
X38952682Y-14677854D02*
X38971730Y-14668330D01*
X38971730Y-14668330D02*
X39009825Y-14668330D01*
X39009825Y-14668330D02*
X39028873Y-14677854D01*
X39028873Y-14677854D02*
X39038396Y-14696902D01*
X39038396Y-14696902D02*
X39038396Y-14715950D01*
X39038396Y-14715950D02*
X38943158Y-14734997D01*
X39209825Y-14801664D02*
X39209825Y-14601664D01*
X39209825Y-14792140D02*
X39190777Y-14801664D01*
X39190777Y-14801664D02*
X39152682Y-14801664D01*
X39152682Y-14801664D02*
X39133634Y-14792140D01*
X39133634Y-14792140D02*
X39124111Y-14782616D01*
X39124111Y-14782616D02*
X39114587Y-14763569D01*
X39114587Y-14763569D02*
X39114587Y-14706426D01*
X39114587Y-14706426D02*
X39124111Y-14687378D01*
X39124111Y-14687378D02*
X39133634Y-14677854D01*
X39133634Y-14677854D02*
X39152682Y-14668330D01*
X39152682Y-14668330D02*
X39190777Y-14668330D01*
X39190777Y-14668330D02*
X39209825Y-14677854D01*
X39286015Y-14877854D02*
X39295539Y-14868330D01*
X39295539Y-14868330D02*
X39314587Y-14839759D01*
X39314587Y-14839759D02*
X39324111Y-14820711D01*
X39324111Y-14820711D02*
X39333634Y-14792140D01*
X39333634Y-14792140D02*
X39343158Y-14744521D01*
X39343158Y-14744521D02*
X39343158Y-14706426D01*
X39343158Y-14706426D02*
X39333634Y-14658807D01*
X39333634Y-14658807D02*
X39324111Y-14630235D01*
X39324111Y-14630235D02*
X39314587Y-14611188D01*
X39314587Y-14611188D02*
X39295539Y-14582616D01*
X39295539Y-14582616D02*
X39286015Y-14573092D01*
X32430000Y-15130180D02*
X32530000Y-15030180D01*
X32430000Y-14930180D01*
X32330000Y-15030180D01*
X32430000Y-15130180D01*
X32771729Y-14921664D02*
X32895539Y-14921664D01*
X32895539Y-14921664D02*
X32828872Y-14997854D01*
X32828872Y-14997854D02*
X32857443Y-14997854D01*
X32857443Y-14997854D02*
X32876491Y-15007378D01*
X32876491Y-15007378D02*
X32886015Y-15016902D01*
X32886015Y-15016902D02*
X32895539Y-15035950D01*
X32895539Y-15035950D02*
X32895539Y-15083569D01*
X32895539Y-15083569D02*
X32886015Y-15102616D01*
X32886015Y-15102616D02*
X32876491Y-15112140D01*
X32876491Y-15112140D02*
X32857443Y-15121664D01*
X32857443Y-15121664D02*
X32800300Y-15121664D01*
X32800300Y-15121664D02*
X32781253Y-15112140D01*
X32781253Y-15112140D02*
X32771729Y-15102616D01*
X32981253Y-15102616D02*
X32990777Y-15112140D01*
X32990777Y-15112140D02*
X32981253Y-15121664D01*
X32981253Y-15121664D02*
X32971729Y-15112140D01*
X32971729Y-15112140D02*
X32981253Y-15102616D01*
X32981253Y-15102616D02*
X32981253Y-15121664D01*
X33181253Y-15121664D02*
X33066967Y-15121664D01*
X33124110Y-15121664D02*
X33124110Y-14921664D01*
X33124110Y-14921664D02*
X33105062Y-14950235D01*
X33105062Y-14950235D02*
X33086015Y-14969283D01*
X33086015Y-14969283D02*
X33066967Y-14978807D01*
X33305062Y-14921664D02*
X33324110Y-14921664D01*
X33324110Y-14921664D02*
X33343158Y-14931188D01*
X33343158Y-14931188D02*
X33352681Y-14940711D01*
X33352681Y-14940711D02*
X33362205Y-14959759D01*
X33362205Y-14959759D02*
X33371729Y-14997854D01*
X33371729Y-14997854D02*
X33371729Y-15045473D01*
X33371729Y-15045473D02*
X33362205Y-15083569D01*
X33362205Y-15083569D02*
X33352681Y-15102616D01*
X33352681Y-15102616D02*
X33343158Y-15112140D01*
X33343158Y-15112140D02*
X33324110Y-15121664D01*
X33324110Y-15121664D02*
X33305062Y-15121664D01*
X33305062Y-15121664D02*
X33286015Y-15112140D01*
X33286015Y-15112140D02*
X33276491Y-15102616D01*
X33276491Y-15102616D02*
X33266967Y-15083569D01*
X33266967Y-15083569D02*
X33257443Y-15045473D01*
X33257443Y-15045473D02*
X33257443Y-14997854D01*
X33257443Y-14997854D02*
X33266967Y-14959759D01*
X33266967Y-14959759D02*
X33276491Y-14940711D01*
X33276491Y-14940711D02*
X33286015Y-14931188D01*
X33286015Y-14931188D02*
X33305062Y-14921664D01*
X33495539Y-14921664D02*
X33514586Y-14921664D01*
X33514586Y-14921664D02*
X33533634Y-14931188D01*
X33533634Y-14931188D02*
X33543158Y-14940711D01*
X33543158Y-14940711D02*
X33552681Y-14959759D01*
X33552681Y-14959759D02*
X33562205Y-14997854D01*
X33562205Y-14997854D02*
X33562205Y-15045473D01*
X33562205Y-15045473D02*
X33552681Y-15083569D01*
X33552681Y-15083569D02*
X33543158Y-15102616D01*
X33543158Y-15102616D02*
X33533634Y-15112140D01*
X33533634Y-15112140D02*
X33514586Y-15121664D01*
X33514586Y-15121664D02*
X33495539Y-15121664D01*
X33495539Y-15121664D02*
X33476491Y-15112140D01*
X33476491Y-15112140D02*
X33466967Y-15102616D01*
X33466967Y-15102616D02*
X33457443Y-15083569D01*
X33457443Y-15083569D02*
X33447920Y-15045473D01*
X33447920Y-15045473D02*
X33447920Y-14997854D01*
X33447920Y-14997854D02*
X33457443Y-14959759D01*
X33457443Y-14959759D02*
X33466967Y-14940711D01*
X33466967Y-14940711D02*
X33476491Y-14931188D01*
X33476491Y-14931188D02*
X33495539Y-14921664D01*
X33647920Y-15121664D02*
X33647920Y-14988330D01*
X33647920Y-15007378D02*
X33657443Y-14997854D01*
X33657443Y-14997854D02*
X33676491Y-14988330D01*
X33676491Y-14988330D02*
X33705063Y-14988330D01*
X33705063Y-14988330D02*
X33724110Y-14997854D01*
X33724110Y-14997854D02*
X33733634Y-15016902D01*
X33733634Y-15016902D02*
X33733634Y-15121664D01*
X33733634Y-15016902D02*
X33743158Y-14997854D01*
X33743158Y-14997854D02*
X33762205Y-14988330D01*
X33762205Y-14988330D02*
X33790777Y-14988330D01*
X33790777Y-14988330D02*
X33809824Y-14997854D01*
X33809824Y-14997854D02*
X33819348Y-15016902D01*
X33819348Y-15016902D02*
X33819348Y-15121664D01*
X33914586Y-15121664D02*
X33914586Y-14988330D01*
X33914586Y-15007378D02*
X33924110Y-14997854D01*
X33924110Y-14997854D02*
X33943158Y-14988330D01*
X33943158Y-14988330D02*
X33971729Y-14988330D01*
X33971729Y-14988330D02*
X33990777Y-14997854D01*
X33990777Y-14997854D02*
X34000301Y-15016902D01*
X34000301Y-15016902D02*
X34000301Y-15121664D01*
X34000301Y-15016902D02*
X34009824Y-14997854D01*
X34009824Y-14997854D02*
X34028872Y-14988330D01*
X34028872Y-14988330D02*
X34057443Y-14988330D01*
X34057443Y-14988330D02*
X34076491Y-14997854D01*
X34076491Y-14997854D02*
X34086015Y-15016902D01*
X34086015Y-15016902D02*
X34086015Y-15121664D01*
X34476491Y-14912140D02*
X34305063Y-15169283D01*
X34733634Y-14921664D02*
X34752682Y-14921664D01*
X34752682Y-14921664D02*
X34771729Y-14931188D01*
X34771729Y-14931188D02*
X34781253Y-14940711D01*
X34781253Y-14940711D02*
X34790777Y-14959759D01*
X34790777Y-14959759D02*
X34800301Y-14997854D01*
X34800301Y-14997854D02*
X34800301Y-15045473D01*
X34800301Y-15045473D02*
X34790777Y-15083569D01*
X34790777Y-15083569D02*
X34781253Y-15102616D01*
X34781253Y-15102616D02*
X34771729Y-15112140D01*
X34771729Y-15112140D02*
X34752682Y-15121664D01*
X34752682Y-15121664D02*
X34733634Y-15121664D01*
X34733634Y-15121664D02*
X34714586Y-15112140D01*
X34714586Y-15112140D02*
X34705063Y-15102616D01*
X34705063Y-15102616D02*
X34695539Y-15083569D01*
X34695539Y-15083569D02*
X34686015Y-15045473D01*
X34686015Y-15045473D02*
X34686015Y-14997854D01*
X34686015Y-14997854D02*
X34695539Y-14959759D01*
X34695539Y-14959759D02*
X34705063Y-14940711D01*
X34705063Y-14940711D02*
X34714586Y-14931188D01*
X34714586Y-14931188D02*
X34733634Y-14921664D01*
X34886015Y-15102616D02*
X34895539Y-15112140D01*
X34895539Y-15112140D02*
X34886015Y-15121664D01*
X34886015Y-15121664D02*
X34876491Y-15112140D01*
X34876491Y-15112140D02*
X34886015Y-15102616D01*
X34886015Y-15102616D02*
X34886015Y-15121664D01*
X35086015Y-15121664D02*
X34971729Y-15121664D01*
X35028872Y-15121664D02*
X35028872Y-14921664D01*
X35028872Y-14921664D02*
X35009825Y-14950235D01*
X35009825Y-14950235D02*
X34990777Y-14969283D01*
X34990777Y-14969283D02*
X34971729Y-14978807D01*
X35162206Y-14940711D02*
X35171729Y-14931188D01*
X35171729Y-14931188D02*
X35190777Y-14921664D01*
X35190777Y-14921664D02*
X35238396Y-14921664D01*
X35238396Y-14921664D02*
X35257444Y-14931188D01*
X35257444Y-14931188D02*
X35266967Y-14940711D01*
X35266967Y-14940711D02*
X35276491Y-14959759D01*
X35276491Y-14959759D02*
X35276491Y-14978807D01*
X35276491Y-14978807D02*
X35266967Y-15007378D01*
X35266967Y-15007378D02*
X35152682Y-15121664D01*
X35152682Y-15121664D02*
X35276491Y-15121664D01*
X35352682Y-14940711D02*
X35362206Y-14931188D01*
X35362206Y-14931188D02*
X35381253Y-14921664D01*
X35381253Y-14921664D02*
X35428872Y-14921664D01*
X35428872Y-14921664D02*
X35447920Y-14931188D01*
X35447920Y-14931188D02*
X35457444Y-14940711D01*
X35457444Y-14940711D02*
X35466967Y-14959759D01*
X35466967Y-14959759D02*
X35466967Y-14978807D01*
X35466967Y-14978807D02*
X35457444Y-15007378D01*
X35457444Y-15007378D02*
X35343158Y-15121664D01*
X35343158Y-15121664D02*
X35466967Y-15121664D01*
X35590777Y-14921664D02*
X35609825Y-14921664D01*
X35609825Y-14921664D02*
X35628872Y-14931188D01*
X35628872Y-14931188D02*
X35638396Y-14940711D01*
X35638396Y-14940711D02*
X35647920Y-14959759D01*
X35647920Y-14959759D02*
X35657444Y-14997854D01*
X35657444Y-14997854D02*
X35657444Y-15045473D01*
X35657444Y-15045473D02*
X35647920Y-15083569D01*
X35647920Y-15083569D02*
X35638396Y-15102616D01*
X35638396Y-15102616D02*
X35628872Y-15112140D01*
X35628872Y-15112140D02*
X35609825Y-15121664D01*
X35609825Y-15121664D02*
X35590777Y-15121664D01*
X35590777Y-15121664D02*
X35571729Y-15112140D01*
X35571729Y-15112140D02*
X35562206Y-15102616D01*
X35562206Y-15102616D02*
X35552682Y-15083569D01*
X35552682Y-15083569D02*
X35543158Y-15045473D01*
X35543158Y-15045473D02*
X35543158Y-14997854D01*
X35543158Y-14997854D02*
X35552682Y-14959759D01*
X35552682Y-14959759D02*
X35562206Y-14940711D01*
X35562206Y-14940711D02*
X35571729Y-14931188D01*
X35571729Y-14931188D02*
X35590777Y-14921664D01*
X35733634Y-14921664D02*
X35733634Y-14959759D01*
X35809825Y-14921664D02*
X35809825Y-14959759D01*
X36105063Y-15197854D02*
X36095539Y-15188330D01*
X36095539Y-15188330D02*
X36076491Y-15159759D01*
X36076491Y-15159759D02*
X36066968Y-15140711D01*
X36066968Y-15140711D02*
X36057444Y-15112140D01*
X36057444Y-15112140D02*
X36047920Y-15064521D01*
X36047920Y-15064521D02*
X36047920Y-15026426D01*
X36047920Y-15026426D02*
X36057444Y-14978807D01*
X36057444Y-14978807D02*
X36066968Y-14950235D01*
X36066968Y-14950235D02*
X36076491Y-14931188D01*
X36076491Y-14931188D02*
X36095539Y-14902616D01*
X36095539Y-14902616D02*
X36105063Y-14893092D01*
X36266968Y-14988330D02*
X36266968Y-15121664D01*
X36219348Y-14912140D02*
X36171729Y-15054997D01*
X36171729Y-15054997D02*
X36295539Y-15054997D01*
X36524110Y-15121664D02*
X36524110Y-14921664D01*
X36609825Y-15121664D02*
X36609825Y-15016902D01*
X36609825Y-15016902D02*
X36600301Y-14997854D01*
X36600301Y-14997854D02*
X36581253Y-14988330D01*
X36581253Y-14988330D02*
X36552682Y-14988330D01*
X36552682Y-14988330D02*
X36533634Y-14997854D01*
X36533634Y-14997854D02*
X36524110Y-15007378D01*
X36733634Y-15121664D02*
X36714587Y-15112140D01*
X36714587Y-15112140D02*
X36705063Y-15102616D01*
X36705063Y-15102616D02*
X36695539Y-15083569D01*
X36695539Y-15083569D02*
X36695539Y-15026426D01*
X36695539Y-15026426D02*
X36705063Y-15007378D01*
X36705063Y-15007378D02*
X36714587Y-14997854D01*
X36714587Y-14997854D02*
X36733634Y-14988330D01*
X36733634Y-14988330D02*
X36762206Y-14988330D01*
X36762206Y-14988330D02*
X36781253Y-14997854D01*
X36781253Y-14997854D02*
X36790777Y-15007378D01*
X36790777Y-15007378D02*
X36800301Y-15026426D01*
X36800301Y-15026426D02*
X36800301Y-15083569D01*
X36800301Y-15083569D02*
X36790777Y-15102616D01*
X36790777Y-15102616D02*
X36781253Y-15112140D01*
X36781253Y-15112140D02*
X36762206Y-15121664D01*
X36762206Y-15121664D02*
X36733634Y-15121664D01*
X36914587Y-15121664D02*
X36895539Y-15112140D01*
X36895539Y-15112140D02*
X36886015Y-15093092D01*
X36886015Y-15093092D02*
X36886015Y-14921664D01*
X37066968Y-15112140D02*
X37047920Y-15121664D01*
X37047920Y-15121664D02*
X37009825Y-15121664D01*
X37009825Y-15121664D02*
X36990777Y-15112140D01*
X36990777Y-15112140D02*
X36981253Y-15093092D01*
X36981253Y-15093092D02*
X36981253Y-15016902D01*
X36981253Y-15016902D02*
X36990777Y-14997854D01*
X36990777Y-14997854D02*
X37009825Y-14988330D01*
X37009825Y-14988330D02*
X37047920Y-14988330D01*
X37047920Y-14988330D02*
X37066968Y-14997854D01*
X37066968Y-14997854D02*
X37076491Y-15016902D01*
X37076491Y-15016902D02*
X37076491Y-15035950D01*
X37076491Y-15035950D02*
X36981253Y-15054997D01*
X37152682Y-15112140D02*
X37171730Y-15121664D01*
X37171730Y-15121664D02*
X37209825Y-15121664D01*
X37209825Y-15121664D02*
X37228872Y-15112140D01*
X37228872Y-15112140D02*
X37238396Y-15093092D01*
X37238396Y-15093092D02*
X37238396Y-15083569D01*
X37238396Y-15083569D02*
X37228872Y-15064521D01*
X37228872Y-15064521D02*
X37209825Y-15054997D01*
X37209825Y-15054997D02*
X37181253Y-15054997D01*
X37181253Y-15054997D02*
X37162206Y-15045473D01*
X37162206Y-15045473D02*
X37152682Y-15026426D01*
X37152682Y-15026426D02*
X37152682Y-15016902D01*
X37152682Y-15016902D02*
X37162206Y-14997854D01*
X37162206Y-14997854D02*
X37181253Y-14988330D01*
X37181253Y-14988330D02*
X37209825Y-14988330D01*
X37209825Y-14988330D02*
X37228872Y-14997854D01*
X37305063Y-15197854D02*
X37314587Y-15188330D01*
X37314587Y-15188330D02*
X37333634Y-15159759D01*
X37333634Y-15159759D02*
X37343158Y-15140711D01*
X37343158Y-15140711D02*
X37352682Y-15112140D01*
X37352682Y-15112140D02*
X37362206Y-15064521D01*
X37362206Y-15064521D02*
X37362206Y-15026426D01*
X37362206Y-15026426D02*
X37352682Y-14978807D01*
X37352682Y-14978807D02*
X37343158Y-14950235D01*
X37343158Y-14950235D02*
X37333634Y-14931188D01*
X37333634Y-14931188D02*
X37314587Y-14902616D01*
X37314587Y-14902616D02*
X37305063Y-14893092D01*
X37666968Y-15197854D02*
X37657444Y-15188330D01*
X37657444Y-15188330D02*
X37638396Y-15159759D01*
X37638396Y-15159759D02*
X37628872Y-15140711D01*
X37628872Y-15140711D02*
X37619349Y-15112140D01*
X37619349Y-15112140D02*
X37609825Y-15064521D01*
X37609825Y-15064521D02*
X37609825Y-15026426D01*
X37609825Y-15026426D02*
X37619349Y-14978807D01*
X37619349Y-14978807D02*
X37628872Y-14950235D01*
X37628872Y-14950235D02*
X37638396Y-14931188D01*
X37638396Y-14931188D02*
X37657444Y-14902616D01*
X37657444Y-14902616D02*
X37666968Y-14893092D01*
X37743158Y-14988330D02*
X37743158Y-15121664D01*
X37743158Y-15007378D02*
X37752682Y-14997854D01*
X37752682Y-14997854D02*
X37771730Y-14988330D01*
X37771730Y-14988330D02*
X37800301Y-14988330D01*
X37800301Y-14988330D02*
X37819349Y-14997854D01*
X37819349Y-14997854D02*
X37828872Y-15016902D01*
X37828872Y-15016902D02*
X37828872Y-15121664D01*
X37952682Y-15121664D02*
X37933634Y-15112140D01*
X37933634Y-15112140D02*
X37924111Y-15102616D01*
X37924111Y-15102616D02*
X37914587Y-15083569D01*
X37914587Y-15083569D02*
X37914587Y-15026426D01*
X37914587Y-15026426D02*
X37924111Y-15007378D01*
X37924111Y-15007378D02*
X37933634Y-14997854D01*
X37933634Y-14997854D02*
X37952682Y-14988330D01*
X37952682Y-14988330D02*
X37981253Y-14988330D01*
X37981253Y-14988330D02*
X38000301Y-14997854D01*
X38000301Y-14997854D02*
X38009825Y-15007378D01*
X38009825Y-15007378D02*
X38019349Y-15026426D01*
X38019349Y-15026426D02*
X38019349Y-15083569D01*
X38019349Y-15083569D02*
X38009825Y-15102616D01*
X38009825Y-15102616D02*
X38000301Y-15112140D01*
X38000301Y-15112140D02*
X37981253Y-15121664D01*
X37981253Y-15121664D02*
X37952682Y-15121664D01*
X38076492Y-14988330D02*
X38152682Y-14988330D01*
X38105063Y-14921664D02*
X38105063Y-15093092D01*
X38105063Y-15093092D02*
X38114587Y-15112140D01*
X38114587Y-15112140D02*
X38133634Y-15121664D01*
X38133634Y-15121664D02*
X38152682Y-15121664D01*
X38371730Y-14988330D02*
X38371730Y-15188330D01*
X38371730Y-14997854D02*
X38390777Y-14988330D01*
X38390777Y-14988330D02*
X38428873Y-14988330D01*
X38428873Y-14988330D02*
X38447920Y-14997854D01*
X38447920Y-14997854D02*
X38457444Y-15007378D01*
X38457444Y-15007378D02*
X38466968Y-15026426D01*
X38466968Y-15026426D02*
X38466968Y-15083569D01*
X38466968Y-15083569D02*
X38457444Y-15102616D01*
X38457444Y-15102616D02*
X38447920Y-15112140D01*
X38447920Y-15112140D02*
X38428873Y-15121664D01*
X38428873Y-15121664D02*
X38390777Y-15121664D01*
X38390777Y-15121664D02*
X38371730Y-15112140D01*
X38581253Y-15121664D02*
X38562206Y-15112140D01*
X38562206Y-15112140D02*
X38552682Y-15093092D01*
X38552682Y-15093092D02*
X38552682Y-14921664D01*
X38743158Y-15121664D02*
X38743158Y-15016902D01*
X38743158Y-15016902D02*
X38733634Y-14997854D01*
X38733634Y-14997854D02*
X38714587Y-14988330D01*
X38714587Y-14988330D02*
X38676492Y-14988330D01*
X38676492Y-14988330D02*
X38657444Y-14997854D01*
X38743158Y-15112140D02*
X38724111Y-15121664D01*
X38724111Y-15121664D02*
X38676492Y-15121664D01*
X38676492Y-15121664D02*
X38657444Y-15112140D01*
X38657444Y-15112140D02*
X38647920Y-15093092D01*
X38647920Y-15093092D02*
X38647920Y-15074045D01*
X38647920Y-15074045D02*
X38657444Y-15054997D01*
X38657444Y-15054997D02*
X38676492Y-15045473D01*
X38676492Y-15045473D02*
X38724111Y-15045473D01*
X38724111Y-15045473D02*
X38743158Y-15035950D01*
X38809825Y-14988330D02*
X38886015Y-14988330D01*
X38838396Y-14921664D02*
X38838396Y-15093092D01*
X38838396Y-15093092D02*
X38847920Y-15112140D01*
X38847920Y-15112140D02*
X38866968Y-15121664D01*
X38866968Y-15121664D02*
X38886015Y-15121664D01*
X39028873Y-15112140D02*
X39009825Y-15121664D01*
X39009825Y-15121664D02*
X38971730Y-15121664D01*
X38971730Y-15121664D02*
X38952682Y-15112140D01*
X38952682Y-15112140D02*
X38943158Y-15093092D01*
X38943158Y-15093092D02*
X38943158Y-15016902D01*
X38943158Y-15016902D02*
X38952682Y-14997854D01*
X38952682Y-14997854D02*
X38971730Y-14988330D01*
X38971730Y-14988330D02*
X39009825Y-14988330D01*
X39009825Y-14988330D02*
X39028873Y-14997854D01*
X39028873Y-14997854D02*
X39038396Y-15016902D01*
X39038396Y-15016902D02*
X39038396Y-15035950D01*
X39038396Y-15035950D02*
X38943158Y-15054997D01*
X39209825Y-15121664D02*
X39209825Y-14921664D01*
X39209825Y-15112140D02*
X39190777Y-15121664D01*
X39190777Y-15121664D02*
X39152682Y-15121664D01*
X39152682Y-15121664D02*
X39133634Y-15112140D01*
X39133634Y-15112140D02*
X39124111Y-15102616D01*
X39124111Y-15102616D02*
X39114587Y-15083569D01*
X39114587Y-15083569D02*
X39114587Y-15026426D01*
X39114587Y-15026426D02*
X39124111Y-15007378D01*
X39124111Y-15007378D02*
X39133634Y-14997854D01*
X39133634Y-14997854D02*
X39152682Y-14988330D01*
X39152682Y-14988330D02*
X39190777Y-14988330D01*
X39190777Y-14988330D02*
X39209825Y-14997854D01*
X39286015Y-15197854D02*
X39295539Y-15188330D01*
X39295539Y-15188330D02*
X39314587Y-15159759D01*
X39314587Y-15159759D02*
X39324111Y-15140711D01*
X39324111Y-15140711D02*
X39333634Y-15112140D01*
X39333634Y-15112140D02*
X39343158Y-15064521D01*
X39343158Y-15064521D02*
X39343158Y-15026426D01*
X39343158Y-15026426D02*
X39333634Y-14978807D01*
X39333634Y-14978807D02*
X39324111Y-14950235D01*
X39324111Y-14950235D02*
X39314587Y-14931188D01*
X39314587Y-14931188D02*
X39295539Y-14902616D01*
X39295539Y-14902616D02*
X39286015Y-14893092D01*
X32330000Y-15250180D02*
X32530000Y-15450180D01*
X32530000Y-15250180D02*
X32330000Y-15450180D01*
X32530000Y-15350180D02*
G75*
G02*
X32330000Y-15350180I-100000J0D01*
G01*
X32330000Y-15350180D02*
G75*
G02*
X32530000Y-15350180I100000J0D01*
G01*
X32771729Y-15241664D02*
X32895539Y-15241664D01*
X32895539Y-15241664D02*
X32828872Y-15317854D01*
X32828872Y-15317854D02*
X32857443Y-15317854D01*
X32857443Y-15317854D02*
X32876491Y-15327378D01*
X32876491Y-15327378D02*
X32886015Y-15336902D01*
X32886015Y-15336902D02*
X32895539Y-15355950D01*
X32895539Y-15355950D02*
X32895539Y-15403569D01*
X32895539Y-15403569D02*
X32886015Y-15422616D01*
X32886015Y-15422616D02*
X32876491Y-15432140D01*
X32876491Y-15432140D02*
X32857443Y-15441664D01*
X32857443Y-15441664D02*
X32800300Y-15441664D01*
X32800300Y-15441664D02*
X32781253Y-15432140D01*
X32781253Y-15432140D02*
X32771729Y-15422616D01*
X32981253Y-15422616D02*
X32990777Y-15432140D01*
X32990777Y-15432140D02*
X32981253Y-15441664D01*
X32981253Y-15441664D02*
X32971729Y-15432140D01*
X32971729Y-15432140D02*
X32981253Y-15422616D01*
X32981253Y-15422616D02*
X32981253Y-15441664D01*
X33066967Y-15260711D02*
X33076491Y-15251188D01*
X33076491Y-15251188D02*
X33095539Y-15241664D01*
X33095539Y-15241664D02*
X33143158Y-15241664D01*
X33143158Y-15241664D02*
X33162205Y-15251188D01*
X33162205Y-15251188D02*
X33171729Y-15260711D01*
X33171729Y-15260711D02*
X33181253Y-15279759D01*
X33181253Y-15279759D02*
X33181253Y-15298807D01*
X33181253Y-15298807D02*
X33171729Y-15327378D01*
X33171729Y-15327378D02*
X33057443Y-15441664D01*
X33057443Y-15441664D02*
X33181253Y-15441664D01*
X33305062Y-15241664D02*
X33324110Y-15241664D01*
X33324110Y-15241664D02*
X33343158Y-15251188D01*
X33343158Y-15251188D02*
X33352681Y-15260711D01*
X33352681Y-15260711D02*
X33362205Y-15279759D01*
X33362205Y-15279759D02*
X33371729Y-15317854D01*
X33371729Y-15317854D02*
X33371729Y-15365473D01*
X33371729Y-15365473D02*
X33362205Y-15403569D01*
X33362205Y-15403569D02*
X33352681Y-15422616D01*
X33352681Y-15422616D02*
X33343158Y-15432140D01*
X33343158Y-15432140D02*
X33324110Y-15441664D01*
X33324110Y-15441664D02*
X33305062Y-15441664D01*
X33305062Y-15441664D02*
X33286015Y-15432140D01*
X33286015Y-15432140D02*
X33276491Y-15422616D01*
X33276491Y-15422616D02*
X33266967Y-15403569D01*
X33266967Y-15403569D02*
X33257443Y-15365473D01*
X33257443Y-15365473D02*
X33257443Y-15317854D01*
X33257443Y-15317854D02*
X33266967Y-15279759D01*
X33266967Y-15279759D02*
X33276491Y-15260711D01*
X33276491Y-15260711D02*
X33286015Y-15251188D01*
X33286015Y-15251188D02*
X33305062Y-15241664D01*
X33495539Y-15241664D02*
X33514586Y-15241664D01*
X33514586Y-15241664D02*
X33533634Y-15251188D01*
X33533634Y-15251188D02*
X33543158Y-15260711D01*
X33543158Y-15260711D02*
X33552681Y-15279759D01*
X33552681Y-15279759D02*
X33562205Y-15317854D01*
X33562205Y-15317854D02*
X33562205Y-15365473D01*
X33562205Y-15365473D02*
X33552681Y-15403569D01*
X33552681Y-15403569D02*
X33543158Y-15422616D01*
X33543158Y-15422616D02*
X33533634Y-15432140D01*
X33533634Y-15432140D02*
X33514586Y-15441664D01*
X33514586Y-15441664D02*
X33495539Y-15441664D01*
X33495539Y-15441664D02*
X33476491Y-15432140D01*
X33476491Y-15432140D02*
X33466967Y-15422616D01*
X33466967Y-15422616D02*
X33457443Y-15403569D01*
X33457443Y-15403569D02*
X33447920Y-15365473D01*
X33447920Y-15365473D02*
X33447920Y-15317854D01*
X33447920Y-15317854D02*
X33457443Y-15279759D01*
X33457443Y-15279759D02*
X33466967Y-15260711D01*
X33466967Y-15260711D02*
X33476491Y-15251188D01*
X33476491Y-15251188D02*
X33495539Y-15241664D01*
X33647920Y-15441664D02*
X33647920Y-15308330D01*
X33647920Y-15327378D02*
X33657443Y-15317854D01*
X33657443Y-15317854D02*
X33676491Y-15308330D01*
X33676491Y-15308330D02*
X33705063Y-15308330D01*
X33705063Y-15308330D02*
X33724110Y-15317854D01*
X33724110Y-15317854D02*
X33733634Y-15336902D01*
X33733634Y-15336902D02*
X33733634Y-15441664D01*
X33733634Y-15336902D02*
X33743158Y-15317854D01*
X33743158Y-15317854D02*
X33762205Y-15308330D01*
X33762205Y-15308330D02*
X33790777Y-15308330D01*
X33790777Y-15308330D02*
X33809824Y-15317854D01*
X33809824Y-15317854D02*
X33819348Y-15336902D01*
X33819348Y-15336902D02*
X33819348Y-15441664D01*
X33914586Y-15441664D02*
X33914586Y-15308330D01*
X33914586Y-15327378D02*
X33924110Y-15317854D01*
X33924110Y-15317854D02*
X33943158Y-15308330D01*
X33943158Y-15308330D02*
X33971729Y-15308330D01*
X33971729Y-15308330D02*
X33990777Y-15317854D01*
X33990777Y-15317854D02*
X34000301Y-15336902D01*
X34000301Y-15336902D02*
X34000301Y-15441664D01*
X34000301Y-15336902D02*
X34009824Y-15317854D01*
X34009824Y-15317854D02*
X34028872Y-15308330D01*
X34028872Y-15308330D02*
X34057443Y-15308330D01*
X34057443Y-15308330D02*
X34076491Y-15317854D01*
X34076491Y-15317854D02*
X34086015Y-15336902D01*
X34086015Y-15336902D02*
X34086015Y-15441664D01*
X34476491Y-15232140D02*
X34305063Y-15489283D01*
X34733634Y-15241664D02*
X34752682Y-15241664D01*
X34752682Y-15241664D02*
X34771729Y-15251188D01*
X34771729Y-15251188D02*
X34781253Y-15260711D01*
X34781253Y-15260711D02*
X34790777Y-15279759D01*
X34790777Y-15279759D02*
X34800301Y-15317854D01*
X34800301Y-15317854D02*
X34800301Y-15365473D01*
X34800301Y-15365473D02*
X34790777Y-15403569D01*
X34790777Y-15403569D02*
X34781253Y-15422616D01*
X34781253Y-15422616D02*
X34771729Y-15432140D01*
X34771729Y-15432140D02*
X34752682Y-15441664D01*
X34752682Y-15441664D02*
X34733634Y-15441664D01*
X34733634Y-15441664D02*
X34714586Y-15432140D01*
X34714586Y-15432140D02*
X34705063Y-15422616D01*
X34705063Y-15422616D02*
X34695539Y-15403569D01*
X34695539Y-15403569D02*
X34686015Y-15365473D01*
X34686015Y-15365473D02*
X34686015Y-15317854D01*
X34686015Y-15317854D02*
X34695539Y-15279759D01*
X34695539Y-15279759D02*
X34705063Y-15260711D01*
X34705063Y-15260711D02*
X34714586Y-15251188D01*
X34714586Y-15251188D02*
X34733634Y-15241664D01*
X34886015Y-15422616D02*
X34895539Y-15432140D01*
X34895539Y-15432140D02*
X34886015Y-15441664D01*
X34886015Y-15441664D02*
X34876491Y-15432140D01*
X34876491Y-15432140D02*
X34886015Y-15422616D01*
X34886015Y-15422616D02*
X34886015Y-15441664D01*
X35086015Y-15441664D02*
X34971729Y-15441664D01*
X35028872Y-15441664D02*
X35028872Y-15241664D01*
X35028872Y-15241664D02*
X35009825Y-15270235D01*
X35009825Y-15270235D02*
X34990777Y-15289283D01*
X34990777Y-15289283D02*
X34971729Y-15298807D01*
X35162206Y-15260711D02*
X35171729Y-15251188D01*
X35171729Y-15251188D02*
X35190777Y-15241664D01*
X35190777Y-15241664D02*
X35238396Y-15241664D01*
X35238396Y-15241664D02*
X35257444Y-15251188D01*
X35257444Y-15251188D02*
X35266967Y-15260711D01*
X35266967Y-15260711D02*
X35276491Y-15279759D01*
X35276491Y-15279759D02*
X35276491Y-15298807D01*
X35276491Y-15298807D02*
X35266967Y-15327378D01*
X35266967Y-15327378D02*
X35152682Y-15441664D01*
X35152682Y-15441664D02*
X35276491Y-15441664D01*
X35447920Y-15241664D02*
X35409825Y-15241664D01*
X35409825Y-15241664D02*
X35390777Y-15251188D01*
X35390777Y-15251188D02*
X35381253Y-15260711D01*
X35381253Y-15260711D02*
X35362206Y-15289283D01*
X35362206Y-15289283D02*
X35352682Y-15327378D01*
X35352682Y-15327378D02*
X35352682Y-15403569D01*
X35352682Y-15403569D02*
X35362206Y-15422616D01*
X35362206Y-15422616D02*
X35371729Y-15432140D01*
X35371729Y-15432140D02*
X35390777Y-15441664D01*
X35390777Y-15441664D02*
X35428872Y-15441664D01*
X35428872Y-15441664D02*
X35447920Y-15432140D01*
X35447920Y-15432140D02*
X35457444Y-15422616D01*
X35457444Y-15422616D02*
X35466967Y-15403569D01*
X35466967Y-15403569D02*
X35466967Y-15355950D01*
X35466967Y-15355950D02*
X35457444Y-15336902D01*
X35457444Y-15336902D02*
X35447920Y-15327378D01*
X35447920Y-15327378D02*
X35428872Y-15317854D01*
X35428872Y-15317854D02*
X35390777Y-15317854D01*
X35390777Y-15317854D02*
X35371729Y-15327378D01*
X35371729Y-15327378D02*
X35362206Y-15336902D01*
X35362206Y-15336902D02*
X35352682Y-15355950D01*
X35590777Y-15241664D02*
X35609825Y-15241664D01*
X35609825Y-15241664D02*
X35628872Y-15251188D01*
X35628872Y-15251188D02*
X35638396Y-15260711D01*
X35638396Y-15260711D02*
X35647920Y-15279759D01*
X35647920Y-15279759D02*
X35657444Y-15317854D01*
X35657444Y-15317854D02*
X35657444Y-15365473D01*
X35657444Y-15365473D02*
X35647920Y-15403569D01*
X35647920Y-15403569D02*
X35638396Y-15422616D01*
X35638396Y-15422616D02*
X35628872Y-15432140D01*
X35628872Y-15432140D02*
X35609825Y-15441664D01*
X35609825Y-15441664D02*
X35590777Y-15441664D01*
X35590777Y-15441664D02*
X35571729Y-15432140D01*
X35571729Y-15432140D02*
X35562206Y-15422616D01*
X35562206Y-15422616D02*
X35552682Y-15403569D01*
X35552682Y-15403569D02*
X35543158Y-15365473D01*
X35543158Y-15365473D02*
X35543158Y-15317854D01*
X35543158Y-15317854D02*
X35552682Y-15279759D01*
X35552682Y-15279759D02*
X35562206Y-15260711D01*
X35562206Y-15260711D02*
X35571729Y-15251188D01*
X35571729Y-15251188D02*
X35590777Y-15241664D01*
X35733634Y-15241664D02*
X35733634Y-15279759D01*
X35809825Y-15241664D02*
X35809825Y-15279759D01*
X36105063Y-15517854D02*
X36095539Y-15508330D01*
X36095539Y-15508330D02*
X36076491Y-15479759D01*
X36076491Y-15479759D02*
X36066968Y-15460711D01*
X36066968Y-15460711D02*
X36057444Y-15432140D01*
X36057444Y-15432140D02*
X36047920Y-15384521D01*
X36047920Y-15384521D02*
X36047920Y-15346426D01*
X36047920Y-15346426D02*
X36057444Y-15298807D01*
X36057444Y-15298807D02*
X36066968Y-15270235D01*
X36066968Y-15270235D02*
X36076491Y-15251188D01*
X36076491Y-15251188D02*
X36095539Y-15222616D01*
X36095539Y-15222616D02*
X36105063Y-15213092D01*
X36266968Y-15241664D02*
X36228872Y-15241664D01*
X36228872Y-15241664D02*
X36209825Y-15251188D01*
X36209825Y-15251188D02*
X36200301Y-15260711D01*
X36200301Y-15260711D02*
X36181253Y-15289283D01*
X36181253Y-15289283D02*
X36171729Y-15327378D01*
X36171729Y-15327378D02*
X36171729Y-15403569D01*
X36171729Y-15403569D02*
X36181253Y-15422616D01*
X36181253Y-15422616D02*
X36190777Y-15432140D01*
X36190777Y-15432140D02*
X36209825Y-15441664D01*
X36209825Y-15441664D02*
X36247920Y-15441664D01*
X36247920Y-15441664D02*
X36266968Y-15432140D01*
X36266968Y-15432140D02*
X36276491Y-15422616D01*
X36276491Y-15422616D02*
X36286015Y-15403569D01*
X36286015Y-15403569D02*
X36286015Y-15355950D01*
X36286015Y-15355950D02*
X36276491Y-15336902D01*
X36276491Y-15336902D02*
X36266968Y-15327378D01*
X36266968Y-15327378D02*
X36247920Y-15317854D01*
X36247920Y-15317854D02*
X36209825Y-15317854D01*
X36209825Y-15317854D02*
X36190777Y-15327378D01*
X36190777Y-15327378D02*
X36181253Y-15336902D01*
X36181253Y-15336902D02*
X36171729Y-15355950D01*
X36524110Y-15441664D02*
X36524110Y-15241664D01*
X36609825Y-15441664D02*
X36609825Y-15336902D01*
X36609825Y-15336902D02*
X36600301Y-15317854D01*
X36600301Y-15317854D02*
X36581253Y-15308330D01*
X36581253Y-15308330D02*
X36552682Y-15308330D01*
X36552682Y-15308330D02*
X36533634Y-15317854D01*
X36533634Y-15317854D02*
X36524110Y-15327378D01*
X36733634Y-15441664D02*
X36714587Y-15432140D01*
X36714587Y-15432140D02*
X36705063Y-15422616D01*
X36705063Y-15422616D02*
X36695539Y-15403569D01*
X36695539Y-15403569D02*
X36695539Y-15346426D01*
X36695539Y-15346426D02*
X36705063Y-15327378D01*
X36705063Y-15327378D02*
X36714587Y-15317854D01*
X36714587Y-15317854D02*
X36733634Y-15308330D01*
X36733634Y-15308330D02*
X36762206Y-15308330D01*
X36762206Y-15308330D02*
X36781253Y-15317854D01*
X36781253Y-15317854D02*
X36790777Y-15327378D01*
X36790777Y-15327378D02*
X36800301Y-15346426D01*
X36800301Y-15346426D02*
X36800301Y-15403569D01*
X36800301Y-15403569D02*
X36790777Y-15422616D01*
X36790777Y-15422616D02*
X36781253Y-15432140D01*
X36781253Y-15432140D02*
X36762206Y-15441664D01*
X36762206Y-15441664D02*
X36733634Y-15441664D01*
X36914587Y-15441664D02*
X36895539Y-15432140D01*
X36895539Y-15432140D02*
X36886015Y-15413092D01*
X36886015Y-15413092D02*
X36886015Y-15241664D01*
X37066968Y-15432140D02*
X37047920Y-15441664D01*
X37047920Y-15441664D02*
X37009825Y-15441664D01*
X37009825Y-15441664D02*
X36990777Y-15432140D01*
X36990777Y-15432140D02*
X36981253Y-15413092D01*
X36981253Y-15413092D02*
X36981253Y-15336902D01*
X36981253Y-15336902D02*
X36990777Y-15317854D01*
X36990777Y-15317854D02*
X37009825Y-15308330D01*
X37009825Y-15308330D02*
X37047920Y-15308330D01*
X37047920Y-15308330D02*
X37066968Y-15317854D01*
X37066968Y-15317854D02*
X37076491Y-15336902D01*
X37076491Y-15336902D02*
X37076491Y-15355950D01*
X37076491Y-15355950D02*
X36981253Y-15374997D01*
X37152682Y-15432140D02*
X37171730Y-15441664D01*
X37171730Y-15441664D02*
X37209825Y-15441664D01*
X37209825Y-15441664D02*
X37228872Y-15432140D01*
X37228872Y-15432140D02*
X37238396Y-15413092D01*
X37238396Y-15413092D02*
X37238396Y-15403569D01*
X37238396Y-15403569D02*
X37228872Y-15384521D01*
X37228872Y-15384521D02*
X37209825Y-15374997D01*
X37209825Y-15374997D02*
X37181253Y-15374997D01*
X37181253Y-15374997D02*
X37162206Y-15365473D01*
X37162206Y-15365473D02*
X37152682Y-15346426D01*
X37152682Y-15346426D02*
X37152682Y-15336902D01*
X37152682Y-15336902D02*
X37162206Y-15317854D01*
X37162206Y-15317854D02*
X37181253Y-15308330D01*
X37181253Y-15308330D02*
X37209825Y-15308330D01*
X37209825Y-15308330D02*
X37228872Y-15317854D01*
X37305063Y-15517854D02*
X37314587Y-15508330D01*
X37314587Y-15508330D02*
X37333634Y-15479759D01*
X37333634Y-15479759D02*
X37343158Y-15460711D01*
X37343158Y-15460711D02*
X37352682Y-15432140D01*
X37352682Y-15432140D02*
X37362206Y-15384521D01*
X37362206Y-15384521D02*
X37362206Y-15346426D01*
X37362206Y-15346426D02*
X37352682Y-15298807D01*
X37352682Y-15298807D02*
X37343158Y-15270235D01*
X37343158Y-15270235D02*
X37333634Y-15251188D01*
X37333634Y-15251188D02*
X37314587Y-15222616D01*
X37314587Y-15222616D02*
X37305063Y-15213092D01*
X37666968Y-15517854D02*
X37657444Y-15508330D01*
X37657444Y-15508330D02*
X37638396Y-15479759D01*
X37638396Y-15479759D02*
X37628872Y-15460711D01*
X37628872Y-15460711D02*
X37619349Y-15432140D01*
X37619349Y-15432140D02*
X37609825Y-15384521D01*
X37609825Y-15384521D02*
X37609825Y-15346426D01*
X37609825Y-15346426D02*
X37619349Y-15298807D01*
X37619349Y-15298807D02*
X37628872Y-15270235D01*
X37628872Y-15270235D02*
X37638396Y-15251188D01*
X37638396Y-15251188D02*
X37657444Y-15222616D01*
X37657444Y-15222616D02*
X37666968Y-15213092D01*
X37743158Y-15308330D02*
X37743158Y-15441664D01*
X37743158Y-15327378D02*
X37752682Y-15317854D01*
X37752682Y-15317854D02*
X37771730Y-15308330D01*
X37771730Y-15308330D02*
X37800301Y-15308330D01*
X37800301Y-15308330D02*
X37819349Y-15317854D01*
X37819349Y-15317854D02*
X37828872Y-15336902D01*
X37828872Y-15336902D02*
X37828872Y-15441664D01*
X37952682Y-15441664D02*
X37933634Y-15432140D01*
X37933634Y-15432140D02*
X37924111Y-15422616D01*
X37924111Y-15422616D02*
X37914587Y-15403569D01*
X37914587Y-15403569D02*
X37914587Y-15346426D01*
X37914587Y-15346426D02*
X37924111Y-15327378D01*
X37924111Y-15327378D02*
X37933634Y-15317854D01*
X37933634Y-15317854D02*
X37952682Y-15308330D01*
X37952682Y-15308330D02*
X37981253Y-15308330D01*
X37981253Y-15308330D02*
X38000301Y-15317854D01*
X38000301Y-15317854D02*
X38009825Y-15327378D01*
X38009825Y-15327378D02*
X38019349Y-15346426D01*
X38019349Y-15346426D02*
X38019349Y-15403569D01*
X38019349Y-15403569D02*
X38009825Y-15422616D01*
X38009825Y-15422616D02*
X38000301Y-15432140D01*
X38000301Y-15432140D02*
X37981253Y-15441664D01*
X37981253Y-15441664D02*
X37952682Y-15441664D01*
X38076492Y-15308330D02*
X38152682Y-15308330D01*
X38105063Y-15241664D02*
X38105063Y-15413092D01*
X38105063Y-15413092D02*
X38114587Y-15432140D01*
X38114587Y-15432140D02*
X38133634Y-15441664D01*
X38133634Y-15441664D02*
X38152682Y-15441664D01*
X38371730Y-15308330D02*
X38371730Y-15508330D01*
X38371730Y-15317854D02*
X38390777Y-15308330D01*
X38390777Y-15308330D02*
X38428873Y-15308330D01*
X38428873Y-15308330D02*
X38447920Y-15317854D01*
X38447920Y-15317854D02*
X38457444Y-15327378D01*
X38457444Y-15327378D02*
X38466968Y-15346426D01*
X38466968Y-15346426D02*
X38466968Y-15403569D01*
X38466968Y-15403569D02*
X38457444Y-15422616D01*
X38457444Y-15422616D02*
X38447920Y-15432140D01*
X38447920Y-15432140D02*
X38428873Y-15441664D01*
X38428873Y-15441664D02*
X38390777Y-15441664D01*
X38390777Y-15441664D02*
X38371730Y-15432140D01*
X38581253Y-15441664D02*
X38562206Y-15432140D01*
X38562206Y-15432140D02*
X38552682Y-15413092D01*
X38552682Y-15413092D02*
X38552682Y-15241664D01*
X38743158Y-15441664D02*
X38743158Y-15336902D01*
X38743158Y-15336902D02*
X38733634Y-15317854D01*
X38733634Y-15317854D02*
X38714587Y-15308330D01*
X38714587Y-15308330D02*
X38676492Y-15308330D01*
X38676492Y-15308330D02*
X38657444Y-15317854D01*
X38743158Y-15432140D02*
X38724111Y-15441664D01*
X38724111Y-15441664D02*
X38676492Y-15441664D01*
X38676492Y-15441664D02*
X38657444Y-15432140D01*
X38657444Y-15432140D02*
X38647920Y-15413092D01*
X38647920Y-15413092D02*
X38647920Y-15394045D01*
X38647920Y-15394045D02*
X38657444Y-15374997D01*
X38657444Y-15374997D02*
X38676492Y-15365473D01*
X38676492Y-15365473D02*
X38724111Y-15365473D01*
X38724111Y-15365473D02*
X38743158Y-15355950D01*
X38809825Y-15308330D02*
X38886015Y-15308330D01*
X38838396Y-15241664D02*
X38838396Y-15413092D01*
X38838396Y-15413092D02*
X38847920Y-15432140D01*
X38847920Y-15432140D02*
X38866968Y-15441664D01*
X38866968Y-15441664D02*
X38886015Y-15441664D01*
X39028873Y-15432140D02*
X39009825Y-15441664D01*
X39009825Y-15441664D02*
X38971730Y-15441664D01*
X38971730Y-15441664D02*
X38952682Y-15432140D01*
X38952682Y-15432140D02*
X38943158Y-15413092D01*
X38943158Y-15413092D02*
X38943158Y-15336902D01*
X38943158Y-15336902D02*
X38952682Y-15317854D01*
X38952682Y-15317854D02*
X38971730Y-15308330D01*
X38971730Y-15308330D02*
X39009825Y-15308330D01*
X39009825Y-15308330D02*
X39028873Y-15317854D01*
X39028873Y-15317854D02*
X39038396Y-15336902D01*
X39038396Y-15336902D02*
X39038396Y-15355950D01*
X39038396Y-15355950D02*
X38943158Y-15374997D01*
X39209825Y-15441664D02*
X39209825Y-15241664D01*
X39209825Y-15432140D02*
X39190777Y-15441664D01*
X39190777Y-15441664D02*
X39152682Y-15441664D01*
X39152682Y-15441664D02*
X39133634Y-15432140D01*
X39133634Y-15432140D02*
X39124111Y-15422616D01*
X39124111Y-15422616D02*
X39114587Y-15403569D01*
X39114587Y-15403569D02*
X39114587Y-15346426D01*
X39114587Y-15346426D02*
X39124111Y-15327378D01*
X39124111Y-15327378D02*
X39133634Y-15317854D01*
X39133634Y-15317854D02*
X39152682Y-15308330D01*
X39152682Y-15308330D02*
X39190777Y-15308330D01*
X39190777Y-15308330D02*
X39209825Y-15317854D01*
X39286015Y-15517854D02*
X39295539Y-15508330D01*
X39295539Y-15508330D02*
X39314587Y-15479759D01*
X39314587Y-15479759D02*
X39324111Y-15460711D01*
X39324111Y-15460711D02*
X39333634Y-15432140D01*
X39333634Y-15432140D02*
X39343158Y-15384521D01*
X39343158Y-15384521D02*
X39343158Y-15346426D01*
X39343158Y-15346426D02*
X39333634Y-15298807D01*
X39333634Y-15298807D02*
X39324111Y-15270235D01*
X39324111Y-15270235D02*
X39314587Y-15251188D01*
X39314587Y-15251188D02*
X39295539Y-15222616D01*
X39295539Y-15222616D02*
X39286015Y-15213092D01*
X32330000Y-15570180D02*
X32530000Y-15770180D01*
X32530000Y-15570180D02*
X32330000Y-15770180D01*
X32430000Y-15570180D02*
X32430000Y-15770180D01*
X32330000Y-15670180D02*
X32530000Y-15670180D01*
X32771729Y-15561664D02*
X32895539Y-15561664D01*
X32895539Y-15561664D02*
X32828872Y-15637854D01*
X32828872Y-15637854D02*
X32857443Y-15637854D01*
X32857443Y-15637854D02*
X32876491Y-15647378D01*
X32876491Y-15647378D02*
X32886015Y-15656902D01*
X32886015Y-15656902D02*
X32895539Y-15675950D01*
X32895539Y-15675950D02*
X32895539Y-15723569D01*
X32895539Y-15723569D02*
X32886015Y-15742616D01*
X32886015Y-15742616D02*
X32876491Y-15752140D01*
X32876491Y-15752140D02*
X32857443Y-15761664D01*
X32857443Y-15761664D02*
X32800300Y-15761664D01*
X32800300Y-15761664D02*
X32781253Y-15752140D01*
X32781253Y-15752140D02*
X32771729Y-15742616D01*
X32981253Y-15742616D02*
X32990777Y-15752140D01*
X32990777Y-15752140D02*
X32981253Y-15761664D01*
X32981253Y-15761664D02*
X32971729Y-15752140D01*
X32971729Y-15752140D02*
X32981253Y-15742616D01*
X32981253Y-15742616D02*
X32981253Y-15761664D01*
X33086015Y-15761664D02*
X33124110Y-15761664D01*
X33124110Y-15761664D02*
X33143158Y-15752140D01*
X33143158Y-15752140D02*
X33152681Y-15742616D01*
X33152681Y-15742616D02*
X33171729Y-15714045D01*
X33171729Y-15714045D02*
X33181253Y-15675950D01*
X33181253Y-15675950D02*
X33181253Y-15599759D01*
X33181253Y-15599759D02*
X33171729Y-15580711D01*
X33171729Y-15580711D02*
X33162205Y-15571188D01*
X33162205Y-15571188D02*
X33143158Y-15561664D01*
X33143158Y-15561664D02*
X33105062Y-15561664D01*
X33105062Y-15561664D02*
X33086015Y-15571188D01*
X33086015Y-15571188D02*
X33076491Y-15580711D01*
X33076491Y-15580711D02*
X33066967Y-15599759D01*
X33066967Y-15599759D02*
X33066967Y-15647378D01*
X33066967Y-15647378D02*
X33076491Y-15666426D01*
X33076491Y-15666426D02*
X33086015Y-15675950D01*
X33086015Y-15675950D02*
X33105062Y-15685473D01*
X33105062Y-15685473D02*
X33143158Y-15685473D01*
X33143158Y-15685473D02*
X33162205Y-15675950D01*
X33162205Y-15675950D02*
X33171729Y-15666426D01*
X33171729Y-15666426D02*
X33181253Y-15647378D01*
X33295539Y-15647378D02*
X33276491Y-15637854D01*
X33276491Y-15637854D02*
X33266967Y-15628330D01*
X33266967Y-15628330D02*
X33257443Y-15609283D01*
X33257443Y-15609283D02*
X33257443Y-15599759D01*
X33257443Y-15599759D02*
X33266967Y-15580711D01*
X33266967Y-15580711D02*
X33276491Y-15571188D01*
X33276491Y-15571188D02*
X33295539Y-15561664D01*
X33295539Y-15561664D02*
X33333634Y-15561664D01*
X33333634Y-15561664D02*
X33352681Y-15571188D01*
X33352681Y-15571188D02*
X33362205Y-15580711D01*
X33362205Y-15580711D02*
X33371729Y-15599759D01*
X33371729Y-15599759D02*
X33371729Y-15609283D01*
X33371729Y-15609283D02*
X33362205Y-15628330D01*
X33362205Y-15628330D02*
X33352681Y-15637854D01*
X33352681Y-15637854D02*
X33333634Y-15647378D01*
X33333634Y-15647378D02*
X33295539Y-15647378D01*
X33295539Y-15647378D02*
X33276491Y-15656902D01*
X33276491Y-15656902D02*
X33266967Y-15666426D01*
X33266967Y-15666426D02*
X33257443Y-15685473D01*
X33257443Y-15685473D02*
X33257443Y-15723569D01*
X33257443Y-15723569D02*
X33266967Y-15742616D01*
X33266967Y-15742616D02*
X33276491Y-15752140D01*
X33276491Y-15752140D02*
X33295539Y-15761664D01*
X33295539Y-15761664D02*
X33333634Y-15761664D01*
X33333634Y-15761664D02*
X33352681Y-15752140D01*
X33352681Y-15752140D02*
X33362205Y-15742616D01*
X33362205Y-15742616D02*
X33371729Y-15723569D01*
X33371729Y-15723569D02*
X33371729Y-15685473D01*
X33371729Y-15685473D02*
X33362205Y-15666426D01*
X33362205Y-15666426D02*
X33352681Y-15656902D01*
X33352681Y-15656902D02*
X33333634Y-15647378D01*
X33486015Y-15647378D02*
X33466967Y-15637854D01*
X33466967Y-15637854D02*
X33457443Y-15628330D01*
X33457443Y-15628330D02*
X33447920Y-15609283D01*
X33447920Y-15609283D02*
X33447920Y-15599759D01*
X33447920Y-15599759D02*
X33457443Y-15580711D01*
X33457443Y-15580711D02*
X33466967Y-15571188D01*
X33466967Y-15571188D02*
X33486015Y-15561664D01*
X33486015Y-15561664D02*
X33524110Y-15561664D01*
X33524110Y-15561664D02*
X33543158Y-15571188D01*
X33543158Y-15571188D02*
X33552681Y-15580711D01*
X33552681Y-15580711D02*
X33562205Y-15599759D01*
X33562205Y-15599759D02*
X33562205Y-15609283D01*
X33562205Y-15609283D02*
X33552681Y-15628330D01*
X33552681Y-15628330D02*
X33543158Y-15637854D01*
X33543158Y-15637854D02*
X33524110Y-15647378D01*
X33524110Y-15647378D02*
X33486015Y-15647378D01*
X33486015Y-15647378D02*
X33466967Y-15656902D01*
X33466967Y-15656902D02*
X33457443Y-15666426D01*
X33457443Y-15666426D02*
X33447920Y-15685473D01*
X33447920Y-15685473D02*
X33447920Y-15723569D01*
X33447920Y-15723569D02*
X33457443Y-15742616D01*
X33457443Y-15742616D02*
X33466967Y-15752140D01*
X33466967Y-15752140D02*
X33486015Y-15761664D01*
X33486015Y-15761664D02*
X33524110Y-15761664D01*
X33524110Y-15761664D02*
X33543158Y-15752140D01*
X33543158Y-15752140D02*
X33552681Y-15742616D01*
X33552681Y-15742616D02*
X33562205Y-15723569D01*
X33562205Y-15723569D02*
X33562205Y-15685473D01*
X33562205Y-15685473D02*
X33552681Y-15666426D01*
X33552681Y-15666426D02*
X33543158Y-15656902D01*
X33543158Y-15656902D02*
X33524110Y-15647378D01*
X33647920Y-15761664D02*
X33647920Y-15628330D01*
X33647920Y-15647378D02*
X33657443Y-15637854D01*
X33657443Y-15637854D02*
X33676491Y-15628330D01*
X33676491Y-15628330D02*
X33705063Y-15628330D01*
X33705063Y-15628330D02*
X33724110Y-15637854D01*
X33724110Y-15637854D02*
X33733634Y-15656902D01*
X33733634Y-15656902D02*
X33733634Y-15761664D01*
X33733634Y-15656902D02*
X33743158Y-15637854D01*
X33743158Y-15637854D02*
X33762205Y-15628330D01*
X33762205Y-15628330D02*
X33790777Y-15628330D01*
X33790777Y-15628330D02*
X33809824Y-15637854D01*
X33809824Y-15637854D02*
X33819348Y-15656902D01*
X33819348Y-15656902D02*
X33819348Y-15761664D01*
X33914586Y-15761664D02*
X33914586Y-15628330D01*
X33914586Y-15647378D02*
X33924110Y-15637854D01*
X33924110Y-15637854D02*
X33943158Y-15628330D01*
X33943158Y-15628330D02*
X33971729Y-15628330D01*
X33971729Y-15628330D02*
X33990777Y-15637854D01*
X33990777Y-15637854D02*
X34000301Y-15656902D01*
X34000301Y-15656902D02*
X34000301Y-15761664D01*
X34000301Y-15656902D02*
X34009824Y-15637854D01*
X34009824Y-15637854D02*
X34028872Y-15628330D01*
X34028872Y-15628330D02*
X34057443Y-15628330D01*
X34057443Y-15628330D02*
X34076491Y-15637854D01*
X34076491Y-15637854D02*
X34086015Y-15656902D01*
X34086015Y-15656902D02*
X34086015Y-15761664D01*
X34476491Y-15552140D02*
X34305063Y-15809283D01*
X34733634Y-15561664D02*
X34752682Y-15561664D01*
X34752682Y-15561664D02*
X34771729Y-15571188D01*
X34771729Y-15571188D02*
X34781253Y-15580711D01*
X34781253Y-15580711D02*
X34790777Y-15599759D01*
X34790777Y-15599759D02*
X34800301Y-15637854D01*
X34800301Y-15637854D02*
X34800301Y-15685473D01*
X34800301Y-15685473D02*
X34790777Y-15723569D01*
X34790777Y-15723569D02*
X34781253Y-15742616D01*
X34781253Y-15742616D02*
X34771729Y-15752140D01*
X34771729Y-15752140D02*
X34752682Y-15761664D01*
X34752682Y-15761664D02*
X34733634Y-15761664D01*
X34733634Y-15761664D02*
X34714586Y-15752140D01*
X34714586Y-15752140D02*
X34705063Y-15742616D01*
X34705063Y-15742616D02*
X34695539Y-15723569D01*
X34695539Y-15723569D02*
X34686015Y-15685473D01*
X34686015Y-15685473D02*
X34686015Y-15637854D01*
X34686015Y-15637854D02*
X34695539Y-15599759D01*
X34695539Y-15599759D02*
X34705063Y-15580711D01*
X34705063Y-15580711D02*
X34714586Y-15571188D01*
X34714586Y-15571188D02*
X34733634Y-15561664D01*
X34886015Y-15742616D02*
X34895539Y-15752140D01*
X34895539Y-15752140D02*
X34886015Y-15761664D01*
X34886015Y-15761664D02*
X34876491Y-15752140D01*
X34876491Y-15752140D02*
X34886015Y-15742616D01*
X34886015Y-15742616D02*
X34886015Y-15761664D01*
X35086015Y-15761664D02*
X34971729Y-15761664D01*
X35028872Y-15761664D02*
X35028872Y-15561664D01*
X35028872Y-15561664D02*
X35009825Y-15590235D01*
X35009825Y-15590235D02*
X34990777Y-15609283D01*
X34990777Y-15609283D02*
X34971729Y-15618807D01*
X35266967Y-15561664D02*
X35171729Y-15561664D01*
X35171729Y-15561664D02*
X35162206Y-15656902D01*
X35162206Y-15656902D02*
X35171729Y-15647378D01*
X35171729Y-15647378D02*
X35190777Y-15637854D01*
X35190777Y-15637854D02*
X35238396Y-15637854D01*
X35238396Y-15637854D02*
X35257444Y-15647378D01*
X35257444Y-15647378D02*
X35266967Y-15656902D01*
X35266967Y-15656902D02*
X35276491Y-15675950D01*
X35276491Y-15675950D02*
X35276491Y-15723569D01*
X35276491Y-15723569D02*
X35266967Y-15742616D01*
X35266967Y-15742616D02*
X35257444Y-15752140D01*
X35257444Y-15752140D02*
X35238396Y-15761664D01*
X35238396Y-15761664D02*
X35190777Y-15761664D01*
X35190777Y-15761664D02*
X35171729Y-15752140D01*
X35171729Y-15752140D02*
X35162206Y-15742616D01*
X35343158Y-15561664D02*
X35476491Y-15561664D01*
X35476491Y-15561664D02*
X35390777Y-15761664D01*
X35590777Y-15561664D02*
X35609825Y-15561664D01*
X35609825Y-15561664D02*
X35628872Y-15571188D01*
X35628872Y-15571188D02*
X35638396Y-15580711D01*
X35638396Y-15580711D02*
X35647920Y-15599759D01*
X35647920Y-15599759D02*
X35657444Y-15637854D01*
X35657444Y-15637854D02*
X35657444Y-15685473D01*
X35657444Y-15685473D02*
X35647920Y-15723569D01*
X35647920Y-15723569D02*
X35638396Y-15742616D01*
X35638396Y-15742616D02*
X35628872Y-15752140D01*
X35628872Y-15752140D02*
X35609825Y-15761664D01*
X35609825Y-15761664D02*
X35590777Y-15761664D01*
X35590777Y-15761664D02*
X35571729Y-15752140D01*
X35571729Y-15752140D02*
X35562206Y-15742616D01*
X35562206Y-15742616D02*
X35552682Y-15723569D01*
X35552682Y-15723569D02*
X35543158Y-15685473D01*
X35543158Y-15685473D02*
X35543158Y-15637854D01*
X35543158Y-15637854D02*
X35552682Y-15599759D01*
X35552682Y-15599759D02*
X35562206Y-15580711D01*
X35562206Y-15580711D02*
X35571729Y-15571188D01*
X35571729Y-15571188D02*
X35590777Y-15561664D01*
X35733634Y-15561664D02*
X35733634Y-15599759D01*
X35809825Y-15561664D02*
X35809825Y-15599759D01*
X36105063Y-15837854D02*
X36095539Y-15828330D01*
X36095539Y-15828330D02*
X36076491Y-15799759D01*
X36076491Y-15799759D02*
X36066968Y-15780711D01*
X36066968Y-15780711D02*
X36057444Y-15752140D01*
X36057444Y-15752140D02*
X36047920Y-15704521D01*
X36047920Y-15704521D02*
X36047920Y-15666426D01*
X36047920Y-15666426D02*
X36057444Y-15618807D01*
X36057444Y-15618807D02*
X36066968Y-15590235D01*
X36066968Y-15590235D02*
X36076491Y-15571188D01*
X36076491Y-15571188D02*
X36095539Y-15542616D01*
X36095539Y-15542616D02*
X36105063Y-15533092D01*
X36171729Y-15580711D02*
X36181253Y-15571188D01*
X36181253Y-15571188D02*
X36200301Y-15561664D01*
X36200301Y-15561664D02*
X36247920Y-15561664D01*
X36247920Y-15561664D02*
X36266968Y-15571188D01*
X36266968Y-15571188D02*
X36276491Y-15580711D01*
X36276491Y-15580711D02*
X36286015Y-15599759D01*
X36286015Y-15599759D02*
X36286015Y-15618807D01*
X36286015Y-15618807D02*
X36276491Y-15647378D01*
X36276491Y-15647378D02*
X36162206Y-15761664D01*
X36162206Y-15761664D02*
X36286015Y-15761664D01*
X36400301Y-15647378D02*
X36381253Y-15637854D01*
X36381253Y-15637854D02*
X36371729Y-15628330D01*
X36371729Y-15628330D02*
X36362206Y-15609283D01*
X36362206Y-15609283D02*
X36362206Y-15599759D01*
X36362206Y-15599759D02*
X36371729Y-15580711D01*
X36371729Y-15580711D02*
X36381253Y-15571188D01*
X36381253Y-15571188D02*
X36400301Y-15561664D01*
X36400301Y-15561664D02*
X36438396Y-15561664D01*
X36438396Y-15561664D02*
X36457444Y-15571188D01*
X36457444Y-15571188D02*
X36466968Y-15580711D01*
X36466968Y-15580711D02*
X36476491Y-15599759D01*
X36476491Y-15599759D02*
X36476491Y-15609283D01*
X36476491Y-15609283D02*
X36466968Y-15628330D01*
X36466968Y-15628330D02*
X36457444Y-15637854D01*
X36457444Y-15637854D02*
X36438396Y-15647378D01*
X36438396Y-15647378D02*
X36400301Y-15647378D01*
X36400301Y-15647378D02*
X36381253Y-15656902D01*
X36381253Y-15656902D02*
X36371729Y-15666426D01*
X36371729Y-15666426D02*
X36362206Y-15685473D01*
X36362206Y-15685473D02*
X36362206Y-15723569D01*
X36362206Y-15723569D02*
X36371729Y-15742616D01*
X36371729Y-15742616D02*
X36381253Y-15752140D01*
X36381253Y-15752140D02*
X36400301Y-15761664D01*
X36400301Y-15761664D02*
X36438396Y-15761664D01*
X36438396Y-15761664D02*
X36457444Y-15752140D01*
X36457444Y-15752140D02*
X36466968Y-15742616D01*
X36466968Y-15742616D02*
X36476491Y-15723569D01*
X36476491Y-15723569D02*
X36476491Y-15685473D01*
X36476491Y-15685473D02*
X36466968Y-15666426D01*
X36466968Y-15666426D02*
X36457444Y-15656902D01*
X36457444Y-15656902D02*
X36438396Y-15647378D01*
X36714587Y-15761664D02*
X36714587Y-15561664D01*
X36800301Y-15761664D02*
X36800301Y-15656902D01*
X36800301Y-15656902D02*
X36790777Y-15637854D01*
X36790777Y-15637854D02*
X36771730Y-15628330D01*
X36771730Y-15628330D02*
X36743158Y-15628330D01*
X36743158Y-15628330D02*
X36724110Y-15637854D01*
X36724110Y-15637854D02*
X36714587Y-15647378D01*
X36924110Y-15761664D02*
X36905063Y-15752140D01*
X36905063Y-15752140D02*
X36895539Y-15742616D01*
X36895539Y-15742616D02*
X36886015Y-15723569D01*
X36886015Y-15723569D02*
X36886015Y-15666426D01*
X36886015Y-15666426D02*
X36895539Y-15647378D01*
X36895539Y-15647378D02*
X36905063Y-15637854D01*
X36905063Y-15637854D02*
X36924110Y-15628330D01*
X36924110Y-15628330D02*
X36952682Y-15628330D01*
X36952682Y-15628330D02*
X36971730Y-15637854D01*
X36971730Y-15637854D02*
X36981253Y-15647378D01*
X36981253Y-15647378D02*
X36990777Y-15666426D01*
X36990777Y-15666426D02*
X36990777Y-15723569D01*
X36990777Y-15723569D02*
X36981253Y-15742616D01*
X36981253Y-15742616D02*
X36971730Y-15752140D01*
X36971730Y-15752140D02*
X36952682Y-15761664D01*
X36952682Y-15761664D02*
X36924110Y-15761664D01*
X37105063Y-15761664D02*
X37086015Y-15752140D01*
X37086015Y-15752140D02*
X37076491Y-15733092D01*
X37076491Y-15733092D02*
X37076491Y-15561664D01*
X37257444Y-15752140D02*
X37238396Y-15761664D01*
X37238396Y-15761664D02*
X37200301Y-15761664D01*
X37200301Y-15761664D02*
X37181253Y-15752140D01*
X37181253Y-15752140D02*
X37171730Y-15733092D01*
X37171730Y-15733092D02*
X37171730Y-15656902D01*
X37171730Y-15656902D02*
X37181253Y-15637854D01*
X37181253Y-15637854D02*
X37200301Y-15628330D01*
X37200301Y-15628330D02*
X37238396Y-15628330D01*
X37238396Y-15628330D02*
X37257444Y-15637854D01*
X37257444Y-15637854D02*
X37266968Y-15656902D01*
X37266968Y-15656902D02*
X37266968Y-15675950D01*
X37266968Y-15675950D02*
X37171730Y-15694997D01*
X37343158Y-15752140D02*
X37362206Y-15761664D01*
X37362206Y-15761664D02*
X37400301Y-15761664D01*
X37400301Y-15761664D02*
X37419349Y-15752140D01*
X37419349Y-15752140D02*
X37428872Y-15733092D01*
X37428872Y-15733092D02*
X37428872Y-15723569D01*
X37428872Y-15723569D02*
X37419349Y-15704521D01*
X37419349Y-15704521D02*
X37400301Y-15694997D01*
X37400301Y-15694997D02*
X37371730Y-15694997D01*
X37371730Y-15694997D02*
X37352682Y-15685473D01*
X37352682Y-15685473D02*
X37343158Y-15666426D01*
X37343158Y-15666426D02*
X37343158Y-15656902D01*
X37343158Y-15656902D02*
X37352682Y-15637854D01*
X37352682Y-15637854D02*
X37371730Y-15628330D01*
X37371730Y-15628330D02*
X37400301Y-15628330D01*
X37400301Y-15628330D02*
X37419349Y-15637854D01*
X37495539Y-15837854D02*
X37505063Y-15828330D01*
X37505063Y-15828330D02*
X37524111Y-15799759D01*
X37524111Y-15799759D02*
X37533634Y-15780711D01*
X37533634Y-15780711D02*
X37543158Y-15752140D01*
X37543158Y-15752140D02*
X37552682Y-15704521D01*
X37552682Y-15704521D02*
X37552682Y-15666426D01*
X37552682Y-15666426D02*
X37543158Y-15618807D01*
X37543158Y-15618807D02*
X37533634Y-15590235D01*
X37533634Y-15590235D02*
X37524111Y-15571188D01*
X37524111Y-15571188D02*
X37505063Y-15542616D01*
X37505063Y-15542616D02*
X37495539Y-15533092D01*
X37857444Y-15837854D02*
X37847920Y-15828330D01*
X37847920Y-15828330D02*
X37828872Y-15799759D01*
X37828872Y-15799759D02*
X37819349Y-15780711D01*
X37819349Y-15780711D02*
X37809825Y-15752140D01*
X37809825Y-15752140D02*
X37800301Y-15704521D01*
X37800301Y-15704521D02*
X37800301Y-15666426D01*
X37800301Y-15666426D02*
X37809825Y-15618807D01*
X37809825Y-15618807D02*
X37819349Y-15590235D01*
X37819349Y-15590235D02*
X37828872Y-15571188D01*
X37828872Y-15571188D02*
X37847920Y-15542616D01*
X37847920Y-15542616D02*
X37857444Y-15533092D01*
X37933634Y-15628330D02*
X37933634Y-15761664D01*
X37933634Y-15647378D02*
X37943158Y-15637854D01*
X37943158Y-15637854D02*
X37962206Y-15628330D01*
X37962206Y-15628330D02*
X37990777Y-15628330D01*
X37990777Y-15628330D02*
X38009825Y-15637854D01*
X38009825Y-15637854D02*
X38019349Y-15656902D01*
X38019349Y-15656902D02*
X38019349Y-15761664D01*
X38143158Y-15761664D02*
X38124111Y-15752140D01*
X38124111Y-15752140D02*
X38114587Y-15742616D01*
X38114587Y-15742616D02*
X38105063Y-15723569D01*
X38105063Y-15723569D02*
X38105063Y-15666426D01*
X38105063Y-15666426D02*
X38114587Y-15647378D01*
X38114587Y-15647378D02*
X38124111Y-15637854D01*
X38124111Y-15637854D02*
X38143158Y-15628330D01*
X38143158Y-15628330D02*
X38171730Y-15628330D01*
X38171730Y-15628330D02*
X38190777Y-15637854D01*
X38190777Y-15637854D02*
X38200301Y-15647378D01*
X38200301Y-15647378D02*
X38209825Y-15666426D01*
X38209825Y-15666426D02*
X38209825Y-15723569D01*
X38209825Y-15723569D02*
X38200301Y-15742616D01*
X38200301Y-15742616D02*
X38190777Y-15752140D01*
X38190777Y-15752140D02*
X38171730Y-15761664D01*
X38171730Y-15761664D02*
X38143158Y-15761664D01*
X38266968Y-15628330D02*
X38343158Y-15628330D01*
X38295539Y-15561664D02*
X38295539Y-15733092D01*
X38295539Y-15733092D02*
X38305063Y-15752140D01*
X38305063Y-15752140D02*
X38324111Y-15761664D01*
X38324111Y-15761664D02*
X38343158Y-15761664D01*
X38562206Y-15628330D02*
X38562206Y-15828330D01*
X38562206Y-15637854D02*
X38581253Y-15628330D01*
X38581253Y-15628330D02*
X38619349Y-15628330D01*
X38619349Y-15628330D02*
X38638396Y-15637854D01*
X38638396Y-15637854D02*
X38647920Y-15647378D01*
X38647920Y-15647378D02*
X38657444Y-15666426D01*
X38657444Y-15666426D02*
X38657444Y-15723569D01*
X38657444Y-15723569D02*
X38647920Y-15742616D01*
X38647920Y-15742616D02*
X38638396Y-15752140D01*
X38638396Y-15752140D02*
X38619349Y-15761664D01*
X38619349Y-15761664D02*
X38581253Y-15761664D01*
X38581253Y-15761664D02*
X38562206Y-15752140D01*
X38771730Y-15761664D02*
X38752682Y-15752140D01*
X38752682Y-15752140D02*
X38743158Y-15733092D01*
X38743158Y-15733092D02*
X38743158Y-15561664D01*
X38933634Y-15761664D02*
X38933634Y-15656902D01*
X38933634Y-15656902D02*
X38924111Y-15637854D01*
X38924111Y-15637854D02*
X38905063Y-15628330D01*
X38905063Y-15628330D02*
X38866968Y-15628330D01*
X38866968Y-15628330D02*
X38847920Y-15637854D01*
X38933634Y-15752140D02*
X38914587Y-15761664D01*
X38914587Y-15761664D02*
X38866968Y-15761664D01*
X38866968Y-15761664D02*
X38847920Y-15752140D01*
X38847920Y-15752140D02*
X38838396Y-15733092D01*
X38838396Y-15733092D02*
X38838396Y-15714045D01*
X38838396Y-15714045D02*
X38847920Y-15694997D01*
X38847920Y-15694997D02*
X38866968Y-15685473D01*
X38866968Y-15685473D02*
X38914587Y-15685473D01*
X38914587Y-15685473D02*
X38933634Y-15675950D01*
X39000301Y-15628330D02*
X39076492Y-15628330D01*
X39028873Y-15561664D02*
X39028873Y-15733092D01*
X39028873Y-15733092D02*
X39038396Y-15752140D01*
X39038396Y-15752140D02*
X39057444Y-15761664D01*
X39057444Y-15761664D02*
X39076492Y-15761664D01*
X39219349Y-15752140D02*
X39200301Y-15761664D01*
X39200301Y-15761664D02*
X39162206Y-15761664D01*
X39162206Y-15761664D02*
X39143158Y-15752140D01*
X39143158Y-15752140D02*
X39133634Y-15733092D01*
X39133634Y-15733092D02*
X39133634Y-15656902D01*
X39133634Y-15656902D02*
X39143158Y-15637854D01*
X39143158Y-15637854D02*
X39162206Y-15628330D01*
X39162206Y-15628330D02*
X39200301Y-15628330D01*
X39200301Y-15628330D02*
X39219349Y-15637854D01*
X39219349Y-15637854D02*
X39228873Y-15656902D01*
X39228873Y-15656902D02*
X39228873Y-15675950D01*
X39228873Y-15675950D02*
X39133634Y-15694997D01*
X39400301Y-15761664D02*
X39400301Y-15561664D01*
X39400301Y-15752140D02*
X39381254Y-15761664D01*
X39381254Y-15761664D02*
X39343158Y-15761664D01*
X39343158Y-15761664D02*
X39324111Y-15752140D01*
X39324111Y-15752140D02*
X39314587Y-15742616D01*
X39314587Y-15742616D02*
X39305063Y-15723569D01*
X39305063Y-15723569D02*
X39305063Y-15666426D01*
X39305063Y-15666426D02*
X39314587Y-15647378D01*
X39314587Y-15647378D02*
X39324111Y-15637854D01*
X39324111Y-15637854D02*
X39343158Y-15628330D01*
X39343158Y-15628330D02*
X39381254Y-15628330D01*
X39381254Y-15628330D02*
X39400301Y-15637854D01*
X39476492Y-15837854D02*
X39486015Y-15828330D01*
X39486015Y-15828330D02*
X39505063Y-15799759D01*
X39505063Y-15799759D02*
X39514587Y-15780711D01*
X39514587Y-15780711D02*
X39524111Y-15752140D01*
X39524111Y-15752140D02*
X39533634Y-15704521D01*
X39533634Y-15704521D02*
X39533634Y-15666426D01*
X39533634Y-15666426D02*
X39524111Y-15618807D01*
X39524111Y-15618807D02*
X39514587Y-15590235D01*
X39514587Y-15590235D02*
X39505063Y-15571188D01*
X39505063Y-15571188D02*
X39486015Y-15542616D01*
X39486015Y-15542616D02*
X39476492Y-15533092D01*
M02*
