%TF.GenerationSoftware,KiCad,Pcbnew,9.0.7*%
%TF.CreationDate,2026-03-14T17:46:06+01:00*%
%TF.ProjectId,blastpad,626c6173-7470-4616-942e-6b696361645f,rev?*%
%TF.SameCoordinates,Original*%
%TF.FileFunction,Drillmap*%
%TF.FilePolarity,Positive*%
%FSLAX45Y45*%
G04 Gerber Fmt 4.5, Leading zero omitted, Abs format (unit mm)*
G04 Created by KiCad (PCBNEW 9.0.7) date 2026-03-14 17:46:06*
%MOMM*%
%LPD*%
G01*
G04 APERTURE LIST*
%ADD10C,0.200000*%
%ADD11C,0.100000*%
%ADD12C,0.102000*%
%ADD13C,0.149860*%
G04 APERTURE END LIST*
D10*
X49795192Y-2437868D02*
G75*
G02*
X50007324Y-2350003I212128J-212132D01*
G01*
X32832893Y-10092893D02*
G75*
G02*
X32540002Y-9385787I707107J707103D01*
G01*
X36354214Y-13200000D02*
X51205000Y-13200000D01*
X49795192Y-2437868D02*
X49725878Y-2507182D01*
X48206696Y-2350000D02*
X33040000Y-2350000D01*
X48206696Y-2350000D02*
G75*
G02*
X48418830Y-2437866I4J-300000D01*
G01*
X51705000Y-5898957D02*
G75*
G02*
X51558507Y-6252560I-500000J-3D01*
G01*
X48488142Y-2507182D02*
X48418828Y-2437868D01*
X49725878Y-2507182D02*
G75*
G02*
X49513746Y-2595047I-212128J212132D01*
G01*
X50425079Y-8234091D02*
G75*
G02*
X50425190Y-7385559I424321J424211D01*
G01*
X32540000Y-2850000D02*
X32540000Y-9385787D01*
X51705000Y-12700000D02*
X51704784Y-9720765D01*
X51205000Y-2350000D02*
X50007324Y-2350000D01*
X32832893Y-10092893D02*
X35647107Y-12907107D01*
X51205000Y-2350000D02*
G75*
G02*
X51705000Y-2850000I0J-500000D01*
G01*
X36354213Y-13200000D02*
G75*
G02*
X35647105Y-12907109I-3J1000000D01*
G01*
X51705000Y-5898957D02*
X51705000Y-2850000D01*
X32540000Y-2850000D02*
G75*
G02*
X33040000Y-2350000I500000J0D01*
G01*
X50425194Y-7385563D02*
X51558506Y-6252558D01*
X51558322Y-9367232D02*
X50425079Y-8234091D01*
X48700274Y-2595050D02*
G75*
G02*
X48488140Y-2507184I-4J300000D01*
G01*
X51705000Y-12700000D02*
G75*
G02*
X51205000Y-13200000I-500000J0D01*
G01*
X49513746Y-2595050D02*
X48700274Y-2595050D01*
X51558322Y-9367232D02*
G75*
G02*
X51704782Y-9720765I-353542J-353568D01*
G01*
D11*
X37020470Y-3442470D02*
X37119530Y-3541530D01*
X37119530Y-3442470D02*
X37020470Y-3541530D01*
X37020470Y-4458470D02*
X37119530Y-4557530D01*
X37119530Y-4458470D02*
X37020470Y-4557530D01*
X37020470Y-5347470D02*
X37119530Y-5446530D01*
X37119530Y-5347470D02*
X37020470Y-5446530D01*
X37020470Y-6363470D02*
X37119530Y-6462530D01*
X37119530Y-6363470D02*
X37020470Y-6462530D01*
X37020470Y-7252470D02*
X37119530Y-7351530D01*
X37119530Y-7252470D02*
X37020470Y-7351530D01*
X37020470Y-8268470D02*
X37119530Y-8367530D01*
X37119530Y-8268470D02*
X37020470Y-8367530D01*
X37020470Y-9157470D02*
X37119530Y-9256530D01*
X37119530Y-9157470D02*
X37020470Y-9256530D01*
X37020470Y-10173470D02*
X37119530Y-10272530D01*
X37119530Y-10173470D02*
X37020470Y-10272530D01*
X37020470Y-11062470D02*
X37119530Y-11161530D01*
X37119530Y-11062470D02*
X37020470Y-11161530D01*
X37020470Y-12078470D02*
X37119530Y-12177530D01*
X37119530Y-12078470D02*
X37020470Y-12177530D01*
X38925470Y-3442470D02*
X39024530Y-3541530D01*
X39024530Y-3442470D02*
X38925470Y-3541530D01*
X38925470Y-4458470D02*
X39024530Y-4557530D01*
X39024530Y-4458470D02*
X38925470Y-4557530D01*
X38925470Y-5347470D02*
X39024530Y-5446530D01*
X39024530Y-5347470D02*
X38925470Y-5446530D01*
X38925470Y-6363470D02*
X39024530Y-6462530D01*
X39024530Y-6363470D02*
X38925470Y-6462530D01*
X38925470Y-7252470D02*
X39024530Y-7351530D01*
X39024530Y-7252470D02*
X38925470Y-7351530D01*
X38925470Y-8268470D02*
X39024530Y-8367530D01*
X39024530Y-8268470D02*
X38925470Y-8367530D01*
X38925470Y-11062470D02*
X39024530Y-11161530D01*
X39024530Y-11062470D02*
X38925470Y-11161530D01*
X38925470Y-12078470D02*
X39024530Y-12177530D01*
X39024530Y-12078470D02*
X38925470Y-12177530D01*
X40830470Y-3442470D02*
X40929530Y-3541530D01*
X40929530Y-3442470D02*
X40830470Y-3541530D01*
X40830470Y-4458470D02*
X40929530Y-4557530D01*
X40929530Y-4458470D02*
X40830470Y-4557530D01*
X40830470Y-5347470D02*
X40929530Y-5446530D01*
X40929530Y-5347470D02*
X40830470Y-5446530D01*
X40830470Y-6363470D02*
X40929530Y-6462530D01*
X40929530Y-6363470D02*
X40830470Y-6462530D01*
X40830470Y-7252470D02*
X40929530Y-7351530D01*
X40929530Y-7252470D02*
X40830470Y-7351530D01*
X40830470Y-8268470D02*
X40929530Y-8367530D01*
X40929530Y-8268470D02*
X40830470Y-8367530D01*
X40830470Y-9157470D02*
X40929530Y-9256530D01*
X40929530Y-9157470D02*
X40830470Y-9256530D01*
X40830470Y-10173470D02*
X40929530Y-10272530D01*
X40929530Y-10173470D02*
X40830470Y-10272530D01*
X40830470Y-11062470D02*
X40929530Y-11161530D01*
X40929530Y-11062470D02*
X40830470Y-11161530D01*
X40830470Y-12078470D02*
X40929530Y-12177530D01*
X40929530Y-12078470D02*
X40830470Y-12177530D01*
X42735470Y-3442470D02*
X42834530Y-3541530D01*
X42834530Y-3442470D02*
X42735470Y-3541530D01*
X42735470Y-4458470D02*
X42834530Y-4557530D01*
X42834530Y-4458470D02*
X42735470Y-4557530D01*
X42735470Y-5347470D02*
X42834530Y-5446530D01*
X42834530Y-5347470D02*
X42735470Y-5446530D01*
X42735470Y-6363470D02*
X42834530Y-6462530D01*
X42834530Y-6363470D02*
X42735470Y-6462530D01*
X42735470Y-7252470D02*
X42834530Y-7351530D01*
X42834530Y-7252470D02*
X42735470Y-7351530D01*
X42735470Y-8268470D02*
X42834530Y-8367530D01*
X42834530Y-8268470D02*
X42735470Y-8367530D01*
X42735470Y-9157470D02*
X42834530Y-9256530D01*
X42834530Y-9157470D02*
X42735470Y-9256530D01*
X42735470Y-10173470D02*
X42834530Y-10272530D01*
X42834530Y-10173470D02*
X42735470Y-10272530D01*
X42735470Y-11062470D02*
X42834530Y-11161530D01*
X42834530Y-11062470D02*
X42735470Y-11161530D01*
X42735470Y-12078470D02*
X42834530Y-12177530D01*
X42834530Y-12078470D02*
X42735470Y-12177530D01*
X44640470Y-3442470D02*
X44739530Y-3541530D01*
X44739530Y-3442470D02*
X44640470Y-3541530D01*
X44640470Y-4458470D02*
X44739530Y-4557530D01*
X44739530Y-4458470D02*
X44640470Y-4557530D01*
X44640470Y-5347470D02*
X44739530Y-5446530D01*
X44739530Y-5347470D02*
X44640470Y-5446530D01*
X44640470Y-6363470D02*
X44739530Y-6462530D01*
X44739530Y-6363470D02*
X44640470Y-6462530D01*
X44640470Y-7252470D02*
X44739530Y-7351530D01*
X44739530Y-7252470D02*
X44640470Y-7351530D01*
X44640470Y-8268470D02*
X44739530Y-8367530D01*
X44739530Y-8268470D02*
X44640470Y-8367530D01*
X44640470Y-9157470D02*
X44739530Y-9256530D01*
X44739530Y-9157470D02*
X44640470Y-9256530D01*
X44640470Y-10173470D02*
X44739530Y-10272530D01*
X44739530Y-10173470D02*
X44640470Y-10272530D01*
X34441447Y-9361053D02*
G75*
G02*
X34341447Y-9361053I-50000J0D01*
G01*
X34341447Y-9361053D02*
G75*
G02*
X34441447Y-9361053I50000J0D01*
G01*
X34618223Y-9184277D02*
G75*
G02*
X34518223Y-9184277I-50000J0D01*
G01*
X34518223Y-9184277D02*
G75*
G02*
X34618223Y-9184277I50000J0D01*
G01*
X34795000Y-9007500D02*
G75*
G02*
X34695000Y-9007500I-50000J0D01*
G01*
X34695000Y-9007500D02*
G75*
G02*
X34795000Y-9007500I50000J0D01*
G01*
X35466751Y-10386358D02*
G75*
G02*
X35366751Y-10386358I-50000J0D01*
G01*
X35366751Y-10386358D02*
G75*
G02*
X35466751Y-10386358I50000J0D01*
G01*
X35820305Y-10032805D02*
G75*
G02*
X35720305Y-10032805I-50000J0D01*
G01*
X35720305Y-10032805D02*
G75*
G02*
X35820305Y-10032805I50000J0D01*
G01*
X48905000Y-10920000D02*
G75*
G02*
X48805000Y-10920000I-50000J0D01*
G01*
X48805000Y-10920000D02*
G75*
G02*
X48905000Y-10920000I50000J0D01*
G01*
X48905000Y-12370000D02*
G75*
G02*
X48805000Y-12370000I-50000J0D01*
G01*
X48805000Y-12370000D02*
G75*
G02*
X48905000Y-12370000I50000J0D01*
G01*
X49155000Y-12370000D02*
G75*
G02*
X49055000Y-12370000I-50000J0D01*
G01*
X49055000Y-12370000D02*
G75*
G02*
X49155000Y-12370000I50000J0D01*
G01*
X49405000Y-10920000D02*
G75*
G02*
X49305000Y-10920000I-50000J0D01*
G01*
X49305000Y-10920000D02*
G75*
G02*
X49405000Y-10920000I50000J0D01*
G01*
X49405000Y-12370000D02*
G75*
G02*
X49305000Y-12370000I-50000J0D01*
G01*
X49305000Y-12370000D02*
G75*
G02*
X49405000Y-12370000I50000J0D01*
G01*
D12*
X34211000Y-2396000D02*
X34211000Y-2498000D01*
X34160000Y-2447000D02*
X34262000Y-2447000D01*
X34211000Y-2650000D02*
X34211000Y-2752000D01*
X34160000Y-2701000D02*
X34262000Y-2701000D01*
X34211000Y-2904000D02*
X34211000Y-3006000D01*
X34160000Y-2955000D02*
X34262000Y-2955000D01*
X34211000Y-3158000D02*
X34211000Y-3260000D01*
X34160000Y-3209000D02*
X34262000Y-3209000D01*
X34211000Y-3412000D02*
X34211000Y-3514000D01*
X34160000Y-3463000D02*
X34262000Y-3463000D01*
X34211000Y-3666000D02*
X34211000Y-3768000D01*
X34160000Y-3717000D02*
X34262000Y-3717000D01*
X34211000Y-3920000D02*
X34211000Y-4022000D01*
X34160000Y-3971000D02*
X34262000Y-3971000D01*
X34211000Y-4174000D02*
X34211000Y-4276000D01*
X34160000Y-4225000D02*
X34262000Y-4225000D01*
X34211000Y-4428000D02*
X34211000Y-4530000D01*
X34160000Y-4479000D02*
X34262000Y-4479000D01*
X34211000Y-4682000D02*
X34211000Y-4784000D01*
X34160000Y-4733000D02*
X34262000Y-4733000D01*
X34211000Y-4936000D02*
X34211000Y-5038000D01*
X34160000Y-4987000D02*
X34262000Y-4987000D01*
X34211000Y-5190000D02*
X34211000Y-5292000D01*
X34160000Y-5241000D02*
X34262000Y-5241000D01*
X34211000Y-5444000D02*
X34211000Y-5546000D01*
X34160000Y-5495000D02*
X34262000Y-5495000D01*
X34211000Y-5698000D02*
X34211000Y-5800000D01*
X34160000Y-5749000D02*
X34262000Y-5749000D01*
X34211000Y-5952000D02*
X34211000Y-6054000D01*
X34160000Y-6003000D02*
X34262000Y-6003000D01*
X34211000Y-6206000D02*
X34211000Y-6308000D01*
X34160000Y-6257000D02*
X34262000Y-6257000D01*
X34211000Y-6460000D02*
X34211000Y-6562000D01*
X34160000Y-6511000D02*
X34262000Y-6511000D01*
X34211000Y-6714000D02*
X34211000Y-6816000D01*
X34160000Y-6765000D02*
X34262000Y-6765000D01*
X34211000Y-6968000D02*
X34211000Y-7070000D01*
X34160000Y-7019000D02*
X34262000Y-7019000D01*
X34211000Y-7222000D02*
X34211000Y-7324000D01*
X34160000Y-7273000D02*
X34262000Y-7273000D01*
X34846000Y-7199000D02*
X34846000Y-7301000D01*
X34795000Y-7250000D02*
X34897000Y-7250000D01*
X35100000Y-7199000D02*
X35100000Y-7301000D01*
X35049000Y-7250000D02*
X35151000Y-7250000D01*
X35354000Y-7199000D02*
X35354000Y-7301000D01*
X35303000Y-7250000D02*
X35405000Y-7250000D01*
X35989000Y-2396000D02*
X35989000Y-2498000D01*
X35938000Y-2447000D02*
X36040000Y-2447000D01*
X35989000Y-2650000D02*
X35989000Y-2752000D01*
X35938000Y-2701000D02*
X36040000Y-2701000D01*
X35989000Y-2904000D02*
X35989000Y-3006000D01*
X35938000Y-2955000D02*
X36040000Y-2955000D01*
X35989000Y-3158000D02*
X35989000Y-3260000D01*
X35938000Y-3209000D02*
X36040000Y-3209000D01*
X35989000Y-3412000D02*
X35989000Y-3514000D01*
X35938000Y-3463000D02*
X36040000Y-3463000D01*
X35989000Y-3666000D02*
X35989000Y-3768000D01*
X35938000Y-3717000D02*
X36040000Y-3717000D01*
X35989000Y-3920000D02*
X35989000Y-4022000D01*
X35938000Y-3971000D02*
X36040000Y-3971000D01*
X35989000Y-4174000D02*
X35989000Y-4276000D01*
X35938000Y-4225000D02*
X36040000Y-4225000D01*
X35989000Y-4428000D02*
X35989000Y-4530000D01*
X35938000Y-4479000D02*
X36040000Y-4479000D01*
X35989000Y-4682000D02*
X35989000Y-4784000D01*
X35938000Y-4733000D02*
X36040000Y-4733000D01*
X35989000Y-4936000D02*
X35989000Y-5038000D01*
X35938000Y-4987000D02*
X36040000Y-4987000D01*
X35989000Y-5190000D02*
X35989000Y-5292000D01*
X35938000Y-5241000D02*
X36040000Y-5241000D01*
X35989000Y-5444000D02*
X35989000Y-5546000D01*
X35938000Y-5495000D02*
X36040000Y-5495000D01*
X35989000Y-5698000D02*
X35989000Y-5800000D01*
X35938000Y-5749000D02*
X36040000Y-5749000D01*
X35989000Y-5952000D02*
X35989000Y-6054000D01*
X35938000Y-6003000D02*
X36040000Y-6003000D01*
X35989000Y-6206000D02*
X35989000Y-6308000D01*
X35938000Y-6257000D02*
X36040000Y-6257000D01*
X35989000Y-6460000D02*
X35989000Y-6562000D01*
X35938000Y-6511000D02*
X36040000Y-6511000D01*
X35989000Y-6714000D02*
X35989000Y-6816000D01*
X35938000Y-6765000D02*
X36040000Y-6765000D01*
X35989000Y-6968000D02*
X35989000Y-7070000D01*
X35938000Y-7019000D02*
X36040000Y-7019000D01*
X35989000Y-7222000D02*
X35989000Y-7324000D01*
X35938000Y-7273000D02*
X36040000Y-7273000D01*
X48727000Y-2836500D02*
X48727000Y-2938500D01*
X48676000Y-2887500D02*
X48778000Y-2887500D01*
X48981000Y-2836500D02*
X48981000Y-2938500D01*
X48930000Y-2887500D02*
X49032000Y-2887500D01*
X49235000Y-2836500D02*
X49235000Y-2938500D01*
X49184000Y-2887500D02*
X49286000Y-2887500D01*
X49489000Y-2836500D02*
X49489000Y-2938500D01*
X49438000Y-2887500D02*
X49540000Y-2887500D01*
D13*
X37671984Y-3798984D02*
X37671984Y-3693016D01*
X37566016Y-3693016D01*
X37566016Y-3798984D01*
X37671984Y-3798984D01*
X37671984Y-5703984D02*
X37671984Y-5598016D01*
X37566016Y-5598016D01*
X37566016Y-5703984D01*
X37671984Y-5703984D01*
X37671984Y-7608984D02*
X37671984Y-7503016D01*
X37566016Y-7503016D01*
X37566016Y-7608984D01*
X37671984Y-7608984D01*
X37671984Y-11418984D02*
X37671984Y-11313016D01*
X37566016Y-11313016D01*
X37566016Y-11418984D01*
X37671984Y-11418984D01*
X38306984Y-3544984D02*
X38306984Y-3439016D01*
X38201016Y-3439016D01*
X38201016Y-3544984D01*
X38306984Y-3544984D01*
X38306984Y-5449984D02*
X38306984Y-5344016D01*
X38201016Y-5344016D01*
X38201016Y-5449984D01*
X38306984Y-5449984D01*
X38306984Y-7354984D02*
X38306984Y-7249016D01*
X38201016Y-7249016D01*
X38201016Y-7354984D01*
X38306984Y-7354984D01*
X38306984Y-11164984D02*
X38306984Y-11059016D01*
X38201016Y-11059016D01*
X38201016Y-11164984D01*
X38306984Y-11164984D01*
X38624484Y-9513984D02*
X38624484Y-9408016D01*
X38518516Y-9408016D01*
X38518516Y-9513984D01*
X38624484Y-9513984D01*
X39259484Y-9259984D02*
X39259484Y-9154016D01*
X39153516Y-9154016D01*
X39153516Y-9259984D01*
X39259484Y-9259984D01*
X39576984Y-3798984D02*
X39576984Y-3693016D01*
X39471016Y-3693016D01*
X39471016Y-3798984D01*
X39576984Y-3798984D01*
X39576984Y-5703984D02*
X39576984Y-5598016D01*
X39471016Y-5598016D01*
X39471016Y-5703984D01*
X39576984Y-5703984D01*
X39576984Y-7608984D02*
X39576984Y-7503016D01*
X39471016Y-7503016D01*
X39471016Y-7608984D01*
X39576984Y-7608984D01*
X39576984Y-11418984D02*
X39576984Y-11313016D01*
X39471016Y-11313016D01*
X39471016Y-11418984D01*
X39576984Y-11418984D01*
X40211984Y-3544984D02*
X40211984Y-3439016D01*
X40106016Y-3439016D01*
X40106016Y-3544984D01*
X40211984Y-3544984D01*
X40211984Y-5449984D02*
X40211984Y-5344016D01*
X40106016Y-5344016D01*
X40106016Y-5449984D01*
X40211984Y-5449984D01*
X40211984Y-7354984D02*
X40211984Y-7249016D01*
X40106016Y-7249016D01*
X40106016Y-7354984D01*
X40211984Y-7354984D01*
X40211984Y-11164984D02*
X40211984Y-11059016D01*
X40106016Y-11059016D01*
X40106016Y-11164984D01*
X40211984Y-11164984D01*
X41481984Y-3798984D02*
X41481984Y-3693016D01*
X41376016Y-3693016D01*
X41376016Y-3798984D01*
X41481984Y-3798984D01*
X41481984Y-5703984D02*
X41481984Y-5598016D01*
X41376016Y-5598016D01*
X41376016Y-5703984D01*
X41481984Y-5703984D01*
X41481984Y-7608984D02*
X41481984Y-7503016D01*
X41376016Y-7503016D01*
X41376016Y-7608984D01*
X41481984Y-7608984D01*
X41481984Y-9513984D02*
X41481984Y-9408016D01*
X41376016Y-9408016D01*
X41376016Y-9513984D01*
X41481984Y-9513984D01*
X41481984Y-11418984D02*
X41481984Y-11313016D01*
X41376016Y-11313016D01*
X41376016Y-11418984D01*
X41481984Y-11418984D01*
X42116984Y-3544984D02*
X42116984Y-3439016D01*
X42011016Y-3439016D01*
X42011016Y-3544984D01*
X42116984Y-3544984D01*
X42116984Y-5449984D02*
X42116984Y-5344016D01*
X42011016Y-5344016D01*
X42011016Y-5449984D01*
X42116984Y-5449984D01*
X42116984Y-7354984D02*
X42116984Y-7249016D01*
X42011016Y-7249016D01*
X42011016Y-7354984D01*
X42116984Y-7354984D01*
X42116984Y-9259984D02*
X42116984Y-9154016D01*
X42011016Y-9154016D01*
X42011016Y-9259984D01*
X42116984Y-9259984D01*
X42116984Y-11164984D02*
X42116984Y-11059016D01*
X42011016Y-11059016D01*
X42011016Y-11164984D01*
X42116984Y-11164984D01*
X43386984Y-3798984D02*
X43386984Y-3693016D01*
X43281016Y-3693016D01*
X43281016Y-3798984D01*
X43386984Y-3798984D01*
X43386984Y-5703984D02*
X43386984Y-5598016D01*
X43281016Y-5598016D01*
X43281016Y-5703984D01*
X43386984Y-5703984D01*
X43386984Y-7608984D02*
X43386984Y-7503016D01*
X43281016Y-7503016D01*
X43281016Y-7608984D01*
X43386984Y-7608984D01*
X43386984Y-9513984D02*
X43386984Y-9408016D01*
X43281016Y-9408016D01*
X43281016Y-9513984D01*
X43386984Y-9513984D01*
X44021984Y-3544984D02*
X44021984Y-3439016D01*
X43916016Y-3439016D01*
X43916016Y-3544984D01*
X44021984Y-3544984D01*
X44021984Y-5449984D02*
X44021984Y-5344016D01*
X43916016Y-5344016D01*
X43916016Y-5449984D01*
X44021984Y-5449984D01*
X44021984Y-7354984D02*
X44021984Y-7249016D01*
X43916016Y-7249016D01*
X43916016Y-7354984D01*
X44021984Y-7354984D01*
X44021984Y-9259984D02*
X44021984Y-9154016D01*
X43916016Y-9154016D01*
X43916016Y-9259984D01*
X44021984Y-9259984D01*
X44339484Y-11418984D02*
X44339484Y-11313016D01*
X44233516Y-11313016D01*
X44233516Y-11418984D01*
X44339484Y-11418984D01*
X44974484Y-11164984D02*
X44974484Y-11059016D01*
X44868516Y-11059016D01*
X44868516Y-11164984D01*
X44974484Y-11164984D01*
X45291984Y-3798984D02*
X45291984Y-3693016D01*
X45186016Y-3693016D01*
X45186016Y-3798984D01*
X45291984Y-3798984D01*
X45291984Y-5703984D02*
X45291984Y-5598016D01*
X45186016Y-5598016D01*
X45186016Y-5703984D01*
X45291984Y-5703984D01*
X45291984Y-7608984D02*
X45291984Y-7503016D01*
X45186016Y-7503016D01*
X45186016Y-7608984D01*
X45291984Y-7608984D01*
X45291984Y-9513984D02*
X45291984Y-9408016D01*
X45186016Y-9408016D01*
X45186016Y-9513984D01*
X45291984Y-9513984D01*
X45926984Y-3544984D02*
X45926984Y-3439016D01*
X45821016Y-3439016D01*
X45821016Y-3544984D01*
X45926984Y-3544984D01*
X45926984Y-5449984D02*
X45926984Y-5344016D01*
X45821016Y-5344016D01*
X45821016Y-5449984D01*
X45926984Y-5449984D01*
X45926984Y-7354984D02*
X45926984Y-7249016D01*
X45821016Y-7249016D01*
X45821016Y-7354984D01*
X45926984Y-7354984D01*
X45926984Y-9259984D02*
X45926984Y-9154016D01*
X45821016Y-9154016D01*
X45821016Y-9259984D01*
X45926984Y-9259984D01*
X49337589Y-8401799D02*
X49337589Y-8295831D01*
X49231621Y-8295831D01*
X49231621Y-8401799D01*
X49337589Y-8401799D01*
X49606997Y-7773181D02*
X49606997Y-7667213D01*
X49501029Y-7667213D01*
X49501029Y-7773181D01*
X49606997Y-7773181D01*
D10*
X34702574Y-10210587D02*
X34802574Y-10110587D01*
X34702574Y-10010587D01*
X34602574Y-10110587D01*
X34702574Y-10210587D01*
D11*
X34614185Y-10163620D02*
X34649541Y-10198975D01*
X34790962Y-10057554D02*
G75*
G02*
X34649541Y-10198975I-70711J-70711D01*
G01*
X34790962Y-10057554D02*
X34755607Y-10022198D01*
X34755607Y-10022198D02*
G75*
G03*
X34614185Y-10163620I-70711J-70711D01*
G01*
D10*
X35494533Y-9418627D02*
X35594533Y-9318627D01*
X35494533Y-9218627D01*
X35394533Y-9318627D01*
X35494533Y-9418627D01*
D11*
X35406145Y-9371660D02*
X35441500Y-9407015D01*
X35582922Y-9265594D02*
G75*
G02*
X35441500Y-9407015I-70711J-70711D01*
G01*
X35582922Y-9265594D02*
X35547566Y-9230239D01*
X35547566Y-9230239D02*
G75*
G03*
X35406145Y-9371660I-70711J-70711D01*
G01*
D10*
X48545000Y-11720000D02*
X48645000Y-11620000D01*
X48545000Y-11520000D01*
X48445000Y-11620000D01*
X48545000Y-11720000D01*
D11*
X48645000Y-11645000D02*
X48645000Y-11595000D01*
X48445000Y-11595000D02*
G75*
G02*
X48645000Y-11595000I100000J0D01*
G01*
X48445000Y-11595000D02*
X48445000Y-11645000D01*
X48445000Y-11645000D02*
G75*
G03*
X48645000Y-11645000I100000J0D01*
G01*
D10*
X49665000Y-11720000D02*
X49765000Y-11620000D01*
X49665000Y-11520000D01*
X49565000Y-11620000D01*
X49665000Y-11720000D01*
D11*
X49765000Y-11645000D02*
X49765000Y-11595000D01*
X49565000Y-11595000D02*
G75*
G02*
X49765000Y-11595000I100000J0D01*
G01*
X49565000Y-11595000D02*
X49565000Y-11645000D01*
X49565000Y-11645000D02*
G75*
G03*
X49765000Y-11645000I100000J0D01*
G01*
D10*
X32790777Y-13521484D02*
X32790777Y-13321484D01*
X32790777Y-13321484D02*
X32838396Y-13321484D01*
X32838396Y-13321484D02*
X32866967Y-13331008D01*
X32866967Y-13331008D02*
X32886015Y-13350055D01*
X32886015Y-13350055D02*
X32895539Y-13369103D01*
X32895539Y-13369103D02*
X32905062Y-13407198D01*
X32905062Y-13407198D02*
X32905062Y-13435770D01*
X32905062Y-13435770D02*
X32895539Y-13473865D01*
X32895539Y-13473865D02*
X32886015Y-13492912D01*
X32886015Y-13492912D02*
X32866967Y-13511960D01*
X32866967Y-13511960D02*
X32838396Y-13521484D01*
X32838396Y-13521484D02*
X32790777Y-13521484D01*
X32990777Y-13521484D02*
X32990777Y-13388150D01*
X32990777Y-13426246D02*
X33000300Y-13407198D01*
X33000300Y-13407198D02*
X33009824Y-13397674D01*
X33009824Y-13397674D02*
X33028872Y-13388150D01*
X33028872Y-13388150D02*
X33047920Y-13388150D01*
X33114586Y-13521484D02*
X33114586Y-13388150D01*
X33114586Y-13321484D02*
X33105062Y-13331008D01*
X33105062Y-13331008D02*
X33114586Y-13340531D01*
X33114586Y-13340531D02*
X33124110Y-13331008D01*
X33124110Y-13331008D02*
X33114586Y-13321484D01*
X33114586Y-13321484D02*
X33114586Y-13340531D01*
X33238396Y-13521484D02*
X33219348Y-13511960D01*
X33219348Y-13511960D02*
X33209824Y-13492912D01*
X33209824Y-13492912D02*
X33209824Y-13321484D01*
X33343158Y-13521484D02*
X33324110Y-13511960D01*
X33324110Y-13511960D02*
X33314586Y-13492912D01*
X33314586Y-13492912D02*
X33314586Y-13321484D01*
X33571729Y-13521484D02*
X33571729Y-13321484D01*
X33571729Y-13321484D02*
X33638396Y-13464341D01*
X33638396Y-13464341D02*
X33705062Y-13321484D01*
X33705062Y-13321484D02*
X33705062Y-13521484D01*
X33886015Y-13521484D02*
X33886015Y-13416722D01*
X33886015Y-13416722D02*
X33876491Y-13397674D01*
X33876491Y-13397674D02*
X33857443Y-13388150D01*
X33857443Y-13388150D02*
X33819348Y-13388150D01*
X33819348Y-13388150D02*
X33800301Y-13397674D01*
X33886015Y-13511960D02*
X33866967Y-13521484D01*
X33866967Y-13521484D02*
X33819348Y-13521484D01*
X33819348Y-13521484D02*
X33800301Y-13511960D01*
X33800301Y-13511960D02*
X33790777Y-13492912D01*
X33790777Y-13492912D02*
X33790777Y-13473865D01*
X33790777Y-13473865D02*
X33800301Y-13454817D01*
X33800301Y-13454817D02*
X33819348Y-13445293D01*
X33819348Y-13445293D02*
X33866967Y-13445293D01*
X33866967Y-13445293D02*
X33886015Y-13435770D01*
X33981253Y-13388150D02*
X33981253Y-13588150D01*
X33981253Y-13397674D02*
X34000301Y-13388150D01*
X34000301Y-13388150D02*
X34038396Y-13388150D01*
X34038396Y-13388150D02*
X34057443Y-13397674D01*
X34057443Y-13397674D02*
X34066967Y-13407198D01*
X34066967Y-13407198D02*
X34076491Y-13426246D01*
X34076491Y-13426246D02*
X34076491Y-13483389D01*
X34076491Y-13483389D02*
X34066967Y-13502436D01*
X34066967Y-13502436D02*
X34057443Y-13511960D01*
X34057443Y-13511960D02*
X34038396Y-13521484D01*
X34038396Y-13521484D02*
X34000301Y-13521484D01*
X34000301Y-13521484D02*
X33981253Y-13511960D01*
X34162205Y-13502436D02*
X34171729Y-13511960D01*
X34171729Y-13511960D02*
X34162205Y-13521484D01*
X34162205Y-13521484D02*
X34152682Y-13511960D01*
X34152682Y-13511960D02*
X34162205Y-13502436D01*
X34162205Y-13502436D02*
X34162205Y-13521484D01*
X34162205Y-13397674D02*
X34171729Y-13407198D01*
X34171729Y-13407198D02*
X34162205Y-13416722D01*
X34162205Y-13416722D02*
X34152682Y-13407198D01*
X34152682Y-13407198D02*
X34162205Y-13397674D01*
X34162205Y-13397674D02*
X34162205Y-13416722D01*
D11*
X32430940Y-13800470D02*
X32530000Y-13899530D01*
X32530000Y-13800470D02*
X32430940Y-13899530D01*
D10*
X32828872Y-13741484D02*
X32847920Y-13741484D01*
X32847920Y-13741484D02*
X32866967Y-13751008D01*
X32866967Y-13751008D02*
X32876491Y-13760531D01*
X32876491Y-13760531D02*
X32886015Y-13779579D01*
X32886015Y-13779579D02*
X32895539Y-13817674D01*
X32895539Y-13817674D02*
X32895539Y-13865293D01*
X32895539Y-13865293D02*
X32886015Y-13903389D01*
X32886015Y-13903389D02*
X32876491Y-13922436D01*
X32876491Y-13922436D02*
X32866967Y-13931960D01*
X32866967Y-13931960D02*
X32847920Y-13941484D01*
X32847920Y-13941484D02*
X32828872Y-13941484D01*
X32828872Y-13941484D02*
X32809824Y-13931960D01*
X32809824Y-13931960D02*
X32800300Y-13922436D01*
X32800300Y-13922436D02*
X32790777Y-13903389D01*
X32790777Y-13903389D02*
X32781253Y-13865293D01*
X32781253Y-13865293D02*
X32781253Y-13817674D01*
X32781253Y-13817674D02*
X32790777Y-13779579D01*
X32790777Y-13779579D02*
X32800300Y-13760531D01*
X32800300Y-13760531D02*
X32809824Y-13751008D01*
X32809824Y-13751008D02*
X32828872Y-13741484D01*
X32981253Y-13922436D02*
X32990777Y-13931960D01*
X32990777Y-13931960D02*
X32981253Y-13941484D01*
X32981253Y-13941484D02*
X32971729Y-13931960D01*
X32971729Y-13931960D02*
X32981253Y-13922436D01*
X32981253Y-13922436D02*
X32981253Y-13941484D01*
X33086015Y-13941484D02*
X33124110Y-13941484D01*
X33124110Y-13941484D02*
X33143158Y-13931960D01*
X33143158Y-13931960D02*
X33152681Y-13922436D01*
X33152681Y-13922436D02*
X33171729Y-13893865D01*
X33171729Y-13893865D02*
X33181253Y-13855770D01*
X33181253Y-13855770D02*
X33181253Y-13779579D01*
X33181253Y-13779579D02*
X33171729Y-13760531D01*
X33171729Y-13760531D02*
X33162205Y-13751008D01*
X33162205Y-13751008D02*
X33143158Y-13741484D01*
X33143158Y-13741484D02*
X33105062Y-13741484D01*
X33105062Y-13741484D02*
X33086015Y-13751008D01*
X33086015Y-13751008D02*
X33076491Y-13760531D01*
X33076491Y-13760531D02*
X33066967Y-13779579D01*
X33066967Y-13779579D02*
X33066967Y-13827198D01*
X33066967Y-13827198D02*
X33076491Y-13846246D01*
X33076491Y-13846246D02*
X33086015Y-13855770D01*
X33086015Y-13855770D02*
X33105062Y-13865293D01*
X33105062Y-13865293D02*
X33143158Y-13865293D01*
X33143158Y-13865293D02*
X33162205Y-13855770D01*
X33162205Y-13855770D02*
X33171729Y-13846246D01*
X33171729Y-13846246D02*
X33181253Y-13827198D01*
X33276491Y-13941484D02*
X33314586Y-13941484D01*
X33314586Y-13941484D02*
X33333634Y-13931960D01*
X33333634Y-13931960D02*
X33343158Y-13922436D01*
X33343158Y-13922436D02*
X33362205Y-13893865D01*
X33362205Y-13893865D02*
X33371729Y-13855770D01*
X33371729Y-13855770D02*
X33371729Y-13779579D01*
X33371729Y-13779579D02*
X33362205Y-13760531D01*
X33362205Y-13760531D02*
X33352681Y-13751008D01*
X33352681Y-13751008D02*
X33333634Y-13741484D01*
X33333634Y-13741484D02*
X33295539Y-13741484D01*
X33295539Y-13741484D02*
X33276491Y-13751008D01*
X33276491Y-13751008D02*
X33266967Y-13760531D01*
X33266967Y-13760531D02*
X33257443Y-13779579D01*
X33257443Y-13779579D02*
X33257443Y-13827198D01*
X33257443Y-13827198D02*
X33266967Y-13846246D01*
X33266967Y-13846246D02*
X33276491Y-13855770D01*
X33276491Y-13855770D02*
X33295539Y-13865293D01*
X33295539Y-13865293D02*
X33333634Y-13865293D01*
X33333634Y-13865293D02*
X33352681Y-13855770D01*
X33352681Y-13855770D02*
X33362205Y-13846246D01*
X33362205Y-13846246D02*
X33371729Y-13827198D01*
X33562205Y-13941484D02*
X33447920Y-13941484D01*
X33505062Y-13941484D02*
X33505062Y-13741484D01*
X33505062Y-13741484D02*
X33486015Y-13770055D01*
X33486015Y-13770055D02*
X33466967Y-13789103D01*
X33466967Y-13789103D02*
X33447920Y-13798627D01*
X33647920Y-13941484D02*
X33647920Y-13808150D01*
X33647920Y-13827198D02*
X33657443Y-13817674D01*
X33657443Y-13817674D02*
X33676491Y-13808150D01*
X33676491Y-13808150D02*
X33705063Y-13808150D01*
X33705063Y-13808150D02*
X33724110Y-13817674D01*
X33724110Y-13817674D02*
X33733634Y-13836722D01*
X33733634Y-13836722D02*
X33733634Y-13941484D01*
X33733634Y-13836722D02*
X33743158Y-13817674D01*
X33743158Y-13817674D02*
X33762205Y-13808150D01*
X33762205Y-13808150D02*
X33790777Y-13808150D01*
X33790777Y-13808150D02*
X33809824Y-13817674D01*
X33809824Y-13817674D02*
X33819348Y-13836722D01*
X33819348Y-13836722D02*
X33819348Y-13941484D01*
X33914586Y-13941484D02*
X33914586Y-13808150D01*
X33914586Y-13827198D02*
X33924110Y-13817674D01*
X33924110Y-13817674D02*
X33943158Y-13808150D01*
X33943158Y-13808150D02*
X33971729Y-13808150D01*
X33971729Y-13808150D02*
X33990777Y-13817674D01*
X33990777Y-13817674D02*
X34000301Y-13836722D01*
X34000301Y-13836722D02*
X34000301Y-13941484D01*
X34000301Y-13836722D02*
X34009824Y-13817674D01*
X34009824Y-13817674D02*
X34028872Y-13808150D01*
X34028872Y-13808150D02*
X34057443Y-13808150D01*
X34057443Y-13808150D02*
X34076491Y-13817674D01*
X34076491Y-13817674D02*
X34086015Y-13836722D01*
X34086015Y-13836722D02*
X34086015Y-13941484D01*
X34476491Y-13731960D02*
X34305063Y-13989103D01*
X34733634Y-13741484D02*
X34752682Y-13741484D01*
X34752682Y-13741484D02*
X34771729Y-13751008D01*
X34771729Y-13751008D02*
X34781253Y-13760531D01*
X34781253Y-13760531D02*
X34790777Y-13779579D01*
X34790777Y-13779579D02*
X34800301Y-13817674D01*
X34800301Y-13817674D02*
X34800301Y-13865293D01*
X34800301Y-13865293D02*
X34790777Y-13903389D01*
X34790777Y-13903389D02*
X34781253Y-13922436D01*
X34781253Y-13922436D02*
X34771729Y-13931960D01*
X34771729Y-13931960D02*
X34752682Y-13941484D01*
X34752682Y-13941484D02*
X34733634Y-13941484D01*
X34733634Y-13941484D02*
X34714586Y-13931960D01*
X34714586Y-13931960D02*
X34705063Y-13922436D01*
X34705063Y-13922436D02*
X34695539Y-13903389D01*
X34695539Y-13903389D02*
X34686015Y-13865293D01*
X34686015Y-13865293D02*
X34686015Y-13817674D01*
X34686015Y-13817674D02*
X34695539Y-13779579D01*
X34695539Y-13779579D02*
X34705063Y-13760531D01*
X34705063Y-13760531D02*
X34714586Y-13751008D01*
X34714586Y-13751008D02*
X34733634Y-13741484D01*
X34886015Y-13922436D02*
X34895539Y-13931960D01*
X34895539Y-13931960D02*
X34886015Y-13941484D01*
X34886015Y-13941484D02*
X34876491Y-13931960D01*
X34876491Y-13931960D02*
X34886015Y-13922436D01*
X34886015Y-13922436D02*
X34886015Y-13941484D01*
X35019348Y-13741484D02*
X35038396Y-13741484D01*
X35038396Y-13741484D02*
X35057444Y-13751008D01*
X35057444Y-13751008D02*
X35066967Y-13760531D01*
X35066967Y-13760531D02*
X35076491Y-13779579D01*
X35076491Y-13779579D02*
X35086015Y-13817674D01*
X35086015Y-13817674D02*
X35086015Y-13865293D01*
X35086015Y-13865293D02*
X35076491Y-13903389D01*
X35076491Y-13903389D02*
X35066967Y-13922436D01*
X35066967Y-13922436D02*
X35057444Y-13931960D01*
X35057444Y-13931960D02*
X35038396Y-13941484D01*
X35038396Y-13941484D02*
X35019348Y-13941484D01*
X35019348Y-13941484D02*
X35000301Y-13931960D01*
X35000301Y-13931960D02*
X34990777Y-13922436D01*
X34990777Y-13922436D02*
X34981253Y-13903389D01*
X34981253Y-13903389D02*
X34971729Y-13865293D01*
X34971729Y-13865293D02*
X34971729Y-13817674D01*
X34971729Y-13817674D02*
X34981253Y-13779579D01*
X34981253Y-13779579D02*
X34990777Y-13760531D01*
X34990777Y-13760531D02*
X35000301Y-13751008D01*
X35000301Y-13751008D02*
X35019348Y-13741484D01*
X35152682Y-13741484D02*
X35276491Y-13741484D01*
X35276491Y-13741484D02*
X35209825Y-13817674D01*
X35209825Y-13817674D02*
X35238396Y-13817674D01*
X35238396Y-13817674D02*
X35257444Y-13827198D01*
X35257444Y-13827198D02*
X35266967Y-13836722D01*
X35266967Y-13836722D02*
X35276491Y-13855770D01*
X35276491Y-13855770D02*
X35276491Y-13903389D01*
X35276491Y-13903389D02*
X35266967Y-13922436D01*
X35266967Y-13922436D02*
X35257444Y-13931960D01*
X35257444Y-13931960D02*
X35238396Y-13941484D01*
X35238396Y-13941484D02*
X35181253Y-13941484D01*
X35181253Y-13941484D02*
X35162206Y-13931960D01*
X35162206Y-13931960D02*
X35152682Y-13922436D01*
X35371729Y-13941484D02*
X35409825Y-13941484D01*
X35409825Y-13941484D02*
X35428872Y-13931960D01*
X35428872Y-13931960D02*
X35438396Y-13922436D01*
X35438396Y-13922436D02*
X35457444Y-13893865D01*
X35457444Y-13893865D02*
X35466967Y-13855770D01*
X35466967Y-13855770D02*
X35466967Y-13779579D01*
X35466967Y-13779579D02*
X35457444Y-13760531D01*
X35457444Y-13760531D02*
X35447920Y-13751008D01*
X35447920Y-13751008D02*
X35428872Y-13741484D01*
X35428872Y-13741484D02*
X35390777Y-13741484D01*
X35390777Y-13741484D02*
X35371729Y-13751008D01*
X35371729Y-13751008D02*
X35362206Y-13760531D01*
X35362206Y-13760531D02*
X35352682Y-13779579D01*
X35352682Y-13779579D02*
X35352682Y-13827198D01*
X35352682Y-13827198D02*
X35362206Y-13846246D01*
X35362206Y-13846246D02*
X35371729Y-13855770D01*
X35371729Y-13855770D02*
X35390777Y-13865293D01*
X35390777Y-13865293D02*
X35428872Y-13865293D01*
X35428872Y-13865293D02*
X35447920Y-13855770D01*
X35447920Y-13855770D02*
X35457444Y-13846246D01*
X35457444Y-13846246D02*
X35466967Y-13827198D01*
X35590777Y-13741484D02*
X35609825Y-13741484D01*
X35609825Y-13741484D02*
X35628872Y-13751008D01*
X35628872Y-13751008D02*
X35638396Y-13760531D01*
X35638396Y-13760531D02*
X35647920Y-13779579D01*
X35647920Y-13779579D02*
X35657444Y-13817674D01*
X35657444Y-13817674D02*
X35657444Y-13865293D01*
X35657444Y-13865293D02*
X35647920Y-13903389D01*
X35647920Y-13903389D02*
X35638396Y-13922436D01*
X35638396Y-13922436D02*
X35628872Y-13931960D01*
X35628872Y-13931960D02*
X35609825Y-13941484D01*
X35609825Y-13941484D02*
X35590777Y-13941484D01*
X35590777Y-13941484D02*
X35571729Y-13931960D01*
X35571729Y-13931960D02*
X35562206Y-13922436D01*
X35562206Y-13922436D02*
X35552682Y-13903389D01*
X35552682Y-13903389D02*
X35543158Y-13865293D01*
X35543158Y-13865293D02*
X35543158Y-13817674D01*
X35543158Y-13817674D02*
X35552682Y-13779579D01*
X35552682Y-13779579D02*
X35562206Y-13760531D01*
X35562206Y-13760531D02*
X35571729Y-13751008D01*
X35571729Y-13751008D02*
X35590777Y-13741484D01*
X35733634Y-13741484D02*
X35733634Y-13779579D01*
X35809825Y-13741484D02*
X35809825Y-13779579D01*
X36105063Y-14017674D02*
X36095539Y-14008150D01*
X36095539Y-14008150D02*
X36076491Y-13979579D01*
X36076491Y-13979579D02*
X36066968Y-13960531D01*
X36066968Y-13960531D02*
X36057444Y-13931960D01*
X36057444Y-13931960D02*
X36047920Y-13884341D01*
X36047920Y-13884341D02*
X36047920Y-13846246D01*
X36047920Y-13846246D02*
X36057444Y-13798627D01*
X36057444Y-13798627D02*
X36066968Y-13770055D01*
X36066968Y-13770055D02*
X36076491Y-13751008D01*
X36076491Y-13751008D02*
X36095539Y-13722436D01*
X36095539Y-13722436D02*
X36105063Y-13712912D01*
X36266968Y-13808150D02*
X36266968Y-13941484D01*
X36219348Y-13731960D02*
X36171729Y-13874817D01*
X36171729Y-13874817D02*
X36295539Y-13874817D01*
X36457444Y-13741484D02*
X36419348Y-13741484D01*
X36419348Y-13741484D02*
X36400301Y-13751008D01*
X36400301Y-13751008D02*
X36390777Y-13760531D01*
X36390777Y-13760531D02*
X36371729Y-13789103D01*
X36371729Y-13789103D02*
X36362206Y-13827198D01*
X36362206Y-13827198D02*
X36362206Y-13903389D01*
X36362206Y-13903389D02*
X36371729Y-13922436D01*
X36371729Y-13922436D02*
X36381253Y-13931960D01*
X36381253Y-13931960D02*
X36400301Y-13941484D01*
X36400301Y-13941484D02*
X36438396Y-13941484D01*
X36438396Y-13941484D02*
X36457444Y-13931960D01*
X36457444Y-13931960D02*
X36466968Y-13922436D01*
X36466968Y-13922436D02*
X36476491Y-13903389D01*
X36476491Y-13903389D02*
X36476491Y-13855770D01*
X36476491Y-13855770D02*
X36466968Y-13836722D01*
X36466968Y-13836722D02*
X36457444Y-13827198D01*
X36457444Y-13827198D02*
X36438396Y-13817674D01*
X36438396Y-13817674D02*
X36400301Y-13817674D01*
X36400301Y-13817674D02*
X36381253Y-13827198D01*
X36381253Y-13827198D02*
X36371729Y-13836722D01*
X36371729Y-13836722D02*
X36362206Y-13855770D01*
X36714587Y-13941484D02*
X36714587Y-13741484D01*
X36800301Y-13941484D02*
X36800301Y-13836722D01*
X36800301Y-13836722D02*
X36790777Y-13817674D01*
X36790777Y-13817674D02*
X36771730Y-13808150D01*
X36771730Y-13808150D02*
X36743158Y-13808150D01*
X36743158Y-13808150D02*
X36724110Y-13817674D01*
X36724110Y-13817674D02*
X36714587Y-13827198D01*
X36924110Y-13941484D02*
X36905063Y-13931960D01*
X36905063Y-13931960D02*
X36895539Y-13922436D01*
X36895539Y-13922436D02*
X36886015Y-13903389D01*
X36886015Y-13903389D02*
X36886015Y-13846246D01*
X36886015Y-13846246D02*
X36895539Y-13827198D01*
X36895539Y-13827198D02*
X36905063Y-13817674D01*
X36905063Y-13817674D02*
X36924110Y-13808150D01*
X36924110Y-13808150D02*
X36952682Y-13808150D01*
X36952682Y-13808150D02*
X36971730Y-13817674D01*
X36971730Y-13817674D02*
X36981253Y-13827198D01*
X36981253Y-13827198D02*
X36990777Y-13846246D01*
X36990777Y-13846246D02*
X36990777Y-13903389D01*
X36990777Y-13903389D02*
X36981253Y-13922436D01*
X36981253Y-13922436D02*
X36971730Y-13931960D01*
X36971730Y-13931960D02*
X36952682Y-13941484D01*
X36952682Y-13941484D02*
X36924110Y-13941484D01*
X37105063Y-13941484D02*
X37086015Y-13931960D01*
X37086015Y-13931960D02*
X37076491Y-13912912D01*
X37076491Y-13912912D02*
X37076491Y-13741484D01*
X37257444Y-13931960D02*
X37238396Y-13941484D01*
X37238396Y-13941484D02*
X37200301Y-13941484D01*
X37200301Y-13941484D02*
X37181253Y-13931960D01*
X37181253Y-13931960D02*
X37171730Y-13912912D01*
X37171730Y-13912912D02*
X37171730Y-13836722D01*
X37171730Y-13836722D02*
X37181253Y-13817674D01*
X37181253Y-13817674D02*
X37200301Y-13808150D01*
X37200301Y-13808150D02*
X37238396Y-13808150D01*
X37238396Y-13808150D02*
X37257444Y-13817674D01*
X37257444Y-13817674D02*
X37266968Y-13836722D01*
X37266968Y-13836722D02*
X37266968Y-13855770D01*
X37266968Y-13855770D02*
X37171730Y-13874817D01*
X37343158Y-13931960D02*
X37362206Y-13941484D01*
X37362206Y-13941484D02*
X37400301Y-13941484D01*
X37400301Y-13941484D02*
X37419349Y-13931960D01*
X37419349Y-13931960D02*
X37428872Y-13912912D01*
X37428872Y-13912912D02*
X37428872Y-13903389D01*
X37428872Y-13903389D02*
X37419349Y-13884341D01*
X37419349Y-13884341D02*
X37400301Y-13874817D01*
X37400301Y-13874817D02*
X37371730Y-13874817D01*
X37371730Y-13874817D02*
X37352682Y-13865293D01*
X37352682Y-13865293D02*
X37343158Y-13846246D01*
X37343158Y-13846246D02*
X37343158Y-13836722D01*
X37343158Y-13836722D02*
X37352682Y-13817674D01*
X37352682Y-13817674D02*
X37371730Y-13808150D01*
X37371730Y-13808150D02*
X37400301Y-13808150D01*
X37400301Y-13808150D02*
X37419349Y-13817674D01*
X37495539Y-14017674D02*
X37505063Y-14008150D01*
X37505063Y-14008150D02*
X37524111Y-13979579D01*
X37524111Y-13979579D02*
X37533634Y-13960531D01*
X37533634Y-13960531D02*
X37543158Y-13931960D01*
X37543158Y-13931960D02*
X37552682Y-13884341D01*
X37552682Y-13884341D02*
X37552682Y-13846246D01*
X37552682Y-13846246D02*
X37543158Y-13798627D01*
X37543158Y-13798627D02*
X37533634Y-13770055D01*
X37533634Y-13770055D02*
X37524111Y-13751008D01*
X37524111Y-13751008D02*
X37505063Y-13722436D01*
X37505063Y-13722436D02*
X37495539Y-13712912D01*
D11*
X32530000Y-14114000D02*
G75*
G02*
X32430000Y-14114000I-50000J0D01*
G01*
X32430000Y-14114000D02*
G75*
G02*
X32530000Y-14114000I50000J0D01*
G01*
D10*
X32895539Y-14205484D02*
X32781253Y-14205484D01*
X32838396Y-14205484D02*
X32838396Y-14005484D01*
X32838396Y-14005484D02*
X32819348Y-14034055D01*
X32819348Y-14034055D02*
X32800300Y-14053103D01*
X32800300Y-14053103D02*
X32781253Y-14062627D01*
X32981253Y-14186436D02*
X32990777Y-14195960D01*
X32990777Y-14195960D02*
X32981253Y-14205484D01*
X32981253Y-14205484D02*
X32971729Y-14195960D01*
X32971729Y-14195960D02*
X32981253Y-14186436D01*
X32981253Y-14186436D02*
X32981253Y-14205484D01*
X33114586Y-14005484D02*
X33133634Y-14005484D01*
X33133634Y-14005484D02*
X33152681Y-14015008D01*
X33152681Y-14015008D02*
X33162205Y-14024531D01*
X33162205Y-14024531D02*
X33171729Y-14043579D01*
X33171729Y-14043579D02*
X33181253Y-14081674D01*
X33181253Y-14081674D02*
X33181253Y-14129293D01*
X33181253Y-14129293D02*
X33171729Y-14167389D01*
X33171729Y-14167389D02*
X33162205Y-14186436D01*
X33162205Y-14186436D02*
X33152681Y-14195960D01*
X33152681Y-14195960D02*
X33133634Y-14205484D01*
X33133634Y-14205484D02*
X33114586Y-14205484D01*
X33114586Y-14205484D02*
X33095539Y-14195960D01*
X33095539Y-14195960D02*
X33086015Y-14186436D01*
X33086015Y-14186436D02*
X33076491Y-14167389D01*
X33076491Y-14167389D02*
X33066967Y-14129293D01*
X33066967Y-14129293D02*
X33066967Y-14081674D01*
X33066967Y-14081674D02*
X33076491Y-14043579D01*
X33076491Y-14043579D02*
X33086015Y-14024531D01*
X33086015Y-14024531D02*
X33095539Y-14015008D01*
X33095539Y-14015008D02*
X33114586Y-14005484D01*
X33305062Y-14005484D02*
X33324110Y-14005484D01*
X33324110Y-14005484D02*
X33343158Y-14015008D01*
X33343158Y-14015008D02*
X33352681Y-14024531D01*
X33352681Y-14024531D02*
X33362205Y-14043579D01*
X33362205Y-14043579D02*
X33371729Y-14081674D01*
X33371729Y-14081674D02*
X33371729Y-14129293D01*
X33371729Y-14129293D02*
X33362205Y-14167389D01*
X33362205Y-14167389D02*
X33352681Y-14186436D01*
X33352681Y-14186436D02*
X33343158Y-14195960D01*
X33343158Y-14195960D02*
X33324110Y-14205484D01*
X33324110Y-14205484D02*
X33305062Y-14205484D01*
X33305062Y-14205484D02*
X33286015Y-14195960D01*
X33286015Y-14195960D02*
X33276491Y-14186436D01*
X33276491Y-14186436D02*
X33266967Y-14167389D01*
X33266967Y-14167389D02*
X33257443Y-14129293D01*
X33257443Y-14129293D02*
X33257443Y-14081674D01*
X33257443Y-14081674D02*
X33266967Y-14043579D01*
X33266967Y-14043579D02*
X33276491Y-14024531D01*
X33276491Y-14024531D02*
X33286015Y-14015008D01*
X33286015Y-14015008D02*
X33305062Y-14005484D01*
X33495539Y-14005484D02*
X33514586Y-14005484D01*
X33514586Y-14005484D02*
X33533634Y-14015008D01*
X33533634Y-14015008D02*
X33543158Y-14024531D01*
X33543158Y-14024531D02*
X33552681Y-14043579D01*
X33552681Y-14043579D02*
X33562205Y-14081674D01*
X33562205Y-14081674D02*
X33562205Y-14129293D01*
X33562205Y-14129293D02*
X33552681Y-14167389D01*
X33552681Y-14167389D02*
X33543158Y-14186436D01*
X33543158Y-14186436D02*
X33533634Y-14195960D01*
X33533634Y-14195960D02*
X33514586Y-14205484D01*
X33514586Y-14205484D02*
X33495539Y-14205484D01*
X33495539Y-14205484D02*
X33476491Y-14195960D01*
X33476491Y-14195960D02*
X33466967Y-14186436D01*
X33466967Y-14186436D02*
X33457443Y-14167389D01*
X33457443Y-14167389D02*
X33447920Y-14129293D01*
X33447920Y-14129293D02*
X33447920Y-14081674D01*
X33447920Y-14081674D02*
X33457443Y-14043579D01*
X33457443Y-14043579D02*
X33466967Y-14024531D01*
X33466967Y-14024531D02*
X33476491Y-14015008D01*
X33476491Y-14015008D02*
X33495539Y-14005484D01*
X33647920Y-14205484D02*
X33647920Y-14072150D01*
X33647920Y-14091198D02*
X33657443Y-14081674D01*
X33657443Y-14081674D02*
X33676491Y-14072150D01*
X33676491Y-14072150D02*
X33705063Y-14072150D01*
X33705063Y-14072150D02*
X33724110Y-14081674D01*
X33724110Y-14081674D02*
X33733634Y-14100722D01*
X33733634Y-14100722D02*
X33733634Y-14205484D01*
X33733634Y-14100722D02*
X33743158Y-14081674D01*
X33743158Y-14081674D02*
X33762205Y-14072150D01*
X33762205Y-14072150D02*
X33790777Y-14072150D01*
X33790777Y-14072150D02*
X33809824Y-14081674D01*
X33809824Y-14081674D02*
X33819348Y-14100722D01*
X33819348Y-14100722D02*
X33819348Y-14205484D01*
X33914586Y-14205484D02*
X33914586Y-14072150D01*
X33914586Y-14091198D02*
X33924110Y-14081674D01*
X33924110Y-14081674D02*
X33943158Y-14072150D01*
X33943158Y-14072150D02*
X33971729Y-14072150D01*
X33971729Y-14072150D02*
X33990777Y-14081674D01*
X33990777Y-14081674D02*
X34000301Y-14100722D01*
X34000301Y-14100722D02*
X34000301Y-14205484D01*
X34000301Y-14100722D02*
X34009824Y-14081674D01*
X34009824Y-14081674D02*
X34028872Y-14072150D01*
X34028872Y-14072150D02*
X34057443Y-14072150D01*
X34057443Y-14072150D02*
X34076491Y-14081674D01*
X34076491Y-14081674D02*
X34086015Y-14100722D01*
X34086015Y-14100722D02*
X34086015Y-14205484D01*
X34476491Y-13995960D02*
X34305063Y-14253103D01*
X34733634Y-14005484D02*
X34752682Y-14005484D01*
X34752682Y-14005484D02*
X34771729Y-14015008D01*
X34771729Y-14015008D02*
X34781253Y-14024531D01*
X34781253Y-14024531D02*
X34790777Y-14043579D01*
X34790777Y-14043579D02*
X34800301Y-14081674D01*
X34800301Y-14081674D02*
X34800301Y-14129293D01*
X34800301Y-14129293D02*
X34790777Y-14167389D01*
X34790777Y-14167389D02*
X34781253Y-14186436D01*
X34781253Y-14186436D02*
X34771729Y-14195960D01*
X34771729Y-14195960D02*
X34752682Y-14205484D01*
X34752682Y-14205484D02*
X34733634Y-14205484D01*
X34733634Y-14205484D02*
X34714586Y-14195960D01*
X34714586Y-14195960D02*
X34705063Y-14186436D01*
X34705063Y-14186436D02*
X34695539Y-14167389D01*
X34695539Y-14167389D02*
X34686015Y-14129293D01*
X34686015Y-14129293D02*
X34686015Y-14081674D01*
X34686015Y-14081674D02*
X34695539Y-14043579D01*
X34695539Y-14043579D02*
X34705063Y-14024531D01*
X34705063Y-14024531D02*
X34714586Y-14015008D01*
X34714586Y-14015008D02*
X34733634Y-14005484D01*
X34886015Y-14186436D02*
X34895539Y-14195960D01*
X34895539Y-14195960D02*
X34886015Y-14205484D01*
X34886015Y-14205484D02*
X34876491Y-14195960D01*
X34876491Y-14195960D02*
X34886015Y-14186436D01*
X34886015Y-14186436D02*
X34886015Y-14205484D01*
X35019348Y-14005484D02*
X35038396Y-14005484D01*
X35038396Y-14005484D02*
X35057444Y-14015008D01*
X35057444Y-14015008D02*
X35066967Y-14024531D01*
X35066967Y-14024531D02*
X35076491Y-14043579D01*
X35076491Y-14043579D02*
X35086015Y-14081674D01*
X35086015Y-14081674D02*
X35086015Y-14129293D01*
X35086015Y-14129293D02*
X35076491Y-14167389D01*
X35076491Y-14167389D02*
X35066967Y-14186436D01*
X35066967Y-14186436D02*
X35057444Y-14195960D01*
X35057444Y-14195960D02*
X35038396Y-14205484D01*
X35038396Y-14205484D02*
X35019348Y-14205484D01*
X35019348Y-14205484D02*
X35000301Y-14195960D01*
X35000301Y-14195960D02*
X34990777Y-14186436D01*
X34990777Y-14186436D02*
X34981253Y-14167389D01*
X34981253Y-14167389D02*
X34971729Y-14129293D01*
X34971729Y-14129293D02*
X34971729Y-14081674D01*
X34971729Y-14081674D02*
X34981253Y-14043579D01*
X34981253Y-14043579D02*
X34990777Y-14024531D01*
X34990777Y-14024531D02*
X35000301Y-14015008D01*
X35000301Y-14015008D02*
X35019348Y-14005484D01*
X35152682Y-14005484D02*
X35276491Y-14005484D01*
X35276491Y-14005484D02*
X35209825Y-14081674D01*
X35209825Y-14081674D02*
X35238396Y-14081674D01*
X35238396Y-14081674D02*
X35257444Y-14091198D01*
X35257444Y-14091198D02*
X35266967Y-14100722D01*
X35266967Y-14100722D02*
X35276491Y-14119770D01*
X35276491Y-14119770D02*
X35276491Y-14167389D01*
X35276491Y-14167389D02*
X35266967Y-14186436D01*
X35266967Y-14186436D02*
X35257444Y-14195960D01*
X35257444Y-14195960D02*
X35238396Y-14205484D01*
X35238396Y-14205484D02*
X35181253Y-14205484D01*
X35181253Y-14205484D02*
X35162206Y-14195960D01*
X35162206Y-14195960D02*
X35152682Y-14186436D01*
X35371729Y-14205484D02*
X35409825Y-14205484D01*
X35409825Y-14205484D02*
X35428872Y-14195960D01*
X35428872Y-14195960D02*
X35438396Y-14186436D01*
X35438396Y-14186436D02*
X35457444Y-14157865D01*
X35457444Y-14157865D02*
X35466967Y-14119770D01*
X35466967Y-14119770D02*
X35466967Y-14043579D01*
X35466967Y-14043579D02*
X35457444Y-14024531D01*
X35457444Y-14024531D02*
X35447920Y-14015008D01*
X35447920Y-14015008D02*
X35428872Y-14005484D01*
X35428872Y-14005484D02*
X35390777Y-14005484D01*
X35390777Y-14005484D02*
X35371729Y-14015008D01*
X35371729Y-14015008D02*
X35362206Y-14024531D01*
X35362206Y-14024531D02*
X35352682Y-14043579D01*
X35352682Y-14043579D02*
X35352682Y-14091198D01*
X35352682Y-14091198D02*
X35362206Y-14110246D01*
X35362206Y-14110246D02*
X35371729Y-14119770D01*
X35371729Y-14119770D02*
X35390777Y-14129293D01*
X35390777Y-14129293D02*
X35428872Y-14129293D01*
X35428872Y-14129293D02*
X35447920Y-14119770D01*
X35447920Y-14119770D02*
X35457444Y-14110246D01*
X35457444Y-14110246D02*
X35466967Y-14091198D01*
X35638396Y-14072150D02*
X35638396Y-14205484D01*
X35590777Y-13995960D02*
X35543158Y-14138817D01*
X35543158Y-14138817D02*
X35666967Y-14138817D01*
X35733634Y-14005484D02*
X35733634Y-14043579D01*
X35809825Y-14005484D02*
X35809825Y-14043579D01*
X36105063Y-14281674D02*
X36095539Y-14272150D01*
X36095539Y-14272150D02*
X36076491Y-14243579D01*
X36076491Y-14243579D02*
X36066968Y-14224531D01*
X36066968Y-14224531D02*
X36057444Y-14195960D01*
X36057444Y-14195960D02*
X36047920Y-14148341D01*
X36047920Y-14148341D02*
X36047920Y-14110246D01*
X36047920Y-14110246D02*
X36057444Y-14062627D01*
X36057444Y-14062627D02*
X36066968Y-14034055D01*
X36066968Y-14034055D02*
X36076491Y-14015008D01*
X36076491Y-14015008D02*
X36095539Y-13986436D01*
X36095539Y-13986436D02*
X36105063Y-13976912D01*
X36286015Y-14205484D02*
X36171729Y-14205484D01*
X36228872Y-14205484D02*
X36228872Y-14005484D01*
X36228872Y-14005484D02*
X36209825Y-14034055D01*
X36209825Y-14034055D02*
X36190777Y-14053103D01*
X36190777Y-14053103D02*
X36171729Y-14062627D01*
X36409825Y-14005484D02*
X36428872Y-14005484D01*
X36428872Y-14005484D02*
X36447920Y-14015008D01*
X36447920Y-14015008D02*
X36457444Y-14024531D01*
X36457444Y-14024531D02*
X36466968Y-14043579D01*
X36466968Y-14043579D02*
X36476491Y-14081674D01*
X36476491Y-14081674D02*
X36476491Y-14129293D01*
X36476491Y-14129293D02*
X36466968Y-14167389D01*
X36466968Y-14167389D02*
X36457444Y-14186436D01*
X36457444Y-14186436D02*
X36447920Y-14195960D01*
X36447920Y-14195960D02*
X36428872Y-14205484D01*
X36428872Y-14205484D02*
X36409825Y-14205484D01*
X36409825Y-14205484D02*
X36390777Y-14195960D01*
X36390777Y-14195960D02*
X36381253Y-14186436D01*
X36381253Y-14186436D02*
X36371729Y-14167389D01*
X36371729Y-14167389D02*
X36362206Y-14129293D01*
X36362206Y-14129293D02*
X36362206Y-14081674D01*
X36362206Y-14081674D02*
X36371729Y-14043579D01*
X36371729Y-14043579D02*
X36381253Y-14024531D01*
X36381253Y-14024531D02*
X36390777Y-14015008D01*
X36390777Y-14015008D02*
X36409825Y-14005484D01*
X36714587Y-14205484D02*
X36714587Y-14005484D01*
X36800301Y-14205484D02*
X36800301Y-14100722D01*
X36800301Y-14100722D02*
X36790777Y-14081674D01*
X36790777Y-14081674D02*
X36771730Y-14072150D01*
X36771730Y-14072150D02*
X36743158Y-14072150D01*
X36743158Y-14072150D02*
X36724110Y-14081674D01*
X36724110Y-14081674D02*
X36714587Y-14091198D01*
X36924110Y-14205484D02*
X36905063Y-14195960D01*
X36905063Y-14195960D02*
X36895539Y-14186436D01*
X36895539Y-14186436D02*
X36886015Y-14167389D01*
X36886015Y-14167389D02*
X36886015Y-14110246D01*
X36886015Y-14110246D02*
X36895539Y-14091198D01*
X36895539Y-14091198D02*
X36905063Y-14081674D01*
X36905063Y-14081674D02*
X36924110Y-14072150D01*
X36924110Y-14072150D02*
X36952682Y-14072150D01*
X36952682Y-14072150D02*
X36971730Y-14081674D01*
X36971730Y-14081674D02*
X36981253Y-14091198D01*
X36981253Y-14091198D02*
X36990777Y-14110246D01*
X36990777Y-14110246D02*
X36990777Y-14167389D01*
X36990777Y-14167389D02*
X36981253Y-14186436D01*
X36981253Y-14186436D02*
X36971730Y-14195960D01*
X36971730Y-14195960D02*
X36952682Y-14205484D01*
X36952682Y-14205484D02*
X36924110Y-14205484D01*
X37105063Y-14205484D02*
X37086015Y-14195960D01*
X37086015Y-14195960D02*
X37076491Y-14176912D01*
X37076491Y-14176912D02*
X37076491Y-14005484D01*
X37257444Y-14195960D02*
X37238396Y-14205484D01*
X37238396Y-14205484D02*
X37200301Y-14205484D01*
X37200301Y-14205484D02*
X37181253Y-14195960D01*
X37181253Y-14195960D02*
X37171730Y-14176912D01*
X37171730Y-14176912D02*
X37171730Y-14100722D01*
X37171730Y-14100722D02*
X37181253Y-14081674D01*
X37181253Y-14081674D02*
X37200301Y-14072150D01*
X37200301Y-14072150D02*
X37238396Y-14072150D01*
X37238396Y-14072150D02*
X37257444Y-14081674D01*
X37257444Y-14081674D02*
X37266968Y-14100722D01*
X37266968Y-14100722D02*
X37266968Y-14119770D01*
X37266968Y-14119770D02*
X37171730Y-14138817D01*
X37343158Y-14195960D02*
X37362206Y-14205484D01*
X37362206Y-14205484D02*
X37400301Y-14205484D01*
X37400301Y-14205484D02*
X37419349Y-14195960D01*
X37419349Y-14195960D02*
X37428872Y-14176912D01*
X37428872Y-14176912D02*
X37428872Y-14167389D01*
X37428872Y-14167389D02*
X37419349Y-14148341D01*
X37419349Y-14148341D02*
X37400301Y-14138817D01*
X37400301Y-14138817D02*
X37371730Y-14138817D01*
X37371730Y-14138817D02*
X37352682Y-14129293D01*
X37352682Y-14129293D02*
X37343158Y-14110246D01*
X37343158Y-14110246D02*
X37343158Y-14100722D01*
X37343158Y-14100722D02*
X37352682Y-14081674D01*
X37352682Y-14081674D02*
X37371730Y-14072150D01*
X37371730Y-14072150D02*
X37400301Y-14072150D01*
X37400301Y-14072150D02*
X37419349Y-14081674D01*
X37495539Y-14281674D02*
X37505063Y-14272150D01*
X37505063Y-14272150D02*
X37524111Y-14243579D01*
X37524111Y-14243579D02*
X37533634Y-14224531D01*
X37533634Y-14224531D02*
X37543158Y-14195960D01*
X37543158Y-14195960D02*
X37552682Y-14148341D01*
X37552682Y-14148341D02*
X37552682Y-14110246D01*
X37552682Y-14110246D02*
X37543158Y-14062627D01*
X37543158Y-14062627D02*
X37533634Y-14034055D01*
X37533634Y-14034055D02*
X37524111Y-14015008D01*
X37524111Y-14015008D02*
X37505063Y-13986436D01*
X37505063Y-13986436D02*
X37495539Y-13976912D01*
D12*
X32479000Y-14327000D02*
X32479000Y-14429000D01*
X32428000Y-14378000D02*
X32530000Y-14378000D01*
D10*
X32895539Y-14469484D02*
X32781253Y-14469484D01*
X32838396Y-14469484D02*
X32838396Y-14269484D01*
X32838396Y-14269484D02*
X32819348Y-14298055D01*
X32819348Y-14298055D02*
X32800300Y-14317103D01*
X32800300Y-14317103D02*
X32781253Y-14326627D01*
X32981253Y-14450436D02*
X32990777Y-14459960D01*
X32990777Y-14459960D02*
X32981253Y-14469484D01*
X32981253Y-14469484D02*
X32971729Y-14459960D01*
X32971729Y-14459960D02*
X32981253Y-14450436D01*
X32981253Y-14450436D02*
X32981253Y-14469484D01*
X33114586Y-14269484D02*
X33133634Y-14269484D01*
X33133634Y-14269484D02*
X33152681Y-14279008D01*
X33152681Y-14279008D02*
X33162205Y-14288531D01*
X33162205Y-14288531D02*
X33171729Y-14307579D01*
X33171729Y-14307579D02*
X33181253Y-14345674D01*
X33181253Y-14345674D02*
X33181253Y-14393293D01*
X33181253Y-14393293D02*
X33171729Y-14431389D01*
X33171729Y-14431389D02*
X33162205Y-14450436D01*
X33162205Y-14450436D02*
X33152681Y-14459960D01*
X33152681Y-14459960D02*
X33133634Y-14469484D01*
X33133634Y-14469484D02*
X33114586Y-14469484D01*
X33114586Y-14469484D02*
X33095539Y-14459960D01*
X33095539Y-14459960D02*
X33086015Y-14450436D01*
X33086015Y-14450436D02*
X33076491Y-14431389D01*
X33076491Y-14431389D02*
X33066967Y-14393293D01*
X33066967Y-14393293D02*
X33066967Y-14345674D01*
X33066967Y-14345674D02*
X33076491Y-14307579D01*
X33076491Y-14307579D02*
X33086015Y-14288531D01*
X33086015Y-14288531D02*
X33095539Y-14279008D01*
X33095539Y-14279008D02*
X33114586Y-14269484D01*
X33257443Y-14288531D02*
X33266967Y-14279008D01*
X33266967Y-14279008D02*
X33286015Y-14269484D01*
X33286015Y-14269484D02*
X33333634Y-14269484D01*
X33333634Y-14269484D02*
X33352681Y-14279008D01*
X33352681Y-14279008D02*
X33362205Y-14288531D01*
X33362205Y-14288531D02*
X33371729Y-14307579D01*
X33371729Y-14307579D02*
X33371729Y-14326627D01*
X33371729Y-14326627D02*
X33362205Y-14355198D01*
X33362205Y-14355198D02*
X33247920Y-14469484D01*
X33247920Y-14469484D02*
X33371729Y-14469484D01*
X33495539Y-14269484D02*
X33514586Y-14269484D01*
X33514586Y-14269484D02*
X33533634Y-14279008D01*
X33533634Y-14279008D02*
X33543158Y-14288531D01*
X33543158Y-14288531D02*
X33552681Y-14307579D01*
X33552681Y-14307579D02*
X33562205Y-14345674D01*
X33562205Y-14345674D02*
X33562205Y-14393293D01*
X33562205Y-14393293D02*
X33552681Y-14431389D01*
X33552681Y-14431389D02*
X33543158Y-14450436D01*
X33543158Y-14450436D02*
X33533634Y-14459960D01*
X33533634Y-14459960D02*
X33514586Y-14469484D01*
X33514586Y-14469484D02*
X33495539Y-14469484D01*
X33495539Y-14469484D02*
X33476491Y-14459960D01*
X33476491Y-14459960D02*
X33466967Y-14450436D01*
X33466967Y-14450436D02*
X33457443Y-14431389D01*
X33457443Y-14431389D02*
X33447920Y-14393293D01*
X33447920Y-14393293D02*
X33447920Y-14345674D01*
X33447920Y-14345674D02*
X33457443Y-14307579D01*
X33457443Y-14307579D02*
X33466967Y-14288531D01*
X33466967Y-14288531D02*
X33476491Y-14279008D01*
X33476491Y-14279008D02*
X33495539Y-14269484D01*
X33647920Y-14469484D02*
X33647920Y-14336150D01*
X33647920Y-14355198D02*
X33657443Y-14345674D01*
X33657443Y-14345674D02*
X33676491Y-14336150D01*
X33676491Y-14336150D02*
X33705063Y-14336150D01*
X33705063Y-14336150D02*
X33724110Y-14345674D01*
X33724110Y-14345674D02*
X33733634Y-14364722D01*
X33733634Y-14364722D02*
X33733634Y-14469484D01*
X33733634Y-14364722D02*
X33743158Y-14345674D01*
X33743158Y-14345674D02*
X33762205Y-14336150D01*
X33762205Y-14336150D02*
X33790777Y-14336150D01*
X33790777Y-14336150D02*
X33809824Y-14345674D01*
X33809824Y-14345674D02*
X33819348Y-14364722D01*
X33819348Y-14364722D02*
X33819348Y-14469484D01*
X33914586Y-14469484D02*
X33914586Y-14336150D01*
X33914586Y-14355198D02*
X33924110Y-14345674D01*
X33924110Y-14345674D02*
X33943158Y-14336150D01*
X33943158Y-14336150D02*
X33971729Y-14336150D01*
X33971729Y-14336150D02*
X33990777Y-14345674D01*
X33990777Y-14345674D02*
X34000301Y-14364722D01*
X34000301Y-14364722D02*
X34000301Y-14469484D01*
X34000301Y-14364722D02*
X34009824Y-14345674D01*
X34009824Y-14345674D02*
X34028872Y-14336150D01*
X34028872Y-14336150D02*
X34057443Y-14336150D01*
X34057443Y-14336150D02*
X34076491Y-14345674D01*
X34076491Y-14345674D02*
X34086015Y-14364722D01*
X34086015Y-14364722D02*
X34086015Y-14469484D01*
X34476491Y-14259960D02*
X34305063Y-14517103D01*
X34733634Y-14269484D02*
X34752682Y-14269484D01*
X34752682Y-14269484D02*
X34771729Y-14279008D01*
X34771729Y-14279008D02*
X34781253Y-14288531D01*
X34781253Y-14288531D02*
X34790777Y-14307579D01*
X34790777Y-14307579D02*
X34800301Y-14345674D01*
X34800301Y-14345674D02*
X34800301Y-14393293D01*
X34800301Y-14393293D02*
X34790777Y-14431389D01*
X34790777Y-14431389D02*
X34781253Y-14450436D01*
X34781253Y-14450436D02*
X34771729Y-14459960D01*
X34771729Y-14459960D02*
X34752682Y-14469484D01*
X34752682Y-14469484D02*
X34733634Y-14469484D01*
X34733634Y-14469484D02*
X34714586Y-14459960D01*
X34714586Y-14459960D02*
X34705063Y-14450436D01*
X34705063Y-14450436D02*
X34695539Y-14431389D01*
X34695539Y-14431389D02*
X34686015Y-14393293D01*
X34686015Y-14393293D02*
X34686015Y-14345674D01*
X34686015Y-14345674D02*
X34695539Y-14307579D01*
X34695539Y-14307579D02*
X34705063Y-14288531D01*
X34705063Y-14288531D02*
X34714586Y-14279008D01*
X34714586Y-14279008D02*
X34733634Y-14269484D01*
X34886015Y-14450436D02*
X34895539Y-14459960D01*
X34895539Y-14459960D02*
X34886015Y-14469484D01*
X34886015Y-14469484D02*
X34876491Y-14459960D01*
X34876491Y-14459960D02*
X34886015Y-14450436D01*
X34886015Y-14450436D02*
X34886015Y-14469484D01*
X35019348Y-14269484D02*
X35038396Y-14269484D01*
X35038396Y-14269484D02*
X35057444Y-14279008D01*
X35057444Y-14279008D02*
X35066967Y-14288531D01*
X35066967Y-14288531D02*
X35076491Y-14307579D01*
X35076491Y-14307579D02*
X35086015Y-14345674D01*
X35086015Y-14345674D02*
X35086015Y-14393293D01*
X35086015Y-14393293D02*
X35076491Y-14431389D01*
X35076491Y-14431389D02*
X35066967Y-14450436D01*
X35066967Y-14450436D02*
X35057444Y-14459960D01*
X35057444Y-14459960D02*
X35038396Y-14469484D01*
X35038396Y-14469484D02*
X35019348Y-14469484D01*
X35019348Y-14469484D02*
X35000301Y-14459960D01*
X35000301Y-14459960D02*
X34990777Y-14450436D01*
X34990777Y-14450436D02*
X34981253Y-14431389D01*
X34981253Y-14431389D02*
X34971729Y-14393293D01*
X34971729Y-14393293D02*
X34971729Y-14345674D01*
X34971729Y-14345674D02*
X34981253Y-14307579D01*
X34981253Y-14307579D02*
X34990777Y-14288531D01*
X34990777Y-14288531D02*
X35000301Y-14279008D01*
X35000301Y-14279008D02*
X35019348Y-14269484D01*
X35257444Y-14336150D02*
X35257444Y-14469484D01*
X35209825Y-14259960D02*
X35162206Y-14402817D01*
X35162206Y-14402817D02*
X35286015Y-14402817D01*
X35400301Y-14269484D02*
X35419348Y-14269484D01*
X35419348Y-14269484D02*
X35438396Y-14279008D01*
X35438396Y-14279008D02*
X35447920Y-14288531D01*
X35447920Y-14288531D02*
X35457444Y-14307579D01*
X35457444Y-14307579D02*
X35466967Y-14345674D01*
X35466967Y-14345674D02*
X35466967Y-14393293D01*
X35466967Y-14393293D02*
X35457444Y-14431389D01*
X35457444Y-14431389D02*
X35447920Y-14450436D01*
X35447920Y-14450436D02*
X35438396Y-14459960D01*
X35438396Y-14459960D02*
X35419348Y-14469484D01*
X35419348Y-14469484D02*
X35400301Y-14469484D01*
X35400301Y-14469484D02*
X35381253Y-14459960D01*
X35381253Y-14459960D02*
X35371729Y-14450436D01*
X35371729Y-14450436D02*
X35362206Y-14431389D01*
X35362206Y-14431389D02*
X35352682Y-14393293D01*
X35352682Y-14393293D02*
X35352682Y-14345674D01*
X35352682Y-14345674D02*
X35362206Y-14307579D01*
X35362206Y-14307579D02*
X35371729Y-14288531D01*
X35371729Y-14288531D02*
X35381253Y-14279008D01*
X35381253Y-14279008D02*
X35400301Y-14269484D01*
X35543158Y-14288531D02*
X35552682Y-14279008D01*
X35552682Y-14279008D02*
X35571729Y-14269484D01*
X35571729Y-14269484D02*
X35619348Y-14269484D01*
X35619348Y-14269484D02*
X35638396Y-14279008D01*
X35638396Y-14279008D02*
X35647920Y-14288531D01*
X35647920Y-14288531D02*
X35657444Y-14307579D01*
X35657444Y-14307579D02*
X35657444Y-14326627D01*
X35657444Y-14326627D02*
X35647920Y-14355198D01*
X35647920Y-14355198D02*
X35533634Y-14469484D01*
X35533634Y-14469484D02*
X35657444Y-14469484D01*
X35733634Y-14269484D02*
X35733634Y-14307579D01*
X35809825Y-14269484D02*
X35809825Y-14307579D01*
X36105063Y-14545674D02*
X36095539Y-14536150D01*
X36095539Y-14536150D02*
X36076491Y-14507579D01*
X36076491Y-14507579D02*
X36066968Y-14488531D01*
X36066968Y-14488531D02*
X36057444Y-14459960D01*
X36057444Y-14459960D02*
X36047920Y-14412341D01*
X36047920Y-14412341D02*
X36047920Y-14374246D01*
X36047920Y-14374246D02*
X36057444Y-14326627D01*
X36057444Y-14326627D02*
X36066968Y-14298055D01*
X36066968Y-14298055D02*
X36076491Y-14279008D01*
X36076491Y-14279008D02*
X36095539Y-14250436D01*
X36095539Y-14250436D02*
X36105063Y-14240912D01*
X36266968Y-14336150D02*
X36266968Y-14469484D01*
X36219348Y-14259960D02*
X36171729Y-14402817D01*
X36171729Y-14402817D02*
X36295539Y-14402817D01*
X36352682Y-14269484D02*
X36486015Y-14269484D01*
X36486015Y-14269484D02*
X36400301Y-14469484D01*
X36714587Y-14469484D02*
X36714587Y-14269484D01*
X36800301Y-14469484D02*
X36800301Y-14364722D01*
X36800301Y-14364722D02*
X36790777Y-14345674D01*
X36790777Y-14345674D02*
X36771730Y-14336150D01*
X36771730Y-14336150D02*
X36743158Y-14336150D01*
X36743158Y-14336150D02*
X36724110Y-14345674D01*
X36724110Y-14345674D02*
X36714587Y-14355198D01*
X36924110Y-14469484D02*
X36905063Y-14459960D01*
X36905063Y-14459960D02*
X36895539Y-14450436D01*
X36895539Y-14450436D02*
X36886015Y-14431389D01*
X36886015Y-14431389D02*
X36886015Y-14374246D01*
X36886015Y-14374246D02*
X36895539Y-14355198D01*
X36895539Y-14355198D02*
X36905063Y-14345674D01*
X36905063Y-14345674D02*
X36924110Y-14336150D01*
X36924110Y-14336150D02*
X36952682Y-14336150D01*
X36952682Y-14336150D02*
X36971730Y-14345674D01*
X36971730Y-14345674D02*
X36981253Y-14355198D01*
X36981253Y-14355198D02*
X36990777Y-14374246D01*
X36990777Y-14374246D02*
X36990777Y-14431389D01*
X36990777Y-14431389D02*
X36981253Y-14450436D01*
X36981253Y-14450436D02*
X36971730Y-14459960D01*
X36971730Y-14459960D02*
X36952682Y-14469484D01*
X36952682Y-14469484D02*
X36924110Y-14469484D01*
X37105063Y-14469484D02*
X37086015Y-14459960D01*
X37086015Y-14459960D02*
X37076491Y-14440912D01*
X37076491Y-14440912D02*
X37076491Y-14269484D01*
X37257444Y-14459960D02*
X37238396Y-14469484D01*
X37238396Y-14469484D02*
X37200301Y-14469484D01*
X37200301Y-14469484D02*
X37181253Y-14459960D01*
X37181253Y-14459960D02*
X37171730Y-14440912D01*
X37171730Y-14440912D02*
X37171730Y-14364722D01*
X37171730Y-14364722D02*
X37181253Y-14345674D01*
X37181253Y-14345674D02*
X37200301Y-14336150D01*
X37200301Y-14336150D02*
X37238396Y-14336150D01*
X37238396Y-14336150D02*
X37257444Y-14345674D01*
X37257444Y-14345674D02*
X37266968Y-14364722D01*
X37266968Y-14364722D02*
X37266968Y-14383770D01*
X37266968Y-14383770D02*
X37171730Y-14402817D01*
X37343158Y-14459960D02*
X37362206Y-14469484D01*
X37362206Y-14469484D02*
X37400301Y-14469484D01*
X37400301Y-14469484D02*
X37419349Y-14459960D01*
X37419349Y-14459960D02*
X37428872Y-14440912D01*
X37428872Y-14440912D02*
X37428872Y-14431389D01*
X37428872Y-14431389D02*
X37419349Y-14412341D01*
X37419349Y-14412341D02*
X37400301Y-14402817D01*
X37400301Y-14402817D02*
X37371730Y-14402817D01*
X37371730Y-14402817D02*
X37352682Y-14393293D01*
X37352682Y-14393293D02*
X37343158Y-14374246D01*
X37343158Y-14374246D02*
X37343158Y-14364722D01*
X37343158Y-14364722D02*
X37352682Y-14345674D01*
X37352682Y-14345674D02*
X37371730Y-14336150D01*
X37371730Y-14336150D02*
X37400301Y-14336150D01*
X37400301Y-14336150D02*
X37419349Y-14345674D01*
X37495539Y-14545674D02*
X37505063Y-14536150D01*
X37505063Y-14536150D02*
X37524111Y-14507579D01*
X37524111Y-14507579D02*
X37533634Y-14488531D01*
X37533634Y-14488531D02*
X37543158Y-14459960D01*
X37543158Y-14459960D02*
X37552682Y-14412341D01*
X37552682Y-14412341D02*
X37552682Y-14374246D01*
X37552682Y-14374246D02*
X37543158Y-14326627D01*
X37543158Y-14326627D02*
X37533634Y-14298055D01*
X37533634Y-14298055D02*
X37524111Y-14279008D01*
X37524111Y-14279008D02*
X37505063Y-14250436D01*
X37505063Y-14250436D02*
X37495539Y-14240912D01*
D13*
X32508054Y-14694984D02*
X32508054Y-14589016D01*
X32402086Y-14589016D01*
X32402086Y-14694984D01*
X32508054Y-14694984D01*
D10*
X32895539Y-14733484D02*
X32781253Y-14733484D01*
X32838396Y-14733484D02*
X32838396Y-14533484D01*
X32838396Y-14533484D02*
X32819348Y-14562055D01*
X32819348Y-14562055D02*
X32800300Y-14581103D01*
X32800300Y-14581103D02*
X32781253Y-14590627D01*
X32981253Y-14714436D02*
X32990777Y-14723960D01*
X32990777Y-14723960D02*
X32981253Y-14733484D01*
X32981253Y-14733484D02*
X32971729Y-14723960D01*
X32971729Y-14723960D02*
X32981253Y-14714436D01*
X32981253Y-14714436D02*
X32981253Y-14733484D01*
X33162205Y-14600150D02*
X33162205Y-14733484D01*
X33114586Y-14523960D02*
X33066967Y-14666817D01*
X33066967Y-14666817D02*
X33190777Y-14666817D01*
X33276491Y-14733484D02*
X33314586Y-14733484D01*
X33314586Y-14733484D02*
X33333634Y-14723960D01*
X33333634Y-14723960D02*
X33343158Y-14714436D01*
X33343158Y-14714436D02*
X33362205Y-14685865D01*
X33362205Y-14685865D02*
X33371729Y-14647770D01*
X33371729Y-14647770D02*
X33371729Y-14571579D01*
X33371729Y-14571579D02*
X33362205Y-14552531D01*
X33362205Y-14552531D02*
X33352681Y-14543008D01*
X33352681Y-14543008D02*
X33333634Y-14533484D01*
X33333634Y-14533484D02*
X33295539Y-14533484D01*
X33295539Y-14533484D02*
X33276491Y-14543008D01*
X33276491Y-14543008D02*
X33266967Y-14552531D01*
X33266967Y-14552531D02*
X33257443Y-14571579D01*
X33257443Y-14571579D02*
X33257443Y-14619198D01*
X33257443Y-14619198D02*
X33266967Y-14638246D01*
X33266967Y-14638246D02*
X33276491Y-14647770D01*
X33276491Y-14647770D02*
X33295539Y-14657293D01*
X33295539Y-14657293D02*
X33333634Y-14657293D01*
X33333634Y-14657293D02*
X33352681Y-14647770D01*
X33352681Y-14647770D02*
X33362205Y-14638246D01*
X33362205Y-14638246D02*
X33371729Y-14619198D01*
X33466967Y-14733484D02*
X33505062Y-14733484D01*
X33505062Y-14733484D02*
X33524110Y-14723960D01*
X33524110Y-14723960D02*
X33533634Y-14714436D01*
X33533634Y-14714436D02*
X33552681Y-14685865D01*
X33552681Y-14685865D02*
X33562205Y-14647770D01*
X33562205Y-14647770D02*
X33562205Y-14571579D01*
X33562205Y-14571579D02*
X33552681Y-14552531D01*
X33552681Y-14552531D02*
X33543158Y-14543008D01*
X33543158Y-14543008D02*
X33524110Y-14533484D01*
X33524110Y-14533484D02*
X33486015Y-14533484D01*
X33486015Y-14533484D02*
X33466967Y-14543008D01*
X33466967Y-14543008D02*
X33457443Y-14552531D01*
X33457443Y-14552531D02*
X33447920Y-14571579D01*
X33447920Y-14571579D02*
X33447920Y-14619198D01*
X33447920Y-14619198D02*
X33457443Y-14638246D01*
X33457443Y-14638246D02*
X33466967Y-14647770D01*
X33466967Y-14647770D02*
X33486015Y-14657293D01*
X33486015Y-14657293D02*
X33524110Y-14657293D01*
X33524110Y-14657293D02*
X33543158Y-14647770D01*
X33543158Y-14647770D02*
X33552681Y-14638246D01*
X33552681Y-14638246D02*
X33562205Y-14619198D01*
X33647920Y-14733484D02*
X33647920Y-14600150D01*
X33647920Y-14619198D02*
X33657443Y-14609674D01*
X33657443Y-14609674D02*
X33676491Y-14600150D01*
X33676491Y-14600150D02*
X33705063Y-14600150D01*
X33705063Y-14600150D02*
X33724110Y-14609674D01*
X33724110Y-14609674D02*
X33733634Y-14628722D01*
X33733634Y-14628722D02*
X33733634Y-14733484D01*
X33733634Y-14628722D02*
X33743158Y-14609674D01*
X33743158Y-14609674D02*
X33762205Y-14600150D01*
X33762205Y-14600150D02*
X33790777Y-14600150D01*
X33790777Y-14600150D02*
X33809824Y-14609674D01*
X33809824Y-14609674D02*
X33819348Y-14628722D01*
X33819348Y-14628722D02*
X33819348Y-14733484D01*
X33914586Y-14733484D02*
X33914586Y-14600150D01*
X33914586Y-14619198D02*
X33924110Y-14609674D01*
X33924110Y-14609674D02*
X33943158Y-14600150D01*
X33943158Y-14600150D02*
X33971729Y-14600150D01*
X33971729Y-14600150D02*
X33990777Y-14609674D01*
X33990777Y-14609674D02*
X34000301Y-14628722D01*
X34000301Y-14628722D02*
X34000301Y-14733484D01*
X34000301Y-14628722D02*
X34009824Y-14609674D01*
X34009824Y-14609674D02*
X34028872Y-14600150D01*
X34028872Y-14600150D02*
X34057443Y-14600150D01*
X34057443Y-14600150D02*
X34076491Y-14609674D01*
X34076491Y-14609674D02*
X34086015Y-14628722D01*
X34086015Y-14628722D02*
X34086015Y-14733484D01*
X34476491Y-14523960D02*
X34305063Y-14781103D01*
X34733634Y-14533484D02*
X34752682Y-14533484D01*
X34752682Y-14533484D02*
X34771729Y-14543008D01*
X34771729Y-14543008D02*
X34781253Y-14552531D01*
X34781253Y-14552531D02*
X34790777Y-14571579D01*
X34790777Y-14571579D02*
X34800301Y-14609674D01*
X34800301Y-14609674D02*
X34800301Y-14657293D01*
X34800301Y-14657293D02*
X34790777Y-14695389D01*
X34790777Y-14695389D02*
X34781253Y-14714436D01*
X34781253Y-14714436D02*
X34771729Y-14723960D01*
X34771729Y-14723960D02*
X34752682Y-14733484D01*
X34752682Y-14733484D02*
X34733634Y-14733484D01*
X34733634Y-14733484D02*
X34714586Y-14723960D01*
X34714586Y-14723960D02*
X34705063Y-14714436D01*
X34705063Y-14714436D02*
X34695539Y-14695389D01*
X34695539Y-14695389D02*
X34686015Y-14657293D01*
X34686015Y-14657293D02*
X34686015Y-14609674D01*
X34686015Y-14609674D02*
X34695539Y-14571579D01*
X34695539Y-14571579D02*
X34705063Y-14552531D01*
X34705063Y-14552531D02*
X34714586Y-14543008D01*
X34714586Y-14543008D02*
X34733634Y-14533484D01*
X34886015Y-14714436D02*
X34895539Y-14723960D01*
X34895539Y-14723960D02*
X34886015Y-14733484D01*
X34886015Y-14733484D02*
X34876491Y-14723960D01*
X34876491Y-14723960D02*
X34886015Y-14714436D01*
X34886015Y-14714436D02*
X34886015Y-14733484D01*
X35019348Y-14533484D02*
X35038396Y-14533484D01*
X35038396Y-14533484D02*
X35057444Y-14543008D01*
X35057444Y-14543008D02*
X35066967Y-14552531D01*
X35066967Y-14552531D02*
X35076491Y-14571579D01*
X35076491Y-14571579D02*
X35086015Y-14609674D01*
X35086015Y-14609674D02*
X35086015Y-14657293D01*
X35086015Y-14657293D02*
X35076491Y-14695389D01*
X35076491Y-14695389D02*
X35066967Y-14714436D01*
X35066967Y-14714436D02*
X35057444Y-14723960D01*
X35057444Y-14723960D02*
X35038396Y-14733484D01*
X35038396Y-14733484D02*
X35019348Y-14733484D01*
X35019348Y-14733484D02*
X35000301Y-14723960D01*
X35000301Y-14723960D02*
X34990777Y-14714436D01*
X34990777Y-14714436D02*
X34981253Y-14695389D01*
X34981253Y-14695389D02*
X34971729Y-14657293D01*
X34971729Y-14657293D02*
X34971729Y-14609674D01*
X34971729Y-14609674D02*
X34981253Y-14571579D01*
X34981253Y-14571579D02*
X34990777Y-14552531D01*
X34990777Y-14552531D02*
X35000301Y-14543008D01*
X35000301Y-14543008D02*
X35019348Y-14533484D01*
X35266967Y-14533484D02*
X35171729Y-14533484D01*
X35171729Y-14533484D02*
X35162206Y-14628722D01*
X35162206Y-14628722D02*
X35171729Y-14619198D01*
X35171729Y-14619198D02*
X35190777Y-14609674D01*
X35190777Y-14609674D02*
X35238396Y-14609674D01*
X35238396Y-14609674D02*
X35257444Y-14619198D01*
X35257444Y-14619198D02*
X35266967Y-14628722D01*
X35266967Y-14628722D02*
X35276491Y-14647770D01*
X35276491Y-14647770D02*
X35276491Y-14695389D01*
X35276491Y-14695389D02*
X35266967Y-14714436D01*
X35266967Y-14714436D02*
X35257444Y-14723960D01*
X35257444Y-14723960D02*
X35238396Y-14733484D01*
X35238396Y-14733484D02*
X35190777Y-14733484D01*
X35190777Y-14733484D02*
X35171729Y-14723960D01*
X35171729Y-14723960D02*
X35162206Y-14714436D01*
X35371729Y-14733484D02*
X35409825Y-14733484D01*
X35409825Y-14733484D02*
X35428872Y-14723960D01*
X35428872Y-14723960D02*
X35438396Y-14714436D01*
X35438396Y-14714436D02*
X35457444Y-14685865D01*
X35457444Y-14685865D02*
X35466967Y-14647770D01*
X35466967Y-14647770D02*
X35466967Y-14571579D01*
X35466967Y-14571579D02*
X35457444Y-14552531D01*
X35457444Y-14552531D02*
X35447920Y-14543008D01*
X35447920Y-14543008D02*
X35428872Y-14533484D01*
X35428872Y-14533484D02*
X35390777Y-14533484D01*
X35390777Y-14533484D02*
X35371729Y-14543008D01*
X35371729Y-14543008D02*
X35362206Y-14552531D01*
X35362206Y-14552531D02*
X35352682Y-14571579D01*
X35352682Y-14571579D02*
X35352682Y-14619198D01*
X35352682Y-14619198D02*
X35362206Y-14638246D01*
X35362206Y-14638246D02*
X35371729Y-14647770D01*
X35371729Y-14647770D02*
X35390777Y-14657293D01*
X35390777Y-14657293D02*
X35428872Y-14657293D01*
X35428872Y-14657293D02*
X35447920Y-14647770D01*
X35447920Y-14647770D02*
X35457444Y-14638246D01*
X35457444Y-14638246D02*
X35466967Y-14619198D01*
X35590777Y-14533484D02*
X35609825Y-14533484D01*
X35609825Y-14533484D02*
X35628872Y-14543008D01*
X35628872Y-14543008D02*
X35638396Y-14552531D01*
X35638396Y-14552531D02*
X35647920Y-14571579D01*
X35647920Y-14571579D02*
X35657444Y-14609674D01*
X35657444Y-14609674D02*
X35657444Y-14657293D01*
X35657444Y-14657293D02*
X35647920Y-14695389D01*
X35647920Y-14695389D02*
X35638396Y-14714436D01*
X35638396Y-14714436D02*
X35628872Y-14723960D01*
X35628872Y-14723960D02*
X35609825Y-14733484D01*
X35609825Y-14733484D02*
X35590777Y-14733484D01*
X35590777Y-14733484D02*
X35571729Y-14723960D01*
X35571729Y-14723960D02*
X35562206Y-14714436D01*
X35562206Y-14714436D02*
X35552682Y-14695389D01*
X35552682Y-14695389D02*
X35543158Y-14657293D01*
X35543158Y-14657293D02*
X35543158Y-14609674D01*
X35543158Y-14609674D02*
X35552682Y-14571579D01*
X35552682Y-14571579D02*
X35562206Y-14552531D01*
X35562206Y-14552531D02*
X35571729Y-14543008D01*
X35571729Y-14543008D02*
X35590777Y-14533484D01*
X35733634Y-14533484D02*
X35733634Y-14571579D01*
X35809825Y-14533484D02*
X35809825Y-14571579D01*
X36105063Y-14809674D02*
X36095539Y-14800150D01*
X36095539Y-14800150D02*
X36076491Y-14771579D01*
X36076491Y-14771579D02*
X36066968Y-14752531D01*
X36066968Y-14752531D02*
X36057444Y-14723960D01*
X36057444Y-14723960D02*
X36047920Y-14676341D01*
X36047920Y-14676341D02*
X36047920Y-14638246D01*
X36047920Y-14638246D02*
X36057444Y-14590627D01*
X36057444Y-14590627D02*
X36066968Y-14562055D01*
X36066968Y-14562055D02*
X36076491Y-14543008D01*
X36076491Y-14543008D02*
X36095539Y-14514436D01*
X36095539Y-14514436D02*
X36105063Y-14504912D01*
X36266968Y-14600150D02*
X36266968Y-14733484D01*
X36219348Y-14523960D02*
X36171729Y-14666817D01*
X36171729Y-14666817D02*
X36295539Y-14666817D01*
X36400301Y-14619198D02*
X36381253Y-14609674D01*
X36381253Y-14609674D02*
X36371729Y-14600150D01*
X36371729Y-14600150D02*
X36362206Y-14581103D01*
X36362206Y-14581103D02*
X36362206Y-14571579D01*
X36362206Y-14571579D02*
X36371729Y-14552531D01*
X36371729Y-14552531D02*
X36381253Y-14543008D01*
X36381253Y-14543008D02*
X36400301Y-14533484D01*
X36400301Y-14533484D02*
X36438396Y-14533484D01*
X36438396Y-14533484D02*
X36457444Y-14543008D01*
X36457444Y-14543008D02*
X36466968Y-14552531D01*
X36466968Y-14552531D02*
X36476491Y-14571579D01*
X36476491Y-14571579D02*
X36476491Y-14581103D01*
X36476491Y-14581103D02*
X36466968Y-14600150D01*
X36466968Y-14600150D02*
X36457444Y-14609674D01*
X36457444Y-14609674D02*
X36438396Y-14619198D01*
X36438396Y-14619198D02*
X36400301Y-14619198D01*
X36400301Y-14619198D02*
X36381253Y-14628722D01*
X36381253Y-14628722D02*
X36371729Y-14638246D01*
X36371729Y-14638246D02*
X36362206Y-14657293D01*
X36362206Y-14657293D02*
X36362206Y-14695389D01*
X36362206Y-14695389D02*
X36371729Y-14714436D01*
X36371729Y-14714436D02*
X36381253Y-14723960D01*
X36381253Y-14723960D02*
X36400301Y-14733484D01*
X36400301Y-14733484D02*
X36438396Y-14733484D01*
X36438396Y-14733484D02*
X36457444Y-14723960D01*
X36457444Y-14723960D02*
X36466968Y-14714436D01*
X36466968Y-14714436D02*
X36476491Y-14695389D01*
X36476491Y-14695389D02*
X36476491Y-14657293D01*
X36476491Y-14657293D02*
X36466968Y-14638246D01*
X36466968Y-14638246D02*
X36457444Y-14628722D01*
X36457444Y-14628722D02*
X36438396Y-14619198D01*
X36714587Y-14733484D02*
X36714587Y-14533484D01*
X36800301Y-14733484D02*
X36800301Y-14628722D01*
X36800301Y-14628722D02*
X36790777Y-14609674D01*
X36790777Y-14609674D02*
X36771730Y-14600150D01*
X36771730Y-14600150D02*
X36743158Y-14600150D01*
X36743158Y-14600150D02*
X36724110Y-14609674D01*
X36724110Y-14609674D02*
X36714587Y-14619198D01*
X36924110Y-14733484D02*
X36905063Y-14723960D01*
X36905063Y-14723960D02*
X36895539Y-14714436D01*
X36895539Y-14714436D02*
X36886015Y-14695389D01*
X36886015Y-14695389D02*
X36886015Y-14638246D01*
X36886015Y-14638246D02*
X36895539Y-14619198D01*
X36895539Y-14619198D02*
X36905063Y-14609674D01*
X36905063Y-14609674D02*
X36924110Y-14600150D01*
X36924110Y-14600150D02*
X36952682Y-14600150D01*
X36952682Y-14600150D02*
X36971730Y-14609674D01*
X36971730Y-14609674D02*
X36981253Y-14619198D01*
X36981253Y-14619198D02*
X36990777Y-14638246D01*
X36990777Y-14638246D02*
X36990777Y-14695389D01*
X36990777Y-14695389D02*
X36981253Y-14714436D01*
X36981253Y-14714436D02*
X36971730Y-14723960D01*
X36971730Y-14723960D02*
X36952682Y-14733484D01*
X36952682Y-14733484D02*
X36924110Y-14733484D01*
X37105063Y-14733484D02*
X37086015Y-14723960D01*
X37086015Y-14723960D02*
X37076491Y-14704912D01*
X37076491Y-14704912D02*
X37076491Y-14533484D01*
X37257444Y-14723960D02*
X37238396Y-14733484D01*
X37238396Y-14733484D02*
X37200301Y-14733484D01*
X37200301Y-14733484D02*
X37181253Y-14723960D01*
X37181253Y-14723960D02*
X37171730Y-14704912D01*
X37171730Y-14704912D02*
X37171730Y-14628722D01*
X37171730Y-14628722D02*
X37181253Y-14609674D01*
X37181253Y-14609674D02*
X37200301Y-14600150D01*
X37200301Y-14600150D02*
X37238396Y-14600150D01*
X37238396Y-14600150D02*
X37257444Y-14609674D01*
X37257444Y-14609674D02*
X37266968Y-14628722D01*
X37266968Y-14628722D02*
X37266968Y-14647770D01*
X37266968Y-14647770D02*
X37171730Y-14666817D01*
X37343158Y-14723960D02*
X37362206Y-14733484D01*
X37362206Y-14733484D02*
X37400301Y-14733484D01*
X37400301Y-14733484D02*
X37419349Y-14723960D01*
X37419349Y-14723960D02*
X37428872Y-14704912D01*
X37428872Y-14704912D02*
X37428872Y-14695389D01*
X37428872Y-14695389D02*
X37419349Y-14676341D01*
X37419349Y-14676341D02*
X37400301Y-14666817D01*
X37400301Y-14666817D02*
X37371730Y-14666817D01*
X37371730Y-14666817D02*
X37352682Y-14657293D01*
X37352682Y-14657293D02*
X37343158Y-14638246D01*
X37343158Y-14638246D02*
X37343158Y-14628722D01*
X37343158Y-14628722D02*
X37352682Y-14609674D01*
X37352682Y-14609674D02*
X37371730Y-14600150D01*
X37371730Y-14600150D02*
X37400301Y-14600150D01*
X37400301Y-14600150D02*
X37419349Y-14609674D01*
X37495539Y-14809674D02*
X37505063Y-14800150D01*
X37505063Y-14800150D02*
X37524111Y-14771579D01*
X37524111Y-14771579D02*
X37533634Y-14752531D01*
X37533634Y-14752531D02*
X37543158Y-14723960D01*
X37543158Y-14723960D02*
X37552682Y-14676341D01*
X37552682Y-14676341D02*
X37552682Y-14638246D01*
X37552682Y-14638246D02*
X37543158Y-14590627D01*
X37543158Y-14590627D02*
X37533634Y-14562055D01*
X37533634Y-14562055D02*
X37524111Y-14543008D01*
X37524111Y-14543008D02*
X37505063Y-14514436D01*
X37505063Y-14514436D02*
X37495539Y-14504912D01*
X32430000Y-15011860D02*
X32530000Y-14911860D01*
X32430000Y-14811860D01*
X32330000Y-14911860D01*
X32430000Y-15011860D01*
X32781253Y-14822391D02*
X32790777Y-14812868D01*
X32790777Y-14812868D02*
X32809824Y-14803344D01*
X32809824Y-14803344D02*
X32857443Y-14803344D01*
X32857443Y-14803344D02*
X32876491Y-14812868D01*
X32876491Y-14812868D02*
X32886015Y-14822391D01*
X32886015Y-14822391D02*
X32895539Y-14841439D01*
X32895539Y-14841439D02*
X32895539Y-14860487D01*
X32895539Y-14860487D02*
X32886015Y-14889058D01*
X32886015Y-14889058D02*
X32771729Y-15003344D01*
X32771729Y-15003344D02*
X32895539Y-15003344D01*
X32981253Y-14984296D02*
X32990777Y-14993820D01*
X32990777Y-14993820D02*
X32981253Y-15003344D01*
X32981253Y-15003344D02*
X32971729Y-14993820D01*
X32971729Y-14993820D02*
X32981253Y-14984296D01*
X32981253Y-14984296D02*
X32981253Y-15003344D01*
X33114586Y-14803344D02*
X33133634Y-14803344D01*
X33133634Y-14803344D02*
X33152681Y-14812868D01*
X33152681Y-14812868D02*
X33162205Y-14822391D01*
X33162205Y-14822391D02*
X33171729Y-14841439D01*
X33171729Y-14841439D02*
X33181253Y-14879534D01*
X33181253Y-14879534D02*
X33181253Y-14927153D01*
X33181253Y-14927153D02*
X33171729Y-14965249D01*
X33171729Y-14965249D02*
X33162205Y-14984296D01*
X33162205Y-14984296D02*
X33152681Y-14993820D01*
X33152681Y-14993820D02*
X33133634Y-15003344D01*
X33133634Y-15003344D02*
X33114586Y-15003344D01*
X33114586Y-15003344D02*
X33095539Y-14993820D01*
X33095539Y-14993820D02*
X33086015Y-14984296D01*
X33086015Y-14984296D02*
X33076491Y-14965249D01*
X33076491Y-14965249D02*
X33066967Y-14927153D01*
X33066967Y-14927153D02*
X33066967Y-14879534D01*
X33066967Y-14879534D02*
X33076491Y-14841439D01*
X33076491Y-14841439D02*
X33086015Y-14822391D01*
X33086015Y-14822391D02*
X33095539Y-14812868D01*
X33095539Y-14812868D02*
X33114586Y-14803344D01*
X33305062Y-14803344D02*
X33324110Y-14803344D01*
X33324110Y-14803344D02*
X33343158Y-14812868D01*
X33343158Y-14812868D02*
X33352681Y-14822391D01*
X33352681Y-14822391D02*
X33362205Y-14841439D01*
X33362205Y-14841439D02*
X33371729Y-14879534D01*
X33371729Y-14879534D02*
X33371729Y-14927153D01*
X33371729Y-14927153D02*
X33362205Y-14965249D01*
X33362205Y-14965249D02*
X33352681Y-14984296D01*
X33352681Y-14984296D02*
X33343158Y-14993820D01*
X33343158Y-14993820D02*
X33324110Y-15003344D01*
X33324110Y-15003344D02*
X33305062Y-15003344D01*
X33305062Y-15003344D02*
X33286015Y-14993820D01*
X33286015Y-14993820D02*
X33276491Y-14984296D01*
X33276491Y-14984296D02*
X33266967Y-14965249D01*
X33266967Y-14965249D02*
X33257443Y-14927153D01*
X33257443Y-14927153D02*
X33257443Y-14879534D01*
X33257443Y-14879534D02*
X33266967Y-14841439D01*
X33266967Y-14841439D02*
X33276491Y-14822391D01*
X33276491Y-14822391D02*
X33286015Y-14812868D01*
X33286015Y-14812868D02*
X33305062Y-14803344D01*
X33495539Y-14803344D02*
X33514586Y-14803344D01*
X33514586Y-14803344D02*
X33533634Y-14812868D01*
X33533634Y-14812868D02*
X33543158Y-14822391D01*
X33543158Y-14822391D02*
X33552681Y-14841439D01*
X33552681Y-14841439D02*
X33562205Y-14879534D01*
X33562205Y-14879534D02*
X33562205Y-14927153D01*
X33562205Y-14927153D02*
X33552681Y-14965249D01*
X33552681Y-14965249D02*
X33543158Y-14984296D01*
X33543158Y-14984296D02*
X33533634Y-14993820D01*
X33533634Y-14993820D02*
X33514586Y-15003344D01*
X33514586Y-15003344D02*
X33495539Y-15003344D01*
X33495539Y-15003344D02*
X33476491Y-14993820D01*
X33476491Y-14993820D02*
X33466967Y-14984296D01*
X33466967Y-14984296D02*
X33457443Y-14965249D01*
X33457443Y-14965249D02*
X33447920Y-14927153D01*
X33447920Y-14927153D02*
X33447920Y-14879534D01*
X33447920Y-14879534D02*
X33457443Y-14841439D01*
X33457443Y-14841439D02*
X33466967Y-14822391D01*
X33466967Y-14822391D02*
X33476491Y-14812868D01*
X33476491Y-14812868D02*
X33495539Y-14803344D01*
X33647920Y-15003344D02*
X33647920Y-14870010D01*
X33647920Y-14889058D02*
X33657443Y-14879534D01*
X33657443Y-14879534D02*
X33676491Y-14870010D01*
X33676491Y-14870010D02*
X33705063Y-14870010D01*
X33705063Y-14870010D02*
X33724110Y-14879534D01*
X33724110Y-14879534D02*
X33733634Y-14898582D01*
X33733634Y-14898582D02*
X33733634Y-15003344D01*
X33733634Y-14898582D02*
X33743158Y-14879534D01*
X33743158Y-14879534D02*
X33762205Y-14870010D01*
X33762205Y-14870010D02*
X33790777Y-14870010D01*
X33790777Y-14870010D02*
X33809824Y-14879534D01*
X33809824Y-14879534D02*
X33819348Y-14898582D01*
X33819348Y-14898582D02*
X33819348Y-15003344D01*
X33914586Y-15003344D02*
X33914586Y-14870010D01*
X33914586Y-14889058D02*
X33924110Y-14879534D01*
X33924110Y-14879534D02*
X33943158Y-14870010D01*
X33943158Y-14870010D02*
X33971729Y-14870010D01*
X33971729Y-14870010D02*
X33990777Y-14879534D01*
X33990777Y-14879534D02*
X34000301Y-14898582D01*
X34000301Y-14898582D02*
X34000301Y-15003344D01*
X34000301Y-14898582D02*
X34009824Y-14879534D01*
X34009824Y-14879534D02*
X34028872Y-14870010D01*
X34028872Y-14870010D02*
X34057443Y-14870010D01*
X34057443Y-14870010D02*
X34076491Y-14879534D01*
X34076491Y-14879534D02*
X34086015Y-14898582D01*
X34086015Y-14898582D02*
X34086015Y-15003344D01*
X34476491Y-14793820D02*
X34305063Y-15050963D01*
X34733634Y-14803344D02*
X34752682Y-14803344D01*
X34752682Y-14803344D02*
X34771729Y-14812868D01*
X34771729Y-14812868D02*
X34781253Y-14822391D01*
X34781253Y-14822391D02*
X34790777Y-14841439D01*
X34790777Y-14841439D02*
X34800301Y-14879534D01*
X34800301Y-14879534D02*
X34800301Y-14927153D01*
X34800301Y-14927153D02*
X34790777Y-14965249D01*
X34790777Y-14965249D02*
X34781253Y-14984296D01*
X34781253Y-14984296D02*
X34771729Y-14993820D01*
X34771729Y-14993820D02*
X34752682Y-15003344D01*
X34752682Y-15003344D02*
X34733634Y-15003344D01*
X34733634Y-15003344D02*
X34714586Y-14993820D01*
X34714586Y-14993820D02*
X34705063Y-14984296D01*
X34705063Y-14984296D02*
X34695539Y-14965249D01*
X34695539Y-14965249D02*
X34686015Y-14927153D01*
X34686015Y-14927153D02*
X34686015Y-14879534D01*
X34686015Y-14879534D02*
X34695539Y-14841439D01*
X34695539Y-14841439D02*
X34705063Y-14822391D01*
X34705063Y-14822391D02*
X34714586Y-14812868D01*
X34714586Y-14812868D02*
X34733634Y-14803344D01*
X34886015Y-14984296D02*
X34895539Y-14993820D01*
X34895539Y-14993820D02*
X34886015Y-15003344D01*
X34886015Y-15003344D02*
X34876491Y-14993820D01*
X34876491Y-14993820D02*
X34886015Y-14984296D01*
X34886015Y-14984296D02*
X34886015Y-15003344D01*
X35019348Y-14803344D02*
X35038396Y-14803344D01*
X35038396Y-14803344D02*
X35057444Y-14812868D01*
X35057444Y-14812868D02*
X35066967Y-14822391D01*
X35066967Y-14822391D02*
X35076491Y-14841439D01*
X35076491Y-14841439D02*
X35086015Y-14879534D01*
X35086015Y-14879534D02*
X35086015Y-14927153D01*
X35086015Y-14927153D02*
X35076491Y-14965249D01*
X35076491Y-14965249D02*
X35066967Y-14984296D01*
X35066967Y-14984296D02*
X35057444Y-14993820D01*
X35057444Y-14993820D02*
X35038396Y-15003344D01*
X35038396Y-15003344D02*
X35019348Y-15003344D01*
X35019348Y-15003344D02*
X35000301Y-14993820D01*
X35000301Y-14993820D02*
X34990777Y-14984296D01*
X34990777Y-14984296D02*
X34981253Y-14965249D01*
X34981253Y-14965249D02*
X34971729Y-14927153D01*
X34971729Y-14927153D02*
X34971729Y-14879534D01*
X34971729Y-14879534D02*
X34981253Y-14841439D01*
X34981253Y-14841439D02*
X34990777Y-14822391D01*
X34990777Y-14822391D02*
X35000301Y-14812868D01*
X35000301Y-14812868D02*
X35019348Y-14803344D01*
X35152682Y-14803344D02*
X35286015Y-14803344D01*
X35286015Y-14803344D02*
X35200301Y-15003344D01*
X35390777Y-14889058D02*
X35371729Y-14879534D01*
X35371729Y-14879534D02*
X35362206Y-14870010D01*
X35362206Y-14870010D02*
X35352682Y-14850963D01*
X35352682Y-14850963D02*
X35352682Y-14841439D01*
X35352682Y-14841439D02*
X35362206Y-14822391D01*
X35362206Y-14822391D02*
X35371729Y-14812868D01*
X35371729Y-14812868D02*
X35390777Y-14803344D01*
X35390777Y-14803344D02*
X35428872Y-14803344D01*
X35428872Y-14803344D02*
X35447920Y-14812868D01*
X35447920Y-14812868D02*
X35457444Y-14822391D01*
X35457444Y-14822391D02*
X35466967Y-14841439D01*
X35466967Y-14841439D02*
X35466967Y-14850963D01*
X35466967Y-14850963D02*
X35457444Y-14870010D01*
X35457444Y-14870010D02*
X35447920Y-14879534D01*
X35447920Y-14879534D02*
X35428872Y-14889058D01*
X35428872Y-14889058D02*
X35390777Y-14889058D01*
X35390777Y-14889058D02*
X35371729Y-14898582D01*
X35371729Y-14898582D02*
X35362206Y-14908106D01*
X35362206Y-14908106D02*
X35352682Y-14927153D01*
X35352682Y-14927153D02*
X35352682Y-14965249D01*
X35352682Y-14965249D02*
X35362206Y-14984296D01*
X35362206Y-14984296D02*
X35371729Y-14993820D01*
X35371729Y-14993820D02*
X35390777Y-15003344D01*
X35390777Y-15003344D02*
X35428872Y-15003344D01*
X35428872Y-15003344D02*
X35447920Y-14993820D01*
X35447920Y-14993820D02*
X35457444Y-14984296D01*
X35457444Y-14984296D02*
X35466967Y-14965249D01*
X35466967Y-14965249D02*
X35466967Y-14927153D01*
X35466967Y-14927153D02*
X35457444Y-14908106D01*
X35457444Y-14908106D02*
X35447920Y-14898582D01*
X35447920Y-14898582D02*
X35428872Y-14889058D01*
X35533634Y-14803344D02*
X35666967Y-14803344D01*
X35666967Y-14803344D02*
X35581253Y-15003344D01*
X35733634Y-14803344D02*
X35733634Y-14841439D01*
X35809825Y-14803344D02*
X35809825Y-14841439D01*
X36105063Y-15079534D02*
X36095539Y-15070010D01*
X36095539Y-15070010D02*
X36076491Y-15041439D01*
X36076491Y-15041439D02*
X36066968Y-15022391D01*
X36066968Y-15022391D02*
X36057444Y-14993820D01*
X36057444Y-14993820D02*
X36047920Y-14946201D01*
X36047920Y-14946201D02*
X36047920Y-14908106D01*
X36047920Y-14908106D02*
X36057444Y-14860487D01*
X36057444Y-14860487D02*
X36066968Y-14831915D01*
X36066968Y-14831915D02*
X36076491Y-14812868D01*
X36076491Y-14812868D02*
X36095539Y-14784296D01*
X36095539Y-14784296D02*
X36105063Y-14774772D01*
X36219348Y-14803344D02*
X36238396Y-14803344D01*
X36238396Y-14803344D02*
X36257444Y-14812868D01*
X36257444Y-14812868D02*
X36266968Y-14822391D01*
X36266968Y-14822391D02*
X36276491Y-14841439D01*
X36276491Y-14841439D02*
X36286015Y-14879534D01*
X36286015Y-14879534D02*
X36286015Y-14927153D01*
X36286015Y-14927153D02*
X36276491Y-14965249D01*
X36276491Y-14965249D02*
X36266968Y-14984296D01*
X36266968Y-14984296D02*
X36257444Y-14993820D01*
X36257444Y-14993820D02*
X36238396Y-15003344D01*
X36238396Y-15003344D02*
X36219348Y-15003344D01*
X36219348Y-15003344D02*
X36200301Y-14993820D01*
X36200301Y-14993820D02*
X36190777Y-14984296D01*
X36190777Y-14984296D02*
X36181253Y-14965249D01*
X36181253Y-14965249D02*
X36171729Y-14927153D01*
X36171729Y-14927153D02*
X36171729Y-14879534D01*
X36171729Y-14879534D02*
X36181253Y-14841439D01*
X36181253Y-14841439D02*
X36190777Y-14822391D01*
X36190777Y-14822391D02*
X36200301Y-14812868D01*
X36200301Y-14812868D02*
X36219348Y-14803344D01*
X36524110Y-15003344D02*
X36524110Y-14803344D01*
X36609825Y-15003344D02*
X36609825Y-14898582D01*
X36609825Y-14898582D02*
X36600301Y-14879534D01*
X36600301Y-14879534D02*
X36581253Y-14870010D01*
X36581253Y-14870010D02*
X36552682Y-14870010D01*
X36552682Y-14870010D02*
X36533634Y-14879534D01*
X36533634Y-14879534D02*
X36524110Y-14889058D01*
X36733634Y-15003344D02*
X36714587Y-14993820D01*
X36714587Y-14993820D02*
X36705063Y-14984296D01*
X36705063Y-14984296D02*
X36695539Y-14965249D01*
X36695539Y-14965249D02*
X36695539Y-14908106D01*
X36695539Y-14908106D02*
X36705063Y-14889058D01*
X36705063Y-14889058D02*
X36714587Y-14879534D01*
X36714587Y-14879534D02*
X36733634Y-14870010D01*
X36733634Y-14870010D02*
X36762206Y-14870010D01*
X36762206Y-14870010D02*
X36781253Y-14879534D01*
X36781253Y-14879534D02*
X36790777Y-14889058D01*
X36790777Y-14889058D02*
X36800301Y-14908106D01*
X36800301Y-14908106D02*
X36800301Y-14965249D01*
X36800301Y-14965249D02*
X36790777Y-14984296D01*
X36790777Y-14984296D02*
X36781253Y-14993820D01*
X36781253Y-14993820D02*
X36762206Y-15003344D01*
X36762206Y-15003344D02*
X36733634Y-15003344D01*
X36914587Y-15003344D02*
X36895539Y-14993820D01*
X36895539Y-14993820D02*
X36886015Y-14974772D01*
X36886015Y-14974772D02*
X36886015Y-14803344D01*
X37066968Y-14993820D02*
X37047920Y-15003344D01*
X37047920Y-15003344D02*
X37009825Y-15003344D01*
X37009825Y-15003344D02*
X36990777Y-14993820D01*
X36990777Y-14993820D02*
X36981253Y-14974772D01*
X36981253Y-14974772D02*
X36981253Y-14898582D01*
X36981253Y-14898582D02*
X36990777Y-14879534D01*
X36990777Y-14879534D02*
X37009825Y-14870010D01*
X37009825Y-14870010D02*
X37047920Y-14870010D01*
X37047920Y-14870010D02*
X37066968Y-14879534D01*
X37066968Y-14879534D02*
X37076491Y-14898582D01*
X37076491Y-14898582D02*
X37076491Y-14917630D01*
X37076491Y-14917630D02*
X36981253Y-14936677D01*
X37152682Y-14993820D02*
X37171730Y-15003344D01*
X37171730Y-15003344D02*
X37209825Y-15003344D01*
X37209825Y-15003344D02*
X37228872Y-14993820D01*
X37228872Y-14993820D02*
X37238396Y-14974772D01*
X37238396Y-14974772D02*
X37238396Y-14965249D01*
X37238396Y-14965249D02*
X37228872Y-14946201D01*
X37228872Y-14946201D02*
X37209825Y-14936677D01*
X37209825Y-14936677D02*
X37181253Y-14936677D01*
X37181253Y-14936677D02*
X37162206Y-14927153D01*
X37162206Y-14927153D02*
X37152682Y-14908106D01*
X37152682Y-14908106D02*
X37152682Y-14898582D01*
X37152682Y-14898582D02*
X37162206Y-14879534D01*
X37162206Y-14879534D02*
X37181253Y-14870010D01*
X37181253Y-14870010D02*
X37209825Y-14870010D01*
X37209825Y-14870010D02*
X37228872Y-14879534D01*
X37476492Y-14927153D02*
X37628873Y-14927153D01*
X37552682Y-15003344D02*
X37552682Y-14850963D01*
X37962206Y-14870010D02*
X37962206Y-15003344D01*
X37914587Y-14793820D02*
X37866968Y-14936677D01*
X37866968Y-14936677D02*
X37990777Y-14936677D01*
X38209825Y-14993820D02*
X38228873Y-15003344D01*
X38228873Y-15003344D02*
X38266968Y-15003344D01*
X38266968Y-15003344D02*
X38286015Y-14993820D01*
X38286015Y-14993820D02*
X38295539Y-14974772D01*
X38295539Y-14974772D02*
X38295539Y-14965249D01*
X38295539Y-14965249D02*
X38286015Y-14946201D01*
X38286015Y-14946201D02*
X38266968Y-14936677D01*
X38266968Y-14936677D02*
X38238396Y-14936677D01*
X38238396Y-14936677D02*
X38219349Y-14927153D01*
X38219349Y-14927153D02*
X38209825Y-14908106D01*
X38209825Y-14908106D02*
X38209825Y-14898582D01*
X38209825Y-14898582D02*
X38219349Y-14879534D01*
X38219349Y-14879534D02*
X38238396Y-14870010D01*
X38238396Y-14870010D02*
X38266968Y-14870010D01*
X38266968Y-14870010D02*
X38286015Y-14879534D01*
X38409825Y-15003344D02*
X38390777Y-14993820D01*
X38390777Y-14993820D02*
X38381254Y-14974772D01*
X38381254Y-14974772D02*
X38381254Y-14803344D01*
X38514587Y-15003344D02*
X38495539Y-14993820D01*
X38495539Y-14993820D02*
X38486015Y-14984296D01*
X38486015Y-14984296D02*
X38476492Y-14965249D01*
X38476492Y-14965249D02*
X38476492Y-14908106D01*
X38476492Y-14908106D02*
X38486015Y-14889058D01*
X38486015Y-14889058D02*
X38495539Y-14879534D01*
X38495539Y-14879534D02*
X38514587Y-14870010D01*
X38514587Y-14870010D02*
X38543158Y-14870010D01*
X38543158Y-14870010D02*
X38562206Y-14879534D01*
X38562206Y-14879534D02*
X38571730Y-14889058D01*
X38571730Y-14889058D02*
X38581254Y-14908106D01*
X38581254Y-14908106D02*
X38581254Y-14965249D01*
X38581254Y-14965249D02*
X38571730Y-14984296D01*
X38571730Y-14984296D02*
X38562206Y-14993820D01*
X38562206Y-14993820D02*
X38543158Y-15003344D01*
X38543158Y-15003344D02*
X38514587Y-15003344D01*
X38638396Y-14870010D02*
X38714587Y-14870010D01*
X38666968Y-14803344D02*
X38666968Y-14974772D01*
X38666968Y-14974772D02*
X38676492Y-14993820D01*
X38676492Y-14993820D02*
X38695539Y-15003344D01*
X38695539Y-15003344D02*
X38714587Y-15003344D01*
X38771730Y-14993820D02*
X38790777Y-15003344D01*
X38790777Y-15003344D02*
X38828873Y-15003344D01*
X38828873Y-15003344D02*
X38847920Y-14993820D01*
X38847920Y-14993820D02*
X38857444Y-14974772D01*
X38857444Y-14974772D02*
X38857444Y-14965249D01*
X38857444Y-14965249D02*
X38847920Y-14946201D01*
X38847920Y-14946201D02*
X38828873Y-14936677D01*
X38828873Y-14936677D02*
X38800301Y-14936677D01*
X38800301Y-14936677D02*
X38781254Y-14927153D01*
X38781254Y-14927153D02*
X38771730Y-14908106D01*
X38771730Y-14908106D02*
X38771730Y-14898582D01*
X38771730Y-14898582D02*
X38781254Y-14879534D01*
X38781254Y-14879534D02*
X38800301Y-14870010D01*
X38800301Y-14870010D02*
X38828873Y-14870010D01*
X38828873Y-14870010D02*
X38847920Y-14879534D01*
X38924111Y-15079534D02*
X38933635Y-15070010D01*
X38933635Y-15070010D02*
X38952682Y-15041439D01*
X38952682Y-15041439D02*
X38962206Y-15022391D01*
X38962206Y-15022391D02*
X38971730Y-14993820D01*
X38971730Y-14993820D02*
X38981254Y-14946201D01*
X38981254Y-14946201D02*
X38981254Y-14908106D01*
X38981254Y-14908106D02*
X38971730Y-14860487D01*
X38971730Y-14860487D02*
X38962206Y-14831915D01*
X38962206Y-14831915D02*
X38952682Y-14812868D01*
X38952682Y-14812868D02*
X38933635Y-14784296D01*
X38933635Y-14784296D02*
X38924111Y-14774772D01*
M02*
