%TF.GenerationSoftware,KiCad,Pcbnew,9.0.7*%
%TF.CreationDate,2026-03-14T17:46:03+01:00*%
%TF.ProjectId,blastpad,626c6173-7470-4616-942e-6b696361645f,rev?*%
%TF.SameCoordinates,Original*%
%TF.FileFunction,Copper,L1,Top*%
%TF.FilePolarity,Positive*%
%FSLAX46Y46*%
G04 Gerber Fmt 4.6, Leading zero omitted, Abs format (unit mm)*
G04 Created by KiCad (PCBNEW 9.0.7) date 2026-03-14 17:46:03*
%MOMM*%
%LPD*%
G01*
G04 APERTURE LIST*
G04 Aperture macros list*
%AMRotRect*
0 Rectangle, with rotation*
0 The origin of the aperture is its center*
0 $1 length*
0 $2 width*
0 $3 Rotation angle, in degrees counterclockwise*
0 Add horizontal line*
21,1,$1,$2,0,0,$3*%
G04 Aperture macros list end*
%ADD10C,0.100000*%
%ADD11C,0.150000*%
%ADD12C,0.300000*%
%ADD13C,0.400000*%
%TA.AperFunction,ComponentPad*%
%ADD14C,1.651000*%
%TD*%
%TA.AperFunction,ComponentPad*%
%ADD15R,1.651000X1.651000*%
%TD*%
%TA.AperFunction,ComponentPad*%
%ADD16R,2.000000X2.000000*%
%TD*%
%TA.AperFunction,ComponentPad*%
%ADD17C,2.000000*%
%TD*%
%TA.AperFunction,ComponentPad*%
%ADD18R,2.500000X3.000000*%
%TD*%
%TA.AperFunction,ComponentPad*%
%ADD19O,1.700000X1.700000*%
%TD*%
%TA.AperFunction,SMDPad,CuDef*%
%ADD20R,3.500000X1.700000*%
%TD*%
%TA.AperFunction,ComponentPad*%
%ADD21R,1.700000X1.700000*%
%TD*%
%TA.AperFunction,SMDPad,CuDef*%
%ADD22R,1.700000X3.500000*%
%TD*%
%TA.AperFunction,ComponentPad*%
%ADD23C,2.286000*%
%TD*%
%TA.AperFunction,ComponentPad*%
%ADD24RotRect,2.000000X2.000000X315.000000*%
%TD*%
%TA.AperFunction,ComponentPad*%
%ADD25RotRect,3.000000X2.500000X315.000000*%
%TD*%
%TA.AperFunction,WasherPad*%
%ADD26C,4.620000*%
%TD*%
%TA.AperFunction,ComponentPad*%
%ADD27C,1.700000*%
%TD*%
%TA.AperFunction,Conductor*%
%ADD28C,0.381000*%
%TD*%
G04 APERTURE END LIST*
D10*
D11*
X474004400Y-375989000D02*
X582004400Y-375989000D01*
X582004400Y-407989000D01*
X474004400Y-407989000D01*
X474004400Y-375989000D01*
D10*
D11*
X10000000Y-10000000D02*
X584004400Y-10000000D01*
X584004400Y-409989000D01*
X10000000Y-409989000D01*
X10000000Y-10000000D01*
D10*
D11*
X12000000Y-12000000D02*
X582004400Y-12000000D01*
X582004400Y-407989000D01*
X12000000Y-407989000D01*
X12000000Y-12000000D01*
D10*
D11*
X60000000Y-12000000D02*
X60000000Y-10000000D01*
D10*
D11*
X110000000Y-12000000D02*
X110000000Y-10000000D01*
D10*
D11*
X160000000Y-12000000D02*
X160000000Y-10000000D01*
D10*
D11*
X210000000Y-12000000D02*
X210000000Y-10000000D01*
D10*
D11*
X260000000Y-12000000D02*
X260000000Y-10000000D01*
D10*
D11*
X310000000Y-12000000D02*
X310000000Y-10000000D01*
D10*
D11*
X360000000Y-12000000D02*
X360000000Y-10000000D01*
D10*
D11*
X410000000Y-12000000D02*
X410000000Y-10000000D01*
D10*
D11*
X460000000Y-12000000D02*
X460000000Y-10000000D01*
D10*
D11*
X510000000Y-12000000D02*
X510000000Y-10000000D01*
D10*
D11*
X560000000Y-12000000D02*
X560000000Y-10000000D01*
D10*
D11*
X36089160Y-11593604D02*
X35346303Y-11593604D01*
X35717731Y-11593604D02*
X35717731Y-10293604D01*
X35717731Y-10293604D02*
X35593922Y-10479319D01*
X35593922Y-10479319D02*
X35470112Y-10603128D01*
X35470112Y-10603128D02*
X35346303Y-10665033D01*
D10*
D11*
X85346303Y-10417414D02*
X85408207Y-10355509D01*
X85408207Y-10355509D02*
X85532017Y-10293604D01*
X85532017Y-10293604D02*
X85841541Y-10293604D01*
X85841541Y-10293604D02*
X85965350Y-10355509D01*
X85965350Y-10355509D02*
X86027255Y-10417414D01*
X86027255Y-10417414D02*
X86089160Y-10541223D01*
X86089160Y-10541223D02*
X86089160Y-10665033D01*
X86089160Y-10665033D02*
X86027255Y-10850747D01*
X86027255Y-10850747D02*
X85284398Y-11593604D01*
X85284398Y-11593604D02*
X86089160Y-11593604D01*
D10*
D11*
X135284398Y-10293604D02*
X136089160Y-10293604D01*
X136089160Y-10293604D02*
X135655826Y-10788842D01*
X135655826Y-10788842D02*
X135841541Y-10788842D01*
X135841541Y-10788842D02*
X135965350Y-10850747D01*
X135965350Y-10850747D02*
X136027255Y-10912652D01*
X136027255Y-10912652D02*
X136089160Y-11036461D01*
X136089160Y-11036461D02*
X136089160Y-11345985D01*
X136089160Y-11345985D02*
X136027255Y-11469795D01*
X136027255Y-11469795D02*
X135965350Y-11531700D01*
X135965350Y-11531700D02*
X135841541Y-11593604D01*
X135841541Y-11593604D02*
X135470112Y-11593604D01*
X135470112Y-11593604D02*
X135346303Y-11531700D01*
X135346303Y-11531700D02*
X135284398Y-11469795D01*
D10*
D11*
X185965350Y-10726938D02*
X185965350Y-11593604D01*
X185655826Y-10231700D02*
X185346303Y-11160271D01*
X185346303Y-11160271D02*
X186151064Y-11160271D01*
D10*
D11*
X236027255Y-10293604D02*
X235408207Y-10293604D01*
X235408207Y-10293604D02*
X235346303Y-10912652D01*
X235346303Y-10912652D02*
X235408207Y-10850747D01*
X235408207Y-10850747D02*
X235532017Y-10788842D01*
X235532017Y-10788842D02*
X235841541Y-10788842D01*
X235841541Y-10788842D02*
X235965350Y-10850747D01*
X235965350Y-10850747D02*
X236027255Y-10912652D01*
X236027255Y-10912652D02*
X236089160Y-11036461D01*
X236089160Y-11036461D02*
X236089160Y-11345985D01*
X236089160Y-11345985D02*
X236027255Y-11469795D01*
X236027255Y-11469795D02*
X235965350Y-11531700D01*
X235965350Y-11531700D02*
X235841541Y-11593604D01*
X235841541Y-11593604D02*
X235532017Y-11593604D01*
X235532017Y-11593604D02*
X235408207Y-11531700D01*
X235408207Y-11531700D02*
X235346303Y-11469795D01*
D10*
D11*
X285965350Y-10293604D02*
X285717731Y-10293604D01*
X285717731Y-10293604D02*
X285593922Y-10355509D01*
X285593922Y-10355509D02*
X285532017Y-10417414D01*
X285532017Y-10417414D02*
X285408207Y-10603128D01*
X285408207Y-10603128D02*
X285346303Y-10850747D01*
X285346303Y-10850747D02*
X285346303Y-11345985D01*
X285346303Y-11345985D02*
X285408207Y-11469795D01*
X285408207Y-11469795D02*
X285470112Y-11531700D01*
X285470112Y-11531700D02*
X285593922Y-11593604D01*
X285593922Y-11593604D02*
X285841541Y-11593604D01*
X285841541Y-11593604D02*
X285965350Y-11531700D01*
X285965350Y-11531700D02*
X286027255Y-11469795D01*
X286027255Y-11469795D02*
X286089160Y-11345985D01*
X286089160Y-11345985D02*
X286089160Y-11036461D01*
X286089160Y-11036461D02*
X286027255Y-10912652D01*
X286027255Y-10912652D02*
X285965350Y-10850747D01*
X285965350Y-10850747D02*
X285841541Y-10788842D01*
X285841541Y-10788842D02*
X285593922Y-10788842D01*
X285593922Y-10788842D02*
X285470112Y-10850747D01*
X285470112Y-10850747D02*
X285408207Y-10912652D01*
X285408207Y-10912652D02*
X285346303Y-11036461D01*
D10*
D11*
X335284398Y-10293604D02*
X336151064Y-10293604D01*
X336151064Y-10293604D02*
X335593922Y-11593604D01*
D10*
D11*
X385593922Y-10850747D02*
X385470112Y-10788842D01*
X385470112Y-10788842D02*
X385408207Y-10726938D01*
X385408207Y-10726938D02*
X385346303Y-10603128D01*
X385346303Y-10603128D02*
X385346303Y-10541223D01*
X385346303Y-10541223D02*
X385408207Y-10417414D01*
X385408207Y-10417414D02*
X385470112Y-10355509D01*
X385470112Y-10355509D02*
X385593922Y-10293604D01*
X385593922Y-10293604D02*
X385841541Y-10293604D01*
X385841541Y-10293604D02*
X385965350Y-10355509D01*
X385965350Y-10355509D02*
X386027255Y-10417414D01*
X386027255Y-10417414D02*
X386089160Y-10541223D01*
X386089160Y-10541223D02*
X386089160Y-10603128D01*
X386089160Y-10603128D02*
X386027255Y-10726938D01*
X386027255Y-10726938D02*
X385965350Y-10788842D01*
X385965350Y-10788842D02*
X385841541Y-10850747D01*
X385841541Y-10850747D02*
X385593922Y-10850747D01*
X385593922Y-10850747D02*
X385470112Y-10912652D01*
X385470112Y-10912652D02*
X385408207Y-10974557D01*
X385408207Y-10974557D02*
X385346303Y-11098366D01*
X385346303Y-11098366D02*
X385346303Y-11345985D01*
X385346303Y-11345985D02*
X385408207Y-11469795D01*
X385408207Y-11469795D02*
X385470112Y-11531700D01*
X385470112Y-11531700D02*
X385593922Y-11593604D01*
X385593922Y-11593604D02*
X385841541Y-11593604D01*
X385841541Y-11593604D02*
X385965350Y-11531700D01*
X385965350Y-11531700D02*
X386027255Y-11469795D01*
X386027255Y-11469795D02*
X386089160Y-11345985D01*
X386089160Y-11345985D02*
X386089160Y-11098366D01*
X386089160Y-11098366D02*
X386027255Y-10974557D01*
X386027255Y-10974557D02*
X385965350Y-10912652D01*
X385965350Y-10912652D02*
X385841541Y-10850747D01*
D10*
D11*
X435470112Y-11593604D02*
X435717731Y-11593604D01*
X435717731Y-11593604D02*
X435841541Y-11531700D01*
X435841541Y-11531700D02*
X435903445Y-11469795D01*
X435903445Y-11469795D02*
X436027255Y-11284080D01*
X436027255Y-11284080D02*
X436089160Y-11036461D01*
X436089160Y-11036461D02*
X436089160Y-10541223D01*
X436089160Y-10541223D02*
X436027255Y-10417414D01*
X436027255Y-10417414D02*
X435965350Y-10355509D01*
X435965350Y-10355509D02*
X435841541Y-10293604D01*
X435841541Y-10293604D02*
X435593922Y-10293604D01*
X435593922Y-10293604D02*
X435470112Y-10355509D01*
X435470112Y-10355509D02*
X435408207Y-10417414D01*
X435408207Y-10417414D02*
X435346303Y-10541223D01*
X435346303Y-10541223D02*
X435346303Y-10850747D01*
X435346303Y-10850747D02*
X435408207Y-10974557D01*
X435408207Y-10974557D02*
X435470112Y-11036461D01*
X435470112Y-11036461D02*
X435593922Y-11098366D01*
X435593922Y-11098366D02*
X435841541Y-11098366D01*
X435841541Y-11098366D02*
X435965350Y-11036461D01*
X435965350Y-11036461D02*
X436027255Y-10974557D01*
X436027255Y-10974557D02*
X436089160Y-10850747D01*
D10*
D11*
X486089160Y-11593604D02*
X485346303Y-11593604D01*
X485717731Y-11593604D02*
X485717731Y-10293604D01*
X485717731Y-10293604D02*
X485593922Y-10479319D01*
X485593922Y-10479319D02*
X485470112Y-10603128D01*
X485470112Y-10603128D02*
X485346303Y-10665033D01*
X486893921Y-10293604D02*
X487017731Y-10293604D01*
X487017731Y-10293604D02*
X487141540Y-10355509D01*
X487141540Y-10355509D02*
X487203445Y-10417414D01*
X487203445Y-10417414D02*
X487265350Y-10541223D01*
X487265350Y-10541223D02*
X487327255Y-10788842D01*
X487327255Y-10788842D02*
X487327255Y-11098366D01*
X487327255Y-11098366D02*
X487265350Y-11345985D01*
X487265350Y-11345985D02*
X487203445Y-11469795D01*
X487203445Y-11469795D02*
X487141540Y-11531700D01*
X487141540Y-11531700D02*
X487017731Y-11593604D01*
X487017731Y-11593604D02*
X486893921Y-11593604D01*
X486893921Y-11593604D02*
X486770112Y-11531700D01*
X486770112Y-11531700D02*
X486708207Y-11469795D01*
X486708207Y-11469795D02*
X486646302Y-11345985D01*
X486646302Y-11345985D02*
X486584398Y-11098366D01*
X486584398Y-11098366D02*
X486584398Y-10788842D01*
X486584398Y-10788842D02*
X486646302Y-10541223D01*
X486646302Y-10541223D02*
X486708207Y-10417414D01*
X486708207Y-10417414D02*
X486770112Y-10355509D01*
X486770112Y-10355509D02*
X486893921Y-10293604D01*
D10*
D11*
X536089160Y-11593604D02*
X535346303Y-11593604D01*
X535717731Y-11593604D02*
X535717731Y-10293604D01*
X535717731Y-10293604D02*
X535593922Y-10479319D01*
X535593922Y-10479319D02*
X535470112Y-10603128D01*
X535470112Y-10603128D02*
X535346303Y-10665033D01*
X537327255Y-11593604D02*
X536584398Y-11593604D01*
X536955826Y-11593604D02*
X536955826Y-10293604D01*
X536955826Y-10293604D02*
X536832017Y-10479319D01*
X536832017Y-10479319D02*
X536708207Y-10603128D01*
X536708207Y-10603128D02*
X536584398Y-10665033D01*
D10*
D11*
X60000000Y-407989000D02*
X60000000Y-409989000D01*
D10*
D11*
X110000000Y-407989000D02*
X110000000Y-409989000D01*
D10*
D11*
X160000000Y-407989000D02*
X160000000Y-409989000D01*
D10*
D11*
X210000000Y-407989000D02*
X210000000Y-409989000D01*
D10*
D11*
X260000000Y-407989000D02*
X260000000Y-409989000D01*
D10*
D11*
X310000000Y-407989000D02*
X310000000Y-409989000D01*
D10*
D11*
X360000000Y-407989000D02*
X360000000Y-409989000D01*
D10*
D11*
X410000000Y-407989000D02*
X410000000Y-409989000D01*
D10*
D11*
X460000000Y-407989000D02*
X460000000Y-409989000D01*
D10*
D11*
X510000000Y-407989000D02*
X510000000Y-409989000D01*
D10*
D11*
X560000000Y-407989000D02*
X560000000Y-409989000D01*
D10*
D11*
X36089160Y-409582604D02*
X35346303Y-409582604D01*
X35717731Y-409582604D02*
X35717731Y-408282604D01*
X35717731Y-408282604D02*
X35593922Y-408468319D01*
X35593922Y-408468319D02*
X35470112Y-408592128D01*
X35470112Y-408592128D02*
X35346303Y-408654033D01*
D10*
D11*
X85346303Y-408406414D02*
X85408207Y-408344509D01*
X85408207Y-408344509D02*
X85532017Y-408282604D01*
X85532017Y-408282604D02*
X85841541Y-408282604D01*
X85841541Y-408282604D02*
X85965350Y-408344509D01*
X85965350Y-408344509D02*
X86027255Y-408406414D01*
X86027255Y-408406414D02*
X86089160Y-408530223D01*
X86089160Y-408530223D02*
X86089160Y-408654033D01*
X86089160Y-408654033D02*
X86027255Y-408839747D01*
X86027255Y-408839747D02*
X85284398Y-409582604D01*
X85284398Y-409582604D02*
X86089160Y-409582604D01*
D10*
D11*
X135284398Y-408282604D02*
X136089160Y-408282604D01*
X136089160Y-408282604D02*
X135655826Y-408777842D01*
X135655826Y-408777842D02*
X135841541Y-408777842D01*
X135841541Y-408777842D02*
X135965350Y-408839747D01*
X135965350Y-408839747D02*
X136027255Y-408901652D01*
X136027255Y-408901652D02*
X136089160Y-409025461D01*
X136089160Y-409025461D02*
X136089160Y-409334985D01*
X136089160Y-409334985D02*
X136027255Y-409458795D01*
X136027255Y-409458795D02*
X135965350Y-409520700D01*
X135965350Y-409520700D02*
X135841541Y-409582604D01*
X135841541Y-409582604D02*
X135470112Y-409582604D01*
X135470112Y-409582604D02*
X135346303Y-409520700D01*
X135346303Y-409520700D02*
X135284398Y-409458795D01*
D10*
D11*
X185965350Y-408715938D02*
X185965350Y-409582604D01*
X185655826Y-408220700D02*
X185346303Y-409149271D01*
X185346303Y-409149271D02*
X186151064Y-409149271D01*
D10*
D11*
X236027255Y-408282604D02*
X235408207Y-408282604D01*
X235408207Y-408282604D02*
X235346303Y-408901652D01*
X235346303Y-408901652D02*
X235408207Y-408839747D01*
X235408207Y-408839747D02*
X235532017Y-408777842D01*
X235532017Y-408777842D02*
X235841541Y-408777842D01*
X235841541Y-408777842D02*
X235965350Y-408839747D01*
X235965350Y-408839747D02*
X236027255Y-408901652D01*
X236027255Y-408901652D02*
X236089160Y-409025461D01*
X236089160Y-409025461D02*
X236089160Y-409334985D01*
X236089160Y-409334985D02*
X236027255Y-409458795D01*
X236027255Y-409458795D02*
X235965350Y-409520700D01*
X235965350Y-409520700D02*
X235841541Y-409582604D01*
X235841541Y-409582604D02*
X235532017Y-409582604D01*
X235532017Y-409582604D02*
X235408207Y-409520700D01*
X235408207Y-409520700D02*
X235346303Y-409458795D01*
D10*
D11*
X285965350Y-408282604D02*
X285717731Y-408282604D01*
X285717731Y-408282604D02*
X285593922Y-408344509D01*
X285593922Y-408344509D02*
X285532017Y-408406414D01*
X285532017Y-408406414D02*
X285408207Y-408592128D01*
X285408207Y-408592128D02*
X285346303Y-408839747D01*
X285346303Y-408839747D02*
X285346303Y-409334985D01*
X285346303Y-409334985D02*
X285408207Y-409458795D01*
X285408207Y-409458795D02*
X285470112Y-409520700D01*
X285470112Y-409520700D02*
X285593922Y-409582604D01*
X285593922Y-409582604D02*
X285841541Y-409582604D01*
X285841541Y-409582604D02*
X285965350Y-409520700D01*
X285965350Y-409520700D02*
X286027255Y-409458795D01*
X286027255Y-409458795D02*
X286089160Y-409334985D01*
X286089160Y-409334985D02*
X286089160Y-409025461D01*
X286089160Y-409025461D02*
X286027255Y-408901652D01*
X286027255Y-408901652D02*
X285965350Y-408839747D01*
X285965350Y-408839747D02*
X285841541Y-408777842D01*
X285841541Y-408777842D02*
X285593922Y-408777842D01*
X285593922Y-408777842D02*
X285470112Y-408839747D01*
X285470112Y-408839747D02*
X285408207Y-408901652D01*
X285408207Y-408901652D02*
X285346303Y-409025461D01*
D10*
D11*
X335284398Y-408282604D02*
X336151064Y-408282604D01*
X336151064Y-408282604D02*
X335593922Y-409582604D01*
D10*
D11*
X385593922Y-408839747D02*
X385470112Y-408777842D01*
X385470112Y-408777842D02*
X385408207Y-408715938D01*
X385408207Y-408715938D02*
X385346303Y-408592128D01*
X385346303Y-408592128D02*
X385346303Y-408530223D01*
X385346303Y-408530223D02*
X385408207Y-408406414D01*
X385408207Y-408406414D02*
X385470112Y-408344509D01*
X385470112Y-408344509D02*
X385593922Y-408282604D01*
X385593922Y-408282604D02*
X385841541Y-408282604D01*
X385841541Y-408282604D02*
X385965350Y-408344509D01*
X385965350Y-408344509D02*
X386027255Y-408406414D01*
X386027255Y-408406414D02*
X386089160Y-408530223D01*
X386089160Y-408530223D02*
X386089160Y-408592128D01*
X386089160Y-408592128D02*
X386027255Y-408715938D01*
X386027255Y-408715938D02*
X385965350Y-408777842D01*
X385965350Y-408777842D02*
X385841541Y-408839747D01*
X385841541Y-408839747D02*
X385593922Y-408839747D01*
X385593922Y-408839747D02*
X385470112Y-408901652D01*
X385470112Y-408901652D02*
X385408207Y-408963557D01*
X385408207Y-408963557D02*
X385346303Y-409087366D01*
X385346303Y-409087366D02*
X385346303Y-409334985D01*
X385346303Y-409334985D02*
X385408207Y-409458795D01*
X385408207Y-409458795D02*
X385470112Y-409520700D01*
X385470112Y-409520700D02*
X385593922Y-409582604D01*
X385593922Y-409582604D02*
X385841541Y-409582604D01*
X385841541Y-409582604D02*
X385965350Y-409520700D01*
X385965350Y-409520700D02*
X386027255Y-409458795D01*
X386027255Y-409458795D02*
X386089160Y-409334985D01*
X386089160Y-409334985D02*
X386089160Y-409087366D01*
X386089160Y-409087366D02*
X386027255Y-408963557D01*
X386027255Y-408963557D02*
X385965350Y-408901652D01*
X385965350Y-408901652D02*
X385841541Y-408839747D01*
D10*
D11*
X435470112Y-409582604D02*
X435717731Y-409582604D01*
X435717731Y-409582604D02*
X435841541Y-409520700D01*
X435841541Y-409520700D02*
X435903445Y-409458795D01*
X435903445Y-409458795D02*
X436027255Y-409273080D01*
X436027255Y-409273080D02*
X436089160Y-409025461D01*
X436089160Y-409025461D02*
X436089160Y-408530223D01*
X436089160Y-408530223D02*
X436027255Y-408406414D01*
X436027255Y-408406414D02*
X435965350Y-408344509D01*
X435965350Y-408344509D02*
X435841541Y-408282604D01*
X435841541Y-408282604D02*
X435593922Y-408282604D01*
X435593922Y-408282604D02*
X435470112Y-408344509D01*
X435470112Y-408344509D02*
X435408207Y-408406414D01*
X435408207Y-408406414D02*
X435346303Y-408530223D01*
X435346303Y-408530223D02*
X435346303Y-408839747D01*
X435346303Y-408839747D02*
X435408207Y-408963557D01*
X435408207Y-408963557D02*
X435470112Y-409025461D01*
X435470112Y-409025461D02*
X435593922Y-409087366D01*
X435593922Y-409087366D02*
X435841541Y-409087366D01*
X435841541Y-409087366D02*
X435965350Y-409025461D01*
X435965350Y-409025461D02*
X436027255Y-408963557D01*
X436027255Y-408963557D02*
X436089160Y-408839747D01*
D10*
D11*
X486089160Y-409582604D02*
X485346303Y-409582604D01*
X485717731Y-409582604D02*
X485717731Y-408282604D01*
X485717731Y-408282604D02*
X485593922Y-408468319D01*
X485593922Y-408468319D02*
X485470112Y-408592128D01*
X485470112Y-408592128D02*
X485346303Y-408654033D01*
X486893921Y-408282604D02*
X487017731Y-408282604D01*
X487017731Y-408282604D02*
X487141540Y-408344509D01*
X487141540Y-408344509D02*
X487203445Y-408406414D01*
X487203445Y-408406414D02*
X487265350Y-408530223D01*
X487265350Y-408530223D02*
X487327255Y-408777842D01*
X487327255Y-408777842D02*
X487327255Y-409087366D01*
X487327255Y-409087366D02*
X487265350Y-409334985D01*
X487265350Y-409334985D02*
X487203445Y-409458795D01*
X487203445Y-409458795D02*
X487141540Y-409520700D01*
X487141540Y-409520700D02*
X487017731Y-409582604D01*
X487017731Y-409582604D02*
X486893921Y-409582604D01*
X486893921Y-409582604D02*
X486770112Y-409520700D01*
X486770112Y-409520700D02*
X486708207Y-409458795D01*
X486708207Y-409458795D02*
X486646302Y-409334985D01*
X486646302Y-409334985D02*
X486584398Y-409087366D01*
X486584398Y-409087366D02*
X486584398Y-408777842D01*
X486584398Y-408777842D02*
X486646302Y-408530223D01*
X486646302Y-408530223D02*
X486708207Y-408406414D01*
X486708207Y-408406414D02*
X486770112Y-408344509D01*
X486770112Y-408344509D02*
X486893921Y-408282604D01*
D10*
D11*
X536089160Y-409582604D02*
X535346303Y-409582604D01*
X535717731Y-409582604D02*
X535717731Y-408282604D01*
X535717731Y-408282604D02*
X535593922Y-408468319D01*
X535593922Y-408468319D02*
X535470112Y-408592128D01*
X535470112Y-408592128D02*
X535346303Y-408654033D01*
X537327255Y-409582604D02*
X536584398Y-409582604D01*
X536955826Y-409582604D02*
X536955826Y-408282604D01*
X536955826Y-408282604D02*
X536832017Y-408468319D01*
X536832017Y-408468319D02*
X536708207Y-408592128D01*
X536708207Y-408592128D02*
X536584398Y-408654033D01*
D10*
D11*
X10000000Y-60000000D02*
X12000000Y-60000000D01*
D10*
D11*
X10000000Y-110000000D02*
X12000000Y-110000000D01*
D10*
D11*
X10000000Y-160000000D02*
X12000000Y-160000000D01*
D10*
D11*
X10000000Y-210000000D02*
X12000000Y-210000000D01*
D10*
D11*
X10000000Y-260000000D02*
X12000000Y-260000000D01*
D10*
D11*
X10000000Y-310000000D02*
X12000000Y-310000000D01*
D10*
D11*
X10000000Y-360000000D02*
X12000000Y-360000000D01*
D10*
D11*
X10690476Y-35222176D02*
X11309523Y-35222176D01*
X10566666Y-35593604D02*
X10999999Y-34293604D01*
X10999999Y-34293604D02*
X11433333Y-35593604D01*
D10*
D11*
X11092857Y-84912652D02*
X11278571Y-84974557D01*
X11278571Y-84974557D02*
X11340476Y-85036461D01*
X11340476Y-85036461D02*
X11402380Y-85160271D01*
X11402380Y-85160271D02*
X11402380Y-85345985D01*
X11402380Y-85345985D02*
X11340476Y-85469795D01*
X11340476Y-85469795D02*
X11278571Y-85531700D01*
X11278571Y-85531700D02*
X11154761Y-85593604D01*
X11154761Y-85593604D02*
X10659523Y-85593604D01*
X10659523Y-85593604D02*
X10659523Y-84293604D01*
X10659523Y-84293604D02*
X11092857Y-84293604D01*
X11092857Y-84293604D02*
X11216666Y-84355509D01*
X11216666Y-84355509D02*
X11278571Y-84417414D01*
X11278571Y-84417414D02*
X11340476Y-84541223D01*
X11340476Y-84541223D02*
X11340476Y-84665033D01*
X11340476Y-84665033D02*
X11278571Y-84788842D01*
X11278571Y-84788842D02*
X11216666Y-84850747D01*
X11216666Y-84850747D02*
X11092857Y-84912652D01*
X11092857Y-84912652D02*
X10659523Y-84912652D01*
D10*
D11*
X11402380Y-135469795D02*
X11340476Y-135531700D01*
X11340476Y-135531700D02*
X11154761Y-135593604D01*
X11154761Y-135593604D02*
X11030952Y-135593604D01*
X11030952Y-135593604D02*
X10845238Y-135531700D01*
X10845238Y-135531700D02*
X10721428Y-135407890D01*
X10721428Y-135407890D02*
X10659523Y-135284080D01*
X10659523Y-135284080D02*
X10597619Y-135036461D01*
X10597619Y-135036461D02*
X10597619Y-134850747D01*
X10597619Y-134850747D02*
X10659523Y-134603128D01*
X10659523Y-134603128D02*
X10721428Y-134479319D01*
X10721428Y-134479319D02*
X10845238Y-134355509D01*
X10845238Y-134355509D02*
X11030952Y-134293604D01*
X11030952Y-134293604D02*
X11154761Y-134293604D01*
X11154761Y-134293604D02*
X11340476Y-134355509D01*
X11340476Y-134355509D02*
X11402380Y-134417414D01*
D10*
D11*
X10659523Y-185593604D02*
X10659523Y-184293604D01*
X10659523Y-184293604D02*
X10969047Y-184293604D01*
X10969047Y-184293604D02*
X11154761Y-184355509D01*
X11154761Y-184355509D02*
X11278571Y-184479319D01*
X11278571Y-184479319D02*
X11340476Y-184603128D01*
X11340476Y-184603128D02*
X11402380Y-184850747D01*
X11402380Y-184850747D02*
X11402380Y-185036461D01*
X11402380Y-185036461D02*
X11340476Y-185284080D01*
X11340476Y-185284080D02*
X11278571Y-185407890D01*
X11278571Y-185407890D02*
X11154761Y-185531700D01*
X11154761Y-185531700D02*
X10969047Y-185593604D01*
X10969047Y-185593604D02*
X10659523Y-185593604D01*
D10*
D11*
X10721428Y-234912652D02*
X11154762Y-234912652D01*
X11340476Y-235593604D02*
X10721428Y-235593604D01*
X10721428Y-235593604D02*
X10721428Y-234293604D01*
X10721428Y-234293604D02*
X11340476Y-234293604D01*
D10*
D11*
X11185714Y-284912652D02*
X10752380Y-284912652D01*
X10752380Y-285593604D02*
X10752380Y-284293604D01*
X10752380Y-284293604D02*
X11371428Y-284293604D01*
D10*
D11*
X11340476Y-334355509D02*
X11216666Y-334293604D01*
X11216666Y-334293604D02*
X11030952Y-334293604D01*
X11030952Y-334293604D02*
X10845238Y-334355509D01*
X10845238Y-334355509D02*
X10721428Y-334479319D01*
X10721428Y-334479319D02*
X10659523Y-334603128D01*
X10659523Y-334603128D02*
X10597619Y-334850747D01*
X10597619Y-334850747D02*
X10597619Y-335036461D01*
X10597619Y-335036461D02*
X10659523Y-335284080D01*
X10659523Y-335284080D02*
X10721428Y-335407890D01*
X10721428Y-335407890D02*
X10845238Y-335531700D01*
X10845238Y-335531700D02*
X11030952Y-335593604D01*
X11030952Y-335593604D02*
X11154761Y-335593604D01*
X11154761Y-335593604D02*
X11340476Y-335531700D01*
X11340476Y-335531700D02*
X11402380Y-335469795D01*
X11402380Y-335469795D02*
X11402380Y-335036461D01*
X11402380Y-335036461D02*
X11154761Y-335036461D01*
D10*
D11*
X10628571Y-385593604D02*
X10628571Y-384293604D01*
X10628571Y-384912652D02*
X11371428Y-384912652D01*
X11371428Y-385593604D02*
X11371428Y-384293604D01*
D10*
D11*
X584004400Y-60000000D02*
X582004400Y-60000000D01*
D10*
D11*
X584004400Y-110000000D02*
X582004400Y-110000000D01*
D10*
D11*
X584004400Y-160000000D02*
X582004400Y-160000000D01*
D10*
D11*
X584004400Y-210000000D02*
X582004400Y-210000000D01*
D10*
D11*
X584004400Y-260000000D02*
X582004400Y-260000000D01*
D10*
D11*
X584004400Y-310000000D02*
X582004400Y-310000000D01*
D10*
D11*
X584004400Y-360000000D02*
X582004400Y-360000000D01*
D10*
D11*
X582694876Y-35222176D02*
X583313923Y-35222176D01*
X582571066Y-35593604D02*
X583004399Y-34293604D01*
X583004399Y-34293604D02*
X583437733Y-35593604D01*
D10*
D11*
X583097257Y-84912652D02*
X583282971Y-84974557D01*
X583282971Y-84974557D02*
X583344876Y-85036461D01*
X583344876Y-85036461D02*
X583406780Y-85160271D01*
X583406780Y-85160271D02*
X583406780Y-85345985D01*
X583406780Y-85345985D02*
X583344876Y-85469795D01*
X583344876Y-85469795D02*
X583282971Y-85531700D01*
X583282971Y-85531700D02*
X583159161Y-85593604D01*
X583159161Y-85593604D02*
X582663923Y-85593604D01*
X582663923Y-85593604D02*
X582663923Y-84293604D01*
X582663923Y-84293604D02*
X583097257Y-84293604D01*
X583097257Y-84293604D02*
X583221066Y-84355509D01*
X583221066Y-84355509D02*
X583282971Y-84417414D01*
X583282971Y-84417414D02*
X583344876Y-84541223D01*
X583344876Y-84541223D02*
X583344876Y-84665033D01*
X583344876Y-84665033D02*
X583282971Y-84788842D01*
X583282971Y-84788842D02*
X583221066Y-84850747D01*
X583221066Y-84850747D02*
X583097257Y-84912652D01*
X583097257Y-84912652D02*
X582663923Y-84912652D01*
D10*
D11*
X583406780Y-135469795D02*
X583344876Y-135531700D01*
X583344876Y-135531700D02*
X583159161Y-135593604D01*
X583159161Y-135593604D02*
X583035352Y-135593604D01*
X583035352Y-135593604D02*
X582849638Y-135531700D01*
X582849638Y-135531700D02*
X582725828Y-135407890D01*
X582725828Y-135407890D02*
X582663923Y-135284080D01*
X582663923Y-135284080D02*
X582602019Y-135036461D01*
X582602019Y-135036461D02*
X582602019Y-134850747D01*
X582602019Y-134850747D02*
X582663923Y-134603128D01*
X582663923Y-134603128D02*
X582725828Y-134479319D01*
X582725828Y-134479319D02*
X582849638Y-134355509D01*
X582849638Y-134355509D02*
X583035352Y-134293604D01*
X583035352Y-134293604D02*
X583159161Y-134293604D01*
X583159161Y-134293604D02*
X583344876Y-134355509D01*
X583344876Y-134355509D02*
X583406780Y-134417414D01*
D10*
D11*
X582663923Y-185593604D02*
X582663923Y-184293604D01*
X582663923Y-184293604D02*
X582973447Y-184293604D01*
X582973447Y-184293604D02*
X583159161Y-184355509D01*
X583159161Y-184355509D02*
X583282971Y-184479319D01*
X583282971Y-184479319D02*
X583344876Y-184603128D01*
X583344876Y-184603128D02*
X583406780Y-184850747D01*
X583406780Y-184850747D02*
X583406780Y-185036461D01*
X583406780Y-185036461D02*
X583344876Y-185284080D01*
X583344876Y-185284080D02*
X583282971Y-185407890D01*
X583282971Y-185407890D02*
X583159161Y-185531700D01*
X583159161Y-185531700D02*
X582973447Y-185593604D01*
X582973447Y-185593604D02*
X582663923Y-185593604D01*
D10*
D11*
X582725828Y-234912652D02*
X583159162Y-234912652D01*
X583344876Y-235593604D02*
X582725828Y-235593604D01*
X582725828Y-235593604D02*
X582725828Y-234293604D01*
X582725828Y-234293604D02*
X583344876Y-234293604D01*
D10*
D11*
X583190114Y-284912652D02*
X582756780Y-284912652D01*
X582756780Y-285593604D02*
X582756780Y-284293604D01*
X582756780Y-284293604D02*
X583375828Y-284293604D01*
D10*
D11*
X583344876Y-334355509D02*
X583221066Y-334293604D01*
X583221066Y-334293604D02*
X583035352Y-334293604D01*
X583035352Y-334293604D02*
X582849638Y-334355509D01*
X582849638Y-334355509D02*
X582725828Y-334479319D01*
X582725828Y-334479319D02*
X582663923Y-334603128D01*
X582663923Y-334603128D02*
X582602019Y-334850747D01*
X582602019Y-334850747D02*
X582602019Y-335036461D01*
X582602019Y-335036461D02*
X582663923Y-335284080D01*
X582663923Y-335284080D02*
X582725828Y-335407890D01*
X582725828Y-335407890D02*
X582849638Y-335531700D01*
X582849638Y-335531700D02*
X583035352Y-335593604D01*
X583035352Y-335593604D02*
X583159161Y-335593604D01*
X583159161Y-335593604D02*
X583344876Y-335531700D01*
X583344876Y-335531700D02*
X583406780Y-335469795D01*
X583406780Y-335469795D02*
X583406780Y-335036461D01*
X583406780Y-335036461D02*
X583159161Y-335036461D01*
D10*
D11*
X582632971Y-385593604D02*
X582632971Y-384293604D01*
X582632971Y-384912652D02*
X583375828Y-384912652D01*
X583375828Y-385593604D02*
X583375828Y-384293604D01*
D10*
D11*
X497460226Y-403775128D02*
X497460226Y-402275128D01*
X497460226Y-402275128D02*
X497817369Y-402275128D01*
X497817369Y-402275128D02*
X498031655Y-402346557D01*
X498031655Y-402346557D02*
X498174512Y-402489414D01*
X498174512Y-402489414D02*
X498245941Y-402632271D01*
X498245941Y-402632271D02*
X498317369Y-402917985D01*
X498317369Y-402917985D02*
X498317369Y-403132271D01*
X498317369Y-403132271D02*
X498245941Y-403417985D01*
X498245941Y-403417985D02*
X498174512Y-403560842D01*
X498174512Y-403560842D02*
X498031655Y-403703700D01*
X498031655Y-403703700D02*
X497817369Y-403775128D01*
X497817369Y-403775128D02*
X497460226Y-403775128D01*
X499603084Y-403775128D02*
X499603084Y-402989414D01*
X499603084Y-402989414D02*
X499531655Y-402846557D01*
X499531655Y-402846557D02*
X499388798Y-402775128D01*
X499388798Y-402775128D02*
X499103084Y-402775128D01*
X499103084Y-402775128D02*
X498960226Y-402846557D01*
X499603084Y-403703700D02*
X499460226Y-403775128D01*
X499460226Y-403775128D02*
X499103084Y-403775128D01*
X499103084Y-403775128D02*
X498960226Y-403703700D01*
X498960226Y-403703700D02*
X498888798Y-403560842D01*
X498888798Y-403560842D02*
X498888798Y-403417985D01*
X498888798Y-403417985D02*
X498960226Y-403275128D01*
X498960226Y-403275128D02*
X499103084Y-403203700D01*
X499103084Y-403203700D02*
X499460226Y-403203700D01*
X499460226Y-403203700D02*
X499603084Y-403132271D01*
X500103084Y-402775128D02*
X500674512Y-402775128D01*
X500317369Y-402275128D02*
X500317369Y-403560842D01*
X500317369Y-403560842D02*
X500388798Y-403703700D01*
X500388798Y-403703700D02*
X500531655Y-403775128D01*
X500531655Y-403775128D02*
X500674512Y-403775128D01*
X501745941Y-403703700D02*
X501603084Y-403775128D01*
X501603084Y-403775128D02*
X501317370Y-403775128D01*
X501317370Y-403775128D02*
X501174512Y-403703700D01*
X501174512Y-403703700D02*
X501103084Y-403560842D01*
X501103084Y-403560842D02*
X501103084Y-402989414D01*
X501103084Y-402989414D02*
X501174512Y-402846557D01*
X501174512Y-402846557D02*
X501317370Y-402775128D01*
X501317370Y-402775128D02*
X501603084Y-402775128D01*
X501603084Y-402775128D02*
X501745941Y-402846557D01*
X501745941Y-402846557D02*
X501817370Y-402989414D01*
X501817370Y-402989414D02*
X501817370Y-403132271D01*
X501817370Y-403132271D02*
X501103084Y-403275128D01*
X502460226Y-403632271D02*
X502531655Y-403703700D01*
X502531655Y-403703700D02*
X502460226Y-403775128D01*
X502460226Y-403775128D02*
X502388798Y-403703700D01*
X502388798Y-403703700D02*
X502460226Y-403632271D01*
X502460226Y-403632271D02*
X502460226Y-403775128D01*
X502460226Y-402846557D02*
X502531655Y-402917985D01*
X502531655Y-402917985D02*
X502460226Y-402989414D01*
X502460226Y-402989414D02*
X502388798Y-402917985D01*
X502388798Y-402917985D02*
X502460226Y-402846557D01*
X502460226Y-402846557D02*
X502460226Y-402989414D01*
X504174512Y-402275128D02*
X505103084Y-402275128D01*
X505103084Y-402275128D02*
X504603084Y-402846557D01*
X504603084Y-402846557D02*
X504817369Y-402846557D01*
X504817369Y-402846557D02*
X504960227Y-402917985D01*
X504960227Y-402917985D02*
X505031655Y-402989414D01*
X505031655Y-402989414D02*
X505103084Y-403132271D01*
X505103084Y-403132271D02*
X505103084Y-403489414D01*
X505103084Y-403489414D02*
X505031655Y-403632271D01*
X505031655Y-403632271D02*
X504960227Y-403703700D01*
X504960227Y-403703700D02*
X504817369Y-403775128D01*
X504817369Y-403775128D02*
X504388798Y-403775128D01*
X504388798Y-403775128D02*
X504245941Y-403703700D01*
X504245941Y-403703700D02*
X504174512Y-403632271D01*
X507531655Y-403775128D02*
X507531655Y-402989414D01*
X507531655Y-402989414D02*
X507460226Y-402846557D01*
X507460226Y-402846557D02*
X507317369Y-402775128D01*
X507317369Y-402775128D02*
X507031655Y-402775128D01*
X507031655Y-402775128D02*
X506888797Y-402846557D01*
X507531655Y-403703700D02*
X507388797Y-403775128D01*
X507388797Y-403775128D02*
X507031655Y-403775128D01*
X507031655Y-403775128D02*
X506888797Y-403703700D01*
X506888797Y-403703700D02*
X506817369Y-403560842D01*
X506817369Y-403560842D02*
X506817369Y-403417985D01*
X506817369Y-403417985D02*
X506888797Y-403275128D01*
X506888797Y-403275128D02*
X507031655Y-403203700D01*
X507031655Y-403203700D02*
X507388797Y-403203700D01*
X507388797Y-403203700D02*
X507531655Y-403132271D01*
X508888798Y-402775128D02*
X508888798Y-403775128D01*
X508245940Y-402775128D02*
X508245940Y-403560842D01*
X508245940Y-403560842D02*
X508317369Y-403703700D01*
X508317369Y-403703700D02*
X508460226Y-403775128D01*
X508460226Y-403775128D02*
X508674512Y-403775128D01*
X508674512Y-403775128D02*
X508817369Y-403703700D01*
X508817369Y-403703700D02*
X508888798Y-403632271D01*
X510245941Y-402775128D02*
X510245941Y-403989414D01*
X510245941Y-403989414D02*
X510174512Y-404132271D01*
X510174512Y-404132271D02*
X510103083Y-404203700D01*
X510103083Y-404203700D02*
X509960226Y-404275128D01*
X509960226Y-404275128D02*
X509745941Y-404275128D01*
X509745941Y-404275128D02*
X509603083Y-404203700D01*
X510245941Y-403703700D02*
X510103083Y-403775128D01*
X510103083Y-403775128D02*
X509817369Y-403775128D01*
X509817369Y-403775128D02*
X509674512Y-403703700D01*
X509674512Y-403703700D02*
X509603083Y-403632271D01*
X509603083Y-403632271D02*
X509531655Y-403489414D01*
X509531655Y-403489414D02*
X509531655Y-403060842D01*
X509531655Y-403060842D02*
X509603083Y-402917985D01*
X509603083Y-402917985D02*
X509674512Y-402846557D01*
X509674512Y-402846557D02*
X509817369Y-402775128D01*
X509817369Y-402775128D02*
X510103083Y-402775128D01*
X510103083Y-402775128D02*
X510245941Y-402846557D01*
X512031655Y-402417985D02*
X512103083Y-402346557D01*
X512103083Y-402346557D02*
X512245941Y-402275128D01*
X512245941Y-402275128D02*
X512603083Y-402275128D01*
X512603083Y-402275128D02*
X512745941Y-402346557D01*
X512745941Y-402346557D02*
X512817369Y-402417985D01*
X512817369Y-402417985D02*
X512888798Y-402560842D01*
X512888798Y-402560842D02*
X512888798Y-402703700D01*
X512888798Y-402703700D02*
X512817369Y-402917985D01*
X512817369Y-402917985D02*
X511960226Y-403775128D01*
X511960226Y-403775128D02*
X512888798Y-403775128D01*
X513817369Y-402275128D02*
X513960226Y-402275128D01*
X513960226Y-402275128D02*
X514103083Y-402346557D01*
X514103083Y-402346557D02*
X514174512Y-402417985D01*
X514174512Y-402417985D02*
X514245940Y-402560842D01*
X514245940Y-402560842D02*
X514317369Y-402846557D01*
X514317369Y-402846557D02*
X514317369Y-403203700D01*
X514317369Y-403203700D02*
X514245940Y-403489414D01*
X514245940Y-403489414D02*
X514174512Y-403632271D01*
X514174512Y-403632271D02*
X514103083Y-403703700D01*
X514103083Y-403703700D02*
X513960226Y-403775128D01*
X513960226Y-403775128D02*
X513817369Y-403775128D01*
X513817369Y-403775128D02*
X513674512Y-403703700D01*
X513674512Y-403703700D02*
X513603083Y-403632271D01*
X513603083Y-403632271D02*
X513531654Y-403489414D01*
X513531654Y-403489414D02*
X513460226Y-403203700D01*
X513460226Y-403203700D02*
X513460226Y-402846557D01*
X513460226Y-402846557D02*
X513531654Y-402560842D01*
X513531654Y-402560842D02*
X513603083Y-402417985D01*
X513603083Y-402417985D02*
X513674512Y-402346557D01*
X513674512Y-402346557D02*
X513817369Y-402275128D01*
X515745940Y-403775128D02*
X514888797Y-403775128D01*
X515317368Y-403775128D02*
X515317368Y-402275128D01*
X515317368Y-402275128D02*
X515174511Y-402489414D01*
X515174511Y-402489414D02*
X515031654Y-402632271D01*
X515031654Y-402632271D02*
X514888797Y-402703700D01*
X516317368Y-402417985D02*
X516388796Y-402346557D01*
X516388796Y-402346557D02*
X516531654Y-402275128D01*
X516531654Y-402275128D02*
X516888796Y-402275128D01*
X516888796Y-402275128D02*
X517031654Y-402346557D01*
X517031654Y-402346557D02*
X517103082Y-402417985D01*
X517103082Y-402417985D02*
X517174511Y-402560842D01*
X517174511Y-402560842D02*
X517174511Y-402703700D01*
X517174511Y-402703700D02*
X517103082Y-402917985D01*
X517103082Y-402917985D02*
X516245939Y-403775128D01*
X516245939Y-403775128D02*
X517174511Y-403775128D01*
D10*
D11*
X474004400Y-404489000D02*
X582004400Y-404489000D01*
D10*
D11*
X475460226Y-406575128D02*
X475460226Y-405075128D01*
X476317369Y-406575128D02*
X475674512Y-405717985D01*
X476317369Y-405075128D02*
X475460226Y-405932271D01*
X476960226Y-406575128D02*
X476960226Y-405575128D01*
X476960226Y-405075128D02*
X476888798Y-405146557D01*
X476888798Y-405146557D02*
X476960226Y-405217985D01*
X476960226Y-405217985D02*
X477031655Y-405146557D01*
X477031655Y-405146557D02*
X476960226Y-405075128D01*
X476960226Y-405075128D02*
X476960226Y-405217985D01*
X478531655Y-406432271D02*
X478460227Y-406503700D01*
X478460227Y-406503700D02*
X478245941Y-406575128D01*
X478245941Y-406575128D02*
X478103084Y-406575128D01*
X478103084Y-406575128D02*
X477888798Y-406503700D01*
X477888798Y-406503700D02*
X477745941Y-406360842D01*
X477745941Y-406360842D02*
X477674512Y-406217985D01*
X477674512Y-406217985D02*
X477603084Y-405932271D01*
X477603084Y-405932271D02*
X477603084Y-405717985D01*
X477603084Y-405717985D02*
X477674512Y-405432271D01*
X477674512Y-405432271D02*
X477745941Y-405289414D01*
X477745941Y-405289414D02*
X477888798Y-405146557D01*
X477888798Y-405146557D02*
X478103084Y-405075128D01*
X478103084Y-405075128D02*
X478245941Y-405075128D01*
X478245941Y-405075128D02*
X478460227Y-405146557D01*
X478460227Y-405146557D02*
X478531655Y-405217985D01*
X479817370Y-406575128D02*
X479817370Y-405789414D01*
X479817370Y-405789414D02*
X479745941Y-405646557D01*
X479745941Y-405646557D02*
X479603084Y-405575128D01*
X479603084Y-405575128D02*
X479317370Y-405575128D01*
X479317370Y-405575128D02*
X479174512Y-405646557D01*
X479817370Y-406503700D02*
X479674512Y-406575128D01*
X479674512Y-406575128D02*
X479317370Y-406575128D01*
X479317370Y-406575128D02*
X479174512Y-406503700D01*
X479174512Y-406503700D02*
X479103084Y-406360842D01*
X479103084Y-406360842D02*
X479103084Y-406217985D01*
X479103084Y-406217985D02*
X479174512Y-406075128D01*
X479174512Y-406075128D02*
X479317370Y-406003700D01*
X479317370Y-406003700D02*
X479674512Y-406003700D01*
X479674512Y-406003700D02*
X479817370Y-405932271D01*
X481174513Y-406575128D02*
X481174513Y-405075128D01*
X481174513Y-406503700D02*
X481031655Y-406575128D01*
X481031655Y-406575128D02*
X480745941Y-406575128D01*
X480745941Y-406575128D02*
X480603084Y-406503700D01*
X480603084Y-406503700D02*
X480531655Y-406432271D01*
X480531655Y-406432271D02*
X480460227Y-406289414D01*
X480460227Y-406289414D02*
X480460227Y-405860842D01*
X480460227Y-405860842D02*
X480531655Y-405717985D01*
X480531655Y-405717985D02*
X480603084Y-405646557D01*
X480603084Y-405646557D02*
X480745941Y-405575128D01*
X480745941Y-405575128D02*
X481031655Y-405575128D01*
X481031655Y-405575128D02*
X481174513Y-405646557D01*
X483031655Y-405789414D02*
X483531655Y-405789414D01*
X483745941Y-406575128D02*
X483031655Y-406575128D01*
X483031655Y-406575128D02*
X483031655Y-405075128D01*
X483031655Y-405075128D02*
X483745941Y-405075128D01*
X484388798Y-406432271D02*
X484460227Y-406503700D01*
X484460227Y-406503700D02*
X484388798Y-406575128D01*
X484388798Y-406575128D02*
X484317370Y-406503700D01*
X484317370Y-406503700D02*
X484388798Y-406432271D01*
X484388798Y-406432271D02*
X484388798Y-406575128D01*
X485103084Y-406575128D02*
X485103084Y-405075128D01*
X485103084Y-405075128D02*
X485460227Y-405075128D01*
X485460227Y-405075128D02*
X485674513Y-405146557D01*
X485674513Y-405146557D02*
X485817370Y-405289414D01*
X485817370Y-405289414D02*
X485888799Y-405432271D01*
X485888799Y-405432271D02*
X485960227Y-405717985D01*
X485960227Y-405717985D02*
X485960227Y-405932271D01*
X485960227Y-405932271D02*
X485888799Y-406217985D01*
X485888799Y-406217985D02*
X485817370Y-406360842D01*
X485817370Y-406360842D02*
X485674513Y-406503700D01*
X485674513Y-406503700D02*
X485460227Y-406575128D01*
X485460227Y-406575128D02*
X485103084Y-406575128D01*
X486603084Y-406432271D02*
X486674513Y-406503700D01*
X486674513Y-406503700D02*
X486603084Y-406575128D01*
X486603084Y-406575128D02*
X486531656Y-406503700D01*
X486531656Y-406503700D02*
X486603084Y-406432271D01*
X486603084Y-406432271D02*
X486603084Y-406575128D01*
X487245942Y-406146557D02*
X487960228Y-406146557D01*
X487103085Y-406575128D02*
X487603085Y-405075128D01*
X487603085Y-405075128D02*
X488103085Y-406575128D01*
X488603084Y-406432271D02*
X488674513Y-406503700D01*
X488674513Y-406503700D02*
X488603084Y-406575128D01*
X488603084Y-406575128D02*
X488531656Y-406503700D01*
X488531656Y-406503700D02*
X488603084Y-406432271D01*
X488603084Y-406432271D02*
X488603084Y-406575128D01*
X490531656Y-406575128D02*
X490817370Y-406575128D01*
X490817370Y-406575128D02*
X490960227Y-406503700D01*
X490960227Y-406503700D02*
X491031656Y-406432271D01*
X491031656Y-406432271D02*
X491174513Y-406217985D01*
X491174513Y-406217985D02*
X491245942Y-405932271D01*
X491245942Y-405932271D02*
X491245942Y-405360842D01*
X491245942Y-405360842D02*
X491174513Y-405217985D01*
X491174513Y-405217985D02*
X491103085Y-405146557D01*
X491103085Y-405146557D02*
X490960227Y-405075128D01*
X490960227Y-405075128D02*
X490674513Y-405075128D01*
X490674513Y-405075128D02*
X490531656Y-405146557D01*
X490531656Y-405146557D02*
X490460227Y-405217985D01*
X490460227Y-405217985D02*
X490388799Y-405360842D01*
X490388799Y-405360842D02*
X490388799Y-405717985D01*
X490388799Y-405717985D02*
X490460227Y-405860842D01*
X490460227Y-405860842D02*
X490531656Y-405932271D01*
X490531656Y-405932271D02*
X490674513Y-406003700D01*
X490674513Y-406003700D02*
X490960227Y-406003700D01*
X490960227Y-406003700D02*
X491103085Y-405932271D01*
X491103085Y-405932271D02*
X491174513Y-405860842D01*
X491174513Y-405860842D02*
X491245942Y-405717985D01*
X491888798Y-406432271D02*
X491960227Y-406503700D01*
X491960227Y-406503700D02*
X491888798Y-406575128D01*
X491888798Y-406575128D02*
X491817370Y-406503700D01*
X491817370Y-406503700D02*
X491888798Y-406432271D01*
X491888798Y-406432271D02*
X491888798Y-406575128D01*
X492888799Y-405075128D02*
X493031656Y-405075128D01*
X493031656Y-405075128D02*
X493174513Y-405146557D01*
X493174513Y-405146557D02*
X493245942Y-405217985D01*
X493245942Y-405217985D02*
X493317370Y-405360842D01*
X493317370Y-405360842D02*
X493388799Y-405646557D01*
X493388799Y-405646557D02*
X493388799Y-406003700D01*
X493388799Y-406003700D02*
X493317370Y-406289414D01*
X493317370Y-406289414D02*
X493245942Y-406432271D01*
X493245942Y-406432271D02*
X493174513Y-406503700D01*
X493174513Y-406503700D02*
X493031656Y-406575128D01*
X493031656Y-406575128D02*
X492888799Y-406575128D01*
X492888799Y-406575128D02*
X492745942Y-406503700D01*
X492745942Y-406503700D02*
X492674513Y-406432271D01*
X492674513Y-406432271D02*
X492603084Y-406289414D01*
X492603084Y-406289414D02*
X492531656Y-406003700D01*
X492531656Y-406003700D02*
X492531656Y-405646557D01*
X492531656Y-405646557D02*
X492603084Y-405360842D01*
X492603084Y-405360842D02*
X492674513Y-405217985D01*
X492674513Y-405217985D02*
X492745942Y-405146557D01*
X492745942Y-405146557D02*
X492888799Y-405075128D01*
X494031655Y-406432271D02*
X494103084Y-406503700D01*
X494103084Y-406503700D02*
X494031655Y-406575128D01*
X494031655Y-406575128D02*
X493960227Y-406503700D01*
X493960227Y-406503700D02*
X494031655Y-406432271D01*
X494031655Y-406432271D02*
X494031655Y-406575128D01*
X494603084Y-405075128D02*
X495603084Y-405075128D01*
X495603084Y-405075128D02*
X494960227Y-406575128D01*
D10*
D11*
X474004400Y-401489000D02*
X582004400Y-401489000D01*
D10*
D12*
X561416053Y-403767328D02*
X560916053Y-403053042D01*
X560558910Y-403767328D02*
X560558910Y-402267328D01*
X560558910Y-402267328D02*
X561130339Y-402267328D01*
X561130339Y-402267328D02*
X561273196Y-402338757D01*
X561273196Y-402338757D02*
X561344625Y-402410185D01*
X561344625Y-402410185D02*
X561416053Y-402553042D01*
X561416053Y-402553042D02*
X561416053Y-402767328D01*
X561416053Y-402767328D02*
X561344625Y-402910185D01*
X561344625Y-402910185D02*
X561273196Y-402981614D01*
X561273196Y-402981614D02*
X561130339Y-403053042D01*
X561130339Y-403053042D02*
X560558910Y-403053042D01*
X562630339Y-403695900D02*
X562487482Y-403767328D01*
X562487482Y-403767328D02*
X562201768Y-403767328D01*
X562201768Y-403767328D02*
X562058910Y-403695900D01*
X562058910Y-403695900D02*
X561987482Y-403553042D01*
X561987482Y-403553042D02*
X561987482Y-402981614D01*
X561987482Y-402981614D02*
X562058910Y-402838757D01*
X562058910Y-402838757D02*
X562201768Y-402767328D01*
X562201768Y-402767328D02*
X562487482Y-402767328D01*
X562487482Y-402767328D02*
X562630339Y-402838757D01*
X562630339Y-402838757D02*
X562701768Y-402981614D01*
X562701768Y-402981614D02*
X562701768Y-403124471D01*
X562701768Y-403124471D02*
X561987482Y-403267328D01*
X563201767Y-402767328D02*
X563558910Y-403767328D01*
X563558910Y-403767328D02*
X563916053Y-402767328D01*
X564487481Y-403624471D02*
X564558910Y-403695900D01*
X564558910Y-403695900D02*
X564487481Y-403767328D01*
X564487481Y-403767328D02*
X564416053Y-403695900D01*
X564416053Y-403695900D02*
X564487481Y-403624471D01*
X564487481Y-403624471D02*
X564487481Y-403767328D01*
X564487481Y-402838757D02*
X564558910Y-402910185D01*
X564558910Y-402910185D02*
X564487481Y-402981614D01*
X564487481Y-402981614D02*
X564416053Y-402910185D01*
X564416053Y-402910185D02*
X564487481Y-402838757D01*
X564487481Y-402838757D02*
X564487481Y-402981614D01*
D10*
D11*
X475388798Y-403703700D02*
X475603084Y-403775128D01*
X475603084Y-403775128D02*
X475960226Y-403775128D01*
X475960226Y-403775128D02*
X476103084Y-403703700D01*
X476103084Y-403703700D02*
X476174512Y-403632271D01*
X476174512Y-403632271D02*
X476245941Y-403489414D01*
X476245941Y-403489414D02*
X476245941Y-403346557D01*
X476245941Y-403346557D02*
X476174512Y-403203700D01*
X476174512Y-403203700D02*
X476103084Y-403132271D01*
X476103084Y-403132271D02*
X475960226Y-403060842D01*
X475960226Y-403060842D02*
X475674512Y-402989414D01*
X475674512Y-402989414D02*
X475531655Y-402917985D01*
X475531655Y-402917985D02*
X475460226Y-402846557D01*
X475460226Y-402846557D02*
X475388798Y-402703700D01*
X475388798Y-402703700D02*
X475388798Y-402560842D01*
X475388798Y-402560842D02*
X475460226Y-402417985D01*
X475460226Y-402417985D02*
X475531655Y-402346557D01*
X475531655Y-402346557D02*
X475674512Y-402275128D01*
X475674512Y-402275128D02*
X476031655Y-402275128D01*
X476031655Y-402275128D02*
X476245941Y-402346557D01*
X476888797Y-403775128D02*
X476888797Y-402775128D01*
X476888797Y-402275128D02*
X476817369Y-402346557D01*
X476817369Y-402346557D02*
X476888797Y-402417985D01*
X476888797Y-402417985D02*
X476960226Y-402346557D01*
X476960226Y-402346557D02*
X476888797Y-402275128D01*
X476888797Y-402275128D02*
X476888797Y-402417985D01*
X477460226Y-402775128D02*
X478245941Y-402775128D01*
X478245941Y-402775128D02*
X477460226Y-403775128D01*
X477460226Y-403775128D02*
X478245941Y-403775128D01*
X479388798Y-403703700D02*
X479245941Y-403775128D01*
X479245941Y-403775128D02*
X478960227Y-403775128D01*
X478960227Y-403775128D02*
X478817369Y-403703700D01*
X478817369Y-403703700D02*
X478745941Y-403560842D01*
X478745941Y-403560842D02*
X478745941Y-402989414D01*
X478745941Y-402989414D02*
X478817369Y-402846557D01*
X478817369Y-402846557D02*
X478960227Y-402775128D01*
X478960227Y-402775128D02*
X479245941Y-402775128D01*
X479245941Y-402775128D02*
X479388798Y-402846557D01*
X479388798Y-402846557D02*
X479460227Y-402989414D01*
X479460227Y-402989414D02*
X479460227Y-403132271D01*
X479460227Y-403132271D02*
X478745941Y-403275128D01*
X480103083Y-403632271D02*
X480174512Y-403703700D01*
X480174512Y-403703700D02*
X480103083Y-403775128D01*
X480103083Y-403775128D02*
X480031655Y-403703700D01*
X480031655Y-403703700D02*
X480103083Y-403632271D01*
X480103083Y-403632271D02*
X480103083Y-403775128D01*
X480103083Y-402846557D02*
X480174512Y-402917985D01*
X480174512Y-402917985D02*
X480103083Y-402989414D01*
X480103083Y-402989414D02*
X480031655Y-402917985D01*
X480031655Y-402917985D02*
X480103083Y-402846557D01*
X480103083Y-402846557D02*
X480103083Y-402989414D01*
X481888798Y-403346557D02*
X482603084Y-403346557D01*
X481745941Y-403775128D02*
X482245941Y-402275128D01*
X482245941Y-402275128D02*
X482745941Y-403775128D01*
X483174512Y-402417985D02*
X483245940Y-402346557D01*
X483245940Y-402346557D02*
X483388798Y-402275128D01*
X483388798Y-402275128D02*
X483745940Y-402275128D01*
X483745940Y-402275128D02*
X483888798Y-402346557D01*
X483888798Y-402346557D02*
X483960226Y-402417985D01*
X483960226Y-402417985D02*
X484031655Y-402560842D01*
X484031655Y-402560842D02*
X484031655Y-402703700D01*
X484031655Y-402703700D02*
X483960226Y-402917985D01*
X483960226Y-402917985D02*
X483103083Y-403775128D01*
X483103083Y-403775128D02*
X484031655Y-403775128D01*
D10*
D11*
X560460226Y-406575128D02*
X560460226Y-405075128D01*
X561817370Y-406575128D02*
X561817370Y-405075128D01*
X561817370Y-406503700D02*
X561674512Y-406575128D01*
X561674512Y-406575128D02*
X561388798Y-406575128D01*
X561388798Y-406575128D02*
X561245941Y-406503700D01*
X561245941Y-406503700D02*
X561174512Y-406432271D01*
X561174512Y-406432271D02*
X561103084Y-406289414D01*
X561103084Y-406289414D02*
X561103084Y-405860842D01*
X561103084Y-405860842D02*
X561174512Y-405717985D01*
X561174512Y-405717985D02*
X561245941Y-405646557D01*
X561245941Y-405646557D02*
X561388798Y-405575128D01*
X561388798Y-405575128D02*
X561674512Y-405575128D01*
X561674512Y-405575128D02*
X561817370Y-405646557D01*
X562531655Y-406432271D02*
X562603084Y-406503700D01*
X562603084Y-406503700D02*
X562531655Y-406575128D01*
X562531655Y-406575128D02*
X562460227Y-406503700D01*
X562460227Y-406503700D02*
X562531655Y-406432271D01*
X562531655Y-406432271D02*
X562531655Y-406575128D01*
X562531655Y-405646557D02*
X562603084Y-405717985D01*
X562603084Y-405717985D02*
X562531655Y-405789414D01*
X562531655Y-405789414D02*
X562460227Y-405717985D01*
X562460227Y-405717985D02*
X562531655Y-405646557D01*
X562531655Y-405646557D02*
X562531655Y-405789414D01*
X565174513Y-406575128D02*
X564317370Y-406575128D01*
X564745941Y-406575128D02*
X564745941Y-405075128D01*
X564745941Y-405075128D02*
X564603084Y-405289414D01*
X564603084Y-405289414D02*
X564460227Y-405432271D01*
X564460227Y-405432271D02*
X564317370Y-405503700D01*
X566888798Y-405003700D02*
X565603084Y-406932271D01*
X567245941Y-405075128D02*
X568245941Y-405075128D01*
X568245941Y-405075128D02*
X567603084Y-406575128D01*
D10*
D11*
X474004400Y-397489000D02*
X582004400Y-397489000D01*
D10*
D13*
X475696128Y-398193438D02*
X476838985Y-398193438D01*
X476017557Y-400193438D02*
X476267557Y-398193438D01*
X477255652Y-400193438D02*
X477422319Y-398860104D01*
X477505652Y-398193438D02*
X477398509Y-398288676D01*
X477398509Y-398288676D02*
X477481843Y-398383914D01*
X477481843Y-398383914D02*
X477588986Y-398288676D01*
X477588986Y-398288676D02*
X477505652Y-398193438D01*
X477505652Y-398193438D02*
X477481843Y-398383914D01*
X478088986Y-398860104D02*
X478850890Y-398860104D01*
X478458033Y-398193438D02*
X478243748Y-399907723D01*
X478243748Y-399907723D02*
X478315176Y-400098200D01*
X478315176Y-400098200D02*
X478493748Y-400193438D01*
X478493748Y-400193438D02*
X478684224Y-400193438D01*
X479636605Y-400193438D02*
X479458033Y-400098200D01*
X479458033Y-400098200D02*
X479386605Y-399907723D01*
X479386605Y-399907723D02*
X479600890Y-398193438D01*
X481172319Y-400098200D02*
X480969938Y-400193438D01*
X480969938Y-400193438D02*
X480588985Y-400193438D01*
X480588985Y-400193438D02*
X480410414Y-400098200D01*
X480410414Y-400098200D02*
X480338985Y-399907723D01*
X480338985Y-399907723D02*
X480434224Y-399145819D01*
X480434224Y-399145819D02*
X480553271Y-398955342D01*
X480553271Y-398955342D02*
X480755652Y-398860104D01*
X480755652Y-398860104D02*
X481136604Y-398860104D01*
X481136604Y-398860104D02*
X481315176Y-398955342D01*
X481315176Y-398955342D02*
X481386604Y-399145819D01*
X481386604Y-399145819D02*
X481362795Y-399336295D01*
X481362795Y-399336295D02*
X480386604Y-399526771D01*
X482136605Y-400002961D02*
X482219938Y-400098200D01*
X482219938Y-400098200D02*
X482112795Y-400193438D01*
X482112795Y-400193438D02*
X482029462Y-400098200D01*
X482029462Y-400098200D02*
X482136605Y-400002961D01*
X482136605Y-400002961D02*
X482112795Y-400193438D01*
X482267557Y-398955342D02*
X482350890Y-399050580D01*
X482350890Y-399050580D02*
X482243748Y-399145819D01*
X482243748Y-399145819D02*
X482160414Y-399050580D01*
X482160414Y-399050580D02*
X482267557Y-398955342D01*
X482267557Y-398955342D02*
X482243748Y-399145819D01*
D10*
D11*
X475960226Y-395589414D02*
X475460226Y-395589414D01*
X475460226Y-396375128D02*
X475460226Y-394875128D01*
X475460226Y-394875128D02*
X476174512Y-394875128D01*
X476745940Y-396375128D02*
X476745940Y-395375128D01*
X476745940Y-394875128D02*
X476674512Y-394946557D01*
X476674512Y-394946557D02*
X476745940Y-395017985D01*
X476745940Y-395017985D02*
X476817369Y-394946557D01*
X476817369Y-394946557D02*
X476745940Y-394875128D01*
X476745940Y-394875128D02*
X476745940Y-395017985D01*
X477674512Y-396375128D02*
X477531655Y-396303700D01*
X477531655Y-396303700D02*
X477460226Y-396160842D01*
X477460226Y-396160842D02*
X477460226Y-394875128D01*
X478817369Y-396303700D02*
X478674512Y-396375128D01*
X478674512Y-396375128D02*
X478388798Y-396375128D01*
X478388798Y-396375128D02*
X478245940Y-396303700D01*
X478245940Y-396303700D02*
X478174512Y-396160842D01*
X478174512Y-396160842D02*
X478174512Y-395589414D01*
X478174512Y-395589414D02*
X478245940Y-395446557D01*
X478245940Y-395446557D02*
X478388798Y-395375128D01*
X478388798Y-395375128D02*
X478674512Y-395375128D01*
X478674512Y-395375128D02*
X478817369Y-395446557D01*
X478817369Y-395446557D02*
X478888798Y-395589414D01*
X478888798Y-395589414D02*
X478888798Y-395732271D01*
X478888798Y-395732271D02*
X478174512Y-395875128D01*
X479531654Y-396232271D02*
X479603083Y-396303700D01*
X479603083Y-396303700D02*
X479531654Y-396375128D01*
X479531654Y-396375128D02*
X479460226Y-396303700D01*
X479460226Y-396303700D02*
X479531654Y-396232271D01*
X479531654Y-396232271D02*
X479531654Y-396375128D01*
X479531654Y-395446557D02*
X479603083Y-395517985D01*
X479603083Y-395517985D02*
X479531654Y-395589414D01*
X479531654Y-395589414D02*
X479460226Y-395517985D01*
X479460226Y-395517985D02*
X479531654Y-395446557D01*
X479531654Y-395446557D02*
X479531654Y-395589414D01*
X481388797Y-396375128D02*
X481388797Y-394875128D01*
X481388797Y-395446557D02*
X481531655Y-395375128D01*
X481531655Y-395375128D02*
X481817369Y-395375128D01*
X481817369Y-395375128D02*
X481960226Y-395446557D01*
X481960226Y-395446557D02*
X482031655Y-395517985D01*
X482031655Y-395517985D02*
X482103083Y-395660842D01*
X482103083Y-395660842D02*
X482103083Y-396089414D01*
X482103083Y-396089414D02*
X482031655Y-396232271D01*
X482031655Y-396232271D02*
X481960226Y-396303700D01*
X481960226Y-396303700D02*
X481817369Y-396375128D01*
X481817369Y-396375128D02*
X481531655Y-396375128D01*
X481531655Y-396375128D02*
X481388797Y-396303700D01*
X482960226Y-396375128D02*
X482817369Y-396303700D01*
X482817369Y-396303700D02*
X482745940Y-396160842D01*
X482745940Y-396160842D02*
X482745940Y-394875128D01*
X484174512Y-396375128D02*
X484174512Y-395589414D01*
X484174512Y-395589414D02*
X484103083Y-395446557D01*
X484103083Y-395446557D02*
X483960226Y-395375128D01*
X483960226Y-395375128D02*
X483674512Y-395375128D01*
X483674512Y-395375128D02*
X483531654Y-395446557D01*
X484174512Y-396303700D02*
X484031654Y-396375128D01*
X484031654Y-396375128D02*
X483674512Y-396375128D01*
X483674512Y-396375128D02*
X483531654Y-396303700D01*
X483531654Y-396303700D02*
X483460226Y-396160842D01*
X483460226Y-396160842D02*
X483460226Y-396017985D01*
X483460226Y-396017985D02*
X483531654Y-395875128D01*
X483531654Y-395875128D02*
X483674512Y-395803700D01*
X483674512Y-395803700D02*
X484031654Y-395803700D01*
X484031654Y-395803700D02*
X484174512Y-395732271D01*
X484817369Y-396303700D02*
X484960226Y-396375128D01*
X484960226Y-396375128D02*
X485245940Y-396375128D01*
X485245940Y-396375128D02*
X485388797Y-396303700D01*
X485388797Y-396303700D02*
X485460226Y-396160842D01*
X485460226Y-396160842D02*
X485460226Y-396089414D01*
X485460226Y-396089414D02*
X485388797Y-395946557D01*
X485388797Y-395946557D02*
X485245940Y-395875128D01*
X485245940Y-395875128D02*
X485031655Y-395875128D01*
X485031655Y-395875128D02*
X484888797Y-395803700D01*
X484888797Y-395803700D02*
X484817369Y-395660842D01*
X484817369Y-395660842D02*
X484817369Y-395589414D01*
X484817369Y-395589414D02*
X484888797Y-395446557D01*
X484888797Y-395446557D02*
X485031655Y-395375128D01*
X485031655Y-395375128D02*
X485245940Y-395375128D01*
X485245940Y-395375128D02*
X485388797Y-395446557D01*
X485888798Y-395375128D02*
X486460226Y-395375128D01*
X486103083Y-394875128D02*
X486103083Y-396160842D01*
X486103083Y-396160842D02*
X486174512Y-396303700D01*
X486174512Y-396303700D02*
X486317369Y-396375128D01*
X486317369Y-396375128D02*
X486460226Y-396375128D01*
X486960226Y-395375128D02*
X486960226Y-396875128D01*
X486960226Y-395446557D02*
X487103084Y-395375128D01*
X487103084Y-395375128D02*
X487388798Y-395375128D01*
X487388798Y-395375128D02*
X487531655Y-395446557D01*
X487531655Y-395446557D02*
X487603084Y-395517985D01*
X487603084Y-395517985D02*
X487674512Y-395660842D01*
X487674512Y-395660842D02*
X487674512Y-396089414D01*
X487674512Y-396089414D02*
X487603084Y-396232271D01*
X487603084Y-396232271D02*
X487531655Y-396303700D01*
X487531655Y-396303700D02*
X487388798Y-396375128D01*
X487388798Y-396375128D02*
X487103084Y-396375128D01*
X487103084Y-396375128D02*
X486960226Y-396303700D01*
X488960227Y-396375128D02*
X488960227Y-395589414D01*
X488960227Y-395589414D02*
X488888798Y-395446557D01*
X488888798Y-395446557D02*
X488745941Y-395375128D01*
X488745941Y-395375128D02*
X488460227Y-395375128D01*
X488460227Y-395375128D02*
X488317369Y-395446557D01*
X488960227Y-396303700D02*
X488817369Y-396375128D01*
X488817369Y-396375128D02*
X488460227Y-396375128D01*
X488460227Y-396375128D02*
X488317369Y-396303700D01*
X488317369Y-396303700D02*
X488245941Y-396160842D01*
X488245941Y-396160842D02*
X488245941Y-396017985D01*
X488245941Y-396017985D02*
X488317369Y-395875128D01*
X488317369Y-395875128D02*
X488460227Y-395803700D01*
X488460227Y-395803700D02*
X488817369Y-395803700D01*
X488817369Y-395803700D02*
X488960227Y-395732271D01*
X490317370Y-396375128D02*
X490317370Y-394875128D01*
X490317370Y-396303700D02*
X490174512Y-396375128D01*
X490174512Y-396375128D02*
X489888798Y-396375128D01*
X489888798Y-396375128D02*
X489745941Y-396303700D01*
X489745941Y-396303700D02*
X489674512Y-396232271D01*
X489674512Y-396232271D02*
X489603084Y-396089414D01*
X489603084Y-396089414D02*
X489603084Y-395660842D01*
X489603084Y-395660842D02*
X489674512Y-395517985D01*
X489674512Y-395517985D02*
X489745941Y-395446557D01*
X489745941Y-395446557D02*
X489888798Y-395375128D01*
X489888798Y-395375128D02*
X490174512Y-395375128D01*
X490174512Y-395375128D02*
X490317370Y-395446557D01*
X491031655Y-396232271D02*
X491103084Y-396303700D01*
X491103084Y-396303700D02*
X491031655Y-396375128D01*
X491031655Y-396375128D02*
X490960227Y-396303700D01*
X490960227Y-396303700D02*
X491031655Y-396232271D01*
X491031655Y-396232271D02*
X491031655Y-396375128D01*
X491745941Y-396375128D02*
X491745941Y-394875128D01*
X491888799Y-395803700D02*
X492317370Y-396375128D01*
X492317370Y-395375128D02*
X491745941Y-395946557D01*
X492960227Y-396375128D02*
X492960227Y-395375128D01*
X492960227Y-394875128D02*
X492888799Y-394946557D01*
X492888799Y-394946557D02*
X492960227Y-395017985D01*
X492960227Y-395017985D02*
X493031656Y-394946557D01*
X493031656Y-394946557D02*
X492960227Y-394875128D01*
X492960227Y-394875128D02*
X492960227Y-395017985D01*
X494317371Y-396303700D02*
X494174513Y-396375128D01*
X494174513Y-396375128D02*
X493888799Y-396375128D01*
X493888799Y-396375128D02*
X493745942Y-396303700D01*
X493745942Y-396303700D02*
X493674513Y-396232271D01*
X493674513Y-396232271D02*
X493603085Y-396089414D01*
X493603085Y-396089414D02*
X493603085Y-395660842D01*
X493603085Y-395660842D02*
X493674513Y-395517985D01*
X493674513Y-395517985D02*
X493745942Y-395446557D01*
X493745942Y-395446557D02*
X493888799Y-395375128D01*
X493888799Y-395375128D02*
X494174513Y-395375128D01*
X494174513Y-395375128D02*
X494317371Y-395446557D01*
X495603085Y-396375128D02*
X495603085Y-395589414D01*
X495603085Y-395589414D02*
X495531656Y-395446557D01*
X495531656Y-395446557D02*
X495388799Y-395375128D01*
X495388799Y-395375128D02*
X495103085Y-395375128D01*
X495103085Y-395375128D02*
X494960227Y-395446557D01*
X495603085Y-396303700D02*
X495460227Y-396375128D01*
X495460227Y-396375128D02*
X495103085Y-396375128D01*
X495103085Y-396375128D02*
X494960227Y-396303700D01*
X494960227Y-396303700D02*
X494888799Y-396160842D01*
X494888799Y-396160842D02*
X494888799Y-396017985D01*
X494888799Y-396017985D02*
X494960227Y-395875128D01*
X494960227Y-395875128D02*
X495103085Y-395803700D01*
X495103085Y-395803700D02*
X495460227Y-395803700D01*
X495460227Y-395803700D02*
X495603085Y-395732271D01*
X496960228Y-396375128D02*
X496960228Y-394875128D01*
X496960228Y-396303700D02*
X496817370Y-396375128D01*
X496817370Y-396375128D02*
X496531656Y-396375128D01*
X496531656Y-396375128D02*
X496388799Y-396303700D01*
X496388799Y-396303700D02*
X496317370Y-396232271D01*
X496317370Y-396232271D02*
X496245942Y-396089414D01*
X496245942Y-396089414D02*
X496245942Y-395660842D01*
X496245942Y-395660842D02*
X496317370Y-395517985D01*
X496317370Y-395517985D02*
X496388799Y-395446557D01*
X496388799Y-395446557D02*
X496531656Y-395375128D01*
X496531656Y-395375128D02*
X496817370Y-395375128D01*
X496817370Y-395375128D02*
X496960228Y-395446557D01*
X497317371Y-396517985D02*
X498460228Y-396517985D01*
X498817370Y-395375128D02*
X498817370Y-396875128D01*
X498817370Y-395446557D02*
X498960228Y-395375128D01*
X498960228Y-395375128D02*
X499245942Y-395375128D01*
X499245942Y-395375128D02*
X499388799Y-395446557D01*
X499388799Y-395446557D02*
X499460228Y-395517985D01*
X499460228Y-395517985D02*
X499531656Y-395660842D01*
X499531656Y-395660842D02*
X499531656Y-396089414D01*
X499531656Y-396089414D02*
X499460228Y-396232271D01*
X499460228Y-396232271D02*
X499388799Y-396303700D01*
X499388799Y-396303700D02*
X499245942Y-396375128D01*
X499245942Y-396375128D02*
X498960228Y-396375128D01*
X498960228Y-396375128D02*
X498817370Y-396303700D01*
X500817371Y-396303700D02*
X500674513Y-396375128D01*
X500674513Y-396375128D02*
X500388799Y-396375128D01*
X500388799Y-396375128D02*
X500245942Y-396303700D01*
X500245942Y-396303700D02*
X500174513Y-396232271D01*
X500174513Y-396232271D02*
X500103085Y-396089414D01*
X500103085Y-396089414D02*
X500103085Y-395660842D01*
X500103085Y-395660842D02*
X500174513Y-395517985D01*
X500174513Y-395517985D02*
X500245942Y-395446557D01*
X500245942Y-395446557D02*
X500388799Y-395375128D01*
X500388799Y-395375128D02*
X500674513Y-395375128D01*
X500674513Y-395375128D02*
X500817371Y-395446557D01*
X501460227Y-396375128D02*
X501460227Y-394875128D01*
X501460227Y-395446557D02*
X501603085Y-395375128D01*
X501603085Y-395375128D02*
X501888799Y-395375128D01*
X501888799Y-395375128D02*
X502031656Y-395446557D01*
X502031656Y-395446557D02*
X502103085Y-395517985D01*
X502103085Y-395517985D02*
X502174513Y-395660842D01*
X502174513Y-395660842D02*
X502174513Y-396089414D01*
X502174513Y-396089414D02*
X502103085Y-396232271D01*
X502103085Y-396232271D02*
X502031656Y-396303700D01*
X502031656Y-396303700D02*
X501888799Y-396375128D01*
X501888799Y-396375128D02*
X501603085Y-396375128D01*
X501603085Y-396375128D02*
X501460227Y-396303700D01*
D10*
D11*
X474004400Y-391489000D02*
X582004400Y-391489000D01*
D10*
D11*
X475388798Y-393603700D02*
X475603084Y-393675128D01*
X475603084Y-393675128D02*
X475960226Y-393675128D01*
X475960226Y-393675128D02*
X476103084Y-393603700D01*
X476103084Y-393603700D02*
X476174512Y-393532271D01*
X476174512Y-393532271D02*
X476245941Y-393389414D01*
X476245941Y-393389414D02*
X476245941Y-393246557D01*
X476245941Y-393246557D02*
X476174512Y-393103700D01*
X476174512Y-393103700D02*
X476103084Y-393032271D01*
X476103084Y-393032271D02*
X475960226Y-392960842D01*
X475960226Y-392960842D02*
X475674512Y-392889414D01*
X475674512Y-392889414D02*
X475531655Y-392817985D01*
X475531655Y-392817985D02*
X475460226Y-392746557D01*
X475460226Y-392746557D02*
X475388798Y-392603700D01*
X475388798Y-392603700D02*
X475388798Y-392460842D01*
X475388798Y-392460842D02*
X475460226Y-392317985D01*
X475460226Y-392317985D02*
X475531655Y-392246557D01*
X475531655Y-392246557D02*
X475674512Y-392175128D01*
X475674512Y-392175128D02*
X476031655Y-392175128D01*
X476031655Y-392175128D02*
X476245941Y-392246557D01*
X476888797Y-393675128D02*
X476888797Y-392175128D01*
X477531655Y-393675128D02*
X477531655Y-392889414D01*
X477531655Y-392889414D02*
X477460226Y-392746557D01*
X477460226Y-392746557D02*
X477317369Y-392675128D01*
X477317369Y-392675128D02*
X477103083Y-392675128D01*
X477103083Y-392675128D02*
X476960226Y-392746557D01*
X476960226Y-392746557D02*
X476888797Y-392817985D01*
X478817369Y-393603700D02*
X478674512Y-393675128D01*
X478674512Y-393675128D02*
X478388798Y-393675128D01*
X478388798Y-393675128D02*
X478245940Y-393603700D01*
X478245940Y-393603700D02*
X478174512Y-393460842D01*
X478174512Y-393460842D02*
X478174512Y-392889414D01*
X478174512Y-392889414D02*
X478245940Y-392746557D01*
X478245940Y-392746557D02*
X478388798Y-392675128D01*
X478388798Y-392675128D02*
X478674512Y-392675128D01*
X478674512Y-392675128D02*
X478817369Y-392746557D01*
X478817369Y-392746557D02*
X478888798Y-392889414D01*
X478888798Y-392889414D02*
X478888798Y-393032271D01*
X478888798Y-393032271D02*
X478174512Y-393175128D01*
X480103083Y-393603700D02*
X479960226Y-393675128D01*
X479960226Y-393675128D02*
X479674512Y-393675128D01*
X479674512Y-393675128D02*
X479531654Y-393603700D01*
X479531654Y-393603700D02*
X479460226Y-393460842D01*
X479460226Y-393460842D02*
X479460226Y-392889414D01*
X479460226Y-392889414D02*
X479531654Y-392746557D01*
X479531654Y-392746557D02*
X479674512Y-392675128D01*
X479674512Y-392675128D02*
X479960226Y-392675128D01*
X479960226Y-392675128D02*
X480103083Y-392746557D01*
X480103083Y-392746557D02*
X480174512Y-392889414D01*
X480174512Y-392889414D02*
X480174512Y-393032271D01*
X480174512Y-393032271D02*
X479460226Y-393175128D01*
X480603083Y-392675128D02*
X481174511Y-392675128D01*
X480817368Y-392175128D02*
X480817368Y-393460842D01*
X480817368Y-393460842D02*
X480888797Y-393603700D01*
X480888797Y-393603700D02*
X481031654Y-393675128D01*
X481031654Y-393675128D02*
X481174511Y-393675128D01*
X481674511Y-393532271D02*
X481745940Y-393603700D01*
X481745940Y-393603700D02*
X481674511Y-393675128D01*
X481674511Y-393675128D02*
X481603083Y-393603700D01*
X481603083Y-393603700D02*
X481674511Y-393532271D01*
X481674511Y-393532271D02*
X481674511Y-393675128D01*
X481674511Y-392746557D02*
X481745940Y-392817985D01*
X481745940Y-392817985D02*
X481674511Y-392889414D01*
X481674511Y-392889414D02*
X481603083Y-392817985D01*
X481603083Y-392817985D02*
X481674511Y-392746557D01*
X481674511Y-392746557D02*
X481674511Y-392889414D01*
D10*
D11*
X494004400Y-401489000D02*
X494004400Y-404489000D01*
D10*
D11*
X558004400Y-401489000D02*
X558004400Y-407989000D01*
D14*
%TO.P,D0:0,1*%
%TO.N,Net-(D0:0-Pad1)*%
X370700000Y-121280000D03*
D15*
%TO.P,D0:0,2*%
%TO.N,/COL0*%
X370700000Y-111120000D03*
%TD*%
D14*
%TO.P,D0:1,1*%
%TO.N,Net-(D0:1-Pad1)*%
X389750000Y-121280000D03*
D15*
%TO.P,D0:1,2*%
%TO.N,/COL1*%
X389750000Y-111120000D03*
%TD*%
D14*
%TO.P,D0:2,1*%
%TO.N,Net-(D0:2-Pad1)*%
X408800000Y-121280000D03*
D15*
%TO.P,D0:2,2*%
%TO.N,/COL2*%
X408800000Y-111120000D03*
%TD*%
D14*
%TO.P,D0:4,1*%
%TO.N,Net-(D0:4-Pad1)*%
X427850000Y-121280000D03*
D15*
%TO.P,D0:4,2*%
%TO.N,/COL4*%
X427850000Y-111120000D03*
%TD*%
D14*
%TO.P,D1:1,1*%
%TO.N,Net-(D1:1-Pad1)*%
X370700000Y-102230000D03*
D15*
%TO.P,D1:1,2*%
%TO.N,/COL1*%
X370700000Y-92070000D03*
%TD*%
D14*
%TO.P,D1:2,1*%
%TO.N,Net-(D1:2-Pad1)*%
X408800000Y-102230000D03*
D15*
%TO.P,D1:2,2*%
%TO.N,/COL2*%
X408800000Y-92070000D03*
%TD*%
D14*
%TO.P,D1:3,1*%
%TO.N,Net-(D1:3-Pad1)*%
X427850000Y-102230000D03*
D15*
%TO.P,D1:3,2*%
%TO.N,/COL3*%
X427850000Y-92070000D03*
%TD*%
D14*
%TO.P,D1:4,1*%
%TO.N,Net-(D1:4-Pad1)*%
X446900000Y-102230000D03*
D15*
%TO.P,D1:4,2*%
%TO.N,/COL4*%
X446900000Y-92070000D03*
%TD*%
D14*
%TO.P,D2:0,1*%
%TO.N,Net-(D2:0-Pad1)*%
X370700000Y-83180000D03*
D15*
%TO.P,D2:0,2*%
%TO.N,/COL0*%
X370700000Y-73020000D03*
%TD*%
D14*
%TO.P,D2:1,1*%
%TO.N,Net-(D2:1-Pad1)*%
X389750000Y-83180000D03*
D15*
%TO.P,D2:1,2*%
%TO.N,/COL1*%
X389750000Y-73020000D03*
%TD*%
D14*
%TO.P,D2:2,1*%
%TO.N,Net-(D2:2-Pad1)*%
X408800000Y-83180000D03*
D15*
%TO.P,D2:2,2*%
%TO.N,/COL2*%
X408800000Y-73020000D03*
%TD*%
D14*
%TO.P,D2:3,1*%
%TO.N,Net-(D2:3-Pad1)*%
X427850000Y-83180000D03*
D15*
%TO.P,D2:3,2*%
%TO.N,/COL3*%
X427850000Y-73020000D03*
%TD*%
D14*
%TO.P,D2:4,1*%
%TO.N,Net-(D2:4-Pad1)*%
X446900000Y-83180000D03*
D15*
%TO.P,D2:4,2*%
%TO.N,/COL4*%
X446900000Y-73020000D03*
%TD*%
D14*
%TO.P,D3:0,1*%
%TO.N,Net-(D3:0-Pad1)*%
X370700000Y-64130000D03*
D15*
%TO.P,D3:0,2*%
%TO.N,/COL0*%
X370700000Y-53970000D03*
%TD*%
D14*
%TO.P,D4:0,1*%
%TO.N,Net-(D4:0-Pad1)*%
X370700000Y-45080000D03*
D15*
%TO.P,D4:0,2*%
%TO.N,/COL0*%
X370700000Y-34920000D03*
%TD*%
D14*
%TO.P,D4:1,1*%
%TO.N,Net-(D4:1-Pad1)*%
X389750000Y-45080000D03*
D15*
%TO.P,D4:1,2*%
%TO.N,/COL1*%
X389750000Y-34920000D03*
%TD*%
D14*
%TO.P,D4:2,1*%
%TO.N,Net-(D4:2-Pad1)*%
X408800000Y-45080000D03*
D15*
%TO.P,D4:2,2*%
%TO.N,/COL2*%
X408800000Y-34920000D03*
%TD*%
D14*
%TO.P,D4:3,1*%
%TO.N,Net-(D4:3-Pad1)*%
X427850000Y-45080000D03*
D15*
%TO.P,D4:3,2*%
%TO.N,/COL3*%
X427850000Y-34920000D03*
%TD*%
D14*
%TO.P,D4:4,1*%
%TO.N,Net-(D4:4-Pad1)*%
X446900000Y-45080000D03*
D15*
%TO.P,D4:4,2*%
%TO.N,/COL4*%
X446900000Y-34920000D03*
%TD*%
D16*
%TO.P,EN1,A*%
%TO.N,/EN1_A*%
X488550000Y-123700000D03*
D17*
%TO.P,EN1,B*%
%TO.N,/EN1_B*%
X493550000Y-123700000D03*
%TO.P,EN1,C*%
%TO.N,GND*%
X491050000Y-123700000D03*
D18*
%TO.P,EN1,MP*%
%TO.N,N/C*%
X485450000Y-116200000D03*
X496650000Y-116200000D03*
D17*
%TO.P,EN1,S1*%
%TO.N,/EN1_SW*%
X488550000Y-109200000D03*
%TO.P,EN1,S2*%
%TO.N,GND*%
X493550000Y-109200000D03*
%TD*%
D19*
%TO.P,MCU1,1*%
%TO.N,/SW_WHEEL*%
X342110000Y-24470000D03*
D20*
X341210000Y-24470000D03*
D19*
%TO.P,MCU1,2*%
%TO.N,/EN1_SW*%
X342110000Y-27010000D03*
D20*
X341210000Y-27010000D03*
D21*
%TO.P,MCU1,3*%
%TO.N,GND*%
X342110000Y-29550000D03*
D20*
X341210000Y-29550000D03*
D19*
%TO.P,MCU1,4*%
%TO.N,/EN2_B*%
X342110000Y-32090000D03*
D20*
X341210000Y-32090000D03*
D19*
%TO.P,MCU1,5*%
%TO.N,/EN2_A*%
X342110000Y-34630000D03*
D20*
X341210000Y-34630000D03*
D19*
%TO.P,MCU1,6*%
%TO.N,/EN1_B*%
X342110000Y-37170000D03*
D20*
X341210000Y-37170000D03*
D19*
%TO.P,MCU1,7*%
%TO.N,/EN1_A*%
X342110000Y-39710000D03*
D20*
X341210000Y-39710000D03*
D21*
%TO.P,MCU1,8*%
%TO.N,GND*%
X342110000Y-42250000D03*
D20*
X341210000Y-42250000D03*
D19*
%TO.P,MCU1,9*%
%TO.N,Net-(MCU1-Pad9)*%
X342110000Y-44790000D03*
D20*
X341210000Y-44790000D03*
D19*
%TO.P,MCU1,10*%
%TO.N,Net-(MCU1-Pad10)*%
X342110000Y-47330000D03*
D20*
X341210000Y-47330000D03*
D19*
%TO.P,MCU1,11*%
%TO.N,/SDA*%
X342110000Y-49870000D03*
D20*
X341210000Y-49870000D03*
D19*
%TO.P,MCU1,12*%
%TO.N,/SCL*%
X342110000Y-52410000D03*
D20*
X341210000Y-52410000D03*
D21*
%TO.P,MCU1,13*%
%TO.N,GND*%
X342110000Y-54950000D03*
D20*
X341210000Y-54950000D03*
D19*
%TO.P,MCU1,14*%
%TO.N,Net-(MCU1-Pad14)*%
X342110000Y-57490000D03*
D20*
X341210000Y-57490000D03*
D19*
%TO.P,MCU1,15*%
%TO.N,Net-(MCU1-Pad15)*%
X342110000Y-60030000D03*
D20*
X341210000Y-60030000D03*
D19*
%TO.P,MCU1,16*%
%TO.N,Net-(MCU1-Pad16)*%
X342110000Y-62570000D03*
D20*
X341210000Y-62570000D03*
D19*
%TO.P,MCU1,17*%
%TO.N,Net-(MCU1-Pad17)*%
X342110000Y-65110000D03*
D20*
X341210000Y-65110000D03*
D21*
%TO.P,MCU1,18*%
%TO.N,GND*%
X342110000Y-67650000D03*
D20*
X341210000Y-67650000D03*
D19*
%TO.P,MCU1,19*%
%TO.N,Net-(MCU1-Pad19)*%
X342110000Y-70190000D03*
D20*
X341210000Y-70190000D03*
D19*
%TO.P,MCU1,20*%
%TO.N,/EN2_SW*%
X342110000Y-72730000D03*
D20*
X341210000Y-72730000D03*
D19*
%TO.P,MCU1,21*%
%TO.N,/ROW0*%
X359890000Y-72730000D03*
D20*
X360790000Y-72730000D03*
D19*
%TO.P,MCU1,22*%
%TO.N,/ROW1*%
X359890000Y-70190000D03*
D20*
X360790000Y-70190000D03*
D21*
%TO.P,MCU1,23*%
%TO.N,GND*%
X359890000Y-67650000D03*
D20*
X360790000Y-67650000D03*
D19*
%TO.P,MCU1,24*%
%TO.N,/ROW2*%
X359890000Y-65110000D03*
D20*
X360790000Y-65110000D03*
D19*
%TO.P,MCU1,25*%
%TO.N,/ROW3*%
X359890000Y-62570000D03*
D20*
X360790000Y-62570000D03*
D19*
%TO.P,MCU1,26*%
%TO.N,/ROW4*%
X359890000Y-60030000D03*
D20*
X360790000Y-60030000D03*
D19*
%TO.P,MCU1,27*%
%TO.N,/COL0*%
X359890000Y-57490000D03*
D20*
X360790000Y-57490000D03*
D21*
%TO.P,MCU1,28*%
%TO.N,GND*%
X359890000Y-54950000D03*
D20*
X360790000Y-54950000D03*
D19*
%TO.P,MCU1,29*%
%TO.N,/COL1*%
X359890000Y-52410000D03*
D20*
X360790000Y-52410000D03*
D19*
%TO.P,MCU1,30*%
%TO.N,Net-(MCU1-Pad30)*%
X359890000Y-49870000D03*
D20*
X360790000Y-49870000D03*
D19*
%TO.P,MCU1,31*%
%TO.N,/COL2*%
X359890000Y-47330000D03*
D20*
X360790000Y-47330000D03*
D19*
%TO.P,MCU1,32*%
%TO.N,/COL3*%
X359890000Y-44790000D03*
D20*
X360790000Y-44790000D03*
D21*
%TO.P,MCU1,33*%
%TO.N,GND*%
X359890000Y-42250000D03*
D20*
X360790000Y-42250000D03*
D19*
%TO.P,MCU1,34*%
%TO.N,/COL4*%
X359890000Y-39710000D03*
D20*
X360790000Y-39710000D03*
D19*
%TO.P,MCU1,35*%
%TO.N,Net-(MCU1-Pad35)*%
X359890000Y-37170000D03*
D20*
X360790000Y-37170000D03*
D19*
%TO.P,MCU1,36*%
%TO.N,VCC*%
X359890000Y-34630000D03*
D20*
X360790000Y-34630000D03*
D19*
%TO.P,MCU1,37*%
%TO.N,Net-(MCU1-Pad37)*%
X359890000Y-32090000D03*
D20*
X360790000Y-32090000D03*
D21*
%TO.P,MCU1,38*%
%TO.N,GND*%
X359890000Y-29550000D03*
D20*
X360790000Y-29550000D03*
D19*
%TO.P,MCU1,39*%
%TO.N,Net-(MCU1-Pad39)*%
X359890000Y-27010000D03*
D20*
X360790000Y-27010000D03*
D19*
%TO.P,MCU1,40*%
%TO.N,Net-(MCU1-Pad40)*%
X359890000Y-24470000D03*
D20*
X360790000Y-24470000D03*
D19*
%TO.P,MCU1,41*%
%TO.N,Net-(MCU1-Pad41)*%
X348460000Y-72500000D03*
D22*
X348460000Y-73400000D03*
D21*
%TO.P,MCU1,42*%
%TO.N,Net-(MCU1-Pad42)*%
X351000000Y-72500000D03*
D22*
X351000000Y-73400000D03*
D19*
%TO.P,MCU1,43*%
%TO.N,Net-(MCU1-Pad43)*%
X353540000Y-72500000D03*
D22*
X353540000Y-73400000D03*
%TD*%
D23*
%TO.P,SW0:0,1*%
%TO.N,/ROW0*%
X382540000Y-111120000D03*
%TO.P,SW0:0,2*%
%TO.N,Net-(D0:0-Pad1)*%
X376190000Y-113660000D03*
%TD*%
%TO.P,SW0:1,1*%
%TO.N,/ROW0*%
X401590000Y-111120000D03*
%TO.P,SW0:1,2*%
%TO.N,Net-(D0:1-Pad1)*%
X395240000Y-113660000D03*
%TD*%
%TO.P,SW0:2,1*%
%TO.N,/ROW0*%
X420640000Y-111120000D03*
%TO.P,SW0:2,2*%
%TO.N,Net-(D0:2-Pad1)*%
X414290000Y-113660000D03*
%TD*%
%TO.P,SW0:4,1*%
%TO.N,/ROW0*%
X449215000Y-111120000D03*
%TO.P,SW0:4,2*%
%TO.N,Net-(D0:4-Pad1)*%
X442865000Y-113660000D03*
%TD*%
%TO.P,SW1:1,1*%
%TO.N,/ROW1*%
X392065000Y-92070000D03*
%TO.P,SW1:1,2*%
%TO.N,Net-(D1:1-Pad1)*%
X385715000Y-94610000D03*
%TD*%
%TO.P,SW1:2,1*%
%TO.N,/ROW1*%
X420640000Y-92070000D03*
%TO.P,SW1:2,2*%
%TO.N,Net-(D1:2-Pad1)*%
X414290000Y-94610000D03*
%TD*%
%TO.P,SW1:3,1*%
%TO.N,/ROW1*%
X439690000Y-92070000D03*
%TO.P,SW1:3,2*%
%TO.N,Net-(D1:3-Pad1)*%
X433340000Y-94610000D03*
%TD*%
%TO.P,SW1:4,1*%
%TO.N,/ROW1*%
X458740000Y-92070000D03*
%TO.P,SW1:4,2*%
%TO.N,Net-(D1:4-Pad1)*%
X452390000Y-94610000D03*
%TD*%
%TO.P,SW2:0,1*%
%TO.N,/ROW2*%
X382540000Y-73020000D03*
%TO.P,SW2:0,2*%
%TO.N,Net-(D2:0-Pad1)*%
X376190000Y-75560000D03*
%TD*%
%TO.P,SW2:2,1*%
%TO.N,/ROW2*%
X420640000Y-73020000D03*
%TO.P,SW2:2,2*%
%TO.N,Net-(D2:2-Pad1)*%
X414290000Y-75560000D03*
%TD*%
%TO.P,SW2:3,1*%
%TO.N,/ROW2*%
X439690000Y-73020000D03*
%TO.P,SW2:3,2*%
%TO.N,Net-(D2:3-Pad1)*%
X433340000Y-75560000D03*
%TD*%
%TO.P,SW2:4,1*%
%TO.N,/ROW2*%
X458740000Y-73020000D03*
%TO.P,SW2:4,2*%
%TO.N,Net-(D2:4-Pad1)*%
X452390000Y-75560000D03*
%TD*%
%TO.P,SW3:0,1*%
%TO.N,/ROW3*%
X382540000Y-53970000D03*
%TO.P,SW3:0,2*%
%TO.N,Net-(D3:0-Pad1)*%
X376190000Y-56510000D03*
%TD*%
%TO.P,SW3:1,1*%
%TO.N,/ROW3*%
X401590000Y-53970000D03*
%TO.P,SW3:1,2*%
%TO.N,Net-(D3:1-Pad1)*%
X395240000Y-56510000D03*
%TD*%
%TO.P,SW3:2,1*%
%TO.N,/ROW3*%
X420640000Y-53970000D03*
%TO.P,SW3:2,2*%
%TO.N,Net-(D3:2-Pad1)*%
X414290000Y-56510000D03*
%TD*%
%TO.P,SW3:3,1*%
%TO.N,/ROW3*%
X439690000Y-53970000D03*
%TO.P,SW3:3,2*%
%TO.N,Net-(D3:3-Pad1)*%
X433340000Y-56510000D03*
%TD*%
%TO.P,SW3:4,1*%
%TO.N,/ROW3*%
X458740000Y-53970000D03*
%TO.P,SW3:4,2*%
%TO.N,Net-(D3:4-Pad1)*%
X452390000Y-56510000D03*
%TD*%
%TO.P,SW4:0,1*%
%TO.N,/ROW4*%
X382540000Y-34920000D03*
%TO.P,SW4:0,2*%
%TO.N,Net-(D4:0-Pad1)*%
X376190000Y-37460000D03*
%TD*%
%TO.P,SW4:2,1*%
%TO.N,/ROW4*%
X420640000Y-34920000D03*
%TO.P,SW4:2,2*%
%TO.N,Net-(D4:2-Pad1)*%
X414290000Y-37460000D03*
%TD*%
%TO.P,SW4:3,1*%
%TO.N,/ROW4*%
X439690000Y-34920000D03*
%TO.P,SW4:3,2*%
%TO.N,Net-(D4:3-Pad1)*%
X433340000Y-37460000D03*
%TD*%
%TO.P,SW4:4,1*%
%TO.N,/ROW4*%
X458740000Y-34920000D03*
%TO.P,SW4:4,2*%
%TO.N,Net-(D4:4-Pad1)*%
X452390000Y-37460000D03*
%TD*%
%TO.P,SW4:1,1*%
%TO.N,/ROW4*%
X401590000Y-34920000D03*
%TO.P,SW4:1,2*%
%TO.N,Net-(D4:1-Pad1)*%
X395240000Y-37460000D03*
%TD*%
%TO.P,SW2:1,1*%
%TO.N,/ROW2*%
X401590000Y-73020000D03*
%TO.P,SW2:1,2*%
%TO.N,Net-(D2:1-Pad1)*%
X395240000Y-75560000D03*
%TD*%
D24*
%TO.P,EN2,A*%
%TO.N,/EN2_A*%
X347450000Y-90075000D03*
D17*
%TO.P,EN2,B*%
%TO.N,/EN2_B*%
X343914466Y-93610534D03*
%TO.P,EN2,C*%
%TO.N,GND*%
X345682233Y-91842767D03*
D25*
%TO.P,EN2,MP*%
%TO.N,N/C*%
X354945332Y-93186270D03*
X347025736Y-101105866D03*
D17*
%TO.P,EN2,S1*%
%TO.N,/EN2_SW*%
X357703048Y-100328048D03*
%TO.P,EN2,S2*%
%TO.N,GND*%
X354167514Y-103863582D03*
%TD*%
D23*
%TO.P,SW:WHEEL1,1*%
%TO.N,GND*%
X492846051Y-83488154D03*
%TO.P,SW:WHEEL1,2*%
%TO.N,/SW_WHEEL*%
X495540128Y-77201974D03*
%TD*%
D14*
%TO.P,D3:1,1*%
%TO.N,Net-(D3:1-Pad1)*%
X389750000Y-64130000D03*
D15*
%TO.P,D3:1,2*%
%TO.N,/COL1*%
X389750000Y-53970000D03*
%TD*%
D14*
%TO.P,D3:2,1*%
%TO.N,Net-(D3:2-Pad1)*%
X408800000Y-64130000D03*
D15*
%TO.P,D3:2,2*%
%TO.N,/COL2*%
X408800000Y-53970000D03*
%TD*%
D14*
%TO.P,D3:3,1*%
%TO.N,Net-(D3:3-Pad1)*%
X427850000Y-64130000D03*
D15*
%TO.P,D3:3,2*%
%TO.N,/COL3*%
X427850000Y-53970000D03*
%TD*%
D14*
%TO.P,D3:4,1*%
%TO.N,Net-(D3:4-Pad1)*%
X446900000Y-64130000D03*
D15*
%TO.P,D3:4,2*%
%TO.N,/COL4*%
X446900000Y-53970000D03*
%TD*%
D26*
%TO.P,DISPLAY1,*%
%TO.N,*%
X475677400Y-30333000D03*
X475677400Y-58907000D03*
X506482600Y-30333000D03*
X506482600Y-58907000D03*
D27*
%TO.P,DISPLAY1,1*%
%TO.N,VCC*%
X487270000Y-28875000D03*
D21*
%TO.P,DISPLAY1,2*%
%TO.N,GND*%
X489810000Y-28875000D03*
D27*
%TO.P,DISPLAY1,3*%
%TO.N,/SCL*%
X492350000Y-28875000D03*
%TO.P,DISPLAY1,4*%
%TO.N,/SDA*%
X494890000Y-28875000D03*
%TD*%
D28*
%TO.N,/ROW0*%
X375873469Y-109621399D02*
X366850000Y-100597930D01*
X364750000Y-72730000D02*
X359890000Y-72730000D01*
X382540000Y-111120000D02*
X384038601Y-112618601D01*
X366850000Y-74830000D02*
X364750000Y-72730000D01*
X381041399Y-109621399D02*
X375873469Y-109621399D01*
X441218569Y-112618601D02*
X442717170Y-111120000D01*
X395092170Y-111120000D02*
X401590000Y-111120000D01*
X401590000Y-111120000D02*
X403088601Y-112618601D01*
X414142170Y-111120000D02*
X420640000Y-111120000D01*
X366850000Y-100597930D02*
X366850000Y-74830000D01*
X422138601Y-112618601D02*
X441218569Y-112618601D01*
X420640000Y-111120000D02*
X422138601Y-112618601D01*
X412643569Y-112618601D02*
X414142170Y-111120000D01*
X384038601Y-112618601D02*
X393593569Y-112618601D01*
X393593569Y-112618601D02*
X395092170Y-111120000D01*
X442717170Y-111120000D02*
X449215000Y-111120000D01*
X382540000Y-111120000D02*
X381041399Y-109621399D01*
X403088601Y-112618601D02*
X412643569Y-112618601D01*
%TO.N,/ROW1*%
X387962899Y-87967899D02*
X382532377Y-87967899D01*
X431693569Y-93568601D02*
X433192170Y-92070000D01*
X422138601Y-93568601D02*
X431693569Y-93568601D01*
X393563601Y-93568601D02*
X412643569Y-93568601D01*
X412643569Y-93568601D02*
X414142170Y-92070000D01*
X452242170Y-92070000D02*
X458740000Y-92070000D01*
X382532377Y-87967899D02*
X365450000Y-70885522D01*
X392065000Y-92070000D02*
X393563601Y-93568601D01*
X441188601Y-93568601D02*
X450743569Y-93568601D01*
X439690000Y-92070000D02*
X441188601Y-93568601D01*
X365450000Y-70885522D02*
X360585522Y-70885522D01*
X420640000Y-92070000D02*
X422138601Y-93568601D01*
X433192170Y-92070000D02*
X439690000Y-92070000D01*
X392065000Y-92070000D02*
X387962899Y-87967899D01*
X360585522Y-70885522D02*
X359890000Y-70190000D01*
X450743569Y-93568601D02*
X452242170Y-92070000D01*
X414142170Y-92070000D02*
X420640000Y-92070000D01*
%TO.N,/ROW2*%
X403088601Y-74518601D02*
X412643569Y-74518601D01*
X422138601Y-74518601D02*
X431693569Y-74518601D01*
X452242170Y-73020000D02*
X458740000Y-73020000D01*
X368730000Y-65110000D02*
X359890000Y-65110000D01*
X395092170Y-73020000D02*
X401590000Y-73020000D01*
X420640000Y-73020000D02*
X422138601Y-74518601D01*
X450743569Y-74518601D02*
X452242170Y-73020000D01*
X401590000Y-73020000D02*
X403088601Y-74518601D01*
X414142170Y-73020000D02*
X420640000Y-73020000D01*
X382540000Y-73020000D02*
X376640000Y-73020000D01*
X382540000Y-73020000D02*
X384038601Y-74518601D01*
X384038601Y-74518601D02*
X393593569Y-74518601D01*
X412643569Y-74518601D02*
X414142170Y-73020000D01*
X376640000Y-73020000D02*
X368730000Y-65110000D01*
X439690000Y-73020000D02*
X441188601Y-74518601D01*
X393593569Y-74518601D02*
X395092170Y-73020000D01*
X441188601Y-74518601D02*
X450743569Y-74518601D01*
X433192170Y-73020000D02*
X439690000Y-73020000D01*
X431693569Y-74518601D02*
X433192170Y-73020000D01*
%TO.N,/ROW3*%
X431693569Y-55468601D02*
X433192170Y-53970000D01*
X384038601Y-55468601D02*
X393593569Y-55468601D01*
X403088601Y-55468601D02*
X412643569Y-55468601D01*
X401590000Y-53970000D02*
X403088601Y-55468601D01*
X373562582Y-53970000D02*
X364962582Y-62570000D01*
X439690000Y-53970000D02*
X441188601Y-55468601D01*
X422138601Y-55468601D02*
X431693569Y-55468601D01*
X414142170Y-53970000D02*
X420640000Y-53970000D01*
X382540000Y-53970000D02*
X373562582Y-53970000D01*
X433192170Y-53970000D02*
X439690000Y-53970000D01*
X420640000Y-53970000D02*
X422138601Y-55468601D01*
X393593569Y-55468601D02*
X395092170Y-53970000D01*
X395092170Y-53970000D02*
X401590000Y-53970000D01*
X452242170Y-53970000D02*
X458740000Y-53970000D01*
X450743569Y-55468601D02*
X452242170Y-53970000D01*
X441188601Y-55468601D02*
X450743569Y-55468601D01*
X412643569Y-55468601D02*
X414142170Y-53970000D01*
X382540000Y-53970000D02*
X384038601Y-55468601D01*
X364962582Y-62570000D02*
X359890000Y-62570000D01*
%TO.N,/ROW4*%
X403088601Y-36418601D02*
X410163981Y-36418601D01*
X384208271Y-36588271D02*
X384208271Y-37471729D01*
X362061582Y-60030000D02*
X359890000Y-60030000D01*
X369201399Y-52890183D02*
X362061582Y-60030000D01*
X452242170Y-34920000D02*
X458740000Y-34920000D01*
X422138601Y-36418601D02*
X431693569Y-36418601D01*
X441188601Y-36418601D02*
X450743569Y-36418601D01*
X439690000Y-34920000D02*
X441188601Y-36418601D01*
X401590000Y-34920000D02*
X403088601Y-36418601D01*
X384208271Y-37471729D02*
X382667001Y-39012999D01*
X395092170Y-34920000D02*
X401590000Y-34920000D01*
X371475763Y-52471399D02*
X369336019Y-52471399D01*
X433192170Y-34920000D02*
X439690000Y-34920000D01*
X382667001Y-39012999D02*
X382667001Y-41280161D01*
X420640000Y-34920000D02*
X422138601Y-36418601D01*
X382667001Y-41280161D02*
X371475763Y-52471399D01*
X382540000Y-34920000D02*
X384208271Y-36588271D01*
X410163981Y-36418601D02*
X411662582Y-34920000D01*
X369201399Y-52606019D02*
X369201399Y-52890183D01*
X450743569Y-36418601D02*
X452242170Y-34920000D01*
X393423899Y-36588271D02*
X395092170Y-34920000D01*
X431693569Y-36418601D02*
X433192170Y-34920000D01*
X384208271Y-36588271D02*
X393423899Y-36588271D01*
X369336019Y-52471399D02*
X369201399Y-52606019D01*
X411662582Y-34920000D02*
X420640000Y-34920000D01*
%TO.N,GND*%
X354167514Y-103863582D02*
X354167514Y-100328048D01*
X492846051Y-83488154D02*
X492846051Y-108496051D01*
X489810000Y-41470000D02*
X489810000Y-28875000D01*
X492846051Y-83488154D02*
X492490992Y-83488154D01*
X352934733Y-99095267D02*
X345682233Y-91842767D01*
X488382999Y-79380161D02*
X488382999Y-42897001D01*
X492846051Y-108496051D02*
X493550000Y-109200000D01*
X354167514Y-100328048D02*
X352934733Y-99095267D01*
X488382999Y-42897001D02*
X489810000Y-41470000D01*
X492490992Y-83488154D02*
X488382999Y-79380161D01*
%TO.N,Net-(D1:1-Pad1)*%
X370700000Y-102230000D02*
X378320000Y-94610000D01*
X378320000Y-94610000D02*
X385715000Y-94610000D01*
%TO.N,/EN1_A*%
X342481582Y-39710000D02*
X342110000Y-39710000D01*
X427846390Y-130136390D02*
X426966631Y-129256631D01*
X476590000Y-130136390D02*
X427846390Y-130136390D01*
X372876631Y-129256631D02*
X372876631Y-127756631D01*
X359376149Y-114256149D02*
X359376149Y-88127731D01*
X343633101Y-40861519D02*
X342481582Y-39710000D01*
X359376149Y-88127731D02*
X343633101Y-72384683D01*
X372876631Y-127756631D02*
X359376149Y-114256149D01*
X483026390Y-123700000D02*
X476590000Y-130136390D01*
X343633101Y-72384683D02*
X343633101Y-40861519D01*
X488550000Y-123700000D02*
X483026390Y-123700000D01*
X426966631Y-129256631D02*
X372876631Y-129256631D01*
%TO.N,/EN1_B*%
X481793101Y-122026899D02*
X475550000Y-128270000D01*
X355850000Y-50538418D02*
X342481582Y-37170000D01*
X342481582Y-37170000D02*
X342110000Y-37170000D01*
X475550000Y-128270000D02*
X469067999Y-121787999D01*
X374262070Y-127060000D02*
X365986390Y-118784320D01*
X365986390Y-89976390D02*
X355850000Y-79840000D01*
X428184838Y-127060000D02*
X374262070Y-127060000D01*
X355850000Y-79840000D02*
X355850000Y-50538418D01*
X469067999Y-121787999D02*
X433456839Y-121787999D01*
X365986390Y-118784320D02*
X365986390Y-89976390D01*
X433456839Y-121787999D02*
X428184838Y-127060000D01*
X491876899Y-122026899D02*
X481793101Y-122026899D01*
X493550000Y-123700000D02*
X491876899Y-122026899D01*
%TO.N,/EN2_A*%
X336800000Y-79425000D02*
X336800000Y-37768418D01*
X347450000Y-90075000D02*
X336800000Y-79425000D01*
X336800000Y-37768418D02*
X339938418Y-34630000D01*
X339938418Y-34630000D02*
X342110000Y-34630000D01*
%TO.N,/EN2_B*%
X343914466Y-93610534D02*
X335500000Y-85196068D01*
X335500000Y-85196068D02*
X335500000Y-36528418D01*
X339938418Y-32090000D02*
X342110000Y-32090000D01*
X335500000Y-36528418D02*
X339938418Y-32090000D01*
%TO.N,/EN2_SW*%
X357703048Y-100328048D02*
X349537324Y-92162324D01*
X341700000Y-73140000D02*
X342110000Y-72730000D01*
X349537324Y-89317324D02*
X341700000Y-81480000D01*
X341700000Y-81480000D02*
X341700000Y-73140000D01*
X349537324Y-92162324D02*
X349537324Y-89317324D01*
%TO.N,Net-(MCU1-Pad17)*%
X342481582Y-65110000D02*
X342110000Y-65110000D01*
%TD*%
M02*
