<?xml version="1.0" encoding="UTF-8"?>
<svg id="Layer_1" xmlns="http://www.w3.org/2000/svg" version="1.1" viewBox="0 0 841.89 595.28">
  <!-- Generator: Adobe Illustrator 30.2.1, SVG Export Plug-In . SVG Version: 2.1.1 Build 1)  -->
  <defs>
    <style>
      .st0 {
        fill: none;
      }

      .st0, .st1, .st2, .st3, .st4, .st5 {
        stroke: #000;
        stroke-linecap: round;
        stroke-linejoin: round;
      }

      .st1 {
        fill: #00aeef;
      }

      .st2 {
        fill: #7c7c7c;
      }

      .st3 {
        fill: #fff200;
      }

      .st4 {
        fill: #231f20;
      }

      .st5 {
        fill: #ef4136;
      }
    </style>
  </defs>
  <polyline class="st5" points="695.81 298.48 658.32 260.98 620.53 298.84 658.03 336.33 695.81 298.48"/>
  <polyline class="st5" points="686.83 298.48 658.03 327.28 629.51 298.84"/>
  <path class="st3" d="M306.99,194.99c.51-.51.8-1.2.8-1.92"/>
  <polyline class="st3" points="307 189.01 307.79 189.01 307.79 193.11"/>
  <path class="st3" d="M254.86,193.07c0,.72.29,1.41.8,1.92"/>
  <polyline class="st3" points="254.86 193.11 254.86 189.01 255.65 189.01"/>
  <path class="st3" d="M255.66,143.61c-.51.51-.8,1.2-.8,1.92"/>
  <polyline class="st3" points="255.65 149.65 254.86 149.65 254.86 145.56"/>
  <path class="st3" d="M307.79,145.52c0-.72-.29-1.41-.8-1.92"/>
  <polyline class="st3" points="307.79 145.56 307.79 149.65 307 149.65"/>
  <path class="st3" d="M371.58,195.04c.55-.51.86-1.22.86-1.97"/>
  <polyline class="st3" points="371.58 189.01 372.44 189.01 372.44 193.11"/>
  <path class="st3" d="M319.57,193.07c0,.69.26,1.35.74,1.85"/>
  <polyline class="st3" points="319.5 193.11 319.5 189.01 320.22 189.01"/>
  <path class="st3" d="M320.31,143.67c-.47.5-.74,1.16-.74,1.85"/>
  <polyline class="st3" points="320.22 149.65 319.5 149.65 319.5 145.56"/>
  <path class="st3" d="M372.44,145.52c0-.75-.31-1.46-.86-1.97"/>
  <polyline class="st3" points="372.44 145.56 372.44 149.65 371.58 149.65"/>
  <path class="st3" d="M436.16,195.1c.59-.51.92-1.25.92-2.03"/>
  <polyline class="st3" points="436.15 189.01 437.08 189.01 437.08 193.11"/>
  <path class="st3" d="M384.22,193.07c0,.66.24,1.29.68,1.79"/>
  <polyline class="st3" points="384.15 193.11 384.15 189.01 384.79 189.01"/>
  <path class="st3" d="M384.9,143.73c-.44.49-.68,1.13-.68,1.79"/>
  <polyline class="st3" points="384.79 149.65 384.15 149.65 384.15 145.56"/>
  <path class="st3" d="M437.08,145.52c0-.78-.34-1.52-.92-2.03"/>
  <polyline class="st3" points="437.08 145.56 437.08 149.65 436.15 149.65"/>
  <path class="st3" d="M500.75,195.15c.62-.51.98-1.27.98-2.08"/>
  <polyline class="st3" points="500.72 189.01 501.73 189.01 501.73 193.11"/>
  <path class="st3" d="M448.86,193.07c0,.63.22,1.23.62,1.72"/>
  <polyline class="st3" points="448.79 193.11 448.79 189.01 449.44 189.01"/>
  <path class="st3" d="M449.48,143.8c-.4.48-.62,1.09-.62,1.72"/>
  <polyline class="st3" points="449.44 149.65 448.79 149.65 448.79 145.56"/>
  <path class="st3" d="M501.73,145.52c0-.8-.36-1.57-.98-2.08"/>
  <polyline class="st3" points="501.73 145.56 501.73 149.65 500.72 149.65"/>
  <path class="st3" d="M565.33,195.2c.66-.51,1.04-1.3,1.04-2.13"/>
  <polyline class="st3" points="565.3 189.01 566.38 189.01 566.38 193.11"/>
  <path class="st3" d="M513.51,193.07c0,.59.2,1.17.56,1.64"/>
  <polyline class="st3" points="513.44 193.11 513.44 189.01 514.01 189.01"/>
  <path class="st3" d="M514.07,143.88c-.36.47-.56,1.05-.56,1.64"/>
  <polyline class="st3" points="514.01 149.65 513.44 149.65 513.44 145.56"/>
  <path class="st3" d="M566.38,145.52c0-.83-.38-1.62-1.04-2.13"/>
  <polyline class="st3" points="566.38 145.56 566.38 149.65 565.3 149.65"/>
  <path class="st3" d="M306.99,259.63c.51-.51.8-1.2.8-1.92"/>
  <polyline class="st3" points="307 253.66 307.79 253.66 307.79 257.75"/>
  <path class="st3" d="M254.86,257.72c0,.72.29,1.41.8,1.92"/>
  <polyline class="st3" points="254.86 257.75 254.86 253.66 255.65 253.66"/>
  <path class="st3" d="M255.66,208.32c-.51.51-.8,1.2-.8,1.92"/>
  <polyline class="st3" points="255.65 214.3 254.86 214.3 254.86 210.27"/>
  <path class="st3" d="M307.79,210.24c0-.72-.29-1.41-.8-1.92"/>
  <polyline class="st3" points="307.79 210.27 307.79 214.3 307 214.3"/>
  <path class="st3" d="M371.58,259.69c.55-.51.86-1.22.86-1.97"/>
  <polyline class="st3" points="371.58 253.66 372.44 253.66 372.44 257.75"/>
  <path class="st3" d="M319.57,257.72c0,.69.26,1.35.74,1.85"/>
  <polyline class="st3" points="319.5 257.75 319.5 253.66 320.22 253.66"/>
  <path class="st3" d="M320.31,208.38c-.47.5-.74,1.16-.74,1.85"/>
  <polyline class="st3" points="320.22 214.3 319.5 214.3 319.5 210.27"/>
  <path class="st3" d="M372.44,210.24c0-.75-.31-1.46-.86-1.97"/>
  <polyline class="st3" points="372.44 210.27 372.44 214.3 371.58 214.3"/>
  <path class="st3" d="M436.16,259.74c.59-.51.92-1.25.92-2.03"/>
  <polyline class="st3" points="436.15 253.66 437.08 253.66 437.08 257.75"/>
  <path class="st3" d="M384.22,257.72c0,.66.24,1.29.68,1.79"/>
  <polyline class="st3" points="384.15 257.75 384.15 253.66 384.79 253.66"/>
  <path class="st3" d="M384.9,208.45c-.44.49-.68,1.13-.68,1.79"/>
  <polyline class="st3" points="384.79 214.3 384.15 214.3 384.15 210.27"/>
  <path class="st3" d="M437.08,210.24c0-.78-.34-1.52-.92-2.03"/>
  <polyline class="st3" points="437.08 210.27 437.08 214.3 436.15 214.3"/>
  <path class="st3" d="M500.75,259.8c.62-.51.98-1.27.98-2.08"/>
  <polyline class="st3" points="500.72 253.66 501.73 253.66 501.73 257.75"/>
  <path class="st3" d="M448.86,257.72c0,.63.22,1.23.62,1.72"/>
  <polyline class="st3" points="448.79 257.75 448.79 253.66 449.44 253.66"/>
  <path class="st3" d="M449.48,208.52c-.4.48-.62,1.09-.62,1.72"/>
  <polyline class="st3" points="449.44 214.3 448.79 214.3 448.79 210.27"/>
  <path class="st3" d="M501.73,210.24c0-.8-.36-1.57-.98-2.08"/>
  <polyline class="st3" points="501.73 210.27 501.73 214.3 500.72 214.3"/>
  <path class="st3" d="M565.33,259.84c.66-.51,1.04-1.3,1.04-2.13"/>
  <polyline class="st3" points="565.3 253.66 566.38 253.66 566.38 257.75"/>
  <path class="st3" d="M513.51,257.72c0,.59.2,1.17.56,1.64"/>
  <polyline class="st3" points="513.44 257.75 513.44 253.66 514.01 253.66"/>
  <path class="st3" d="M514.07,208.6c-.36.47-.56,1.05-.56,1.64"/>
  <polyline class="st3" points="514.01 214.3 513.44 214.3 513.44 210.27"/>
  <path class="st3" d="M566.38,210.24c0-.83-.38-1.62-1.04-2.13"/>
  <polyline class="st3" points="566.38 210.27 566.38 214.3 565.3 214.3"/>
  <path class="st3" d="M306.99,324.28c.51-.51.8-1.2.8-1.92"/>
  <polyline class="st3" points="307 318.38 307.79 318.38 307.79 322.4"/>
  <path class="st3" d="M254.86,322.36c0,.72.29,1.41.8,1.92"/>
  <polyline class="st3" points="254.86 322.4 254.86 318.38 255.65 318.38"/>
  <path class="st3" d="M255.66,272.97c-.51.51-.8,1.2-.8,1.92"/>
  <polyline class="st3" points="255.65 278.94 254.86 278.94 254.86 274.92"/>
  <path class="st3" d="M307.79,274.88c0-.72-.29-1.41-.8-1.92"/>
  <polyline class="st3" points="307.79 274.92 307.79 278.94 307 278.94"/>
  <path class="st3" d="M371.58,324.34c.55-.51.86-1.22.86-1.97"/>
  <polyline class="st3" points="371.58 318.38 372.44 318.38 372.44 322.4"/>
  <path class="st3" d="M319.57,322.36c0,.69.26,1.35.74,1.85"/>
  <polyline class="st3" points="319.5 322.4 319.5 318.38 320.22 318.38"/>
  <path class="st3" d="M320.31,273.03c-.47.5-.74,1.16-.74,1.85"/>
  <polyline class="st3" points="320.22 278.94 319.5 278.94 319.5 274.92"/>
  <path class="st3" d="M372.44,274.88c0-.75-.31-1.46-.86-1.97"/>
  <polyline class="st3" points="372.44 274.92 372.44 278.94 371.58 278.94"/>
  <path class="st3" d="M436.16,324.39c.59-.51.92-1.25.92-2.03"/>
  <polyline class="st3" points="436.15 318.38 437.08 318.38 437.08 322.4"/>
  <path class="st3" d="M384.22,322.36c0,.66.24,1.29.68,1.79"/>
  <polyline class="st3" points="384.15 322.4 384.15 318.38 384.79 318.38"/>
  <path class="st3" d="M384.9,273.1c-.44.49-.68,1.13-.68,1.79"/>
  <polyline class="st3" points="384.79 278.94 384.15 278.94 384.15 274.92"/>
  <path class="st3" d="M437.08,274.88c0-.78-.34-1.52-.92-2.03"/>
  <polyline class="st3" points="437.08 274.92 437.08 278.94 436.15 278.94"/>
  <path class="st3" d="M500.75,324.44c.62-.51.98-1.27.98-2.08"/>
  <polyline class="st3" points="500.72 318.38 501.73 318.38 501.73 322.4"/>
  <path class="st3" d="M448.86,322.36c0,.63.22,1.23.62,1.72"/>
  <polyline class="st3" points="448.79 322.4 448.79 318.38 449.44 318.38"/>
  <path class="st3" d="M449.48,273.17c-.4.48-.62,1.09-.62,1.72"/>
  <polyline class="st3" points="449.44 278.94 448.79 278.94 448.79 274.92"/>
  <path class="st3" d="M501.73,274.88c0-.8-.36-1.57-.98-2.08"/>
  <polyline class="st3" points="501.73 274.92 501.73 278.94 500.72 278.94"/>
  <path class="st3" d="M565.33,324.49c.66-.51,1.04-1.3,1.04-2.13"/>
  <polyline class="st3" points="565.3 318.38 566.38 318.38 566.38 322.4"/>
  <path class="st3" d="M513.51,322.36c0,.59.2,1.17.56,1.64"/>
  <polyline class="st3" points="513.44 322.4 513.44 318.38 514.01 318.38"/>
  <path class="st3" d="M514.07,273.24c-.36.47-.56,1.05-.56,1.64"/>
  <polyline class="st3" points="514.01 278.94 513.44 278.94 513.44 274.92"/>
  <path class="st3" d="M566.38,274.88c0-.83-.38-1.62-1.04-2.13"/>
  <polyline class="st3" points="566.38 274.92 566.38 278.94 565.3 278.94"/>
  <path class="st0" d="M436.16,389.04c.59-.51.92-1.25.92-2.03"/>
  <polyline class="st0" points="436.15 383.02 437.08 383.02 437.08 387.04"/>
  <path class="st0" d="M384.22,387.01c0,.66.24,1.29.68,1.79"/>
  <polyline class="st0" points="384.15 387.04 384.15 383.02 384.79 383.02"/>
  <path class="st0" d="M384.9,337.74c-.44.49-.68,1.13-.68,1.79"/>
  <polyline class="st0" points="384.79 343.66 384.15 343.66 384.15 339.57"/>
  <path class="st0" d="M437.08,339.53c0-.78-.34-1.52-.92-2.03"/>
  <polyline class="st0" points="437.08 339.57 437.08 343.66 436.15 343.66"/>
  <path class="st0" d="M500.75,389.09c.62-.51.98-1.27.98-2.08"/>
  <polyline class="st0" points="500.72 383.02 501.73 383.02 501.73 387.04"/>
  <path class="st0" d="M448.86,387.01c0,.63.22,1.23.62,1.72"/>
  <polyline class="st0" points="448.79 387.04 448.79 383.02 449.44 383.02"/>
  <path class="st0" d="M449.48,337.81c-.4.48-.62,1.09-.62,1.72"/>
  <polyline class="st0" points="449.44 343.66 448.79 343.66 448.79 339.57"/>
  <path class="st0" d="M501.73,339.53c0-.8-.36-1.57-.98-2.08"/>
  <polyline class="st0" points="501.73 339.57 501.73 343.66 500.72 343.66"/>
  <path class="st0" d="M565.33,389.14c.66-.51,1.04-1.3,1.04-2.13"/>
  <polyline class="st0" points="565.3 383.02 566.38 383.02 566.38 387.04"/>
  <path class="st0" d="M513.51,387.01c0,.59.2,1.17.56,1.64"/>
  <polyline class="st0" points="513.44 387.04 513.44 383.02 514.01 383.02"/>
  <path class="st0" d="M514.07,337.89c-.36.47-.56,1.05-.56,1.64"/>
  <polyline class="st0" points="514.01 343.66 513.44 343.66 513.44 339.57"/>
  <path class="st0" d="M566.38,339.53c0-.83-.38-1.62-1.04-2.13"/>
  <polyline class="st0" points="566.38 339.57 566.38 343.66 565.3 343.66"/>
  <path class="st0" d="M306.99,453.64c.51-.51.8-1.2.8-1.92"/>
  <polyline class="st0" points="307 447.67 307.79 447.67 307.79 451.76"/>
  <path class="st0" d="M254.86,451.73c0,.72.29,1.41.8,1.92"/>
  <polyline class="st0" points="254.86 451.76 254.86 447.67 255.65 447.67"/>
  <path class="st0" d="M255.66,402.26c-.51.51-.8,1.2-.8,1.92"/>
  <polyline class="st0" points="255.65 408.31 254.86 408.31 254.86 404.21"/>
  <path class="st0" d="M307.79,404.17c0-.72-.29-1.41-.8-1.92"/>
  <polyline class="st0" points="307.79 404.21 307.79 408.31 307 408.31"/>
  <path class="st0" d="M371.58,453.7c.55-.51.86-1.22.86-1.97"/>
  <polyline class="st0" points="371.58 447.67 372.44 447.67 372.44 451.76"/>
  <path class="st0" d="M319.57,451.73c0,.69.26,1.35.74,1.85"/>
  <polyline class="st0" points="319.5 451.76 319.5 447.67 320.22 447.67"/>
  <path class="st0" d="M320.31,402.32c-.47.5-.74,1.16-.74,1.85"/>
  <polyline class="st0" points="320.22 408.31 319.5 408.31 319.5 404.21"/>
  <path class="st0" d="M372.44,404.17c0-.75-.31-1.46-.86-1.97"/>
  <polyline class="st0" points="372.44 404.21 372.44 408.31 371.58 408.31"/>
  <path class="st0" d="M436.16,453.75c.59-.51.92-1.25.92-2.03"/>
  <polyline class="st0" points="436.15 447.67 437.08 447.67 437.08 451.76"/>
  <path class="st0" d="M384.22,451.73c0,.66.24,1.29.68,1.79"/>
  <polyline class="st0" points="384.15 451.76 384.15 447.67 384.79 447.67"/>
  <path class="st0" d="M384.9,402.39c-.44.49-.68,1.13-.68,1.79"/>
  <polyline class="st0" points="384.79 408.31 384.15 408.31 384.15 404.21"/>
  <path class="st0" d="M437.08,404.17c0-.78-.34-1.52-.92-2.03"/>
  <polyline class="st0" points="437.08 404.21 437.08 408.31 436.15 408.31"/>
  <polygon class="st1" points="603.94 136.15 603.94 136.22 603.94 193.47 712.55 193.47 712.55 136.22 603.94 136.15"/>
  <line class="st0" x1="682.81" y1="195.12" x2="682.81" y2="193.47"/>
  <line class="st0" x1="633.68" y1="193.47" x2="633.68" y2="195.12"/>
  <polyline class="st0" points="714.27 134.57 714.27 206.11 725.26 226.44 725.26 124.94 714.34 134.57"/>
  <polyline class="st0" points="725.26 124.94 591.23 124.94 602.15 134.57 714.34 134.57"/>
  <polyline class="st0" points="591.23 124.94 591.23 226.44 602.22 206.11 602.22 134.57"/>
  <line class="st0" x1="714.27" y1="195.41" x2="602.22" y2="195.41"/>
  <line class="st0" x1="591.23" y1="226.44" x2="725.26" y2="226.44"/>
  <line class="st0" x1="729.43" y1="79.4" x2="262.4" y2="79.4"/>
  <line class="st0" x1="262.4" y1="92.98" x2="729.43" y2="92.98"/>
  <path class="st0" d="M660.62,250.49c-1.33-1.33-3.49-1.33-4.83,0"/>
  <line class="st0" x1="575.64" y1="137.01" x2="575.64" y2="460.31"/>
  <line class="st0" x1="589.22" y1="460.31" x2="589.22" y2="137.01"/>
  <path class="st0" d="M780.35,362.44c0-3.61-1.43-7.07-3.97-9.62"/>
  <path class="st0" d="M776.39,244.43c2.54-2.55,3.97-6.02,3.97-9.63"/>
  <line class="st0" x1="776.33" y1="352.85" x2="731.8" y2="308.25"/>
  <line class="st0" x1="780.35" y1="464.62" x2="780.35" y2="362.48"/>
  <path class="st0" d="M729.46,515.47c13.5,0,26.44-5.36,35.99-14.91s14.91-22.49,14.9-35.99"/>
  <line class="st0" x1="218.94" y1="515.54" x2="729.43" y2="515.54"/>
  <path class="st0" d="M182.99,500.57c9.54,9.54,22.49,14.91,35.98,14.91"/>
  <line class="st0" x1="77.01" y1="394.66" x2="182.88" y2="500.6"/>
  <path class="st0" d="M62.14,358.64c0,13.5,5.36,26.44,14.91,35.99"/>
  <line class="st0" x1="62.07" y1="113.38" x2="62.07" y2="358.67"/>
  <path class="st0" d="M96.08,79.4c-18.74,0-33.94,15.2-33.94,33.94"/>
  <line class="st0" x1="103.3" y1="79.4" x2="96.04" y2="79.4"/>
  <path class="st0" d="M127.33,89.34c-6.36-6.36-15-9.94-24-9.94"/>
  <line class="st0" x1="137.27" y1="99.3" x2="127.29" y2="89.31"/>
  <path class="st0" d="M137.3,99.27c6.36,6.36,15,9.94,24,9.94"/>
  <line class="st0" x1="204.43" y1="109.28" x2="161.26" y2="109.28"/>
  <path class="st0" d="M204.47,109.21c9,0,17.63-3.58,24-9.94"/>
  <line class="st0" x1="238.41" y1="89.31" x2="228.42" y2="99.3"/>
  <path class="st0" d="M262.43,79.4c-9,0-17.63,3.58-24,9.94"/>
  <path class="st0" d="M780.35,130.29c0-28.11-22.78-50.89-50.89-50.89"/>
  <line class="st0" x1="780.35" y1="234.84" x2="780.35" y2="130.33"/>
  <line class="st0" x1="731.8" y1="289.07" x2="776.4" y2="244.46"/>
  <line class="st0" x1="660.54" y1="250.57" x2="706.3" y2="296.25"/>
  <line class="st0" x1="610.05" y1="296.25" x2="655.8" y2="250.57"/>
  <path class="st0" d="M610.11,296.25c-1.33,1.33-1.33,3.49,0,4.83"/>
  <line class="st0" x1="655.8" y1="346.75" x2="610.05" y2="301.07"/>
  <path class="st0" d="M655.8,346.75c1.33,1.33,3.49,1.33,4.83,0"/>
  <line class="st0" x1="706.3" y1="301.07" x2="660.54" y2="346.75"/>
  <path class="st0" d="M706.3,301.07c1.33-1.33,1.33-3.49,0-4.83"/>
  <path class="st0" d="M731.76,288.96c-2.54,2.54-3.96,5.99-3.95,9.59,0,3.6,1.45,7.06,4,9.61"/>
  <path class="st0" d="M575.71,136.97c0-1.88-1.53-3.41-3.41-3.41"/>
  <line class="st0" x1="248.97" y1="133.63" x2="572.27" y2="133.63"/>
  <path class="st0" d="M249,133.56c-1.88,0-3.41,1.53-3.41,3.41"/>
  <line class="st0" x1="245.59" y1="460.31" x2="245.59" y2="137.01"/>
  <path class="st0" d="M245.59,460.27c0,1.88,1.53,3.41,3.41,3.41"/>
  <line class="st0" x1="572.27" y1="463.68" x2="248.97" y2="463.68"/>
  <path class="st0" d="M572.3,463.68c1.88,0,3.41-1.53,3.41-3.41"/>
  <polyline class="st0" points="722.17 317.87 766.78 362.48 766.78 464.62"/>
  <path class="st0" d="M729.46,501.9c9.9,0,19.39-3.93,26.39-10.93,7-7,10.93-16.49,10.93-26.39"/>
  <line class="st0" x1="729.43" y1="501.97" x2="218.94" y2="501.97"/>
  <path class="st0" d="M192.59,490.97c7,7,16.49,10.93,26.39,10.93"/>
  <line class="st0" x1="192.51" y1="491.05" x2="86.56" y2="385.1"/>
  <path class="st0" d="M75.72,358.64c0,9.9,3.93,19.39,10.93,26.39"/>
  <line class="st0" x1="75.64" y1="358.67" x2="75.64" y2="113.38"/>
  <path class="st0" d="M96.08,92.98c-11.25,0-20.36,9.12-20.36,20.36"/>
  <line class="st0" x1="96.04" y1="92.98" x2="103.3" y2="92.98"/>
  <path class="st0" d="M117.73,98.94c-3.82-3.82-9-5.96-14.4-5.96"/>
  <polyline class="st0" points="117.66 98.94 127.65 108.92 130.38 111.44 133.32 113.81 136.41 115.82 139.71 117.69 143.09 119.27 146.54 120.56 150.13 121.57 153.79 122.28 157.53 122.71 161.26 122.86 204.43 122.86 208.17 122.71 211.83 122.28 215.49 121.57 219.09 120.56 222.6 119.27 225.98 117.69 229.28 115.82 232.37 113.81 235.32 111.44 238.05 108.92 248.03 98.94"/>
  <path class="st0" d="M262.43,92.98c-5.4,0-10.58,2.15-14.4,5.96"/>
  <path class="st0" d="M766.78,130.29c0-20.61-16.71-37.31-37.31-37.31"/>
  <polyline class="st0" points="766.78 130.33 766.78 234.84 722.17 279.44"/>
  <line class="st0" x1="715.92" y1="286.63" x2="670.17" y2="240.94"/>
  <path class="st0" d="M670.22,240.89c-6.63-6.63-17.39-6.63-24.02,0"/>
  <line class="st0" x1="646.18" y1="240.94" x2="600.49" y2="286.63"/>
  <path class="st0" d="M600.51,286.65c-6.63,6.63-6.63,17.39,0,24.02"/>
  <line class="st0" x1="600.49" y1="310.69" x2="646.18" y2="356.37"/>
  <path class="st0" d="M646.2,356.35c6.63,6.63,17.39,6.63,24.02,0"/>
  <line class="st0" x1="670.17" y1="356.37" x2="715.92" y2="310.69"/>
  <polyline class="st0" points="716.64 287.49 716.71 287.78 716.71 288.06 716.78 288.42 716.86 288.71 716.86 289.07 716.93 289.36 716.93 289.72 717 290 717 290.36 717.07 290.72 717.07 291.01 717.14 291.37 717.14 291.73 717.22 292.01 717.22 292.37 717.29 292.73 717.29 293.09 717.36 293.38 717.36 293.74 717.36 294.1 717.43 294.46 717.43 294.82 717.43 295.18 717.5 295.53 717.5 295.97 717.5 296.32 717.5 296.68 717.5 297.11 717.5 297.47 717.5 297.83 717.57 298.26 717.57 298.69 717.57 299.05 717.5 299.48 717.5 299.84 717.5 300.27 717.5 300.63 717.5 300.99 717.5 301.35 717.5 301.78 717.43 302.14 717.43 302.5 717.43 302.86 717.36 303.22 717.36 303.58 717.36 303.94 717.29 304.23 717.29 304.58 717.22 304.94 717.22 305.3 717.14 305.59 717.14 305.95 717.07 306.31 717.07 306.6 717 306.96 717 307.31 716.93 307.6 716.93 307.96 716.86 308.25 716.86 308.61 716.78 308.89 716.71 309.25 716.71 309.54 716.64 309.83"/>
  <path class="st0" d="M716.66,287.45c-.24-.28-.49-.54-.75-.8"/>
  <path class="st0" d="M715.9,310.67c.26-.26.51-.53.75-.8"/>
  <path class="st0" d="M716.68,309.8c1.35,2.98,3.22,5.7,5.53,8.01"/>
  <path class="st0" d="M722.21,279.36c-2.31,2.32-4.18,5.03-5.53,8.02"/>
  <path class="st0" d="M101.36,206.57c0,28.58,23.17,51.75,51.75,51.75s51.75-23.17,51.75-51.75-23.17-51.75-51.75-51.75-51.75,23.17-51.75,51.75"/>
  <path class="st0" d="M222.25,363.3c0-21.76-17.64-39.4-39.4-39.4s-39.4,17.64-39.4,39.4,17.64,39.4,39.4,39.4,39.4-17.64,39.4-39.4"/>
  <path class="st0" d="M589.29,136.97c0-9.38-7.61-16.99-16.99-16.99"/>
  <line class="st0" x1="572.27" y1="120.06" x2="248.97" y2="120.06"/>
  <path class="st0" d="M249,119.99c-9.38,0-16.99,7.61-16.99,16.99"/>
  <line class="st0" x1="232.01" y1="137.01" x2="232.01" y2="460.31"/>
  <path class="st0" d="M232.01,460.27c0,9.38,7.61,16.99,16.99,16.99"/>
  <line class="st0" x1="248.97" y1="477.26" x2="572.27" y2="477.26"/>
  <path class="st0" d="M572.3,477.26c9.38,0,16.99-7.61,16.99-16.99"/>
  <path class="st4" d="M709.03,427.95c0-28.07-22.75-50.82-50.82-50.82s-50.82,22.75-50.82,50.82,22.75,50.82,50.82,50.82,50.82-22.75,50.82-50.82"/>
  <path class="st2" d="M152.81,363.3c0,16.59,13.45,30.04,30.04,30.04s30.04-13.45,30.04-30.04-13.45-30.04-30.04-30.04-30.04,13.45-30.04,30.04"/>
  <polyline class="st3" points="373.23 336.62 253.99 336.62 253.99 390.06 373.23 390.06 373.23 336.62"/>
  <polyline class="st0" points="373.23 336.62 367.91 342.94 259.31 342.94 253.99 336.62"/>
  <polyline class="st0" points="259.31 342.94 259.31 383.67 253.99 390.06"/>
  <polyline class="st0" points="367.91 342.94 367.91 383.67 259.31 383.67"/>
  <line class="st0" x1="367.91" y1="383.67" x2="373.23" y2="390.06"/>
  <polyline class="st3" points="307 142.61 255.65 142.61 255.65 196.05 307 196.05 307 142.61"/>
  <polyline class="st3" points="307 142.61 301.69 149 260.96 149 255.65 142.61"/>
  <polyline class="st3" points="260.96 149 260.96 189.73 255.65 196.05"/>
  <polyline class="st3" points="301.69 149 301.69 189.73 260.96 189.73"/>
  <line class="st3" x1="301.69" y1="189.73" x2="307" y2="196.05"/>
  <polyline class="st3" points="371.58 142.61 320.22 142.61 320.22 196.05 371.58 196.05 371.58 142.61"/>
  <polyline class="st3" points="371.58 142.61 366.26 149 325.53 149 320.22 142.61"/>
  <polyline class="st3" points="325.53 149 325.53 189.73 320.22 196.05"/>
  <polyline class="st3" points="366.26 149 366.26 189.73 325.53 189.73"/>
  <line class="st3" x1="366.26" y1="189.73" x2="371.58" y2="196.05"/>
  <polyline class="st3" points="436.15 142.61 384.79 142.61 384.79 196.05 436.15 196.05 436.15 142.61"/>
  <polyline class="st3" points="436.15 142.61 430.84 149 390.11 149 384.79 142.61"/>
  <polyline class="st3" points="390.11 149 390.11 189.73 384.79 196.05"/>
  <polyline class="st3" points="430.84 149 430.84 189.73 390.11 189.73"/>
  <line class="st3" x1="430.84" y1="189.73" x2="436.15" y2="196.05"/>
  <polyline class="st3" points="500.72 142.61 449.44 142.61 449.44 196.05 500.72 196.05 500.72 142.61"/>
  <polyline class="st3" points="500.72 142.61 495.41 149 454.68 149 449.44 142.61"/>
  <polyline class="st3" points="454.68 149 454.68 189.73 449.44 196.05"/>
  <polyline class="st3" points="495.41 149 495.41 189.73 454.68 189.73"/>
  <line class="st3" x1="495.41" y1="189.73" x2="500.72" y2="196.05"/>
  <polyline class="st3" points="565.3 142.61 514.01 142.61 514.01 196.05 565.3 196.05 565.3 142.61"/>
  <polyline class="st3" points="565.3 142.61 560.06 149 519.33 149 514.01 142.61"/>
  <polyline class="st3" points="519.33 149 519.33 189.73 514.01 196.05"/>
  <polyline class="st3" points="560.06 149 560.06 189.73 519.33 189.73"/>
  <line class="st3" x1="560.06" y1="189.73" x2="565.3" y2="196.05"/>
  <polyline class="st3" points="307 207.19 255.65 207.19 255.65 260.7 307 260.7 307 207.19"/>
  <polyline class="st3" points="307 207.19 301.69 213.58 260.96 213.58 255.65 207.19"/>
  <polyline class="st3" points="260.96 213.58 260.96 254.3 255.65 260.7"/>
  <polyline class="st3" points="301.69 213.58 301.69 254.3 260.96 254.3"/>
  <line class="st3" x1="301.69" y1="254.3" x2="307" y2="260.7"/>
  <polyline class="st3" points="371.58 207.19 320.22 207.19 320.22 260.7 371.58 260.7 371.58 207.19"/>
  <polyline class="st3" points="371.58 207.19 366.26 213.58 325.53 213.58 320.22 207.19"/>
  <polyline class="st3" points="325.53 213.58 325.53 254.3 320.22 260.7"/>
  <polyline class="st3" points="366.26 213.58 366.26 254.3 325.53 254.3"/>
  <line class="st3" x1="366.26" y1="254.3" x2="371.58" y2="260.7"/>
  <polyline class="st3" points="436.15 207.19 384.79 207.19 384.79 260.7 436.15 260.7 436.15 207.19"/>
  <polyline class="st3" points="436.15 207.19 430.84 213.58 390.11 213.58 384.79 207.19"/>
  <polyline class="st3" points="390.11 213.58 390.11 254.3 384.79 260.7"/>
  <polyline class="st3" points="430.84 213.58 430.84 254.3 390.11 254.3"/>
  <line class="st3" x1="430.84" y1="254.3" x2="436.15" y2="260.7"/>
  <polyline class="st3" points="500.72 207.19 449.44 207.19 449.44 260.7 500.72 260.7 500.72 207.19"/>
  <polyline class="st3" points="500.72 207.19 495.41 213.58 454.68 213.58 449.44 207.19"/>
  <polyline class="st3" points="454.68 213.58 454.68 254.3 449.44 260.7"/>
  <polyline class="st3" points="495.41 213.58 495.41 254.3 454.68 254.3"/>
  <line class="st3" x1="495.41" y1="254.3" x2="500.72" y2="260.7"/>
  <polyline class="st3" points="565.3 207.19 514.01 207.19 514.01 260.7 565.3 260.7 565.3 207.19"/>
  <polyline class="st3" points="565.3 207.19 560.06 213.58 519.33 213.58 514.01 207.19"/>
  <polyline class="st3" points="519.33 213.58 519.33 254.3 514.01 260.7"/>
  <polyline class="st3" points="560.06 213.58 560.06 254.3 519.33 254.3"/>
  <line class="st3" x1="560.06" y1="254.3" x2="565.3" y2="260.7"/>
  <polyline class="st3" points="307 271.83 255.65 271.83 255.65 325.27 307 325.27 307 271.83"/>
  <polyline class="st3" points="307 271.83 301.69 278.15 260.96 278.15 255.65 271.83"/>
  <polyline class="st3" points="260.96 278.15 260.96 318.88 255.65 325.27"/>
  <polyline class="st3" points="301.69 278.15 301.69 318.88 260.96 318.88"/>
  <line class="st3" x1="301.69" y1="318.88" x2="307" y2="325.27"/>
  <polyline class="st3" points="371.58 271.83 320.22 271.83 320.22 325.27 371.58 325.27 371.58 271.83"/>
  <polyline class="st3" points="371.58 271.83 366.26 278.15 325.53 278.15 320.22 271.83"/>
  <polyline class="st3" points="325.53 278.15 325.53 318.88 320.22 325.27"/>
  <polyline class="st3" points="366.26 278.15 366.26 318.88 325.53 318.88"/>
  <line class="st3" x1="366.26" y1="318.88" x2="371.58" y2="325.27"/>
  <polyline class="st3" points="436.15 271.83 384.79 271.83 384.79 325.27 436.15 325.27 436.15 271.83"/>
  <polyline class="st3" points="436.15 271.83 430.84 278.15 390.11 278.15 384.79 271.83"/>
  <polyline class="st3" points="390.11 278.15 390.11 318.88 384.79 325.27"/>
  <polyline class="st3" points="430.84 278.15 430.84 318.88 390.11 318.88"/>
  <line class="st3" x1="430.84" y1="318.88" x2="436.15" y2="325.27"/>
  <polyline class="st3" points="500.72 271.83 449.44 271.83 449.44 325.27 500.72 325.27 500.72 271.83"/>
  <polyline class="st3" points="500.72 271.83 495.41 278.15 454.68 278.15 449.44 271.83"/>
  <polyline class="st3" points="454.68 278.15 454.68 318.88 449.44 325.27"/>
  <polyline class="st3" points="495.41 278.15 495.41 318.88 454.68 318.88"/>
  <line class="st3" x1="495.41" y1="318.88" x2="500.72" y2="325.27"/>
  <polyline class="st3" points="565.3 271.83 514.01 271.83 514.01 325.27 565.3 325.27 565.3 271.83"/>
  <polyline class="st3" points="565.3 271.83 560.06 278.15 519.33 278.15 514.01 271.83"/>
  <polyline class="st3" points="519.33 278.15 519.33 318.88 514.01 325.27"/>
  <polyline class="st3" points="560.06 278.15 560.06 318.88 519.33 318.88"/>
  <line class="st3" x1="560.06" y1="318.88" x2="565.3" y2="325.27"/>
  <polyline class="st3" points="436.15 336.4 384.79 336.4 384.79 389.85 436.15 389.85 436.15 336.4"/>
  <polyline class="st0" points="436.15 336.4 430.84 342.8 390.11 342.8 384.79 336.4"/>
  <polyline class="st3" points="390.11 342.8 390.11 383.52 384.79 389.85"/>
  <polyline class="st3" points="430.84 342.8 430.84 383.52 390.11 383.52"/>
  <line class="st0" x1="430.84" y1="383.52" x2="436.15" y2="389.85"/>
  <polyline class="st3" points="500.72 336.4 449.44 336.4 449.44 389.85 500.72 389.85 500.72 336.4"/>
  <polyline class="st0" points="500.72 336.4 495.41 342.8 454.68 342.8 449.44 336.4"/>
  <polyline class="st3" points="454.68 342.8 454.68 383.52 449.44 389.85"/>
  <polyline class="st3" points="495.41 342.8 495.41 383.52 454.68 383.52"/>
  <line class="st0" x1="495.41" y1="383.52" x2="500.72" y2="389.85"/>
  <polyline class="st3" points="565.3 336.4 514.01 336.4 514.01 389.85 565.3 389.85 565.3 336.4"/>
  <polyline class="st0" points="565.3 336.4 560.06 342.8 519.33 342.8 514.01 336.4"/>
  <polyline class="st3" points="519.33 342.8 519.33 383.52 514.01 389.85"/>
  <polyline class="st0" points="560.06 342.8 560.06 383.52 519.33 383.52"/>
  <line class="st0" x1="560.06" y1="383.52" x2="565.3" y2="389.85"/>
  <polyline class="st3" points="307 400.98 255.65 400.98 255.65 454.49 307 454.49 307 400.98"/>
  <polyline class="st0" points="307 400.98 301.69 407.37 260.96 407.37 255.65 400.98"/>
  <polyline class="st0" points="260.96 407.37 260.96 448.1 255.65 454.49"/>
  <polyline class="st0" points="301.69 407.37 301.69 448.1 260.96 448.1"/>
  <line class="st0" x1="301.69" y1="448.1" x2="307" y2="454.49"/>
  <polyline class="st3" points="371.58 400.98 320.22 400.98 320.22 454.49 371.58 454.49 371.58 400.98"/>
  <polyline class="st0" points="371.58 400.98 366.26 407.37 325.53 407.37 320.22 400.98"/>
  <polyline class="st0" points="325.53 407.37 325.53 448.1 320.22 454.49"/>
  <polyline class="st0" points="366.26 407.37 366.26 448.1 325.53 448.1"/>
  <line class="st0" x1="366.26" y1="448.1" x2="371.58" y2="454.49"/>
  <polyline class="st3" points="436.15 400.98 384.79 400.98 384.79 454.49 436.15 454.49 436.15 400.98"/>
  <polyline class="st0" points="436.15 400.98 430.84 407.37 390.11 407.37 384.79 400.98"/>
  <polyline class="st0" points="390.11 407.37 390.11 448.1 384.79 454.49"/>
  <polyline class="st0" points="430.84 407.37 430.84 448.1 390.11 448.1"/>
  <line class="st0" x1="430.84" y1="448.1" x2="436.15" y2="454.49"/>
  <polyline class="st3" points="567.02 401.19 447.79 401.19 447.79 454.63 567.02 454.63 567.02 401.19"/>
  <polyline class="st0" points="567.02 401.19 561.71 407.51 453.1 407.51 447.79 401.19"/>
  <polyline class="st0" points="453.1 407.51 453.1 448.24 447.79 454.63"/>
  <polyline class="st0" points="561.71 407.51 561.71 448.24 453.1 448.24"/>
  <line class="st0" x1="561.71" y1="448.24" x2="567.02" y2="454.63"/>
  <path class="st0" d="M664.64,298.66c0-3.55-2.88-6.43-6.43-6.43s-6.43,2.88-6.43,6.43,2.88,6.43,6.43,6.43,6.43-2.88,6.43-6.43"/>
  <polyline class="st0" points="695.81 298.48 686.83 298.48 658.32 270.04 658.32 260.98"/>
  <polyline class="st0" points="658.32 270.04 629.51 298.84 620.53 298.84"/>
  <line class="st0" x1="658.03" y1="327.28" x2="658.03" y2="336.33"/>
  <path class="st0" d="M176.05,202.56c-.22-3.03-.76-6.18-1.41-8.89,2.81-.54,5.53-1.3,7.81-2.17,1.84,3.37,3.03,7.16,3.47,11.06,0,0-9.87,0-9.87,0ZM167.59,178.27c3.79,1.63,7.16,3.91,9.75,6.5-1.52.44-3.25.87-5.2,1.19-1.3-2.93-2.81-5.42-4.55-7.7ZM174.63,219.48c.65-2.71,1.19-5.86,1.41-8.89h9.87c-.44,3.91-1.63,7.7-3.47,11.06-2.27-.87-4.99-1.63-7.81-2.17ZM167.59,234.87c1.73-2.27,3.25-4.77,4.55-7.7,1.95.32,3.69.76,5.2,1.19-2.61,2.61-5.96,4.88-9.75,6.5ZM157.07,187.16v-10.3c2.71,1.73,5.42,5.32,7.37,9.97-2.17.1-4.55.22-7.37.32h0ZM157.07,202.56v-7.37c3.69-.1,6.83-.22,9.87-.54.54,2.49.87,5.1,1.08,7.91,0,0-10.95,0-10.95,0ZM157.07,217.96v-7.37h10.95c-.22,2.81-.54,5.42-1.08,7.91-3.03-.32-6.18-.44-9.87-.54ZM157.07,236.28v-10.3c2.81.1,5.2.22,7.37.32-1.95,4.66-4.66,8.24-7.37,9.97h0ZM141.67,186.84c1.95-4.77,4.55-8.24,7.37-9.97v10.3c-2.81-.1-5.2-.22-7.37-.32h0ZM138.21,202.56c.22-2.81.54-5.32,1.08-7.81,2.81.22,6.08.32,9.75.44v7.37h-10.84.01ZM141.67,226.31c2.17-.1,4.55-.22,7.37-.32v10.3c-2.81-1.73-5.42-5.2-7.37-9.97h0ZM139.29,218.4c-.54-2.49-.87-4.99-1.08-7.81h10.84v7.37c-3.69.1-6.94.22-9.75.44h-.01ZM128.76,184.78c2.71-2.71,6.08-4.88,9.75-6.4-1.63,2.06-3.25,4.88-4.45,7.59-1.95-.32-3.79-.76-5.32-1.19h.01ZM128.76,228.37c1.63-.54,3.37-.87,5.32-1.19,1.3,2.93,2.81,5.53,4.55,7.7-3.91-1.63-7.05-3.79-9.87-6.5ZM120.31,202.56c.44-3.91,1.73-7.81,3.47-11.06,2.17.87,4.88,1.63,7.81,2.17-.65,2.71-1.19,5.74-1.41,8.89,0,0-9.87,0-9.87,0ZM120.31,210.58h9.87c.22,3.15.76,6.18,1.41,8.89-2.93.54-5.64,1.3-7.81,2.17-1.73-3.25-3.03-7.16-3.47-11.06ZM153.06,245.61c23.86,0,41.09-16.48,41.09-39.03s-17.24-39.03-41.09-39.03-40.99,16.48-40.99,39.03,17.24,39.03,40.99,39.03Z"/>
  <path class="st0" d="M721.83,427.95c0-35.14-28.48-63.62-63.62-63.62s-63.62,28.48-63.62,63.62,28.48,63.62,63.62,63.62,63.62-28.48,63.62-63.62"/>
</svg>