<?xml version="1.0" encoding="UTF-8"?>
<svg id="device-top-view" xmlns="http://www.w3.org/2000/svg" version="1.1" viewBox="0 0 841.89 595.28">
  <!-- Generator: Adobe Illustrator 30.2.1, SVG Export Plug-In . SVG Version: 2.1.1 Build 1)  -->
  <defs>
    <style>
      .st0 {
        fill: #161616;
      }

      .st0, .st1, .st2, .st3, .st4, .st5, .st6 {
        stroke-linecap: round;
        stroke-linejoin: round;
      }

      .st0, .st1, .st2, .st4, .st5, .st6 {
        stroke: #555;
      }

      .st1, .st3 {
        fill: none;
      }

      .st2 {
        fill: #0a0a0a;
      }

      .st3 {
        stroke: #444;
      }

      .st4 {
        fill: #2e2e2e;
      }

      .st5 {
        fill: #2a2a2a;
      }

      .st6 {
        fill: #222;
      }
    </style>
  </defs>
  <path class="st0" d="M76.98,394.63l105.87,105.94c9.54,9.54,22.57,14.94,36.06,14.94h510.49c28.2,0,50.92-22.72,50.92-50.92v-102.14c0-3.61-1.48-7.08-4.02-9.63l-44.53-44.6c-2.55-2.55-4-6.01-4-9.61-.01-3.59,1.45-7.02,4-9.57l44.6-44.61c2.53-2.54,3.95-6.01,3.95-9.62v-104.51c0-28.11-22.81-50.93-50.92-50.93h-467.03c-8.98,0-17.61,3.57-23.99,9.91l-9.99,9.99c-6.38,6.37-14.99,9.98-23.99,9.98h-43.17c-9,0-17.62-3.61-23.99-9.98l-9.98-9.99c-6.34-6.35-14.97-9.91-23.96-9.91h-7.25c-18.74,0-33.94,15.2-33.94,33.94v245.29c0,13.51,5.32,26.48,14.87,36.03Z"/>
  <g id="device-action-key">
    <polyline class="st4" points="695.81 298.48 658.32 260.98 620.53 298.84 658.03 336.33 695.81 298.48"/>
    <polyline class="st1" points="686.83 298.48 658.03 327.28 629.51 298.84"/>
    <path class="st1" d="M664.64,298.66c0-3.55-2.88-6.43-6.43-6.43s-6.43,2.88-6.43,6.43,2.88,6.43,6.43,6.43,6.43-2.88,6.43-6.43"/>
    <polyline class="st1" points="695.81 298.48 686.83 298.48 658.32 270.04 658.32 260.98"/>
    <polyline class="st1" points="658.32 270.04 629.51 298.84 620.53 298.84"/>
    <line class="st1" x1="658.03" y1="327.28" x2="658.03" y2="336.33"/>
  </g>
  <g id="device-display">
    <polygon class="st2" points="603.94 136.15 603.94 193.47 712.55 193.47 712.55 136.22 603.94 136.15"/>
    <line class="st1" x1="682.81" y1="195.12" x2="682.81" y2="193.47"/>
    <line class="st1" x1="633.68" y1="193.47" x2="633.68" y2="195.12"/>
    <polyline class="st1" points="714.27 134.57 714.27 206.11 725.26 226.44 725.26 124.94 714.34 134.57"/>
    <polyline class="st1" points="725.26 124.94 591.23 124.94 602.15 134.57 714.34 134.57"/>
    <polyline class="st1" points="591.23 124.94 591.23 226.44 602.22 206.11 602.22 134.57"/>
    <line class="st1" x1="714.27" y1="195.41" x2="602.22" y2="195.41"/>
    <line class="st1" x1="591.23" y1="226.44" x2="725.26" y2="226.44"/>
  </g>
  <g id="device-encoder2">
    <path class="st6" d="M709.03,427.95c0-28.07-22.75-50.82-50.82-50.82s-50.82,22.75-50.82,50.82,22.75,50.82,50.82,50.82,50.82-22.75,50.82-50.82"/>
    <path class="st1" d="M721.83,427.95c0-35.14-28.48-63.62-63.62-63.62s-63.62,28.48-63.62,63.62,28.48,63.62,63.62,63.62,63.62-28.48,63.62-63.62"/>
  </g>
  <g id="device-encoder1">
    <path class="st5" d="M152.81,363.3c0,16.59,13.45,30.04,30.04,30.04s30.04-13.45,30.04-30.04-13.45-30.04-30.04-30.04-30.04,13.45-30.04,30.04"/>
    <path class="st1" d="M222.25,363.3c0-21.76-17.64-39.4-39.4-39.4s-39.4,17.64-39.4,39.4,17.64,39.4,39.4,39.4,39.4-17.64,39.4-39.4"/>
    <circle class="st1" cx="153.11" cy="206.57" r="51.75"/>
  </g>
  <g id="device-encoder1-detail">
  <path fill="#555" d="M176.05,202.56c-.22-3.03-.76-6.18-1.41-8.89,2.81-.54,5.53-1.3,7.81-2.17,1.84,3.37,3.03,7.16,3.47,11.06h-9.87ZM167.59,178.27c3.79,1.63,7.16,3.91,9.75,6.5-1.52.44-3.25.87-5.2,1.19-1.3-2.93-2.81-5.42-4.55-7.7h0ZM174.63,219.48c.65-2.71,1.19-5.86,1.41-8.89h9.87c-.44,3.91-1.63,7.7-3.47,11.06-2.27-.87-4.99-1.63-7.81-2.17ZM167.59,234.87c1.73-2.27,3.25-4.77,4.55-7.7,1.95.32,3.69.76,5.2,1.19-2.61,2.61-5.96,4.88-9.75,6.5h0ZM157.07,187.16v-10.3c2.71,1.73,5.42,5.32,7.37,9.97-2.17.1-4.55.22-7.37.32h0ZM157.07,202.56v-7.37c3.69-.1,6.83-.22,9.87-.54.54,2.49.87,5.1,1.08,7.91h-10.95ZM157.07,217.96v-7.37h10.95c-.22,2.81-.54,5.42-1.08,7.91-3.03-.32-6.18-.44-9.87-.54h0ZM157.07,236.28v-10.3c2.81.1,5.2.22,7.37.32-1.95,4.66-4.66,8.24-7.37,9.97h0ZM141.67,186.84c1.95-4.77,4.55-8.24,7.37-9.97v10.3c-2.81-.1-5.2-.22-7.37-.32h0ZM138.21,202.56c.22-2.81.54-5.32,1.08-7.81,2.81.22,6.08.32,9.75.44v7.37h-10.84,0ZM141.67,226.31c2.17-.1,4.55-.22,7.37-.32v10.3c-2.81-1.73-5.42-5.2-7.37-9.97h0ZM139.29,218.4c-.54-2.49-.87-4.99-1.08-7.81h10.84v7.37c-3.69.1-6.94.22-9.75.44h0ZM128.76,184.78c2.71-2.71,6.08-4.88,9.75-6.4-1.63,2.06-3.25,4.88-4.45,7.59-1.95-.32-3.79-.76-5.32-1.19h.02ZM128.76,228.37c1.63-.54,3.37-.87,5.32-1.19,1.3,2.93,2.81,5.53,4.55,7.7-3.91-1.63-7.05-3.79-9.87-6.5h0ZM120.31,202.56c.44-3.91,1.73-7.81,3.47-11.06,2.17.87,4.88,1.63,7.81,2.17-.65,2.71-1.19,5.74-1.41,8.89,0,0-9.87,0-9.87,0ZM120.31,210.58h9.87c.22,3.15.76,6.18,1.41,8.89-2.93.54-5.64,1.3-7.81,2.17-1.73-3.25-3.03-7.16-3.47-11.06ZM153.06,245.61c23.86,0,41.09-16.48,41.09-39.03s-17.24-39.03-41.09-39.03-40.99,16.48-40.99,39.03,17.24,39.03,40.99,39.03Z"/>
  </g>
  <g id="device-keyboard-frame">
    <rect class="st3" x="245.59" y="133.63" width="330.05" height="330.05" rx="3.5" ry="3.5"/>
    <rect class="st1" x="232.02" y="120.06" width="357.2" height="357.2" rx="17" ry="17"/>
  </g>

  <path class="st1" d="M716.58,309.87c1.36,3,3.23,5.77,5.49,8.03l44.52,44.59c.67.68.02-.85.02-.04v102.14c0,20.53-16.69,37.22-37.22,37.22H218.91c-10.16,0-19.18-3.74-26.37-10.93l-105.87-105.94c-7.18-7.18-10.86-16.13-10.86-26.34V113.31c0-11.07,9.17-20.24,20.24-20.24h7.25c5.67,0,10.29,1.91,14.27,5.89l9.98,9.99c8.7,8.71,21.34,14,33.68,14h43.17c12.35,0,24.96-5.29,43.39-23.68l.27-.29c4.01-3.99,8.66-5.91,14.32-5.91h467.03c20.43,0,37.22,16.79,37.22,37.23v104.51c0,.92.64-.64.05-.06l-44.59,44.6c-2.26,2.26-4.13,5.03-5.5,8.02"/>
  <path class="st1" d="M655.11,345.93l-44.26-44.26c-2.18-2.18-2.18-3.9,0-6.08l44.26-44.26c2.18-2.19,3.9-2.19,6.08,0l45.76,45.76c1.11,1.11,1.11,1.97,0,3.08l-45.76,45.76c-2.18,2.19-3.9,2.19-6.08,0ZM645.42,355.62l-44.26-44.26c-8.27-8.27-8.27-17.18,0-25.46l44.26-44.26c8.27-8.27,17.18-8.27,25.46,0l45.76,45.76c1.33,6.77,1.33,15.68,0,22.46l-45.76,45.76c-8.27,8.27-17.18,8.27-25.46,0Z"/>
  <circle class="st1" cx="153.11" cy="206.57" r="51.75"/>
</svg>