<?xml version="1.0" encoding="UTF-8"?>
<svg id="Layer_1" xmlns="http://www.w3.org/2000/svg" version="1.1" viewBox="50 56 90 95">
  <!-- Generator: Adobe Illustrator 30.2.1, SVG Export Plug-In . SVG Version: 2.1.1 Build 1)  -->
  <g fill="currentColor">
    <path d="M67.34,129.89l1.98,1.05-1.75,5.43.24.13,3.37-4.57,2.3,1.21-1.87,5.37.24.13,3.49-4.51,1.95,1.02-5.02,6.23-2.89-1.52,1.74-4.79-.23-.12-2.97,4.14-2.91-1.53,2.31-7.66Z"/>
    <path d="M75.87,139.53c.53-1.75,2.12-2.56,3.92-2.01s2.66,2.09,2.13,3.85c-.54,1.77-2.13,2.58-3.91,2.04-1.8-.55-2.67-2.1-2.13-3.87ZM79.71,140.7c.23-.76.09-1.25-.46-1.42-.56-.17-.95.16-1.18.92-.23.77-.09,1.26.47,1.43.55.17.94-.16,1.17-.93Z"/>
    <path d="M83.78,138.69l1.85.33-.12,1.06.24.04c.22-.68.69-.96,1.37-.84l.61.11-.35,2-1.36-.24c-.28-.05-.39.02-.44.3l-.61,3.47-2.21-.39,1.03-5.84Z"/>
    <path d="M88.08,145.37l.74-7.82,2.23.21-.74,7.82-2.23-.21Z"/>
    <path d="M91.86,142.82c-.03-1.9.81-3.07,2.22-3.09.74,0,1.34.37,1.6,1.01h.25s-.04-2.85-.04-2.85l2.24-.03.11,7.85-1.76.02-.23-.92h-.24c-.26.68-.84,1.05-1.69,1.06-1.55.02-2.44-1.09-2.46-3.05ZM95.95,142.77c-.01-.81-.32-1.23-.93-1.22-.61,0-.89.43-.88,1.24.01.83.3,1.23.91,1.22.61,0,.9-.43.89-1.24Z"/>
    <path d="M99.58,141.01l3.65-.42.19,1.67-3.66.42-.19-1.67Z"/>
    <path d="M103.95,137.21l3.58-.85c1.75-.42,3.09.34,3.5,2.04s-.45,2.98-2.2,3.4l-1.39.33.53,2.21-2.19.52-1.82-7.64ZM108.73,138.94c-.14-.57-.49-.8-1.02-.67l-1.11.27.41,1.73,1.11-.27c.54-.13.75-.49.61-1.06Z"/>
    <path d="M112.92,141.32c-.43-1.09.16-2.04,1.52-2.59l.69-.28c.33-.13.45-.38.35-.63h0c-.11-.28-.46-.36-.88-.19-.45.18-.66.48-.61.81l-2.01.81c-.4-1.22.42-2.45,2.04-3.11,1.71-.69,3.12-.23,3.69,1.2l.54,1.33c.1.25.25.3.49.2l.17-.07.65,1.61-.68.27c-.63.26-1.14.19-1.49-.21l-.09-.1-.23.09c-.05.7-.56,1.29-1.46,1.65-1.23.49-2.27.19-2.69-.83ZM116.1,139.4l-.79.32c-.29.12-.46.39-.35.66.11.28.37.36.69.23.46-.18.62-.67.46-1.21Z"/>
    <path d="M119.38,137.22c-.97-1.63-.84-3.07.37-3.79.64-.38,1.35-.35,1.89.07l.21-.13-1.46-2.45,1.93-1.15,4.03,6.74-1.51.9-.66-.68-.2.12c.12.72-.2,1.32-.93,1.76-1.33.8-2.66.28-3.66-1.4ZM122.89,135.13c-.41-.69-.89-.9-1.41-.59-.52.31-.56.82-.14,1.51.43.71.87.91,1.4.6.52-.31.57-.82.15-1.52Z"/>
  </g>
  <path fill="currentColor" d="M117.08,94.54c-.21-2.92-.73-5.95-1.36-8.56,2.71-.52,5.32-1.25,7.52-2.09,1.77,3.24,2.92,6.89,3.34,10.65h-9.5ZM108.94,71.16c3.65,1.57,6.89,3.76,9.39,6.26-1.46.42-3.13.84-5.01,1.15-1.25-2.82-2.71-5.22-4.38-7.41ZM115.72,110.83c.63-2.61,1.15-5.64,1.36-8.56h9.5c-.42,3.76-1.57,7.41-3.34,10.65-2.19-.84-4.8-1.57-7.52-2.09ZM108.94,125.65c1.67-2.19,3.13-4.59,4.38-7.41,1.88.31,3.55.73,5.01,1.15-2.51,2.51-5.74,4.7-9.39,6.26ZM98.81,79.72v-9.92c2.61,1.67,5.22,5.12,7.1,9.6-2.09.1-4.38.21-7.1.31ZM98.81,94.54v-7.1c3.55-.1,6.58-.21,9.5-.52.52,2.4.84,4.91,1.04,7.62h-10.54ZM98.81,109.37v-7.1h10.54c-.21,2.71-.52,5.22-1.04,7.62-2.92-.31-5.95-.42-9.5-.52ZM98.81,127.01v-9.92c2.71.1,5.01.21,7.1.31-1.88,4.49-4.49,7.93-7.1,9.6ZM83.99,79.41c1.88-4.59,4.38-7.93,7.1-9.6v9.92c-2.71-.1-5.01-.21-7.1-.31ZM80.65,94.54c.21-2.71.52-5.12,1.04-7.52,2.71.21,5.85.31,9.39.42v7.1h-10.44ZM83.99,117.41c2.09-.1,4.38-.21,7.1-.31v9.92c-2.71-1.67-5.22-5.01-7.1-9.6ZM81.69,109.79c-.52-2.4-.84-4.8-1.04-7.52h10.44v7.1c-3.55.1-6.68.21-9.39.42ZM71.56,77.43c2.61-2.61,5.85-4.7,9.39-6.16-1.57,1.98-3.13,4.7-4.28,7.31-1.88-.31-3.65-.73-5.12-1.15ZM71.56,119.39c1.57-.52,3.24-.84,5.12-1.15,1.25,2.82,2.71,5.32,4.38,7.41-3.76-1.57-6.79-3.65-9.5-6.26ZM63.42,94.54c.42-3.76,1.67-7.52,3.34-10.65,2.09.84,4.7,1.57,7.52,2.09-.63,2.61-1.15,5.53-1.36,8.56h-9.5ZM63.42,102.27h9.5c.21,3.03.73,5.95,1.36,8.56-2.82.52-5.43,1.25-7.52,2.09-1.67-3.13-2.92-6.89-3.34-10.65ZM94.95,135.99c22.97,0,39.56-15.87,39.56-37.58s-16.6-37.58-39.56-37.58-39.46,15.87-39.46,37.58,16.6,37.58,39.46,37.58Z"/>
</svg>