<?xml version="1.0" encoding="UTF-8"?>
<svg id="Layer_1" xmlns="http://www.w3.org/2000/svg" version="1.1" viewBox="0 0 190 190">
  <!-- Generator: Adobe Illustrator 30.2.1, SVG Export Plug-In . SVG Version: 2.1.1 Build 1)  -->
  <defs>
    <style>
      .st0 {
        fill: #231f20;
      }
    </style>
  </defs>
  <g>
    <path class="st0" d="M52.86,151.17l3.48,1.52-2.27,9.38.42.18,5.12-8.13,4.03,1.76-2.48,9.28.42.18,5.33-8.04,3.41,1.49-7.69,11.13-5.06-2.21,2.34-8.29-.4-.17-4.49,7.35-5.09-2.22,2.94-13.2Z"/>
    <path class="st0" d="M67.9,166.24c.71-3.01,3.31-4.54,6.39-3.81,3.08.73,4.7,3.25,3.99,6.26-.72,3.04-3.32,4.57-6.38,3.85-3.1-.73-4.72-3.26-4-6.3ZM74.5,167.8c.31-1.31.01-2.12-.93-2.34-.96-.23-1.59.37-1.9,1.67-.31,1.33-.02,2.14.94,2.37.94.22,1.57-.37,1.88-1.7Z"/>
    <path class="st0" d="M80.71,163.94l3.14.38-.1,1.8.41.05c.31-1.16,1.08-1.68,2.23-1.54l1.03.13-.41,3.41-2.31-.28c-.47-.06-.66.07-.71.54l-.72,5.91-3.76-.46,1.21-9.93Z"/>
    <path class="st0" d="M88.05,174.78l.63-13.25,3.79.18-.63,13.25-3.79-.18Z"/>
    <path class="st0" d="M93.82,170.11c-.14-3.2,1.21-5.23,3.59-5.34,1.25-.06,2.28.56,2.75,1.62l.42-.02-.22-4.81,3.79-.17.6,13.25-2.97.13-.43-1.54-.4.02c-.4,1.16-1.36,1.81-2.8,1.87-2.61.12-4.18-1.71-4.33-5.02ZM100.73,169.82c-.06-1.36-.61-2.06-1.63-2.01s-1.48.77-1.42,2.13c.06,1.4.57,2.06,1.61,2.01,1.02-.05,1.5-.77,1.44-2.13Z"/>
    <path class="st0" d="M105.61,161.22l6.12-1.11c2.99-.54,5.18.86,5.71,3.77s-1.04,4.99-4.03,5.53l-2.37.43.68,3.77-3.75.68-2.36-13.06ZM113.5,164.59c-.18-.97-.75-1.39-1.67-1.22l-1.9.34.53,2.95,1.9-.34c.92-.17,1.31-.76,1.13-1.73Z"/>
    <path class="st0" d="M119.82,169.15c-.6-1.88.49-3.42,2.85-4.19l1.19-.39c.58-.19.81-.58.66-1.02v-.02c-.16-.47-.74-.64-1.47-.39-.77.25-1.17.75-1.11,1.3l-3.48,1.15c-.55-2.09.97-4.09,3.78-5.02,2.95-.97,5.28-.04,6.09,2.42l.76,2.3c.14.43.39.53.81.39l.29-.09.92,2.79-1.17.39c-1.1.36-1.95.2-2.49-.52l-.14-.17-.4.13c-.15,1.17-1.08,2.11-2.65,2.63-2.12.7-3.85.07-4.45-1.69ZM125.39,166.25l-1.37.45c-.5.17-.82.61-.66,1.08.16.49.59.64,1.13.47.79-.26,1.12-1.07.9-1.99Z"/>
    <path class="st0" d="M130.72,163.12c-1.44-2.86-1.03-5.27,1.1-6.34,1.12-.56,2.31-.42,3.17.36l.37-.19-2.16-4.3,3.39-1.7,5.95,11.86-2.66,1.33-1.02-1.23-.36.18c.1,1.22-.5,2.2-1.79,2.85-2.34,1.17-4.51.14-6-2.82ZM136.91,160.04c-.61-1.22-1.39-1.63-2.31-1.17-.91.46-1.04,1.31-.43,2.53.63,1.25,1.36,1.65,2.29,1.18.92-.46,1.06-1.31.45-2.53Z"/>
  </g>
  <path d="M132.31,88.47c-.35-4.94-1.23-10.05-2.29-14.46,4.59-.88,9-2.12,12.7-3.53,3,5.47,4.94,11.64,5.64,17.99h-16.05ZM118.55,48.96c6.17,2.65,11.64,6.35,15.87,10.58-2.47.71-5.29,1.41-8.47,1.94-2.12-4.76-4.59-8.82-7.41-12.52ZM130.01,115.99c1.06-4.41,1.94-9.52,2.29-14.46h16.05c-.71,6.35-2.65,12.52-5.64,17.99-3.7-1.41-8.11-2.65-12.7-3.53ZM118.55,141.04c2.82-3.7,5.29-7.76,7.41-12.52,3.17.53,6,1.23,8.47,1.94-4.23,4.23-9.7,7.94-15.87,10.58ZM101.44,63.43v-16.76c4.41,2.82,8.82,8.64,11.99,16.23-3.53.18-7.41.35-11.99.53ZM101.44,88.47v-11.99c6-.18,11.11-.35,16.05-.88.88,4.06,1.41,8.29,1.76,12.88h-17.82ZM101.44,113.52v-11.99h17.82c-.35,4.59-.88,8.82-1.76,12.88-4.94-.53-10.05-.71-16.05-.88ZM101.44,143.33v-16.76c4.59.18,8.47.35,11.99.53-3.17,7.58-7.58,13.41-11.99,16.23ZM76.39,62.9c3.17-7.76,7.41-13.41,11.99-16.23v16.76c-4.59-.18-8.47-.35-11.99-.53ZM70.75,88.47c.35-4.59.88-8.64,1.76-12.7,4.59.35,9.88.53,15.87.71v11.99h-17.64ZM76.39,127.1c3.53-.18,7.41-.35,11.99-.53v16.76c-4.59-2.82-8.82-8.47-11.99-16.23ZM72.51,114.23c-.88-4.06-1.41-8.11-1.76-12.7h17.64v11.99c-6,.18-11.29.35-15.87.71ZM55.4,59.55c4.41-4.41,9.88-7.94,15.87-10.41-2.65,3.35-5.29,7.94-7.23,12.35-3.17-.53-6.17-1.23-8.64-1.94ZM55.4,130.45c2.65-.88,5.47-1.41,8.64-1.94,2.12,4.76,4.59,9,7.41,12.52-6.35-2.65-11.47-6.17-16.05-10.58ZM41.64,88.47c.71-6.35,2.82-12.7,5.64-17.99,3.53,1.41,7.94,2.65,12.7,3.53-1.06,4.41-1.94,9.35-2.29,14.46h-16.05ZM41.64,101.53h16.05c.35,5.12,1.23,10.05,2.29,14.46-4.76.88-9.17,2.12-12.7,3.53-2.82-5.29-4.94-11.64-5.64-17.99ZM94.91,158.5c38.81,0,66.85-26.81,66.85-63.5s-28.05-63.5-66.85-63.5S28.24,58.31,28.24,95s28.05,63.5,66.67,63.5Z"/>
</svg>