  0
SECTION
  2
HEADER
  9
$ACADVER
  1
AC1032
  9
$ACADMAINTVER
 90
      266
  9
$DWGCODEPAGE
  3
ANSI_1252
  9
$REQUIREDVERSIONS
160
                 0
  9
$INSBASE
 10
0.0
 20
0.0
 30
0.0
  9
$EXTMIN
 10
1.000000000000000E+20
 20
1.000000000000000E+20
 30
1.000000000000000E+20
  9
$EXTMAX
 10
-1.000000000000000E+20
 20
-1.000000000000000E+20
 30
-1.000000000000000E+20
  9
$LIMMIN
 10
0.0
 20
0.0
  9
$LIMMAX
 10
12.0
 20
9.0
  9
$ORTHOMODE
 70
     0
  9
$REGENMODE
 70
     1
  9
$FILLMODE
 70
     1
  9
$QTEXTMODE
 70
     0
  9
$MIRRTEXT
 70
     0
  9
$LTSCALE
 40
1.0
  9
$ATTMODE
 70
     1
  9
$TEXTSIZE
 40
0.2
  9
$TRACEWID
 40
0.05
  9
$TEXTSTYLE
  7
Standard
  9
$CLAYER
  8
0
  9
$CELTYPE
  6
ByLayer
  9
$CECOLOR
 62
   256
  9
$CELTSCALE
 40
1.0
  9
$DISPSILH
 70
     0
  9
$DIMSCALE
 40
1.0
  9
$DIMASZ
 40
0.18
  9
$DIMEXO
 40
0.0625
  9
$DIMDLI
 40
0.38
  9
$DIMRND
 40
0.0
  9
$DIMDLE
 40
0.0
  9
$DIMEXE
 40
0.18
  9
$DIMTP
 40
0.0
  9
$DIMTM
 40
0.0
  9
$DIMTXT
 40
0.18
  9
$DIMCEN
 40
0.09
  9
$DIMTSZ
 40
0.0
  9
$DIMTOL
 70
     0
  9
$DIMLIM
 70
     0
  9
$DIMTIH
 70
     1
  9
$DIMTOH
 70
     1
  9
$DIMSE1
 70
     0
  9
$DIMSE2
 70
     0
  9
$DIMTAD
 70
     0
  9
$DIMZIN
 70
     0
  9
$DIMBLK
  1

  9
$DIMASO
 70
     1
  9
$DIMSHO
 70
     1
  9
$DIMPOST
  1

  9
$DIMAPOST
  1

  9
$DIMALT
 70
     0
  9
$DIMALTD
 70
     2
  9
$DIMALTF
 40
25.4
  9
$DIMLFAC
 40
1.0
  9
$DIMTOFL
 70
     0
  9
$DIMTVP
 40
0.0
  9
$DIMTIX
 70
     0
  9
$DIMSOXD
 70
     0
  9
$DIMSAH
 70
     0
  9
$DIMBLK1
  1

  9
$DIMBLK2
  1

  9
$DIMSTYLE
  2
Standard
  9
$DIMCLRD
 70
     0
  9
$DIMCLRE
 70
     0
  9
$DIMCLRT
 70
     0
  9
$DIMTFAC
 40
1.0
  9
$DIMGAP
 40
0.09
  9
$DIMJUST
 70
     0
  9
$DIMSD1
 70
     0
  9
$DIMSD2
 70
     0
  9
$DIMTOLJ
 70
     1
  9
$DIMTZIN
 70
     0
  9
$DIMALTZ
 70
     0
  9
$DIMALTTZ
 70
     0
  9
$DIMUPT
 70
     0
  9
$DIMDEC
 70
     4
  9
$DIMTDEC
 70
     4
  9
$DIMALTU
 70
     2
  9
$DIMALTTD
 70
     2
  9
$DIMTXSTY
  7
Standard
  9
$DIMAUNIT
 70
     0
  9
$DIMADEC
 70
     0
  9
$DIMALTRND
 40
0.0
  9
$DIMAZIN
 70
     0
  9
$DIMDSEP
 70
    46
  9
$DIMATFIT
 70
     3
  9
$DIMFRAC
 70
     0
  9
$DIMLDRBLK
  1

  9
$DIMLUNIT
 70
     2
  9
$DIMLWD
 70
    -2
  9
$DIMLWE
 70
    -2
  9
$DIMTMOVE
 70
     0
  9
$DIMFXL
 40
1.0
  9
$DIMFXLON
 70
     0
  9
$DIMJOGANG
 40
0.7853981633974483
  9
$DIMTFILL
 70
     0
  9
$DIMTFILLCLR
 70
     0
  9
$DIMARCSYM
 70
     0
  9
$DIMLTYPE
  6

  9
$DIMLTEX1
  6

  9
$DIMLTEX2
  6

  9
$DIMTXTDIRECTION
 70
     0
  9
$LUNITS
 70
     2
  9
$LUPREC
 70
     4
  9
$SKETCHINC
 40
0.1
  9
$FILLETRAD
 40
0.0
  9
$AUNITS
 70
     0
  9
$AUPREC
 70
     0
  9
$MENU
  1
.
  9
$ELEVATION
 40
0.0
  9
$PELEVATION
 40
0.0
  9
$THICKNESS
 40
0.0
  9
$LIMCHECK
 70
     0
  9
$CHAMFERA
 40
0.0
  9
$CHAMFERB
 40
0.0
  9
$CHAMFERC
 40
0.0
  9
$CHAMFERD
 40
0.0
  9
$SKPOLY
 70
     0
  9
$TDCREATE
 40
2461114.735520833
  9
$TDUCREATE
 40
2461114.693854167
  9
$TDUPDATE
 40
2461114.735520833
  9
$TDUUPDATE
 40
2461114.693854167
  9
$TDINDWG
 40
0.0000000000
  9
$TDUSRTIMER
 40
0.0000000000
  9
$USRTIMER
 70
     1
  9
$ANGBASE
 50
0.0
  9
$ANGDIR
 70
     0
  9
$PDMODE
 70
     0
  9
$PDSIZE
 40
0.0
  9
$PLINEWID
 40
0.0
  9
$SPLFRAME
 70
     0
  9
$SPLINETYPE
 70
     6
  9
$SPLINESEGS
 70
     8
  9
$HANDSEED
  5
AD
  9
$SURFTAB1
 70
     6
  9
$SURFTAB2
 70
     6
  9
$SURFTYPE
 70
     6
  9
$SURFU
 70
     6
  9
$SURFV
 70
     6
  9
$UCSBASE
  2

  9
$UCSNAME
  2

  9
$UCSORG
 10
0.0
 20
0.0
 30
0.0
  9
$UCSXDIR
 10
1.0
 20
0.0
 30
0.0
  9
$UCSYDIR
 10
0.0
 20
1.0
 30
0.0
  9
$UCSORTHOREF
  2

  9
$UCSORTHOVIEW
 70
     0
  9
$UCSORGTOP
 10
0.0
 20
0.0
 30
0.0
  9
$UCSORGBOTTOM
 10
0.0
 20
0.0
 30
0.0
  9
$UCSORGLEFT
 10
0.0
 20
0.0
 30
0.0
  9
$UCSORGRIGHT
 10
0.0
 20
0.0
 30
0.0
  9
$UCSORGFRONT
 10
0.0
 20
0.0
 30
0.0
  9
$UCSORGBACK
 10
0.0
 20
0.0
 30
0.0
  9
$PUCSBASE
  2

  9
$PUCSNAME
  2

  9
$PUCSORG
 10
0.0
 20
0.0
 30
0.0
  9
$PUCSXDIR
 10
1.0
 20
0.0
 30
0.0
  9
$PUCSYDIR
 10
0.0
 20
1.0
 30
0.0
  9
$PUCSORTHOREF
  2

  9
$PUCSORTHOVIEW
 70
     0
  9
$PUCSORGTOP
 10
0.0
 20
0.0
 30
0.0
  9
$PUCSORGBOTTOM
 10
0.0
 20
0.0
 30
0.0
  9
$PUCSORGLEFT
 10
0.0
 20
0.0
 30
0.0
  9
$PUCSORGRIGHT
 10
0.0
 20
0.0
 30
0.0
  9
$PUCSORGFRONT
 10
0.0
 20
0.0
 30
0.0
  9
$PUCSORGBACK
 10
0.0
 20
0.0
 30
0.0
  9
$USERI1
 70
     0
  9
$USERI2
 70
     0
  9
$USERI3
 70
     0
  9
$USERI4
 70
     0
  9
$USERI5
 70
     0
  9
$USERR1
 40
0.0
  9
$USERR2
 40
0.0
  9
$USERR3
 40
0.0
  9
$USERR4
 40
0.0
  9
$USERR5
 40
0.0
  9
$WORLDVIEW
 70
     1
  9
$SHADEDGE
 70
     3
  9
$SHADEDIF
 70
    70
  9
$TILEMODE
 70
     1
  9
$MAXACTVP
 70
    64
  9
$PINSBASE
 10
0.0
 20
0.0
 30
0.0
  9
$PLIMCHECK
 70
     0
  9
$PEXTMIN
 10
1.000000000000000E+20
 20
1.000000000000000E+20
 30
1.000000000000000E+20
  9
$PEXTMAX
 10
-1.000000000000000E+20
 20
-1.000000000000000E+20
 30
-1.000000000000000E+20
  9
$PLIMMIN
 10
0.0
 20
0.0
  9
$PLIMMAX
 10
12.0
 20
9.0
  9
$UNITMODE
 70
     0
  9
$VISRETAIN
 70
     1
  9
$PLINEGEN
 70
     0
  9
$PSLTSCALE
 70
     1
  9
$TREEDEPTH
 70
  3020
  9
$CMLSTYLE
  2
Standard
  9
$CMLJUST
 70
     0
  9
$CMLSCALE
 40
1.0
  9
$PROXYGRAPHICS
 70
     1
  9
$MEASUREMENT
 70
     0
  9
$CELWEIGHT
370
    -1
  9
$ENDCAPS
280
     0
  9
$JOINSTYLE
280
     0
  9
$LWDISPLAY
290
     1
  9
$INSUNITS
 70
     0
  9
$HYPERLINKBASE
  1

  9
$STYLESHEET
  1

  9
$XEDIT
290
     1
  9
$CEPSNTYPE
380
     0
  9
$PSTYLEMODE
290
     1
  9
$FINGERPRINTGUID
  2
{DADADD67-34EF-5247-BA1A-EB0586407CBC}
  9
$VERSIONGUID
  2
{B1C5B75B-AE27-0C43-9C43-2545B550C52F}
  9
$EXTNAMES
290
     1
  9
$PSVPSCALE
 40
0.0
  9
$OLESTARTUP
290
     0
  9
$SORTENTS
280
   127
  9
$INDEXCTL
280
     0
  9
$HIDETEXT
280
     1
  9
$XCLIPFRAME
280
     2
  9
$HALOGAP
280
     0
  9
$OBSCOLOR
 70
   257
  9
$OBSLTYPE
280
     0
  9
$INTERSECTIONDISPLAY
280
     0
  9
$INTERSECTIONCOLOR
 70
   257
  9
$DIMASSOC
280
     2
  9
$PROJECTNAME
  1

  9
$CAMERADISPLAY
290
     0
  9
$LENSLENGTH
 40
50.0
  9
$CAMERAHEIGHT
 40
0.0
  9
$STEPSPERSEC
 40
2.0
  9
$STEPSIZE
 40
6.0
  9
$3DDWFPREC
 40
2.0
  9
$PSOLWIDTH
 40
0.25
  9
$PSOLHEIGHT
 40
4.0
  9
$LOFTANG1
 40
1.570796326794896
  9
$LOFTANG2
 40
1.570796326794896
  9
$LOFTMAG1
 40
0.0
  9
$LOFTMAG2
 40
0.0
  9
$LOFTPARAM
 70
     7
  9
$LOFTNORMALS
280
     1
  9
$LATITUDE
 40
37.795
  9
$LONGITUDE
 40
-122.394
  9
$NORTHDIRECTION
 40
0.0
  9
$TIMEZONE
 70
 -8000
  9
$LIGHTGLYPHDISPLAY
280
     1
  9
$TILEMODELIGHTSYNCH
280
     1
  9
$CMATERIAL
347
11
  9
$SOLIDHIST
280
     0
  9
$SHOWHIST
280
     1
  9
$DWFFRAME
280
     2
  9
$DGNFRAME
280
     0
  9
$REALWORLDSCALE
290
     1
  9
$INTERFERECOLOR
 62
     1
  9
$INTERFEREOBJVS
345
33
  9
$INTERFEREVPVS
346
30
  9
$CSHADOW
280
     0
  9
$SHADOWPLANELOCATION
 40
0.0
  0
ENDSEC
  0
SECTION
  2
CLASSES
  0
CLASS
  1
ACDBDICTIONARYWDFLT
  2
AcDbDictionaryWithDefault
  3
ObjectDBX Classes
 90
        0
 91
        1
280
     0
281
     0
  0
CLASS
  1
MATERIAL
  2
AcDbMaterial
  3
ObjectDBX Classes
 90
     1153
 91
        3
280
     0
281
     0
  0
CLASS
  1
VISUALSTYLE
  2
AcDbVisualStyle
  3
ObjectDBX Classes
 90
     4095
 91
       24
280
     0
281
     0
  0
CLASS
  1
SCALE
  2
AcDbScale
  3
ObjectDBX Classes
 90
     1153
 91
       17
280
     0
281
     0
  0
CLASS
  1
TABLESTYLE
  2
AcDbTableStyle
  3
ObjectDBX Classes
 90
     4095
 91
        1
280
     0
281
     0
  0
CLASS
  1
MLEADERSTYLE
  2
AcDbMLeaderStyle
  3
ACDB_MLEADERSTYLE_CLASS
 90
     4095
 91
        1
280
     0
281
     0
  0
CLASS
  1
ACDBSECTIONVIEWSTYLE
  2
AcDbSectionViewStyle
  3
ObjectDBX Classes
 90
     1025
 91
        1
280
     0
281
     0
  0
CLASS
  1
ACDBDETAILVIEWSTYLE
  2
AcDbDetailViewStyle
  3
ObjectDBX Classes
 90
     1025
 91
        1
280
     0
281
     0
  0
CLASS
  1
DICTIONARYVAR
  2
AcDbDictionaryVar
  3
ObjectDBX Classes
 90
        0
 91
        5
280
     0
281
     0
  0
CLASS
  1
CELLSTYLEMAP
  2
AcDbCellStyleMap
  3
ObjectDBX Classes
 90
     1152
 91
        1
280
     0
281
     0
  0
ENDSEC
  0
SECTION
  2
TABLES
  0
TABLE
  2
VPORT
  5
8
330
0
100
AcDbSymbolTable
 70
     1
  0
VPORT
  5
57
330
8
100
AcDbSymbolTableRecord
100
AcDbViewportTableRecord
  2
*Active
 70
     0
 10
0.0
 20
0.0
 11
1.0
 21
1.0
 12
0.0
 22
0.0
 13
0.0
 23
0.0
 14
1.0
 24
1.0
 15
0.0
 25
0.0
 16
0.0
 26
0.0
 36
1.0
 17
95.0
 27
-95.0
 37
0.0
 40
193.8
 41
1.0
 42
50.0
 43
0.0
 44
0.0
 50
0.0
 51
0.0
 71
     0
 72
   100
 73
     1
 74
     1
 75
     0
 76
     0
 77
     0
 78
     0
281
     0
 65
     1
110
0.0
120
0.0
130
0.0
111
1.0
121
0.0
131
0.0
112
0.0
122
1.0
132
0.0
 79
     0
146
0.0
 60
     3
 61
     5
292
     1
282
     1
141
0.0
142
0.0
 63
   250
421
  3355443
  0
ENDTAB
  0
TABLE
  2
LTYPE
  5
5
330
0
100
AcDbSymbolTable
 70
     1
  0
LTYPE
  5
5B
330
5
100
AcDbSymbolTableRecord
100
AcDbLinetypeTableRecord
  2
ByBlock
 70
     0
  3

 72
    65
 73
     0
 40
0.0
  0
LTYPE
  5
5C
330
5
100
AcDbSymbolTableRecord
100
AcDbLinetypeTableRecord
  2
ByLayer
 70
     0
  3

 72
    65
 73
     0
 40
0.0
  0
LTYPE
  5
5D
330
5
100
AcDbSymbolTableRecord
100
AcDbLinetypeTableRecord
  2
Continuous
 70
     0
  3
Solid line
 72
    65
 73
     0
 40
0.0
  0
ENDTAB
  0
TABLE
  2
LAYER
  5
2
330
0
100
AcDbSymbolTable
 70
     2
  0
LAYER
  5
54
330
2
100
AcDbSymbolTableRecord
100
AcDbLayerTableRecord
  2
0
 70
     0
 62
     7
  6
Continuous
370
    -3
390
F
347
21
348
0
  0
LAYER
  5
78
330
2
100
AcDbSymbolTableRecord
100
AcDbLayerTableRecord
  2
Layer 1
 70
     0
 62
     7
  6
Continuous
370
     0
390
F
347
21
348
0
  0
ENDTAB
  0
TABLE
  2
STYLE
  5
3
330
0
100
AcDbSymbolTable
 70
     2
  0
STYLE
  5
55
330
3
100
AcDbSymbolTableRecord
100
AcDbTextStyleTableRecord
  2
Standard
 70
     0
 40
0.0
 41
1.0
 50
0.0
 71
     0
 42
0.2
  3
txt
  4

  0
STYLE
  5
5A
330
3
100
AcDbSymbolTableRecord
100
AcDbTextStyleTableRecord
  2
Annotative
 70
     0
 40
0.0
 41
1.0
 50
0.0
 71
     0
 42
0.2
  3
txt
  4

1001
AcadAnnotative
1000
AnnotativeData
1002
{
1070
     1
1070
     1
1002
}
  0
ENDTAB
  0
TABLE
  2
VIEW
  5
6
330
0
100
AcDbSymbolTable
 70
     0
  0
ENDTAB
  0
TABLE
  2
UCS
  5
7
330
0
100
AcDbSymbolTable
 70
     0
  0
ENDTAB
  0
TABLE
  2
APPID
  5
9
330
0
100
AcDbSymbolTable
 70
     2
  0
APPID
  5
56
330
9
100
AcDbSymbolTableRecord
100
AcDbRegAppTableRecord
  2
ACAD
 70
     0
  0
APPID
  5
5E
330
9
100
AcDbSymbolTableRecord
100
AcDbRegAppTableRecord
  2
AcadAnnotative
 70
     0
  0
ENDTAB
  0
TABLE
  2
DIMSTYLE
  5
A
330
0
100
AcDbSymbolTable
 70
     2
100
AcDbDimStyleTable
 71
     0
  0
DIMSTYLE
105
58
330
A
100
AcDbSymbolTableRecord
100
AcDbDimStyleTableRecord
  2
Standard
 70
     0
340
55
  0
DIMSTYLE
105
59
330
A
100
AcDbSymbolTableRecord
100
AcDbDimStyleTableRecord
  2
Annotative
 70
     0
340
55
1001
AcadAnnotative
1000
AnnotativeData
1002
{
1070
     1
1070
     1
1002
}
  0
ENDTAB
  0
TABLE
  2
BLOCK_RECORD
  5
1
330
0
100
AcDbSymbolTable
 70
     2
  0
BLOCK_RECORD
  5
70
330
1
100
AcDbSymbolTableRecord
100
AcDbBlockTableRecord
  2
*Model_Space
340
73
 70
     0
280
     1
281
     0
  0
BLOCK_RECORD
  5
6C
330
1
100
AcDbSymbolTableRecord
100
AcDbBlockTableRecord
  2
*Paper_Space
340
6F
 70
     0
280
     1
281
     0
  0
BLOCK_RECORD
  5
74
330
1
100
AcDbSymbolTableRecord
100
AcDbBlockTableRecord
  2
*Paper_Space0
340
77
 70
     0
280
     1
281
     0
  0
BLOCK_RECORD
  5
79
330
1
100
AcDbSymbolTableRecord
100
AcDbBlockTableRecord
  2
Block_0
340
0
102
{BLKREFS
331
7A
102
}
 70
     0
280
     1
281
     0
  0
ENDTAB
  0
ENDSEC
  0
SECTION
  2
BLOCKS
  0
BLOCK
  5
71
330
70
100
AcDbEntity
  8
0
100
AcDbBlockBegin
  2
*Model_Space
 70
     0
 10
0.0
 20
0.0
 30
0.0
  3
*Model_Space
  1

  0
ENDBLK
  5
72
330
70
100
AcDbEntity
  8
0
100
AcDbBlockEnd
  0
BLOCK
  5
6D
330
6C
100
AcDbEntity
 67
     1
  8
0
100
AcDbBlockBegin
  2
*Paper_Space
 70
     0
 10
0.0
 20
0.0
 30
0.0
  3
*Paper_Space
  1

  0
ENDBLK
  5
6E
330
6C
100
AcDbEntity
 67
     1
  8
0
100
AcDbBlockEnd
  0
BLOCK
  5
75
330
74
100
AcDbEntity
 67
     1
  8
0
100
AcDbBlockBegin
  2
*Paper_Space0
 70
     0
 10
0.0
 20
0.0
 30
0.0
  3
*Paper_Space0
  1

  0
ENDBLK
  5
76
330
74
100
AcDbEntity
 67
     1
  8
0
100
AcDbBlockEnd
  0
BLOCK
  5
7B
330
79
100
AcDbEntity
  8
0
100
AcDbBlockBegin
  2
Block_0
 70
     0
 10
0.0
 20
0.0
 30
0.0
  3
Block_0
  1

  0
SPLINE
  5
7D
330
79
100
AcDbEntity
  8
Layer 1
100
AcDbSpline
210
0.0
220
0.0
230
1.0
 70
    11
 71
     3
 72
    53
 73
    49
 74
     0
 42
0.0000000001
 43
0.0000000001
 40
0.0
 40
0.0
 40
0.0
 40
0.0
 40
1.0
 40
1.0
 40
1.0
 40
2.0
 40
2.0
 40
2.0
 40
3.0
 40
3.0
 40
3.0
 40
4.0
 40
4.0
 40
4.0
 40
5.0
 40
5.0
 40
5.0
 40
6.0
 40
6.0
 40
6.0
 40
7.0
 40
7.0
 40
7.0
 40
8.0
 40
8.0
 40
8.0
 40
9.0
 40
9.0
 40
9.0
 40
10.0
 40
10.0
 40
10.0
 40
11.0
 40
11.0
 40
11.0
 40
12.0
 40
12.0
 40
12.0
 40
13.0
 40
13.0
 40
13.0
 40
14.0
 40
14.0
 40
14.0
 40
15.0
 40
15.0
 40
15.0
 40
16.0
 40
16.0
 40
16.0
 40
16.0
 10
52.8564453125
 20
-151.1669921875
 30
0.0
 10
52.8564453125
 20
-151.1669921875
 30
0.0
 10
56.33251953125
 20
-152.68359375
 30
0.0
 10
56.33251953125
 20
-152.68359375
 30
0.0
 10
56.33251953125
 20
-152.68359375
 30
0.0
 10
54.0625
 20
-162.05859375
 30
0.0
 10
54.0625
 20
-162.05859375
 30
0.0
 10
54.0625
 20
-162.05859375
 30
0.0
 10
54.4794921875
 20
-162.240234375
 30
0.0
 10
54.4794921875
 20
-162.240234375
 30
0.0
 10
54.4794921875
 20
-162.240234375
 30
0.0
 10
59.60009765625
 20
-154.109375
 30
0.0
 10
59.60009765625
 20
-154.109375
 30
0.0
 10
59.60009765625
 20
-154.109375
 30
0.0
 10
63.6318359375
 20
-155.869140625
 30
0.0
 10
63.6318359375
 20
-155.869140625
 30
0.0
 10
63.6318359375
 20
-155.869140625
 30
0.0
 10
61.1533203125
 20
-165.15234375
 30
0.0
 10
61.1533203125
 20
-165.15234375
 30
0.0
 10
61.1533203125
 20
-165.15234375
 30
0.0
 10
61.57080078125
 20
-165.333984375
 30
0.0
 10
61.57080078125
 20
-165.333984375
 30
0.0
 10
61.57080078125
 20
-165.333984375
 30
0.0
 10
66.8994140625
 20
-157.294921875
 30
0.0
 10
66.8994140625
 20
-157.294921875
 30
0.0
 10
66.8994140625
 20
-157.294921875
 30
0.0
 10
70.3056640625
 20
-158.78125
 30
0.0
 10
70.3056640625
 20
-158.78125
 30
0.0
 10
70.3056640625
 20
-158.78125
 30
0.0
 10
62.6162109375
 20
-169.908203125
 30
0.0
 10
62.6162109375
 20
-169.908203125
 30
0.0
 10
62.6162109375
 20
-169.908203125
 30
0.0
 10
57.55859375
 20
-167.701171875
 30
0.0
 10
57.55859375
 20
-167.701171875
 30
0.0
 10
57.55859375
 20
-167.701171875
 30
0.0
 10
59.89404296875
 20
-159.41015625
 30
0.0
 10
59.89404296875
 20
-159.41015625
 30
0.0
 10
59.89404296875
 20
-159.41015625
 30
0.0
 10
59.494140625
 20
-159.2353515625
 30
0.0
 10
59.494140625
 20
-159.2353515625
 30
0.0
 10
59.494140625
 20
-159.2353515625
 30
0.0
 10
55.00390625
 20
-166.5859375
 30
0.0
 10
55.00390625
 20
-166.5859375
 30
0.0
 10
55.00390625
 20
-166.5859375
 30
0.0
 10
49.91162109375
 20
-164.3642578125
 30
0.0
 10
49.91162109375
 20
-164.3642578125
 30
0.0
 10
49.91162109375
 20
-164.3642578125
 30
0.0
 10
52.8564453125
 20
-151.1669921875
 30
0.0
 10
52.8564453125
 20
-151.1669921875
 30
0.0
  0
HATCH
  5
7E
330
79
100
AcDbEntity
  8
Layer 1
 62
   250
420
  2301728
440
 33554687
100
AcDbHatch
 10
0.0
 20
0.0
 30
0.0
210
0.0
220
0.0
230
1.0
  2
SOLID
 70
     1
 71
     1
 91
        1
 92
        1
 93
        1
 72
     4
 94
        3
 73
     0
 74
     0
 95
       53
 96
       49
 40
0.0
 40
0.0
 40
0.0
 40
0.0
 40
1.0
 40
1.0
 40
1.0
 40
2.0
 40
2.0
 40
2.0
 40
3.0
 40
3.0
 40
3.0
 40
4.0
 40
4.0
 40
4.0
 40
5.0
 40
5.0
 40
5.0
 40
6.0
 40
6.0
 40
6.0
 40
7.0
 40
7.0
 40
7.0
 40
8.0
 40
8.0
 40
8.0
 40
9.0
 40
9.0
 40
9.0
 40
10.0
 40
10.0
 40
10.0
 40
11.0
 40
11.0
 40
11.0
 40
12.0
 40
12.0
 40
12.0
 40
13.0
 40
13.0
 40
13.0
 40
14.0
 40
14.0
 40
14.0
 40
15.0
 40
15.0
 40
15.0
 40
16.0
 40
16.0
 40
16.0
 40
16.0
 10
52.8564453125
 20
-151.1669921875
 10
52.8564453125
 20
-151.1669921875
 10
56.33251953125
 20
-152.68359375
 10
56.33251953125
 20
-152.68359375
 10
56.33251953125
 20
-152.68359375
 10
54.0625
 20
-162.05859375
 10
54.0625
 20
-162.05859375
 10
54.0625
 20
-162.05859375
 10
54.4794921875
 20
-162.240234375
 10
54.4794921875
 20
-162.240234375
 10
54.4794921875
 20
-162.240234375
 10
59.60009765625
 20
-154.109375
 10
59.60009765625
 20
-154.109375
 10
59.60009765625
 20
-154.109375
 10
63.6318359375
 20
-155.869140625
 10
63.6318359375
 20
-155.869140625
 10
63.6318359375
 20
-155.869140625
 10
61.1533203125
 20
-165.15234375
 10
61.1533203125
 20
-165.15234375
 10
61.1533203125
 20
-165.15234375
 10
61.57080078125
 20
-165.333984375
 10
61.57080078125
 20
-165.333984375
 10
61.57080078125
 20
-165.333984375
 10
66.8994140625
 20
-157.294921875
 10
66.8994140625
 20
-157.294921875
 10
66.8994140625
 20
-157.294921875
 10
70.3056640625
 20
-158.78125
 10
70.3056640625
 20
-158.78125
 10
70.3056640625
 20
-158.78125
 10
62.6162109375
 20
-169.908203125
 10
62.6162109375
 20
-169.908203125
 10
62.6162109375
 20
-169.908203125
 10
57.55859375
 20
-167.701171875
 10
57.55859375
 20
-167.701171875
 10
57.55859375
 20
-167.701171875
 10
59.89404296875
 20
-159.41015625
 10
59.89404296875
 20
-159.41015625
 10
59.89404296875
 20
-159.41015625
 10
59.494140625
 20
-159.2353515625
 10
59.494140625
 20
-159.2353515625
 10
59.494140625
 20
-159.2353515625
 10
55.00390625
 20
-166.5859375
 10
55.00390625
 20
-166.5859375
 10
55.00390625
 20
-166.5859375
 10
49.91162109375
 20
-164.3642578125
 10
49.91162109375
 20
-164.3642578125
 10
49.91162109375
 20
-164.3642578125
 10
52.8564453125
 20
-151.1669921875
 10
52.8564453125
 20
-151.1669921875
 97
        0
 97
        1
330
7D
 75
     2
 76
     1
 98
        1
 10
0.0
 20
0.0
450
        0
451
        0
460
0.0
461
0.0
452
        0
462
0.0
453
        0
470

  0
SPLINE
  5
7F
330
79
100
AcDbEntity
  8
Layer 1
100
AcDbSpline
210
0.0
220
0.0
230
1.0
 70
     9
 71
     3
 72
    17
 73
    13
 74
     0
 42
0.0000000001
 43
0.0000000001
 40
0.0
 40
0.0
 40
0.0
 40
0.0
 40
1.0
 40
1.0
 40
1.0
 40
2.0
 40
2.0
 40
2.0
 40
3.0
 40
3.0
 40
3.0
 40
4.0
 40
4.0
 40
4.0
 40
4.0
 10
74.5009765625
 20
-167.796875
 30
0.0
 10
74.81103515625
 20
-166.4873046875
 30
0.0
 10
74.515625
 20
-165.677734375
 30
0.0
 10
73.57470703125
 20
-165.455078125
 30
0.0
 10
72.615234375
 20
-165.2275390625
 30
0.0
 10
71.98828125
 20
-165.8203125
 30
0.0
 10
71.6787109375
 20
-167.1298828125
 30
0.0
 10
71.3642578125
 20
-168.4580078125
 30
0.0
 10
71.65966796875
 20
-169.267578125
 30
0.0
 10
72.619140625
 20
-169.4951171875
 30
0.0
 10
73.56005859375
 20
-169.7177734375
 30
0.0
 10
74.18701171875
 20
-169.1259765625
 30
0.0
 10
74.5009765625
 20
-167.796875
 30
0.0
  0
SPLINE
  5
80
330
79
100
AcDbEntity
  8
Layer 1
100
AcDbSpline
210
0.0
220
0.0
230
1.0
 70
     9
 71
     3
 72
    17
 73
    13
 74
     0
 42
0.0000000001
 43
0.0000000001
 40
0.0
 40
0.0
 40
0.0
 40
0.0
 40
1.0
 40
1.0
 40
1.0
 40
2.0
 40
2.0
 40
2.0
 40
3.0
 40
3.0
 40
3.0
 40
4.0
 40
4.0
 40
4.0
 40
4.0
 10
67.89697265625
 20
-166.2353515625
 30
0.0
 10
68.60791015625
 20
-163.2275390625
 30
0.0
 10
71.20947265625
 20
-161.7001953125
 30
0.0
 10
74.29052734375
 20
-162.4296875
 30
0.0
 10
77.37109375
 20
-163.158203125
 30
0.0
 10
78.994140625
 20
-165.6845703125
 30
0.0
 10
78.28271484375
 20
-168.6923828125
 30
0.0
 10
77.56298828125
 20
-171.736328125
 30
0.0
 10
74.96142578125
 20
-173.263671875
 30
0.0
 10
71.89892578125
 20
-172.5390625
 30
0.0
 10
68.7998046875
 20
-171.8056640625
 30
0.0
 10
67.1767578125
 20
-169.279296875
 30
0.0
 10
67.89697265625
 20
-166.2353515625
 30
0.0
  0
HATCH
  5
81
330
79
100
AcDbEntity
  8
Layer 1
 62
   250
420
  2301728
440
 33554687
100
AcDbHatch
 10
0.0
 20
0.0
 30
0.0
210
0.0
220
0.0
230
1.0
  2
SOLID
 70
     1
 71
     1
 91
        2
 92
        1
 93
        1
 72
     4
 94
        3
 73
     0
 74
     0
 95
       17
 96
       13
 40
0.0
 40
0.0
 40
0.0
 40
0.0
 40
1.0
 40
1.0
 40
1.0
 40
2.0
 40
2.0
 40
2.0
 40
3.0
 40
3.0
 40
3.0
 40
4.0
 40
4.0
 40
4.0
 40
4.0
 10
74.5009765625
 20
-167.796875
 10
74.81103515625
 20
-166.4873046875
 10
74.515625
 20
-165.677734375
 10
73.57470703125
 20
-165.455078125
 10
72.615234375
 20
-165.2275390625
 10
71.98828125
 20
-165.8203125
 10
71.6787109375
 20
-167.1298828125
 10
71.3642578125
 20
-168.4580078125
 10
71.65966796875
 20
-169.267578125
 10
72.619140625
 20
-169.4951171875
 10
73.56005859375
 20
-169.7177734375
 10
74.18701171875
 20
-169.1259765625
 10
74.5009765625
 20
-167.796875
 97
        0
 97
        1
330
7F
 92
        1
 93
        1
 72
     4
 94
        3
 73
     0
 74
     0
 95
       17
 96
       13
 40
0.0
 40
0.0
 40
0.0
 40
0.0
 40
1.0
 40
1.0
 40
1.0
 40
2.0
 40
2.0
 40
2.0
 40
3.0
 40
3.0
 40
3.0
 40
4.0
 40
4.0
 40
4.0
 40
4.0
 10
67.89697265625
 20
-166.2353515625
 10
68.60791015625
 20
-163.2275390625
 10
71.20947265625
 20
-161.7001953125
 10
74.29052734375
 20
-162.4296875
 10
77.37109375
 20
-163.158203125
 10
78.994140625
 20
-165.6845703125
 10
78.28271484375
 20
-168.6923828125
 10
77.56298828125
 20
-171.736328125
 10
74.96142578125
 20
-173.263671875
 10
71.89892578125
 20
-172.5390625
 10
68.7998046875
 20
-171.8056640625
 10
67.1767578125
 20
-169.279296875
 10
67.89697265625
 20
-166.2353515625
 97
        0
 97
        1
330
80
 75
     2
 76
     1
 98
        1
 10
0.0
 20
0.0
450
        0
451
        0
460
0.0
461
0.0
452
        0
462
0.0
453
        0
470

  0
SPLINE
  5
82
330
79
100
AcDbEntity
  8
Layer 1
100
AcDbSpline
210
0.0
220
0.0
230
1.0
 70
    11
 71
     3
 72
    38
 73
    34
 74
     0
 42
0.0000000001
 43
0.0000000001
 40
0.0
 40
0.0
 40
0.0
 40
0.0
 40
1.0
 40
1.0
 40
1.0
 40
2.0
 40
2.0
 40
2.0
 40
3.0
 40
3.0
 40
3.0
 40
4.0
 40
4.0
 40
4.0
 40
5.0
 40
5.0
 40
5.0
 40
6.0
 40
6.0
 40
6.0
 40
7.0
 40
7.0
 40
7.0
 40
8.0
 40
8.0
 40
8.0
 40
9.0
 40
9.0
 40
9.0
 40
10.0
 40
10.0
 40
10.0
 40
11.0
 40
11.0
 40
11.0
 40
11.0
 10
80.70751953125
 20
-163.935546875
 30
0.0
 10
80.70751953125
 20
-163.935546875
 30
0.0
 10
83.84912109374999
 20
-164.3173828125
 30
0.0
 10
83.84912109374999
 20
-164.3173828125
 30
0.0
 10
83.84912109374999
 20
-164.3173828125
 30
0.0
 10
83.74462890625
 20
-166.119140625
 30
0.0
 10
83.74462890625
 20
-166.119140625
 30
0.0
 10
83.74462890625
 20
-166.119140625
 30
0.0
 10
84.15869140625
 20
-166.1689453125
 30
0.0
 10
84.15869140625
 20
-166.1689453125
 30
0.0
 10
84.47216796875
 20
-165.0048828125
 30
0.0
 10
85.24169921875
 20
-164.4873046875
 30
0.0
 10
86.38916015625
 20
-164.626953125
 30
0.0
 10
86.38916015625
 20
-164.626953125
 30
0.0
 10
87.423828125
 20
-164.7529296875
 30
0.0
 10
87.423828125
 20
-164.7529296875
 30
0.0
 10
87.423828125
 20
-164.7529296875
 30
0.0
 10
87.00976562500001
 20
-168.158203125
 30
0.0
 10
87.00976562500001
 20
-168.158203125
 30
0.0
 10
87.00976562500001
 20
-168.158203125
 30
0.0
 10
84.69531250000001
 20
-167.8759765625
 30
0.0
 10
84.69531250000001
 20
-167.8759765625
 30
0.0
 10
84.22509765624999
 20
-167.8193359375
 30
0.0
 10
84.03759765625
 20
-167.94921875
 30
0.0
 10
83.98046875
 20
-168.419921875
 30
0.0
 10
83.98046875
 20
-168.419921875
 30
0.0
 10
83.26171875
 20
-174.3271484375
 30
0.0
 10
83.26171875
 20
-174.3271484375
 30
0.0
 10
83.26171875
 20
-174.3271484375
 30
0.0
 10
79.4990234375
 20
-173.869140625
 30
0.0
 10
79.4990234375
 20
-173.869140625
 30
0.0
 10
79.4990234375
 20
-173.869140625
 30
0.0
 10
80.70751953125
 20
-163.935546875
 30
0.0
 10
80.70751953125
 20
-163.935546875
 30
0.0
  0
HATCH
  5
83
330
79
100
AcDbEntity
  8
Layer 1
 62
   250
420
  2301728
440
 33554687
100
AcDbHatch
 10
0.0
 20
0.0
 30
0.0
210
0.0
220
0.0
230
1.0
  2
SOLID
 70
     1
 71
     1
 91
        1
 92
        1
 93
        1
 72
     4
 94
        3
 73
     0
 74
     0
 95
       38
 96
       34
 40
0.0
 40
0.0
 40
0.0
 40
0.0
 40
1.0
 40
1.0
 40
1.0
 40
2.0
 40
2.0
 40
2.0
 40
3.0
 40
3.0
 40
3.0
 40
4.0
 40
4.0
 40
4.0
 40
5.0
 40
5.0
 40
5.0
 40
6.0
 40
6.0
 40
6.0
 40
7.0
 40
7.0
 40
7.0
 40
8.0
 40
8.0
 40
8.0
 40
9.0
 40
9.0
 40
9.0
 40
10.0
 40
10.0
 40
10.0
 40
11.0
 40
11.0
 40
11.0
 40
11.0
 10
80.70751953125
 20
-163.935546875
 10
80.70751953125
 20
-163.935546875
 10
83.84912109374999
 20
-164.3173828125
 10
83.84912109374999
 20
-164.3173828125
 10
83.84912109374999
 20
-164.3173828125
 10
83.74462890625
 20
-166.119140625
 10
83.74462890625
 20
-166.119140625
 10
83.74462890625
 20
-166.119140625
 10
84.15869140625
 20
-166.1689453125
 10
84.15869140625
 20
-166.1689453125
 10
84.47216796875
 20
-165.0048828125
 10
85.24169921875
 20
-164.4873046875
 10
86.38916015625
 20
-164.626953125
 10
86.38916015625
 20
-164.626953125
 10
87.423828125
 20
-164.7529296875
 10
87.423828125
 20
-164.7529296875
 10
87.423828125
 20
-164.7529296875
 10
87.00976562500001
 20
-168.158203125
 10
87.00976562500001
 20
-168.158203125
 10
87.00976562500001
 20
-168.158203125
 10
84.69531250000001
 20
-167.8759765625
 10
84.69531250000001
 20
-167.8759765625
 10
84.22509765624999
 20
-167.8193359375
 10
84.03759765625
 20
-167.94921875
 10
83.98046875
 20
-168.419921875
 10
83.98046875
 20
-168.419921875
 10
83.26171875
 20
-174.3271484375
 10
83.26171875
 20
-174.3271484375
 10
83.26171875
 20
-174.3271484375
 10
79.4990234375
 20
-173.869140625
 10
79.4990234375
 20
-173.869140625
 10
79.4990234375
 20
-173.869140625
 10
80.70751953125
 20
-163.935546875
 10
80.70751953125
 20
-163.935546875
 97
        0
 97
        1
330
82
 75
     2
 76
     1
 98
        1
 10
0.0
 20
0.0
450
        0
451
        0
460
0.0
461
0.0
452
        0
462
0.0
453
        0
470

  0
SPLINE
  5
84
330
79
100
AcDbEntity
  8
Layer 1
100
AcDbSpline
210
0.0
220
0.0
230
1.0
 70
    11
 71
     3
 72
    17
 73
    13
 74
     0
 42
0.0000000001
 43
0.0000000001
 40
0.0
 40
0.0
 40
0.0
 40
0.0
 40
1.0
 40
1.0
 40
1.0
 40
2.0
 40
2.0
 40
2.0
 40
3.0
 40
3.0
 40
3.0
 40
4.0
 40
4.0
 40
4.0
 40
4.0
 10
88.0537109375
 20
-174.775390625
 30
0.0
 10
88.0537109375
 20
-174.775390625
 30
0.0
 10
88.68408203125
 20
-161.5205078125
 30
0.0
 10
88.68408203125
 20
-161.5205078125
 30
0.0
 10
88.68408203125
 20
-161.5205078125
 30
0.0
 10
92.47119140625001
 20
-161.7001953125
 30
0.0
 10
92.47119140625001
 20
-161.7001953125
 30
0.0
 10
92.47119140625001
 20
-161.7001953125
 30
0.0
 10
91.8408203125
 20
-174.955078125
 30
0.0
 10
91.8408203125
 20
-174.955078125
 30
0.0
 10
91.8408203125
 20
-174.955078125
 30
0.0
 10
88.0537109375
 20
-174.775390625
 30
0.0
 10
88.0537109375
 20
-174.775390625
 30
0.0
  0
HATCH
  5
85
330
79
100
AcDbEntity
  8
Layer 1
 62
   250
420
  2301728
440
 33554687
100
AcDbHatch
 10
0.0
 20
0.0
 30
0.0
210
0.0
220
0.0
230
1.0
  2
SOLID
 70
     1
 71
     1
 91
        1
 92
        1
 93
        1
 72
     4
 94
        3
 73
     0
 74
     0
 95
       17
 96
       13
 40
0.0
 40
0.0
 40
0.0
 40
0.0
 40
1.0
 40
1.0
 40
1.0
 40
2.0
 40
2.0
 40
2.0
 40
3.0
 40
3.0
 40
3.0
 40
4.0
 40
4.0
 40
4.0
 40
4.0
 10
88.0537109375
 20
-174.775390625
 10
88.0537109375
 20
-174.775390625
 10
88.68408203125
 20
-161.5205078125
 10
88.68408203125
 20
-161.5205078125
 10
88.68408203125
 20
-161.5205078125
 10
92.47119140625001
 20
-161.7001953125
 10
92.47119140625001
 20
-161.7001953125
 10
92.47119140625001
 20
-161.7001953125
 10
91.8408203125
 20
-174.955078125
 10
91.8408203125
 20
-174.955078125
 10
91.8408203125
 20
-174.955078125
 10
88.0537109375
 20
-174.775390625
 10
88.0537109375
 20
-174.775390625
 97
        0
 97
        1
330
84
 75
     2
 76
     1
 98
        1
 10
0.0
 20
0.0
450
        0
451
        0
460
0.0
461
0.0
452
        0
462
0.0
453
        0
470

  0
SPLINE
  5
86
330
79
100
AcDbEntity
  8
Layer 1
100
AcDbSpline
210
0.0
220
0.0
230
1.0
 70
    11
 71
     3
 72
    17
 73
    13
 74
     0
 42
0.0000000001
 43
0.0000000001
 40
0.0
 40
0.0
 40
0.0
 40
0.0
 40
1.0
 40
1.0
 40
1.0
 40
2.0
 40
2.0
 40
2.0
 40
3.0
 40
3.0
 40
3.0
 40
4.0
 40
4.0
 40
4.0
 40
4.0
 10
100.728515625
 20
-169.8173828125
 30
0.0
 10
100.6669921875
 20
-168.4541015625
 30
0.0
 10
100.123046875
 20
-167.7578125
 30
0.0
 10
99.10058593750001
 20
-167.8037109375
 30
0.0
 10
98.078125
 20
-167.849609375
 30
0.0
 10
97.6171875
 20
-168.572265625
 30
0.0
 10
97.67871093750001
 20
-169.935546875
 30
0.0
 10
97.74218750000001
 20
-171.3369140625
 30
0.0
 10
98.24609375000001
 20
-171.998046875
 30
0.0
 10
99.287109375
 20
-171.9501953125
 30
0.0
 10
100.3095703125
 20
-171.904296875
 30
0.0
 10
100.7900390625
 20
-171.1806640625
 30
0.0
 10
100.728515625
 20
-169.8173828125
 30
0.0
  0
SPLINE
  5
87
330
79
100
AcDbEntity
  8
Layer 1
100
AcDbSpline
210
0.0
220
0.0
230
1.0
 70
     9
 71
     3
 72
    38
 73
    34
 74
     0
 42
0.0000000001
 43
0.0000000001
 40
0.0
 40
0.0
 40
0.0
 40
0.0
 40
1.0
 40
1.0
 40
1.0
 40
2.0
 40
2.0
 40
2.0
 40
3.0
 40
3.0
 40
3.0
 40
4.0
 40
4.0
 40
4.0
 40
5.0
 40
5.0
 40
5.0
 40
6.0
 40
6.0
 40
6.0
 40
7.0
 40
7.0
 40
7.0
 40
8.0
 40
8.0
 40
8.0
 40
9.0
 40
9.0
 40
9.0
 40
10.0
 40
10.0
 40
10.0
 40
11.0
 40
11.0
 40
11.0
 40
11.0
 10
93.8154296875
 20
-170.1103515625
 30
0.0
 10
93.67089843749999
 20
-166.91015625
 30
0.0
 10
95.021484375
 20
-164.8759765625
 30
0.0
 10
97.4072265625
 20
-164.7685546875
 30
0.0
 10
98.6572265625
 20
-164.7119140625
 30
0.0
 10
99.69042968750001
 20
-165.3291015625
 30
0.0
 10
100.15625
 20
-166.3896484375
 30
0.0
 10
100.15625
 20
-166.3896484375
 30
0.0
 10
100.572265625
 20
-166.37109375
 30
0.0
 10
100.572265625
 20
-166.37109375
 30
0.0
 10
100.572265625
 20
-166.37109375
 30
0.0
 10
100.35546875
 20
-161.5615234375
 30
0.0
 10
100.35546875
 20
-161.5615234375
 30
0.0
 10
100.35546875
 20
-161.5615234375
 30
0.0
 10
104.142578125
 20
-161.390625
 30
0.0
 10
104.142578125
 20
-161.390625
 30
0.0
 10
104.142578125
 20
-161.390625
 30
0.0
 10
104.7412109375
 20
-174.6455078125
 30
0.0
 10
104.7412109375
 20
-174.6455078125
 30
0.0
 10
104.7412109375
 20
-174.6455078125
 30
0.0
 10
101.767578125
 20
-174.779296875
 30
0.0
 10
101.767578125
 20
-174.779296875
 30
0.0
 10
101.767578125
 20
-174.779296875
 30
0.0
 10
101.337890625
 20
-173.2431640625
 30
0.0
 10
101.337890625
 20
-173.2431640625
 30
0.0
 10
101.337890625
 20
-173.2431640625
 30
0.0
 10
100.9404296875
 20
-173.2607421875
 30
0.0
 10
100.9404296875
 20
-173.2607421875
 30
0.0
 10
100.537109375
 20
-174.41796875
 30
0.0
 10
99.580078125
 20
-175.068359375
 30
0.0
 10
98.140625
 20
-175.1328125
 30
0.0
 10
95.52734375
 20
-175.2509765625
 30
0.0
 10
93.96484375
 20
-173.423828125
 30
0.0
 10
93.8154296875
 20
-170.1103515625
 30
0.0
  0
HATCH
  5
88
330
79
100
AcDbEntity
  8
Layer 1
 62
   250
420
  2301728
440
 33554687
100
AcDbHatch
 10
0.0
 20
0.0
 30
0.0
210
0.0
220
0.0
230
1.0
  2
SOLID
 70
     1
 71
     1
 91
        2
 92
        1
 93
        1
 72
     4
 94
        3
 73
     0
 74
     0
 95
       17
 96
       13
 40
0.0
 40
0.0
 40
0.0
 40
0.0
 40
1.0
 40
1.0
 40
1.0
 40
2.0
 40
2.0
 40
2.0
 40
3.0
 40
3.0
 40
3.0
 40
4.0
 40
4.0
 40
4.0
 40
4.0
 10
100.728515625
 20
-169.8173828125
 10
100.6669921875
 20
-168.4541015625
 10
100.123046875
 20
-167.7578125
 10
99.10058593750001
 20
-167.8037109375
 10
98.078125
 20
-167.849609375
 10
97.6171875
 20
-168.572265625
 10
97.67871093750001
 20
-169.935546875
 10
97.74218750000001
 20
-171.3369140625
 10
98.24609375000001
 20
-171.998046875
 10
99.287109375
 20
-171.9501953125
 10
100.3095703125
 20
-171.904296875
 10
100.7900390625
 20
-171.1806640625
 10
100.728515625
 20
-169.8173828125
 97
        0
 97
        1
330
86
 92
        1
 93
        1
 72
     4
 94
        3
 73
     0
 74
     0
 95
       38
 96
       34
 40
0.0
 40
0.0
 40
0.0
 40
0.0
 40
1.0
 40
1.0
 40
1.0
 40
2.0
 40
2.0
 40
2.0
 40
3.0
 40
3.0
 40
3.0
 40
4.0
 40
4.0
 40
4.0
 40
5.0
 40
5.0
 40
5.0
 40
6.0
 40
6.0
 40
6.0
 40
7.0
 40
7.0
 40
7.0
 40
8.0
 40
8.0
 40
8.0
 40
9.0
 40
9.0
 40
9.0
 40
10.0
 40
10.0
 40
10.0
 40
11.0
 40
11.0
 40
11.0
 40
11.0
 10
93.8154296875
 20
-170.1103515625
 10
93.67089843749999
 20
-166.91015625
 10
95.021484375
 20
-164.8759765625
 10
97.4072265625
 20
-164.7685546875
 10
98.6572265625
 20
-164.7119140625
 10
99.69042968750001
 20
-165.3291015625
 10
100.15625
 20
-166.3896484375
 10
100.15625
 20
-166.3896484375
 10
100.572265625
 20
-166.37109375
 10
100.572265625
 20
-166.37109375
 10
100.572265625
 20
-166.37109375
 10
100.35546875
 20
-161.5615234375
 10
100.35546875
 20
-161.5615234375
 10
100.35546875
 20
-161.5615234375
 10
104.142578125
 20
-161.390625
 10
104.142578125
 20
-161.390625
 10
104.142578125
 20
-161.390625
 10
104.7412109375
 20
-174.6455078125
 10
104.7412109375
 20
-174.6455078125
 10
104.7412109375
 20
-174.6455078125
 10
101.767578125
 20
-174.779296875
 10
101.767578125
 20
-174.779296875
 10
101.767578125
 20
-174.779296875
 10
101.337890625
 20
-173.2431640625
 10
101.337890625
 20
-173.2431640625
 10
101.337890625
 20
-173.2431640625
 10
100.9404296875
 20
-173.2607421875
 10
100.9404296875
 20
-173.2607421875
 10
100.537109375
 20
-174.41796875
 10
99.580078125
 20
-175.068359375
 10
98.140625
 20
-175.1328125
 10
95.52734375
 20
-175.2509765625
 10
93.96484375
 20
-173.423828125
 10
93.8154296875
 20
-170.1103515625
 97
        0
 97
        1
330
87
 75
     2
 76
     1
 98
        1
 10
0.0
 20
0.0
450
        0
451
        0
460
0.0
461
0.0
452
        0
462
0.0
453
        0
470

  0
SPLINE
  5
89
330
79
100
AcDbEntity
  8
Layer 1
100
AcDbSpline
210
0.0
220
0.0
230
1.0
 70
     9
 71
     3
 72
    20
 73
    16
 74
     0
 42
0.0000000001
 43
0.0000000001
 40
0.0
 40
0.0
 40
0.0
 40
0.0
 40
1.0
 40
1.0
 40
1.0
 40
2.0
 40
2.0
 40
2.0
 40
3.0
 40
3.0
 40
3.0
 40
4.0
 40
4.0
 40
4.0
 40
5.0
 40
5.0
 40
5.0
 40
5.0
 10
113.5029296875
 20
-164.5947265625
 30
0.0
 10
113.3271484375
 20
-163.6240234375
 30
0.0
 10
112.7509765625
 20
-163.2080078125
 30
0.0
 10
111.8369140625
 20
-163.373046875
 30
0.0
 10
111.8369140625
 20
-163.373046875
 30
0.0
 10
109.93359375
 20
-163.716796875
 30
0.0
 10
109.93359375
 20
-163.716796875
 30
0.0
 10
109.93359375
 20
-163.716796875
 30
0.0
 10
110.4658203125
 20
-166.666015625
 30
0.0
 10
110.4658203125
 20
-166.666015625
 30
0.0
 10
110.4658203125
 20
-166.666015625
 30
0.0
 10
112.369140625
 20
-166.3212890625
 30
0.0
 10
112.369140625
 20
-166.3212890625
 30
0.0
 10
113.2841796875
 20
-166.15625
 30
0.0
 10
113.677734375
 20
-165.5654296875
 30
0.0
 10
113.5029296875
 20
-164.5947265625
 30
0.0
  0
SPLINE
  5
8A
330
79
100
AcDbEntity
  8
Layer 1
100
AcDbSpline
210
0.0
220
0.0
230
1.0
 70
    11
 71
     3
 72
    26
 73
    22
 74
     0
 42
0.0000000001
 43
0.0000000001
 40
0.0
 40
0.0
 40
0.0
 40
0.0
 40
1.0
 40
1.0
 40
1.0
 40
2.0
 40
2.0
 40
2.0
 40
3.0
 40
3.0
 40
3.0
 40
4.0
 40
4.0
 40
4.0
 40
5.0
 40
5.0
 40
5.0
 40
6.0
 40
6.0
 40
6.0
 40
7.0
 40
7.0
 40
7.0
 40
7.0
 10
105.609375
 20
-161.22265625
 30
0.0
 10
105.609375
 20
-161.22265625
 30
0.0
 10
111.73046875
 20
-160.1162109375
 30
0.0
 10
111.73046875
 20
-160.1162109375
 30
0.0
 10
114.7158203125
 20
-159.5771484375
 30
0.0
 10
116.9140625
 20
-160.9716796875
 30
0.0
 10
117.4404296875
 20
-163.8828125
 30
0.0
 10
117.966796875
 20
-166.7939453125
 30
0.0
 10
116.3955078125
 20
-168.8701171875
 30
0.0
 10
113.4091796875
 20
-169.41015625
 30
0.0
 10
113.4091796875
 20
-169.41015625
 30
0.0
 10
111.0390625
 20
-169.837890625
 30
0.0
 10
111.0390625
 20
-169.837890625
 30
0.0
 10
111.0390625
 20
-169.837890625
 30
0.0
 10
111.720703125
 20
-173.607421875
 30
0.0
 10
111.720703125
 20
-173.607421875
 30
0.0
 10
111.720703125
 20
-173.607421875
 30
0.0
 10
107.9697265625
 20
-174.28515625
 30
0.0
 10
107.9697265625
 20
-174.28515625
 30
0.0
 10
107.9697265625
 20
-174.28515625
 30
0.0
 10
105.609375
 20
-161.22265625
 30
0.0
 10
105.609375
 20
-161.22265625
 30
0.0
  0
HATCH
  5
8B
330
79
100
AcDbEntity
  8
Layer 1
 62
   250
420
  2301728
440
 33554687
100
AcDbHatch
 10
0.0
 20
0.0
 30
0.0
210
0.0
220
0.0
230
1.0
  2
SOLID
 70
     1
 71
     1
 91
        2
 92
        1
 93
        1
 72
     4
 94
        3
 73
     0
 74
     0
 95
       20
 96
       16
 40
0.0
 40
0.0
 40
0.0
 40
0.0
 40
1.0
 40
1.0
 40
1.0
 40
2.0
 40
2.0
 40
2.0
 40
3.0
 40
3.0
 40
3.0
 40
4.0
 40
4.0
 40
4.0
 40
5.0
 40
5.0
 40
5.0
 40
5.0
 10
113.5029296875
 20
-164.5947265625
 10
113.3271484375
 20
-163.6240234375
 10
112.7509765625
 20
-163.2080078125
 10
111.8369140625
 20
-163.373046875
 10
111.8369140625
 20
-163.373046875
 10
109.93359375
 20
-163.716796875
 10
109.93359375
 20
-163.716796875
 10
109.93359375
 20
-163.716796875
 10
110.4658203125
 20
-166.666015625
 10
110.4658203125
 20
-166.666015625
 10
110.4658203125
 20
-166.666015625
 10
112.369140625
 20
-166.3212890625
 10
112.369140625
 20
-166.3212890625
 10
113.2841796875
 20
-166.15625
 10
113.677734375
 20
-165.5654296875
 10
113.5029296875
 20
-164.5947265625
 97
        0
 97
        1
330
89
 92
        1
 93
        1
 72
     4
 94
        3
 73
     0
 74
     0
 95
       26
 96
       22
 40
0.0
 40
0.0
 40
0.0
 40
0.0
 40
1.0
 40
1.0
 40
1.0
 40
2.0
 40
2.0
 40
2.0
 40
3.0
 40
3.0
 40
3.0
 40
4.0
 40
4.0
 40
4.0
 40
5.0
 40
5.0
 40
5.0
 40
6.0
 40
6.0
 40
6.0
 40
7.0
 40
7.0
 40
7.0
 40
7.0
 10
105.609375
 20
-161.22265625
 10
105.609375
 20
-161.22265625
 10
111.73046875
 20
-160.1162109375
 10
111.73046875
 20
-160.1162109375
 10
114.7158203125
 20
-159.5771484375
 10
116.9140625
 20
-160.9716796875
 10
117.4404296875
 20
-163.8828125
 10
117.966796875
 20
-166.7939453125
 10
116.3955078125
 20
-168.8701171875
 10
113.4091796875
 20
-169.41015625
 10
113.4091796875
 20
-169.41015625
 10
111.0390625
 20
-169.837890625
 10
111.0390625
 20
-169.837890625
 10
111.0390625
 20
-169.837890625
 10
111.720703125
 20
-173.607421875
 10
111.720703125
 20
-173.607421875
 10
111.720703125
 20
-173.607421875
 10
107.9697265625
 20
-174.28515625
 10
107.9697265625
 20
-174.28515625
 10
107.9697265625
 20
-174.28515625
 10
105.609375
 20
-161.22265625
 10
105.609375
 20
-161.22265625
 97
        0
 97
        1
330
8A
 75
     2
 76
     1
 98
        1
 10
0.0
 20
0.0
450
        0
451
        0
460
0.0
461
0.0
452
        0
462
0.0
453
        0
470

  0
SPLINE
  5
8C
330
79
100
AcDbEntity
  8
Layer 1
100
AcDbSpline
210
0.0
220
0.0
230
1.0
 70
     9
 71
     3
 72
    17
 73
    13
 74
     0
 42
0.0000000001
 43
0.0000000001
 40
0.0
 40
0.0
 40
0.0
 40
0.0
 40
1.0
 40
1.0
 40
1.0
 40
2.0
 40
2.0
 40
2.0
 40
3.0
 40
3.0
 40
3.0
 40
4.0
 40
4.0
 40
4.0
 40
4.0
 10
125.388671875
 20
-166.25
 30
0.0
 10
125.388671875
 20
-166.25
 30
0.0
 10
124.0205078125
 20
-166.701171875
 30
0.0
 10
124.0205078125
 20
-166.701171875
 30
0.0
 10
123.5166015625
 20
-166.8671875
 30
0.0
 10
123.203125
 20
-167.310546875
 30
0.0
 10
123.357421875
 20
-167.7783203125
 30
0.0
 10
123.517578125
 20
-168.2646484375
 30
0.0
 10
123.9482421875
 20
-168.421875
 30
0.0
 10
124.4892578125
 20
-168.244140625
 30
0.0
 10
125.28125
 20
-167.982421875
 30
0.0
 10
125.61328125
 20
-167.173828125
 30
0.0
 10
125.388671875
 20
-166.25
 30
0.0
  0
SPLINE
  5
8D
330
79
100
AcDbEntity
  8
Layer 1
100
AcDbSpline
210
0.0
220
0.0
230
1.0
 70
     9
 71
     3
 72
    62
 73
    58
 74
     0
 42
0.0000000001
 43
0.0000000001
 40
0.0
 40
0.0
 40
0.0
 40
0.0
 40
1.0
 40
1.0
 40
1.0
 40
2.0
 40
2.0
 40
2.0
 40
3.0
 40
3.0
 40
3.0
 40
4.0
 40
4.0
 40
4.0
 40
5.0
 40
5.0
 40
5.0
 40
6.0
 40
6.0
 40
6.0
 40
7.0
 40
7.0
 40
7.0
 40
8.0
 40
8.0
 40
8.0
 40
9.0
 40
9.0
 40
9.0
 40
10.0
 40
10.0
 40
10.0
 40
11.0
 40
11.0
 40
11.0
 40
12.0
 40
12.0
 40
12.0
 40
13.0
 40
13.0
 40
13.0
 40
14.0
 40
14.0
 40
14.0
 40
15.0
 40
15.0
 40
15.0
 40
16.0
 40
16.0
 40
16.0
 40
17.0
 40
17.0
 40
17.0
 40
18.0
 40
18.0
 40
18.0
 40
19.0
 40
19.0
 40
19.0
 40
19.0
 10
119.8154296875
 20
-169.1455078125
 30
0.0
 10
119.2158203125
 20
-167.2666015625
 30
0.0
 10
120.306640625
 20
-165.7294921875
 30
0.0
 10
122.6650390625
 20
-164.9521484375
 30
0.0
 10
122.6650390625
 20
-164.9521484375
 30
0.0
 10
123.853515625
 20
-164.560546875
 30
0.0
 10
123.853515625
 20
-164.560546875
 30
0.0
 10
124.4296875
 20
-164.3701171875
 30
0.0
 10
124.6591796875
 20
-163.9755859375
 30
0.0
 10
124.5166015625
 20
-163.5439453125
 30
0.0
 10
124.5166015625
 20
-163.5439453125
 30
0.0
 10
124.5107421875
 20
-163.525390625
 30
0.0
 10
124.5107421875
 20
-163.525390625
 30
0.0
 10
124.3564453125
 20
-163.0576171875
 30
0.0
 10
123.78125
 20
-162.8876953125
 30
0.0
 10
123.04296875
 20
-163.130859375
 30
0.0
 10
122.2685546875
 20
-163.3857421875
 30
0.0
 10
121.87109375
 20
-163.876953125
 30
0.0
 10
121.935546875
 20
-164.4345703125
 30
0.0
 10
121.935546875
 20
-164.4345703125
 30
0.0
 10
118.4599609375
 20
-165.580078125
 30
0.0
 10
118.4599609375
 20
-165.580078125
 30
0.0
 10
117.91015625
 20
-163.4853515625
 30
0.0
 10
119.4267578125
 20
-161.48828125
 30
0.0
 10
122.236328125
 20
-160.5625
 30
0.0
 10
125.1884765625
 20
-159.5888671875
 30
0.0
 10
127.51171875
 20
-160.51953125
 30
0.0
 10
128.3251953125
 20
-162.986328125
 30
0.0
 10
128.3251953125
 20
-162.986328125
 30
0.0
 10
129.0849609375
 20
-165.291015625
 30
0.0
 10
129.0849609375
 20
-165.291015625
 30
0.0
 10
129.2275390625
 20
-165.7236328125
 30
0.0
 10
129.478515625
 20
-165.8203125
 30
0.0
 10
129.892578125
 20
-165.68359375
 30
0.0
 10
129.892578125
 20
-165.68359375
 30
0.0
 10
130.1806640625
 20
-165.5888671875
 30
0.0
 10
130.1806640625
 20
-165.5888671875
 30
0.0
 10
130.1806640625
 20
-165.5888671875
 30
0.0
 10
131.1015625
 20
-168.3798828125
 30
0.0
 10
131.1015625
 20
-168.3798828125
 30
0.0
 10
131.1015625
 20
-168.3798828125
 30
0.0
 10
129.9306640625
 20
-168.765625
 30
0.0
 10
129.9306640625
 20
-168.765625
 30
0.0
 10
128.83203125
 20
-169.126953125
 30
0.0
 10
127.9814453125
 20
-168.96875
 30
0.0
 10
127.4443359375
 20
-168.2470703125
 30
0.0
 10
127.4443359375
 20
-168.2470703125
 30
0.0
 10
127.3076171875
 20
-168.0732421875
 30
0.0
 10
127.3076171875
 20
-168.0732421875
 30
0.0
 10
127.3076171875
 20
-168.0732421875
 30
0.0
 10
126.9111328125
 20
-168.2041015625
 30
0.0
 10
126.9111328125
 20
-168.2041015625
 30
0.0
 10
126.7568359375
 20
-169.3720703125
 30
0.0
 10
125.8310546875
 20
-170.31640625
 30
0.0
 10
124.2646484375
 20
-170.8330078125
 30
0.0
 10
122.1396484375
 20
-171.533203125
 30
0.0
 10
120.4150390625
 20
-170.904296875
 30
0.0
 10
119.8154296875
 20
-169.1455078125
 30
0.0
  0
HATCH
  5
8E
330
79
100
AcDbEntity
  8
Layer 1
 62
   250
420
  2301728
440
 33554687
100
AcDbHatch
 10
0.0
 20
0.0
 30
0.0
210
0.0
220
0.0
230
1.0
  2
SOLID
 70
     1
 71
     1
 91
        2
 92
        1
 93
        1
 72
     4
 94
        3
 73
     0
 74
     0
 95
       17
 96
       13
 40
0.0
 40
0.0
 40
0.0
 40
0.0
 40
1.0
 40
1.0
 40
1.0
 40
2.0
 40
2.0
 40
2.0
 40
3.0
 40
3.0
 40
3.0
 40
4.0
 40
4.0
 40
4.0
 40
4.0
 10
125.388671875
 20
-166.25
 10
125.388671875
 20
-166.25
 10
124.0205078125
 20
-166.701171875
 10
124.0205078125
 20
-166.701171875
 10
123.5166015625
 20
-166.8671875
 10
123.203125
 20
-167.310546875
 10
123.357421875
 20
-167.7783203125
 10
123.517578125
 20
-168.2646484375
 10
123.9482421875
 20
-168.421875
 10
124.4892578125
 20
-168.244140625
 10
125.28125
 20
-167.982421875
 10
125.61328125
 20
-167.173828125
 10
125.388671875
 20
-166.25
 97
        0
 97
        1
330
8C
 92
        1
 93
        1
 72
     4
 94
        3
 73
     0
 74
     0
 95
       62
 96
       58
 40
0.0
 40
0.0
 40
0.0
 40
0.0
 40
1.0
 40
1.0
 40
1.0
 40
2.0
 40
2.0
 40
2.0
 40
3.0
 40
3.0
 40
3.0
 40
4.0
 40
4.0
 40
4.0
 40
5.0
 40
5.0
 40
5.0
 40
6.0
 40
6.0
 40
6.0
 40
7.0
 40
7.0
 40
7.0
 40
8.0
 40
8.0
 40
8.0
 40
9.0
 40
9.0
 40
9.0
 40
10.0
 40
10.0
 40
10.0
 40
11.0
 40
11.0
 40
11.0
 40
12.0
 40
12.0
 40
12.0
 40
13.0
 40
13.0
 40
13.0
 40
14.0
 40
14.0
 40
14.0
 40
15.0
 40
15.0
 40
15.0
 40
16.0
 40
16.0
 40
16.0
 40
17.0
 40
17.0
 40
17.0
 40
18.0
 40
18.0
 40
18.0
 40
19.0
 40
19.0
 40
19.0
 40
19.0
 10
119.8154296875
 20
-169.1455078125
 10
119.2158203125
 20
-167.2666015625
 10
120.306640625
 20
-165.7294921875
 10
122.6650390625
 20
-164.9521484375
 10
122.6650390625
 20
-164.9521484375
 10
123.853515625
 20
-164.560546875
 10
123.853515625
 20
-164.560546875
 10
124.4296875
 20
-164.3701171875
 10
124.6591796875
 20
-163.9755859375
 10
124.5166015625
 20
-163.5439453125
 10
124.5166015625
 20
-163.5439453125
 10
124.5107421875
 20
-163.525390625
 10
124.5107421875
 20
-163.525390625
 10
124.3564453125
 20
-163.0576171875
 10
123.78125
 20
-162.8876953125
 10
123.04296875
 20
-163.130859375
 10
122.2685546875
 20
-163.3857421875
 10
121.87109375
 20
-163.876953125
 10
121.935546875
 20
-164.4345703125
 10
121.935546875
 20
-164.4345703125
 10
118.4599609375
 20
-165.580078125
 10
118.4599609375
 20
-165.580078125
 10
117.91015625
 20
-163.4853515625
 10
119.4267578125
 20
-161.48828125
 10
122.236328125
 20
-160.5625
 10
125.1884765625
 20
-159.5888671875
 10
127.51171875
 20
-160.51953125
 10
128.3251953125
 20
-162.986328125
 10
128.3251953125
 20
-162.986328125
 10
129.0849609375
 20
-165.291015625
 10
129.0849609375
 20
-165.291015625
 10
129.2275390625
 20
-165.7236328125
 10
129.478515625
 20
-165.8203125
 10
129.892578125
 20
-165.68359375
 10
129.892578125
 20
-165.68359375
 10
130.1806640625
 20
-165.5888671875
 10
130.1806640625
 20
-165.5888671875
 10
130.1806640625
 20
-165.5888671875
 10
131.1015625
 20
-168.3798828125
 10
131.1015625
 20
-168.3798828125
 10
131.1015625
 20
-168.3798828125
 10
129.9306640625
 20
-168.765625
 10
129.9306640625
 20
-168.765625
 10
128.83203125
 20
-169.126953125
 10
127.9814453125
 20
-168.96875
 10
127.4443359375
 20
-168.2470703125
 10
127.4443359375
 20
-168.2470703125
 10
127.3076171875
 20
-168.0732421875
 10
127.3076171875
 20
-168.0732421875
 10
127.3076171875
 20
-168.0732421875
 10
126.9111328125
 20
-168.2041015625
 10
126.9111328125
 20
-168.2041015625
 10
126.7568359375
 20
-169.3720703125
 10
125.8310546875
 20
-170.31640625
 10
124.2646484375
 20
-170.8330078125
 10
122.1396484375
 20
-171.533203125
 10
120.4150390625
 20
-170.904296875
 10
119.8154296875
 20
-169.1455078125
 97
        0
 97
        1
330
8D
 75
     2
 76
     1
 98
        1
 10
0.0
 20
0.0
450
        0
451
        0
460
0.0
461
0.0
452
        0
462
0.0
453
        0
470

  0
SPLINE
  5
8F
330
79
100
AcDbEntity
  8
Layer 1
100
AcDbSpline
210
0.0
220
0.0
230
1.0
 70
     9
 71
     3
 72
    17
 73
    13
 74
     0
 42
0.0000000001
 43
0.0000000001
 40
0.0
 40
0.0
 40
0.0
 40
0.0
 40
1.0
 40
1.0
 40
1.0
 40
2.0
 40
2.0
 40
2.0
 40
3.0
 40
3.0
 40
3.0
 40
4.0
 40
4.0
 40
4.0
 40
4.0
 10
136.9072265625
 20
-160.0400390625
 30
0.0
 10
136.2958984375
 20
-158.8203125
 30
0.0
 10
135.515625
 20
-158.40625
 30
0.0
 10
134.6005859375
 20
-158.865234375
 30
0.0
 10
133.6865234375
 20
-159.32421875
 30
0.0
 10
133.560546875
 20
-160.171875
 30
0.0
 10
134.171875
 20
-161.3916015625
 30
0.0
 10
134.80078125
 20
-162.64453125
 30
0.0
 10
135.5302734375
 20
-163.0419921875
 30
0.0
 10
136.4619140625
 20
-162.57421875
 30
0.0
 10
137.376953125
 20
-162.115234375
 30
0.0
 10
137.51953125
 20
-161.259765625
 30
0.0
 10
136.9072265625
 20
-160.0400390625
 30
0.0
  0
SPLINE
  5
90
330
79
100
AcDbEntity
  8
Layer 1
100
AcDbSpline
210
0.0
220
0.0
230
1.0
 70
     9
 71
     3
 72
    38
 73
    34
 74
     0
 42
0.0000000001
 43
0.0000000001
 40
0.0
 40
0.0
 40
0.0
 40
0.0
 40
1.0
 40
1.0
 40
1.0
 40
2.0
 40
2.0
 40
2.0
 40
3.0
 40
3.0
 40
3.0
 40
4.0
 40
4.0
 40
4.0
 40
5.0
 40
5.0
 40
5.0
 40
6.0
 40
6.0
 40
6.0
 40
7.0
 40
7.0
 40
7.0
 40
8.0
 40
8.0
 40
8.0
 40
9.0
 40
9.0
 40
9.0
 40
10.0
 40
10.0
 40
10.0
 40
11.0
 40
11.0
 40
11.0
 40
11.0
 10
130.716796875
 20
-163.125
 30
0.0
 10
129.2802734375
 20
-160.2626953125
 30
0.0
 10
129.68359375
 20
-157.85546875
 30
0.0
 10
131.818359375
 20
-156.7841796875
 30
0.0
 10
132.935546875
 20
-156.2236328125
 30
0.0
 10
134.130859375
 20
-156.3662109375
 30
0.0
 10
134.98828125
 20
-157.14453125
 30
0.0
 10
134.98828125
 20
-157.14453125
 30
0.0
 10
135.361328125
 20
-156.95703125
 30
0.0
 10
135.361328125
 20
-156.95703125
 30
0.0
 10
135.361328125
 20
-156.95703125
 30
0.0
 10
133.2021484375
 20
-152.6552734375
 30
0.0
 10
133.2021484375
 20
-152.6552734375
 30
0.0
 10
133.2021484375
 20
-152.6552734375
 30
0.0
 10
136.58984375
 20
-150.955078125
 30
0.0
 10
136.58984375
 20
-150.955078125
 30
0.0
 10
136.58984375
 20
-150.955078125
 30
0.0
 10
142.5390625
 20
-162.8115234375
 30
0.0
 10
142.5390625
 20
-162.8115234375
 30
0.0
 10
142.5390625
 20
-162.8115234375
 30
0.0
 10
139.8798828125
 20
-164.1455078125
 30
0.0
 10
139.8798828125
 20
-164.1455078125
 30
0.0
 10
139.8798828125
 20
-164.1455078125
 30
0.0
 10
138.861328125
 20
-162.9189453125
 30
0.0
 10
138.861328125
 20
-162.9189453125
 30
0.0
 10
138.861328125
 20
-162.9189453125
 30
0.0
 10
138.5048828125
 20
-163.0966796875
 30
0.0
 10
138.5048828125
 20
-163.0966796875
 30
0.0
 10
138.6083984375
 20
-164.3173828125
 30
0.0
 10
138.0
 20
-165.30078125
 30
0.0
 10
136.712890625
 20
-165.947265625
 30
0.0
 10
134.375
 20
-167.1201171875
 30
0.0
 10
132.2041015625
 20
-166.0888671875
 30
0.0
 10
130.716796875
 20
-163.125
 30
0.0
  0
HATCH
  5
91
330
79
100
AcDbEntity
  8
Layer 1
 62
   250
420
  2301728
440
 33554687
100
AcDbHatch
 10
0.0
 20
0.0
 30
0.0
210
0.0
220
0.0
230
1.0
  2
SOLID
 70
     1
 71
     1
 91
        2
 92
        1
 93
        1
 72
     4
 94
        3
 73
     0
 74
     0
 95
       17
 96
       13
 40
0.0
 40
0.0
 40
0.0
 40
0.0
 40
1.0
 40
1.0
 40
1.0
 40
2.0
 40
2.0
 40
2.0
 40
3.0
 40
3.0
 40
3.0
 40
4.0
 40
4.0
 40
4.0
 40
4.0
 10
136.9072265625
 20
-160.0400390625
 10
136.2958984375
 20
-158.8203125
 10
135.515625
 20
-158.40625
 10
134.6005859375
 20
-158.865234375
 10
133.6865234375
 20
-159.32421875
 10
133.560546875
 20
-160.171875
 10
134.171875
 20
-161.3916015625
 10
134.80078125
 20
-162.64453125
 10
135.5302734375
 20
-163.0419921875
 10
136.4619140625
 20
-162.57421875
 10
137.376953125
 20
-162.115234375
 10
137.51953125
 20
-161.259765625
 10
136.9072265625
 20
-160.0400390625
 97
        0
 97
        1
330
8F
 92
        1
 93
        1
 72
     4
 94
        3
 73
     0
 74
     0
 95
       38
 96
       34
 40
0.0
 40
0.0
 40
0.0
 40
0.0
 40
1.0
 40
1.0
 40
1.0
 40
2.0
 40
2.0
 40
2.0
 40
3.0
 40
3.0
 40
3.0
 40
4.0
 40
4.0
 40
4.0
 40
5.0
 40
5.0
 40
5.0
 40
6.0
 40
6.0
 40
6.0
 40
7.0
 40
7.0
 40
7.0
 40
8.0
 40
8.0
 40
8.0
 40
9.0
 40
9.0
 40
9.0
 40
10.0
 40
10.0
 40
10.0
 40
11.0
 40
11.0
 40
11.0
 40
11.0
 10
130.716796875
 20
-163.125
 10
129.2802734375
 20
-160.2626953125
 10
129.68359375
 20
-157.85546875
 10
131.818359375
 20
-156.7841796875
 10
132.935546875
 20
-156.2236328125
 10
134.130859375
 20
-156.3662109375
 10
134.98828125
 20
-157.14453125
 10
134.98828125
 20
-157.14453125
 10
135.361328125
 20
-156.95703125
 10
135.361328125
 20
-156.95703125
 10
135.361328125
 20
-156.95703125
 10
133.2021484375
 20
-152.6552734375
 10
133.2021484375
 20
-152.6552734375
 10
133.2021484375
 20
-152.6552734375
 10
136.58984375
 20
-150.955078125
 10
136.58984375
 20
-150.955078125
 10
136.58984375
 20
-150.955078125
 10
142.5390625
 20
-162.8115234375
 10
142.5390625
 20
-162.8115234375
 10
142.5390625
 20
-162.8115234375
 10
139.8798828125
 20
-164.1455078125
 10
139.8798828125
 20
-164.1455078125
 10
139.8798828125
 20
-164.1455078125
 10
138.861328125
 20
-162.9189453125
 10
138.861328125
 20
-162.9189453125
 10
138.861328125
 20
-162.9189453125
 10
138.5048828125
 20
-163.0966796875
 10
138.5048828125
 20
-163.0966796875
 10
138.6083984375
 20
-164.3173828125
 10
138.0
 20
-165.30078125
 10
136.712890625
 20
-165.947265625
 10
134.375
 20
-167.1201171875
 10
132.2041015625
 20
-166.0888671875
 10
130.716796875
 20
-163.125
 97
        0
 97
        1
330
90
 75
     2
 76
     1
 98
        1
 10
0.0
 20
0.0
450
        0
451
        0
460
0.0
461
0.0
452
        0
462
0.0
453
        0
470

  0
ENDBLK
  5
7C
330
79
100
AcDbEntity
  8
0
100
AcDbBlockEnd
  0
ENDSEC
  0
SECTION
  2
ENTITIES
  0
INSERT
  5
7A
330
70
100
AcDbEntity
  8
Layer 1
100
AcDbBlockReference
  2
Block_0
 10
0.0
 20
0.0
 30
0.0
  0
SPLINE
  5
92
330
70
100
AcDbEntity
  8
Layer 1
100
AcDbSpline
210
0.0
220
0.0
230
1.0
 70
     9
 71
     3
 72
    17
 73
    13
 74
     0
 42
0.0000000001
 43
0.0000000001
 40
0.0
 40
0.0
 40
0.0
 40
0.0
 40
1.0
 40
1.0
 40
1.0
 40
2.0
 40
2.0
 40
2.0
 40
3.0
 40
3.0
 40
3.0
 40
4.0
 40
4.0
 40
4.0
 40
4.0
 10
94.91180638402239
 20
-158.4994035041909
 30
0.0
 10
133.7169974143598
 20
-158.4994035041909
 30
0.0
 10
161.7625672953782
 20
-131.6885442468665
 30
0.0
 10
161.7625672953782
 20
-95.0000000000009
 30
0.0
 10
161.7625672953782
 20
-58.31145575313439
 30
0.0
 10
133.7169974143598
 20
-31.50059649580908
 30
0.0
 10
94.91180638402239
 20
-31.50059649580908
 30
0.0
 10
56.28300258564014
 20
-31.50059649580908
 30
0.0
 10
28.23743270462183
 20
-58.31145575313439
 30
0.0
 10
28.23743270462183
 20
-95.0000000000009
 30
0.0
 10
28.23743270462183
 20
-131.6885442468665
 30
0.0
 10
56.28300258564014
 20
-158.4994035041909
 30
0.0
 10
94.91180638402239
 20
-158.4994035041909
 30
0.0
  0
SPLINE
  5
93
330
70
100
AcDbEntity
  8
Layer 1
100
AcDbSpline
210
0.0
220
0.0
230
1.0
 70
     9
 71
     3
 72
    17
 73
    13
 74
     0
 42
0.0000000001
 43
0.0000000001
 40
0.0
 40
0.0
 40
0.0
 40
0.0
 40
1.0
 40
1.0
 40
1.0
 40
2.0
 40
2.0
 40
2.0
 40
3.0
 40
3.0
 40
3.0
 40
4.0
 40
4.0
 40
4.0
 40
4.0
 10
41.64286233328403
 20
-101.5263275823763
 30
0.0
 10
41.64286233328403
 20
-101.5263275823763
 30
0.0
 10
57.69410044128744
 20
-101.5263275823763
 30
0.0
 10
57.69410044128744
 20
-101.5263275823763
 30
0.0
 10
58.04687490520064
 20
-106.6415573091035
 30
0.0
 10
58.92881106498044
 20
-111.5803998038755
 30
0.0
 10
59.98713445671819
 20
-115.9900806027744
 30
0.0
 10
55.22467919390328
 20
-116.8720167625542
 30
0.0
 10
50.81499839499975
 20
-118.1067273862481
 30
0.0
 10
47.28725375587873
 20
-119.5178252418955
 30
0.0
 10
44.46505804458138
 20
-114.2262082832149
 30
0.0
 10
42.34841126110768
 20
-107.8762679327956
 30
0.0
 10
41.64286233328403
 20
-101.5263275823763
 30
0.0
  0
SPLINE
  5
94
330
70
100
AcDbEntity
  8
Layer 1
100
AcDbSpline
210
0.0
220
0.0
230
1.0
 70
     9
 71
     3
 72
    17
 73
    13
 74
     0
 42
0.0000000001
 43
0.0000000001
 40
0.0
 40
0.0
 40
0.0
 40
0.0
 40
1.0
 40
1.0
 40
1.0
 40
2.0
 40
2.0
 40
2.0
 40
3.0
 40
3.0
 40
3.0
 40
4.0
 40
4.0
 40
4.0
 40
4.0
 10
41.64286233328403
 20
-88.4736724176264
 30
0.0
 10
42.34841126110768
 20
-82.12373206720712
 30
0.0
 10
44.46505804458138
 20
-75.77379171678694
 30
0.0
 10
47.28725375587873
 20
-70.48217475810452
 30
0.0
 10
50.81499839499975
 20
-71.89327261375456
 30
0.0
 10
55.22467919390328
 20
-73.12798323744664
 30
0.0
 10
59.98713445671819
 20
-74.00991939722735
 30
0.0
 10
58.92881106498044
 20
-78.41960019612907
 30
0.0
 10
58.04687490520064
 20
-83.35844269090012
 30
0.0
 10
57.69410044128744
 20
-88.4736724176264
 30
0.0
 10
57.69410044128744
 20
-88.4736724176264
 30
0.0
 10
41.64286233328403
 20
-88.4736724176264
 30
0.0
 10
41.64286233328403
 20
-88.4736724176264
 30
0.0
  0
SPLINE
  5
95
330
70
100
AcDbEntity
  8
Layer 1
100
AcDbSpline
210
0.0
220
0.0
230
1.0
 70
     9
 71
     3
 72
    14
 73
    10
 74
     0
 42
0.0000000001
 43
0.0000000001
 40
0.0
 40
0.0
 40
0.0
 40
0.0
 40
1.0
 40
1.0
 40
1.0
 40
2.0
 40
2.0
 40
2.0
 40
3.0
 40
3.0
 40
3.0
 40
3.0
 10
55.40106642585851
 20
-130.4538336231744
 30
0.0
 10
58.04687490520064
 20
-129.5718974633928
 30
0.0
 10
60.86907061649799
 20
-129.0427357675253
 30
0.0
 10
64.04404079170672
 20
-128.5135740716578
 30
0.0
 10
66.16068757518042
 20
-133.2760293344708
 30
0.0
 10
68.63010882256549
 20
-137.5093229014183
 30
0.0
 10
71.45230453386284
 20
-141.0370675405393
 30
0.0
 10
65.10236418344357
 20
-138.3912590611999
 30
0.0
 10
59.98713445671819
 20
-134.863514422077
 30
0.0
 10
55.40106642585851
 20
-130.4538336231744
 30
0.0
  0
SPLINE
  5
96
330
70
100
AcDbEntity
  8
Layer 1
100
AcDbSpline
210
0.0
220
0.0
230
1.0
 70
     9
 71
     3
 72
    14
 73
    10
 74
     0
 42
0.0000000001
 43
0.0000000001
 40
0.0
 40
0.0
 40
0.0
 40
0.0
 40
1.0
 40
1.0
 40
1.0
 40
2.0
 40
2.0
 40
2.0
 40
3.0
 40
3.0
 40
3.0
 40
3.0
 10
55.40106642585851
 20
-59.54616637682829
 30
0.0
 10
59.81074722476114
 20
-55.13648557792476
 30
0.0
 10
65.27875141539971
 20
-51.60874093880465
 30
0.0
 10
71.2759173019067
 20
-49.13931969141777
 30
0.0
 10
68.63010882256549
 20
-52.49067709858355
 30
0.0
 10
65.98430034322428
 20
-57.07674512944141
 30
0.0
 10
64.04404079170672
 20
-61.48642592834494
 30
0.0
 10
60.86907061649799
 20
-60.95726423247561
 30
0.0
 10
57.87048767324449
 20
-60.25171530465286
 30
0.0
 10
55.40106642585851
 20
-59.54616637682829
 30
0.0
  0
SPLINE
  5
97
330
70
100
AcDbEntity
  8
Layer 1
100
AcDbSpline
210
0.0
220
0.0
230
1.0
 70
     9
 71
     3
 72
    17
 73
    13
 74
     0
 42
0.0000000001
 43
0.0000000001
 40
0.0
 40
0.0
 40
0.0
 40
0.0
 40
1.0
 40
1.0
 40
1.0
 40
2.0
 40
2.0
 40
2.0
 40
3.0
 40
3.0
 40
3.0
 40
4.0
 40
4.0
 40
4.0
 40
4.0
 10
72.51062792559878
 20
-114.2262082832149
 30
0.0
 10
71.62869176581899
 20
-110.1693019482227
 30
0.0
 10
71.09953006994965
 20
-106.1123956132342
 30
0.0
 10
70.74675560603828
 20
-101.5263275823763
 30
0.0
 10
70.74675560603828
 20
-101.5263275823763
 30
0.0
 10
88.38547880164787
 20
-101.5263275823763
 30
0.0
 10
88.38547880164787
 20
-101.5263275823763
 30
0.0
 10
88.38547880164787
 20
-101.5263275823763
 30
0.0
 10
88.38547880164787
 20
-113.5206593553903
 30
0.0
 10
88.38547880164787
 20
-113.5206593553903
 30
0.0
 10
82.38831291513998
 20
-113.6970465873455
 30
0.0
 10
77.09669595645846
 20
-113.8734338193026
 30
0.0
 10
72.51062792559878
 20
-114.2262082832149
 30
0.0
  0
SPLINE
  5
98
330
70
100
AcDbEntity
  8
Layer 1
100
AcDbSpline
210
0.0
220
0.0
230
1.0
 70
     9
 71
     3
 72
    14
 73
    10
 74
     0
 42
0.0000000001
 43
0.0000000001
 40
0.0
 40
0.0
 40
0.0
 40
0.0
 40
1.0
 40
1.0
 40
1.0
 40
2.0
 40
2.0
 40
2.0
 40
3.0
 40
3.0
 40
3.0
 40
3.0
 10
76.39114702863299
 20
-127.1024762160068
 30
0.0
 10
79.91889166775582
 20
-126.9260889840534
 30
0.0
 10
83.7994107707882
 20
-126.7497017520963
 30
0.0
 10
88.38547880164787
 20
-126.5733145201411
 30
0.0
 10
88.38547880164787
 20
-126.5733145201411
 30
0.0
 10
88.38547880164787
 20
-143.3301015559664
 30
0.0
 10
88.38547880164787
 20
-143.3301015559664
 30
0.0
 10
83.7994107707882
 20
-140.5079058446717
 30
0.0
 10
79.56611720384263
 20
-134.863514422077
 30
0.0
 10
76.39114702863299
 20
-127.1024762160068
 30
0.0
  0
SPLINE
  5
99
330
70
100
AcDbEntity
  8
Layer 1
100
AcDbSpline
210
0.0
220
0.0
230
1.0
 70
     9
 71
     3
 72
    17
 73
    13
 74
     0
 42
0.0000000001
 43
0.0000000001
 40
0.0
 40
0.0
 40
0.0
 40
0.0
 40
1.0
 40
1.0
 40
1.0
 40
2.0
 40
2.0
 40
2.0
 40
3.0
 40
3.0
 40
3.0
 40
4.0
 40
4.0
 40
4.0
 40
4.0
 10
70.74675560603828
 20
-88.4736724176264
 30
0.0
 10
71.09953006994965
 20
-83.88760438676673
 30
0.0
 10
71.62869176581899
 20
-79.83069805177819
 30
0.0
 10
72.51062792559878
 20
-75.77379171678694
 30
0.0
 10
77.09669595645846
 20
-76.12656618070014
 30
0.0
 10
82.38831291513998
 20
-76.30295341265536
 30
0.0
 10
88.38547880164787
 20
-76.47934064461242
 30
0.0
 10
88.38547880164787
 20
-76.47934064461242
 30
0.0
 10
88.38547880164787
 20
-88.4736724176264
 30
0.0
 10
88.38547880164787
 20
-88.4736724176264
 30
0.0
 10
88.38547880164787
 20
-88.4736724176264
 30
0.0
 10
70.74675560603828
 20
-88.4736724176264
 30
0.0
 10
70.74675560603828
 20
-88.4736724176264
 30
0.0
  0
SPLINE
  5
9A
330
70
100
AcDbEntity
  8
Layer 1
100
AcDbSpline
210
0.0
220
0.0
230
1.0
 70
     9
 71
     3
 72
    14
 73
    10
 74
     0
 42
0.0000000001
 43
0.0000000001
 40
0.0
 40
0.0
 40
0.0
 40
0.0
 40
1.0
 40
1.0
 40
1.0
 40
2.0
 40
2.0
 40
2.0
 40
3.0
 40
3.0
 40
3.0
 40
3.0
 10
76.39114702863299
 20
-62.89752378399407
 30
0.0
 10
79.56611720384263
 20
-55.13648557792476
 30
0.0
 10
83.7994107707882
 20
-49.49209415533096
 30
0.0
 10
88.38547880164787
 20
-46.6698984440327
 30
0.0
 10
88.38547880164787
 20
-46.6698984440327
 30
0.0
 10
88.38547880164787
 20
-63.42668547986249
 30
0.0
 10
88.38547880164787
 20
-63.42668547986249
 30
0.0
 10
83.7994107707882
 20
-63.25029824790454
 30
0.0
 10
79.91889166775582
 20
-63.07391101595022
 30
0.0
 10
76.39114702863299
 20
-62.89752378399407
 30
0.0
  0
SPLINE
  5
9B
330
70
100
AcDbEntity
  8
Layer 1
100
AcDbSpline
210
0.0
220
0.0
230
1.0
 70
     9
 71
     3
 72
    14
 73
    10
 74
     0
 42
0.0000000001
 43
0.0000000001
 40
0.0
 40
0.0
 40
0.0
 40
0.0
 40
1.0
 40
1.0
 40
1.0
 40
2.0
 40
2.0
 40
2.0
 40
3.0
 40
3.0
 40
3.0
 40
3.0
 10
101.438133966396
 20
-143.3301015559664
 30
0.0
 10
101.438133966396
 20
-143.3301015559664
 30
0.0
 10
101.438133966396
 20
-126.5733145201411
 30
0.0
 10
101.438133966396
 20
-126.5733145201411
 30
0.0
 10
106.0242019972575
 20
-126.7497017520963
 30
0.0
 10
109.9047211002889
 20
-126.9260889840534
 30
0.0
 10
113.4324657394118
 20
-127.1024762160068
 30
0.0
 10
110.2574955642012
 20
-134.68712719012
 30
0.0
 10
105.8478147652986
 20
-140.5079058446717
 30
0.0
 10
101.438133966396
 20
-143.3301015559664
 30
0.0
  0
SPLINE
  5
9C
330
70
100
AcDbEntity
  8
Layer 1
100
AcDbSpline
210
0.0
220
0.0
230
1.0
 70
     9
 71
     3
 72
    17
 73
    13
 74
     0
 42
0.0000000001
 43
0.0000000001
 40
0.0
 40
0.0
 40
0.0
 40
0.0
 40
1.0
 40
1.0
 40
1.0
 40
2.0
 40
2.0
 40
2.0
 40
3.0
 40
3.0
 40
3.0
 40
4.0
 40
4.0
 40
4.0
 40
4.0
 10
101.438133966396
 20
-113.5206593553903
 30
0.0
 10
101.438133966396
 20
-113.5206593553903
 30
0.0
 10
101.438133966396
 20
-101.5263275823763
 30
0.0
 10
101.438133966396
 20
-101.5263275823763
 30
0.0
 10
101.438133966396
 20
-101.5263275823763
 30
0.0
 10
119.2532443939617
 20
-101.5263275823763
 30
0.0
 10
119.2532443939617
 20
-101.5263275823763
 30
0.0
 10
118.9004699300494
 20
-106.1123956132342
 30
0.0
 10
118.3713082341801
 20
-110.3456891801815
 30
0.0
 10
117.4893720744003
 20
-114.4025955151701
 30
0.0
 10
112.5505295796301
 20
-113.8734338193026
 30
0.0
 10
107.4352998529048
 20
-113.6970465873455
 30
0.0
 10
101.438133966396
 20
-113.5206593553903
 30
0.0
  0
SPLINE
  5
9D
330
70
100
AcDbEntity
  8
Layer 1
100
AcDbSpline
210
0.0
220
0.0
230
1.0
 70
    11
 71
     3
 72
    17
 73
    13
 74
     0
 42
0.0000000001
 43
0.0000000001
 40
0.0
 40
0.0
 40
0.0
 40
0.0
 40
1.0
 40
1.0
 40
1.0
 40
2.0
 40
2.0
 40
2.0
 40
3.0
 40
3.0
 40
3.0
 40
4.0
 40
4.0
 40
4.0
 40
4.0
 10
101.438133966396
 20
-88.4736724176264
 30
0.0
 10
101.438133966396
 20
-88.4736724176264
 30
0.0
 10
101.438133966396
 20
-76.47934064461242
 30
0.0
 10
101.438133966396
 20
-76.47934064461242
 30
0.0
 10
107.4352998529048
 20
-76.30295341265536
 30
0.0
 10
112.5505295796301
 20
-76.12656618070014
 30
0.0
 10
117.4893720744003
 20
-75.59740448483172
 30
0.0
 10
118.3713082341801
 20
-79.65431081982024
 30
0.0
 10
118.9004699300494
 20
-83.88760438676673
 30
0.0
 10
119.2532443939617
 20
-88.4736724176264
 30
0.0
 10
119.2532443939617
 20
-88.4736724176264
 30
0.0
 10
101.438133966396
 20
-88.4736724176264
 30
0.0
 10
101.438133966396
 20
-88.4736724176264
 30
0.0
  0
SPLINE
  5
9E
330
70
100
AcDbEntity
  8
Layer 1
100
AcDbSpline
210
0.0
220
0.0
230
1.0
 70
     9
 71
     3
 72
    14
 73
    10
 74
     0
 42
0.0000000001
 43
0.0000000001
 40
0.0
 40
0.0
 40
0.0
 40
0.0
 40
1.0
 40
1.0
 40
1.0
 40
2.0
 40
2.0
 40
2.0
 40
3.0
 40
3.0
 40
3.0
 40
3.0
 10
101.438133966396
 20
-63.42668547986249
 30
0.0
 10
101.438133966396
 20
-63.42668547986249
 30
0.0
 10
101.438133966396
 20
-46.6698984440327
 30
0.0
 10
101.438133966396
 20
-46.6698984440327
 30
0.0
 10
105.8478147652986
 20
-49.49209415533096
 30
0.0
 10
110.2574955642012
 20
-55.31287280988181
 30
0.0
 10
113.4324657394118
 20
-62.89752378399407
 30
0.0
 10
109.9047211002889
 20
-63.07391101595022
 30
0.0
 10
106.0242019972575
 20
-63.25029824790454
 30
0.0
 10
101.438133966396
 20
-63.42668547986249
 30
0.0
  0
SPLINE
  5
9F
330
70
100
AcDbEntity
  8
Layer 1
100
AcDbSpline
210
0.0
220
0.0
230
1.0
 70
     9
 71
     3
 72
    14
 73
    10
 74
     0
 42
0.0000000001
 43
0.0000000001
 40
0.0
 40
0.0
 40
0.0
 40
0.0
 40
1.0
 40
1.0
 40
1.0
 40
2.0
 40
2.0
 40
2.0
 40
3.0
 40
3.0
 40
3.0
 40
3.0
 10
118.5476954661371
 20
-141.0370675405393
 30
0.0
 10
121.3698911774354
 20
-137.3329356694612
 30
0.0
 10
123.8393124248196
 20
-133.2760293344708
 30
0.0
 10
125.9559592082932
 20
-128.5135740716578
 30
0.0
 10
129.130929383502
 20
-129.0427357675253
 30
0.0
 10
131.9531250948003
 20
-129.7482846953498
 30
0.0
 10
134.4225463421844
 20
-130.4538336231744
 30
0.0
 10
130.1892527752388
 20
-134.68712719012
 30
0.0
 10
124.7212485846012
 20
-138.3912590611999
 30
0.0
 10
118.5476954661371
 20
-141.0370675405393
 30
0.0
  0
SPLINE
  5
A0
330
70
100
AcDbEntity
  8
Layer 1
100
AcDbSpline
210
0.0
220
0.0
230
1.0
 70
     9
 71
     3
 72
    17
 73
    13
 74
     0
 42
0.0000000001
 43
0.0000000001
 40
0.0
 40
0.0
 40
0.0
 40
0.0
 40
1.0
 40
1.0
 40
1.0
 40
2.0
 40
2.0
 40
2.0
 40
3.0
 40
3.0
 40
3.0
 40
4.0
 40
4.0
 40
4.0
 40
4.0
 10
130.0128655432836
 20
-115.9900806027744
 30
0.0
 10
131.0711889350186
 20
-111.5803998038755
 30
0.0
 10
131.9531250948003
 20
-106.4651700771464
 30
0.0
 10
132.3058995587125
 20
-101.5263275823763
 30
0.0
 10
132.3058995587125
 20
-101.5263275823763
 30
0.0
 10
148.357137666715
 20
-101.5263275823763
 30
0.0
 10
148.357137666715
 20
-101.5263275823763
 30
0.0
 10
147.6515887388923
 20
-107.8762679327956
 30
0.0
 10
145.7113291873738
 20
-114.0498210512578
 30
0.0
 10
142.7127462441203
 20
-119.5178252418955
 30
0.0
 10
139.0086143730441
 20
-118.1067273862481
 30
0.0
 10
134.5989335741414
 20
-116.8720167625542
 30
0.0
 10
130.0128655432836
 20
-115.9900806027744
 30
0.0
  0
SPLINE
  5
A1
330
70
100
AcDbEntity
  8
Layer 1
100
AcDbSpline
210
0.0
220
0.0
230
1.0
 70
     9
 71
     3
 72
    14
 73
    10
 74
     0
 42
0.0000000001
 43
0.0000000001
 40
0.0
 40
0.0
 40
0.0
 40
0.0
 40
1.0
 40
1.0
 40
1.0
 40
2.0
 40
2.0
 40
2.0
 40
3.0
 40
3.0
 40
3.0
 40
3.0
 10
118.5476954661371
 20
-48.96293245946162
 30
0.0
 10
124.7212485846012
 20
-51.60874093880465
 30
0.0
 10
130.1892527752388
 20
-55.31287280988181
 30
0.0
 10
134.4225463421844
 20
-59.54616637682829
 30
0.0
 10
131.9531250948003
 20
-60.25171530465286
 30
0.0
 10
129.130929383502
 20
-60.95726423247561
 30
0.0
 10
125.9559592082932
 20
-61.48642592834494
 30
0.0
 10
123.8393124248196
 20
-56.72397066552912
 30
0.0
 10
121.3698911774354
 20
-52.6670643305406
 30
0.0
 10
118.5476954661371
 20
-48.96293245946162
 30
0.0
  0
SPLINE
  5
A2
330
70
100
AcDbEntity
  8
Layer 1
100
AcDbSpline
210
0.0
220
0.0
230
1.0
 70
     9
 71
     3
 72
    17
 73
    13
 74
     0
 42
0.0000000001
 43
0.0000000001
 40
0.0
 40
0.0
 40
0.0
 40
0.0
 40
1.0
 40
1.0
 40
1.0
 40
2.0
 40
2.0
 40
2.0
 40
3.0
 40
3.0
 40
3.0
 40
4.0
 40
4.0
 40
4.0
 40
4.0
 10
132.3058995587125
 20
-88.4736724176264
 30
0.0
 10
131.9531250948003
 20
-83.53482992285535
 30
0.0
 10
131.0711889350186
 20
-78.41960019612907
 30
0.0
 10
130.0128655432836
 20
-74.00991939722735
 30
0.0
 10
134.5989335741414
 20
-73.12798323744664
 30
0.0
 10
139.0086143730441
 20
-71.89327261375456
 30
0.0
 10
142.7127462441203
 20
-70.48217475810452
 30
0.0
 10
145.7113291873738
 20
-75.95017894874309
 30
0.0
 10
147.6515887388923
 20
-82.12373206720712
 30
0.0
 10
148.357137666715
 20
-88.4736724176264
 30
0.0
 10
148.357137666715
 20
-88.4736724176264
 30
0.0
 10
132.3058995587125
 20
-88.4736724176264
 30
0.0
 10
132.3058995587125
 20
-88.4736724176264
 30
0.0
  0
HATCH
  5
A3
330
70
100
AcDbEntity
  8
Layer 1
 62
    18
420
        0
440
 33554687
100
AcDbHatch
 10
0.0
 20
0.0
 30
0.0
210
0.0
220
0.0
230
1.0
  2
SOLID
 70
     1
 71
     1
 91
       17
 92
        1
 93
        1
 72
     4
 94
        3
 73
     0
 74
     0
 95
       17
 96
       13
 40
0.0
 40
0.0
 40
0.0
 40
0.0
 40
1.0
 40
1.0
 40
1.0
 40
2.0
 40
2.0
 40
2.0
 40
3.0
 40
3.0
 40
3.0
 40
4.0
 40
4.0
 40
4.0
 40
4.0
 10
94.91180638402239
 20
-158.4994035041909
 10
133.7169974143598
 20
-158.4994035041909
 10
161.7625672953782
 20
-131.6885442468665
 10
161.7625672953782
 20
-95.0000000000009
 10
161.7625672953782
 20
-58.31145575313439
 10
133.7169974143598
 20
-31.50059649580908
 10
94.91180638402239
 20
-31.50059649580908
 10
56.28300258564014
 20
-31.50059649580908
 10
28.23743270462183
 20
-58.31145575313439
 10
28.23743270462183
 20
-95.0000000000009
 10
28.23743270462183
 20
-131.6885442468665
 10
56.28300258564014
 20
-158.4994035041909
 10
94.91180638402239
 20
-158.4994035041909
 97
        0
 97
        1
330
92
 92
        1
 93
        1
 72
     4
 94
        3
 73
     0
 74
     0
 95
       17
 96
       13
 40
0.0
 40
0.0
 40
0.0
 40
0.0
 40
1.0
 40
1.0
 40
1.0
 40
2.0
 40
2.0
 40
2.0
 40
3.0
 40
3.0
 40
3.0
 40
4.0
 40
4.0
 40
4.0
 40
4.0
 10
41.64286233328403
 20
-101.5263275823763
 10
41.64286233328403
 20
-101.5263275823763
 10
57.69410044128744
 20
-101.5263275823763
 10
57.69410044128744
 20
-101.5263275823763
 10
58.04687490520064
 20
-106.6415573091035
 10
58.92881106498044
 20
-111.5803998038755
 10
59.98713445671819
 20
-115.9900806027744
 10
55.22467919390328
 20
-116.8720167625542
 10
50.81499839499975
 20
-118.1067273862481
 10
47.28725375587873
 20
-119.5178252418955
 10
44.46505804458138
 20
-114.2262082832149
 10
42.34841126110768
 20
-107.8762679327956
 10
41.64286233328403
 20
-101.5263275823763
 97
        0
 97
        1
330
93
 92
        1
 93
        1
 72
     4
 94
        3
 73
     0
 74
     0
 95
       17
 96
       13
 40
0.0
 40
0.0
 40
0.0
 40
0.0
 40
1.0
 40
1.0
 40
1.0
 40
2.0
 40
2.0
 40
2.0
 40
3.0
 40
3.0
 40
3.0
 40
4.0
 40
4.0
 40
4.0
 40
4.0
 10
41.64286233328403
 20
-88.4736724176264
 10
42.34841126110768
 20
-82.12373206720712
 10
44.46505804458138
 20
-75.77379171678694
 10
47.28725375587873
 20
-70.48217475810452
 10
50.81499839499975
 20
-71.89327261375456
 10
55.22467919390328
 20
-73.12798323744664
 10
59.98713445671819
 20
-74.00991939722735
 10
58.92881106498044
 20
-78.41960019612907
 10
58.04687490520064
 20
-83.35844269090012
 10
57.69410044128744
 20
-88.4736724176264
 10
57.69410044128744
 20
-88.4736724176264
 10
41.64286233328403
 20
-88.4736724176264
 10
41.64286233328403
 20
-88.4736724176264
 97
        0
 97
        1
330
94
 92
        1
 93
        1
 72
     4
 94
        3
 73
     0
 74
     0
 95
       14
 96
       10
 40
0.0
 40
0.0
 40
0.0
 40
0.0
 40
1.0
 40
1.0
 40
1.0
 40
2.0
 40
2.0
 40
2.0
 40
3.0
 40
3.0
 40
3.0
 40
3.0
 10
55.40106642585851
 20
-130.4538336231744
 10
58.04687490520064
 20
-129.5718974633928
 10
60.86907061649799
 20
-129.0427357675253
 10
64.04404079170672
 20
-128.5135740716578
 10
66.16068757518042
 20
-133.2760293344708
 10
68.63010882256549
 20
-137.5093229014183
 10
71.45230453386284
 20
-141.0370675405393
 10
65.10236418344357
 20
-138.3912590611999
 10
59.98713445671819
 20
-134.863514422077
 10
55.40106642585851
 20
-130.4538336231744
 97
        0
 97
        1
330
95
 92
        1
 93
        1
 72
     4
 94
        3
 73
     0
 74
     0
 95
       14
 96
       10
 40
0.0
 40
0.0
 40
0.0
 40
0.0
 40
1.0
 40
1.0
 40
1.0
 40
2.0
 40
2.0
 40
2.0
 40
3.0
 40
3.0
 40
3.0
 40
3.0
 10
55.40106642585851
 20
-59.54616637682829
 10
59.81074722476114
 20
-55.13648557792476
 10
65.27875141539971
 20
-51.60874093880465
 10
71.2759173019067
 20
-49.13931969141777
 10
68.63010882256549
 20
-52.49067709858355
 10
65.98430034322428
 20
-57.07674512944141
 10
64.04404079170672
 20
-61.48642592834494
 10
60.86907061649799
 20
-60.95726423247561
 10
57.87048767324449
 20
-60.25171530465286
 10
55.40106642585851
 20
-59.54616637682829
 97
        0
 97
        1
330
96
 92
        1
 93
        1
 72
     4
 94
        3
 73
     0
 74
     0
 95
       17
 96
       13
 40
0.0
 40
0.0
 40
0.0
 40
0.0
 40
1.0
 40
1.0
 40
1.0
 40
2.0
 40
2.0
 40
2.0
 40
3.0
 40
3.0
 40
3.0
 40
4.0
 40
4.0
 40
4.0
 40
4.0
 10
72.51062792559878
 20
-114.2262082832149
 10
71.62869176581899
 20
-110.1693019482227
 10
71.09953006994965
 20
-106.1123956132342
 10
70.74675560603828
 20
-101.5263275823763
 10
70.74675560603828
 20
-101.5263275823763
 10
88.38547880164787
 20
-101.5263275823763
 10
88.38547880164787
 20
-101.5263275823763
 10
88.38547880164787
 20
-101.5263275823763
 10
88.38547880164787
 20
-113.5206593553903
 10
88.38547880164787
 20
-113.5206593553903
 10
82.38831291513998
 20
-113.6970465873455
 10
77.09669595645846
 20
-113.8734338193026
 10
72.51062792559878
 20
-114.2262082832149
 97
        0
 97
        1
330
97
 92
        1
 93
        1
 72
     4
 94
        3
 73
     0
 74
     0
 95
       14
 96
       10
 40
0.0
 40
0.0
 40
0.0
 40
0.0
 40
1.0
 40
1.0
 40
1.0
 40
2.0
 40
2.0
 40
2.0
 40
3.0
 40
3.0
 40
3.0
 40
3.0
 10
76.39114702863299
 20
-127.1024762160068
 10
79.91889166775582
 20
-126.9260889840534
 10
83.7994107707882
 20
-126.7497017520963
 10
88.38547880164787
 20
-126.5733145201411
 10
88.38547880164787
 20
-126.5733145201411
 10
88.38547880164787
 20
-143.3301015559664
 10
88.38547880164787
 20
-143.3301015559664
 10
83.7994107707882
 20
-140.5079058446717
 10
79.56611720384263
 20
-134.863514422077
 10
76.39114702863299
 20
-127.1024762160068
 97
        0
 97
        1
330
98
 92
        1
 93
        1
 72
     4
 94
        3
 73
     0
 74
     0
 95
       17
 96
       13
 40
0.0
 40
0.0
 40
0.0
 40
0.0
 40
1.0
 40
1.0
 40
1.0
 40
2.0
 40
2.0
 40
2.0
 40
3.0
 40
3.0
 40
3.0
 40
4.0
 40
4.0
 40
4.0
 40
4.0
 10
70.74675560603828
 20
-88.4736724176264
 10
71.09953006994965
 20
-83.88760438676673
 10
71.62869176581899
 20
-79.83069805177819
 10
72.51062792559878
 20
-75.77379171678694
 10
77.09669595645846
 20
-76.12656618070014
 10
82.38831291513998
 20
-76.30295341265536
 10
88.38547880164787
 20
-76.47934064461242
 10
88.38547880164787
 20
-76.47934064461242
 10
88.38547880164787
 20
-88.4736724176264
 10
88.38547880164787
 20
-88.4736724176264
 10
88.38547880164787
 20
-88.4736724176264
 10
70.74675560603828
 20
-88.4736724176264
 10
70.74675560603828
 20
-88.4736724176264
 97
        0
 97
        1
330
99
 92
        1
 93
        1
 72
     4
 94
        3
 73
     0
 74
     0
 95
       14
 96
       10
 40
0.0
 40
0.0
 40
0.0
 40
0.0
 40
1.0
 40
1.0
 40
1.0
 40
2.0
 40
2.0
 40
2.0
 40
3.0
 40
3.0
 40
3.0
 40
3.0
 10
76.39114702863299
 20
-62.89752378399407
 10
79.56611720384263
 20
-55.13648557792476
 10
83.7994107707882
 20
-49.49209415533096
 10
88.38547880164787
 20
-46.6698984440327
 10
88.38547880164787
 20
-46.6698984440327
 10
88.38547880164787
 20
-63.42668547986249
 10
88.38547880164787
 20
-63.42668547986249
 10
83.7994107707882
 20
-63.25029824790454
 10
79.91889166775582
 20
-63.07391101595022
 10
76.39114702863299
 20
-62.89752378399407
 97
        0
 97
        1
330
9A
 92
        1
 93
        1
 72
     4
 94
        3
 73
     0
 74
     0
 95
       14
 96
       10
 40
0.0
 40
0.0
 40
0.0
 40
0.0
 40
1.0
 40
1.0
 40
1.0
 40
2.0
 40
2.0
 40
2.0
 40
3.0
 40
3.0
 40
3.0
 40
3.0
 10
101.438133966396
 20
-143.3301015559664
 10
101.438133966396
 20
-143.3301015559664
 10
101.438133966396
 20
-126.5733145201411
 10
101.438133966396
 20
-126.5733145201411
 10
106.0242019972575
 20
-126.7497017520963
 10
109.9047211002889
 20
-126.9260889840534
 10
113.4324657394118
 20
-127.1024762160068
 10
110.2574955642012
 20
-134.68712719012
 10
105.8478147652986
 20
-140.5079058446717
 10
101.438133966396
 20
-143.3301015559664
 97
        0
 97
        1
330
9B
 92
        1
 93
        1
 72
     4
 94
        3
 73
     0
 74
     0
 95
       17
 96
       13
 40
0.0
 40
0.0
 40
0.0
 40
0.0
 40
1.0
 40
1.0
 40
1.0
 40
2.0
 40
2.0
 40
2.0
 40
3.0
 40
3.0
 40
3.0
 40
4.0
 40
4.0
 40
4.0
 40
4.0
 10
101.438133966396
 20
-113.5206593553903
 10
101.438133966396
 20
-113.5206593553903
 10
101.438133966396
 20
-101.5263275823763
 10
101.438133966396
 20
-101.5263275823763
 10
101.438133966396
 20
-101.5263275823763
 10
119.2532443939617
 20
-101.5263275823763
 10
119.2532443939617
 20
-101.5263275823763
 10
118.9004699300494
 20
-106.1123956132342
 10
118.3713082341801
 20
-110.3456891801815
 10
117.4893720744003
 20
-114.4025955151701
 10
112.5505295796301
 20
-113.8734338193026
 10
107.4352998529048
 20
-113.6970465873455
 10
101.438133966396
 20
-113.5206593553903
 97
        0
 97
        1
330
9C
 92
        1
 93
        1
 72
     4
 94
        3
 73
     0
 74
     0
 95
       17
 96
       13
 40
0.0
 40
0.0
 40
0.0
 40
0.0
 40
1.0
 40
1.0
 40
1.0
 40
2.0
 40
2.0
 40
2.0
 40
3.0
 40
3.0
 40
3.0
 40
4.0
 40
4.0
 40
4.0
 40
4.0
 10
101.438133966396
 20
-88.4736724176264
 10
101.438133966396
 20
-88.4736724176264
 10
101.438133966396
 20
-76.47934064461242
 10
101.438133966396
 20
-76.47934064461242
 10
107.4352998529048
 20
-76.30295341265536
 10
112.5505295796301
 20
-76.12656618070014
 10
117.4893720744003
 20
-75.59740448483172
 10
118.3713082341801
 20
-79.65431081982024
 10
118.9004699300494
 20
-83.88760438676673
 10
119.2532443939617
 20
-88.4736724176264
 10
119.2532443939617
 20
-88.4736724176264
 10
101.438133966396
 20
-88.4736724176264
 10
101.438133966396
 20
-88.4736724176264
 97
        0
 97
        1
330
9D
 92
        1
 93
        1
 72
     4
 94
        3
 73
     0
 74
     0
 95
       14
 96
       10
 40
0.0
 40
0.0
 40
0.0
 40
0.0
 40
1.0
 40
1.0
 40
1.0
 40
2.0
 40
2.0
 40
2.0
 40
3.0
 40
3.0
 40
3.0
 40
3.0
 10
101.438133966396
 20
-63.42668547986249
 10
101.438133966396
 20
-63.42668547986249
 10
101.438133966396
 20
-46.6698984440327
 10
101.438133966396
 20
-46.6698984440327
 10
105.8478147652986
 20
-49.49209415533096
 10
110.2574955642012
 20
-55.31287280988181
 10
113.4324657394118
 20
-62.89752378399407
 10
109.9047211002889
 20
-63.07391101595022
 10
106.0242019972575
 20
-63.25029824790454
 10
101.438133966396
 20
-63.42668547986249
 97
        0
 97
        1
330
9E
 92
        1
 93
        1
 72
     4
 94
        3
 73
     0
 74
     0
 95
       14
 96
       10
 40
0.0
 40
0.0
 40
0.0
 40
0.0
 40
1.0
 40
1.0
 40
1.0
 40
2.0
 40
2.0
 40
2.0
 40
3.0
 40
3.0
 40
3.0
 40
3.0
 10
118.5476954661371
 20
-141.0370675405393
 10
121.3698911774354
 20
-137.3329356694612
 10
123.8393124248196
 20
-133.2760293344708
 10
125.9559592082932
 20
-128.5135740716578
 10
129.130929383502
 20
-129.0427357675253
 10
131.9531250948003
 20
-129.7482846953498
 10
134.4225463421844
 20
-130.4538336231744
 10
130.1892527752388
 20
-134.68712719012
 10
124.7212485846012
 20
-138.3912590611999
 10
118.5476954661371
 20
-141.0370675405393
 97
        0
 97
        1
330
9F
 92
        1
 93
        1
 72
     4
 94
        3
 73
     0
 74
     0
 95
       17
 96
       13
 40
0.0
 40
0.0
 40
0.0
 40
0.0
 40
1.0
 40
1.0
 40
1.0
 40
2.0
 40
2.0
 40
2.0
 40
3.0
 40
3.0
 40
3.0
 40
4.0
 40
4.0
 40
4.0
 40
4.0
 10
130.0128655432836
 20
-115.9900806027744
 10
131.0711889350186
 20
-111.5803998038755
 10
131.9531250948003
 20
-106.4651700771464
 10
132.3058995587125
 20
-101.5263275823763
 10
132.3058995587125
 20
-101.5263275823763
 10
148.357137666715
 20
-101.5263275823763
 10
148.357137666715
 20
-101.5263275823763
 10
147.6515887388923
 20
-107.8762679327956
 10
145.7113291873738
 20
-114.0498210512578
 10
142.7127462441203
 20
-119.5178252418955
 10
139.0086143730441
 20
-118.1067273862481
 10
134.5989335741414
 20
-116.8720167625542
 10
130.0128655432836
 20
-115.9900806027744
 97
        0
 97
        1
330
A0
 92
        1
 93
        1
 72
     4
 94
        3
 73
     0
 74
     0
 95
       14
 96
       10
 40
0.0
 40
0.0
 40
0.0
 40
0.0
 40
1.0
 40
1.0
 40
1.0
 40
2.0
 40
2.0
 40
2.0
 40
3.0
 40
3.0
 40
3.0
 40
3.0
 10
118.5476954661371
 20
-48.96293245946162
 10
124.7212485846012
 20
-51.60874093880465
 10
130.1892527752388
 20
-55.31287280988181
 10
134.4225463421844
 20
-59.54616637682829
 10
131.9531250948003
 20
-60.25171530465286
 10
129.130929383502
 20
-60.95726423247561
 10
125.9559592082932
 20
-61.48642592834494
 10
123.8393124248196
 20
-56.72397066552912
 10
121.3698911774354
 20
-52.6670643305406
 10
118.5476954661371
 20
-48.96293245946162
 97
        0
 97
        1
330
A1
 92
        1
 93
        1
 72
     4
 94
        3
 73
     0
 74
     0
 95
       17
 96
       13
 40
0.0
 40
0.0
 40
0.0
 40
0.0
 40
1.0
 40
1.0
 40
1.0
 40
2.0
 40
2.0
 40
2.0
 40
3.0
 40
3.0
 40
3.0
 40
4.0
 40
4.0
 40
4.0
 40
4.0
 10
132.3058995587125
 20
-88.4736724176264
 10
131.9531250948003
 20
-83.53482992285535
 10
131.0711889350186
 20
-78.41960019612907
 10
130.0128655432836
 20
-74.00991939722735
 10
134.5989335741414
 20
-73.12798323744664
 10
139.0086143730441
 20
-71.89327261375456
 10
142.7127462441203
 20
-70.48217475810452
 10
145.7113291873738
 20
-75.95017894874309
 10
147.6515887388923
 20
-82.12373206720712
 10
148.357137666715
 20
-88.4736724176264
 10
148.357137666715
 20
-88.4736724176264
 10
132.3058995587125
 20
-88.4736724176264
 10
132.3058995587125
 20
-88.4736724176264
 97
        0
 97
        1
330
A2
 75
     2
 76
     1
 98
        1
 10
0.0
 20
0.0
450
        0
451
        0
460
0.0
461
0.0
452
        0
462
0.0
453
        0
470

  0
ENDSEC
  0
SECTION
  2
OBJECTS
  0
DICTIONARY
  5
C
330
0
100
AcDbDictionary
281
     1
  3
ACAD_COLOR
350
63
  3
ACAD_DETAILVIEWSTYLE
350
6A
  3
ACAD_GROUP
350
D
  3
ACAD_LAYOUT
350
62
  3
ACAD_MATERIAL
350
10
  3
ACAD_MLEADERSTYLE
350
66
  3
ACAD_MLINESTYLE
350
5F
  3
ACAD_PLOTSETTINGS
350
61
  3
ACAD_PLOTSTYLENAME
350
E
  3
ACAD_SCALELIST
350
42
  3
ACAD_SECTIONVIEWSTYLE
350
68
  3
ACAD_TABLESTYLE
350
64
  3
ACAD_VISUALSTYLE
350
29
  3
ACDB_RECOMPOSE_DATA
350
AC
  3
AcDbVariableDictionary
350
A4
  0
DICTIONARY
  5
63
102
{ACAD_REACTORS
330
C
102
}
330
C
100
AcDbDictionary
281
     1
  0
DICTIONARY
  5
6A
102
{ACAD_REACTORS
330
C
102
}
330
C
100
AcDbDictionary
281
     1
  3
Imperial24
350
6B
  0
DICTIONARY
  5
D
102
{ACAD_REACTORS
330
C
102
}
330
C
100
AcDbDictionary
281
     1
  0
DICTIONARY
  5
62
102
{ACAD_REACTORS
330
C
102
}
330
C
100
AcDbDictionary
281
     1
  3
Layout1
350
6F
  3
Layout2
350
77
  3
Model
350
73
  0
DICTIONARY
  5
10
102
{ACAD_REACTORS
330
C
102
}
330
C
100
AcDbDictionary
281
     1
  3
ByBlock
350
19
  3
ByLayer
350
11
  3
Global
350
21
  0
DICTIONARY
  5
66
102
{ACAD_REACTORS
330
C
102
}
330
C
100
AcDbDictionary
281
     1
  3
Standard
350
67
  0
DICTIONARY
  5
5F
102
{ACAD_REACTORS
330
C
102
}
330
C
100
AcDbDictionary
281
     1
  3
Standard
350
60
  0
DICTIONARY
  5
61
102
{ACAD_REACTORS
330
C
102
}
330
C
100
AcDbDictionary
281
     1
  0
ACDBDICTIONARYWDFLT
  5
E
102
{ACAD_REACTORS
330
C
102
}
330
C
100
AcDbDictionary
281
     1
  3
Normal
350
F
100
AcDbDictionaryWithDefault
340
F
  0
DICTIONARY
  5
42
102
{ACAD_REACTORS
330
C
102
}
330
C
100
AcDbDictionary
281
     1
  3
A0
350
43
  3
A1
350
44
  3
A2
350
45
  3
A3
350
46
  3
A4
350
47
  3
A5
350
48
  3
A6
350
49
  3
A7
350
4A
  3
A8
350
4B
  3
A9
350
4C
  3
B0
350
4D
  3
B1
350
4E
  3
B2
350
4F
  3
B3
350
50
  3
B4
350
51
  3
B5
350
52
  3
B6
350
53
  0
DICTIONARY
  5
68
102
{ACAD_REACTORS
330
C
102
}
330
C
100
AcDbDictionary
281
     1
  3
Imperial24
350
69
  0
DICTIONARY
  5
64
102
{ACAD_REACTORS
330
C
102
}
330
C
100
AcDbDictionary
281
     1
  3
Standard
350
65
  0
DICTIONARY
  5
29
102
{ACAD_REACTORS
330
C
102
}
330
C
100
AcDbDictionary
281
     1
  3
2dWireframe
350
2F
  3
Basic
350
2E
  3
Brighten
350
35
  3
ColorChange
350
39
  3
Conceptual
350
32
  3
Dim
350
34
  3
EdgeColorOff
350
41
  3
Facepattern
350
38
  3
Flat
350
2A
  3
FlatWithEdges
350
2B
  3
Gouraud
350
2C
  3
GouraudWithEdges
350
2D
  3
Hidden
350
31
  3
JitterOff
350
3F
  3
Linepattern
350
37
  3
OverhangOff
350
40
  3
Realistic
350
33
  3
Shaded
350
3E
  3
Shaded with edges
350
3D
  3
Shades of Gray
350
3A
  3
Sketchy
350
3B
  3
Thicken
350
36
  3
Wireframe
350
30
  3
X-Ray
350
3C
  0
XRECORD
  5
AC
102
{ACAD_REACTORS
330
C
102
}
330
C
100
AcDbXrecord
280
     1
 90
        1
330
65
  0
DICTIONARY
  5
A4
102
{ACAD_REACTORS
330
C
102
}
330
C
100
AcDbDictionary
281
     1
  3
CANNOSCALE
350
A9
  3
CMLEADERSTYLE
350
A6
  3
CTABLESTYLE
350
A5
  3
CVIEWDETAILSTYLE
350
A7
  3
CVIEWSECTIONSTYLE
350
A8
  0
ACDBDETAILVIEWSTYLE
  5
6B
102
{ACAD_REACTORS
330
6A
102
}
330
6A
100
AcDbModelDocViewStyle
 70
     0
  3
Imperial24
290
     1
300
Imperial24
 90
        0
100
AcDbDetailViewStyle
 70
     0
 71
     0
 90
        3
 71
     1
340
55
 62
   256
 40
0.24
340
0
 62
   256
 40
0.24
300

 40
0.36
280
     3
 71
     2
340
5D
 90
       25
 62
   256
 71
     3
340
55
 62
   256
 40
0.24
 90
        1
 40
0.75
 90
        1
300
%<\AcVar ViewType \f "%tc1">% %<\AcVar ViewDetailId>%\PSCALE %<\AcVar ViewScale \f "%sn">%
 71
     4
340
5D
 90
       25
 62
   256
340
5D
 90
       25
 62
   256
280
     0
  0
LAYOUT
  5
6F
102
{ACAD_REACTORS
330
62
102
}
330
62
100
AcDbPlotSettings
  1

  2

  4

  6

 40
0.0
 41
0.0
 42
0.0
 43
0.0
 44
0.0
 45
0.0
 46
0.0
 47
0.0
 48
0.0
 49
0.0
140
0.0
141
0.0
142
1.0
143
1.0
 70
   688
 72
     0
 73
     0
 74
     5
  7

 75
    16
147
1.0
 76
     0
 77
     2
 78
   300
148
0.0
149
0.0
100
AcDbLayout
  1
Layout1
 70
     1
 71
     1
 10
0.0
 20
0.0
 11
12.0
 21
9.0
 12
0.0
 22
0.0
 32
0.0
 14
0.0
 24
0.0
 34
0.0
 15
0.0
 25
0.0
 35
0.0
146
0.0
 13
0.0
 23
0.0
 33
0.0
 16
1.0
 26
0.0
 36
0.0
 17
0.0
 27
1.0
 37
0.0
 76
     0
330
6C
  0
LAYOUT
  5
77
102
{ACAD_REACTORS
330
62
102
}
330
62
100
AcDbPlotSettings
  1

  2

  4

  6

 40
0.0
 41
0.0
 42
0.0
 43
0.0
 44
0.0
 45
0.0
 46
0.0
 47
0.0
 48
0.0
 49
0.0
140
0.0
141
0.0
142
1.0
143
1.0
 70
   688
 72
     0
 73
     0
 74
     5
  7

 75
    16
147
1.0
 76
     0
 77
     2
 78
   300
148
0.0
149
0.0
100
AcDbLayout
  1
Layout2
 70
     1
 71
     2
 10
0.0
 20
0.0
 11
12.0
 21
9.0
 12
0.0
 22
0.0
 32
0.0
 14
0.0
 24
0.0
 34
0.0
 15
0.0
 25
0.0
 35
0.0
146
0.0
 13
0.0
 23
0.0
 33
0.0
 16
1.0
 26
0.0
 36
0.0
 17
0.0
 27
1.0
 37
0.0
 76
     0
330
74
  0
LAYOUT
  5
73
102
{ACAD_REACTORS
330
62
102
}
330
62
100
AcDbPlotSettings
  1

  2

  4

  6

 40
0.0
 41
0.0
 42
0.0
 43
0.0
 44
0.0
 45
0.0
 46
0.0
 47
0.0
 48
0.0
 49
0.0
140
0.0
141
0.0
142
1.0
143
1.0
 70
  1712
 72
     0
 73
     0
 74
     0
  7

 75
     0
147
1.0
 76
     0
 77
     2
 78
   300
148
0.0
149
0.0
100
AcDbLayout
  1
Model
 70
     1
 71
     0
 10
0.0
 20
0.0
 11
12.0
 21
9.0
 12
0.0
 22
0.0
 32
0.0
 14
0.0
 24
0.0
 34
0.0
 15
0.0
 25
0.0
 35
0.0
146
0.0
 13
0.0
 23
0.0
 33
0.0
 16
1.0
 26
0.0
 36
0.0
 17
0.0
 27
1.0
 37
0.0
 76
     0
330
70
  0
MATERIAL
  5
19
102
{ACAD_XDICTIONARY
360
1A
102
}
102
{ACAD_REACTORS
330
10
102
}
330
10
100
AcDbMaterial
  1
ByBlock
 72
     0
 43
0.0208333333333333
 43
0.0
 43
0.0
 43
0.0
 43
0.0
 43
0.0208333333333333
 43
0.0
 43
0.0
 43
0.0
 43
0.0
 43
1.0
 43
0.0
 43
0.0
 43
0.0
 43
0.0
 43
1.0
 77
     0
 47
0.0208333333333333
 47
0.0
 47
0.0
 47
0.0
 47
0.0
 47
0.0208333333333333
 47
0.0
 47
0.0
 47
0.0
 47
0.0
 47
1.0
 47
0.0
 47
0.0
 47
0.0
 47
0.0
 47
1.0
171
     0
 49
0.0208333333333333
 49
0.0
 49
0.0
 49
0.0
 49
0.0
 49
0.0208333333333333
 49
0.0
 49
0.0
 49
0.0
 49
0.0
 49
1.0
 49
0.0
 49
0.0
 49
0.0
 49
0.0
 49
1.0
175
     0
142
0.0208333333333333
142
0.0
142
0.0
142
0.0
142
0.0
142
0.0208333333333333
142
0.0
142
0.0
142
0.0
142
0.0
142
1.0
142
0.0
142
0.0
142
0.0
142
0.0
142
1.0
179
     0
144
0.0208333333333333
144
0.0
144
0.0
144
0.0
144
0.0
144
0.0208333333333333
144
0.0
144
0.0
144
0.0
144
0.0
144
1.0
144
0.0
144
0.0
144
0.0
144
0.0
144
1.0
147
0.0208333333333333
147
0.0
147
0.0
147
0.0
147
0.0
147
0.0208333333333333
147
0.0
147
0.0
147
0.0
147
0.0
147
1.0
147
0.0
147
0.0
147
0.0
147
0.0
147
1.0
  0
MATERIAL
  5
11
102
{ACAD_XDICTIONARY
360
12
102
}
102
{ACAD_REACTORS
330
10
102
}
330
10
100
AcDbMaterial
  1
ByLayer
 72
     0
 43
0.0208333333333333
 43
0.0
 43
0.0
 43
0.0
 43
0.0
 43
0.0208333333333333
 43
0.0
 43
0.0
 43
0.0
 43
0.0
 43
1.0
 43
0.0
 43
0.0
 43
0.0
 43
0.0
 43
1.0
 77
     0
 47
0.0208333333333333
 47
0.0
 47
0.0
 47
0.0
 47
0.0
 47
0.0208333333333333
 47
0.0
 47
0.0
 47
0.0
 47
0.0
 47
1.0
 47
0.0
 47
0.0
 47
0.0
 47
0.0
 47
1.0
171
     0
 49
0.0208333333333333
 49
0.0
 49
0.0
 49
0.0
 49
0.0
 49
0.0208333333333333
 49
0.0
 49
0.0
 49
0.0
 49
0.0
 49
1.0
 49
0.0
 49
0.0
 49
0.0
 49
0.0
 49
1.0
175
     0
142
0.0208333333333333
142
0.0
142
0.0
142
0.0
142
0.0
142
0.0208333333333333
142
0.0
142
0.0
142
0.0
142
0.0
142
1.0
142
0.0
142
0.0
142
0.0
142
0.0
142
1.0
179
     0
144
0.0208333333333333
144
0.0
144
0.0
144
0.0
144
0.0
144
0.0208333333333333
144
0.0
144
0.0
144
0.0
144
0.0
144
1.0
144
0.0
144
0.0
144
0.0
144
0.0
144
1.0
147
0.0208333333333333
147
0.0
147
0.0
147
0.0
147
0.0
147
0.0208333333333333
147
0.0
147
0.0
147
0.0
147
0.0
147
1.0
147
0.0
147
0.0
147
0.0
147
0.0
147
1.0
  0
MATERIAL
  5
21
102
{ACAD_XDICTIONARY
360
22
102
}
102
{ACAD_REACTORS
330
10
102
}
330
10
100
AcDbMaterial
  1
Global
 72
     0
 43
0.0208333333333333
 43
0.0
 43
0.0
 43
0.0
 43
0.0
 43
0.0208333333333333
 43
0.0
 43
0.0
 43
0.0
 43
0.0
 43
1.0
 43
0.0
 43
0.0
 43
0.0
 43
0.0
 43
1.0
 77
     0
 47
0.0208333333333333
 47
0.0
 47
0.0
 47
0.0
 47
0.0
 47
0.0208333333333333
 47
0.0
 47
0.0
 47
0.0
 47
0.0
 47
1.0
 47
0.0
 47
0.0
 47
0.0
 47
0.0
 47
1.0
171
     0
 49
0.0208333333333333
 49
0.0
 49
0.0
 49
0.0
 49
0.0
 49
0.0208333333333333
 49
0.0
 49
0.0
 49
0.0
 49
0.0
 49
1.0
 49
0.0
 49
0.0
 49
0.0
 49
0.0
 49
1.0
175
     0
142
0.0208333333333333
142
0.0
142
0.0
142
0.0
142
0.0
142
0.0208333333333333
142
0.0
142
0.0
142
0.0
142
0.0
142
1.0
142
0.0
142
0.0
142
0.0
142
0.0
142
1.0
179
     0
144
0.0208333333333333
144
0.0
144
0.0
144
0.0
144
0.0
144
0.0208333333333333
144
0.0
144
0.0
144
0.0
144
0.0
144
1.0
144
0.0
144
0.0
144
0.0
144
0.0
144
1.0
147
0.0208333333333333
147
0.0
147
0.0
147
0.0
147
0.0
147
0.0208333333333333
147
0.0
147
0.0
147
0.0
147
0.0
147
1.0
147
0.0
147
0.0
147
0.0
147
0.0
147
1.0
  0
MLEADERSTYLE
  5
67
102
{ACAD_REACTORS
330
66
102
}
330
66
100
AcDbMLeaderStyle
179
     2
170
     2
171
     1
172
     0
 90
        2
 40
0.0
 41
0.0
173
     1
 91
-1056964608
340
5B
 92
       -2
290
     1
 42
0.09
291
     1
 43
0.36
  3
Standard
 44
0.18
300

342
55
174
     1
178
     6
175
     1
176
     0
 93
-1056964608
 45
0.18
292
     0
297
     0
 46
0.18
 94
-1056964608
 47
1.0
 49
1.0
140
1.0
293
     1
141
0.0
294
     1
177
     0
142
1.0
295
     1
296
     0
143
0.125
271
     0
272
     9
273
     9
298
     1
  0
MLINESTYLE
  5
60
102
{ACAD_REACTORS
330
5F
102
}
330
5F
100
AcDbMlineStyle
  2
STANDARD
 70
     0
  3

 62
   256
 51
90.0
 52
90.0
 71
     2
 49
0.5
 62
   256
  6
BYLAYER
 49
-0.5
 62
   256
  6
BYLAYER
  0
ACDBPLACEHOLDER
  5
F
102
{ACAD_REACTORS
330
E
102
}
330
E
  0
SCALE
  5
43
102
{ACAD_REACTORS
330
42
102
}
330
42
100
AcDbScale
 70
     0
300
1:1
140
1.0
141
1.0
290
     1
  0
SCALE
  5
44
102
{ACAD_REACTORS
330
42
102
}
330
42
100
AcDbScale
 70
     0
300
1/128" = 1'-0"
140
0.0078125
141
12.0
290
     0
  0
SCALE
  5
45
102
{ACAD_REACTORS
330
42
102
}
330
42
100
AcDbScale
 70
     0
300
1/64" = 1'-0"
140
0.015625
141
12.0
290
     0
  0
SCALE
  5
46
102
{ACAD_REACTORS
330
42
102
}
330
42
100
AcDbScale
 70
     0
300
1/32" = 1'-0"
140
0.03125
141
12.0
290
     0
  0
SCALE
  5
47
102
{ACAD_REACTORS
330
42
102
}
330
42
100
AcDbScale
 70
     0
300
1/16" = 1'-0"
140
0.0625
141
12.0
290
     0
  0
SCALE
  5
48
102
{ACAD_REACTORS
330
42
102
}
330
42
100
AcDbScale
 70
     0
300
3/32" = 1'-0"
140
0.09375
141
12.0
290
     0
  0
SCALE
  5
49
102
{ACAD_REACTORS
330
42
102
}
330
42
100
AcDbScale
 70
     0
300
1/8" = 1'-0"
140
0.125
141
12.0
290
     0
  0
SCALE
  5
4A
102
{ACAD_REACTORS
330
42
102
}
330
42
100
AcDbScale
 70
     0
300
3/16" = 1'-0"
140
0.1875
141
12.0
290
     0
  0
SCALE
  5
4B
102
{ACAD_REACTORS
330
42
102
}
330
42
100
AcDbScale
 70
     0
300
1/4" = 1'-0"
140
0.25
141
12.0
290
     0
  0
SCALE
  5
4C
102
{ACAD_REACTORS
330
42
102
}
330
42
100
AcDbScale
 70
     0
300
3/8" = 1'-0"
140
0.375
141
12.0
290
     0
  0
SCALE
  5
4D
102
{ACAD_REACTORS
330
42
102
}
330
42
100
AcDbScale
 70
     0
300
1/2" = 1'-0"
140
0.5
141
12.0
290
     0
  0
SCALE
  5
4E
102
{ACAD_REACTORS
330
42
102
}
330
42
100
AcDbScale
 70
     0
300
3/4" = 1'-0"
140
0.75
141
12.0
290
     0
  0
SCALE
  5
4F
102
{ACAD_REACTORS
330
42
102
}
330
42
100
AcDbScale
 70
     0
300
1" = 1'-0"
140
1.0
141
12.0
290
     0
  0
SCALE
  5
50
102
{ACAD_REACTORS
330
42
102
}
330
42
100
AcDbScale
 70
     0
300
1-1/2" = 1'-0"
140
1.5
141
12.0
290
     0
  0
SCALE
  5
51
102
{ACAD_REACTORS
330
42
102
}
330
42
100
AcDbScale
 70
     0
300
3" = 1'-0"
140
3.0
141
12.0
290
     0
  0
SCALE
  5
52
102
{ACAD_REACTORS
330
42
102
}
330
42
100
AcDbScale
 70
     0
300
6" = 1'-0"
140
6.0
141
12.0
290
     0
  0
SCALE
  5
53
102
{ACAD_REACTORS
330
42
102
}
330
42
100
AcDbScale
 70
     0
300
1'-0" = 1'-0"
140
12.0
141
12.0
290
     0
  0
ACDBSECTIONVIEWSTYLE
  5
69
102
{ACAD_REACTORS
330
68
102
}
330
68
100
AcDbModelDocViewStyle
 70
     0
  3
Imperial24
290
     1
300
Imperial24
 90
        0
100
AcDbSectionViewStyle
 70
     0
 71
     0
 90
       78
 71
     1
340
55
 62
   256
 40
0.24
340
0
340
0
 62
   256
 40
0.24
300
I, O, Q, S, X, Z
 40
0.48
 90
        3
 40
0.18
 90
        1
 71
     2
340
5D
 90
       25
 62
   256
340
5D
 90
       50
 62
   256
 40
0.24
 40
0.0
 40
0.24
 71
     3
340
55
 62
   256
 40
0.24
 90
        1
 40
0.75
 90
        1
300
%<\AcVar ViewType \f "%tc1">% %<\AcVar ViewSectionStartId>%-%<\AcVar ViewSectionEndId>%\PSCALE %<\AcVar ViewScale \f "%sn">%
 71
     4
 62
   256
 62
   257
300
ANSI31
 40
1.0
 90
        0
290
     0
290
     0
 90
        6
 40
0.0
 40
1.570796326794896
 40
0.2617993877991494
 40
1.308996938995747
 40
-0.2617993877991494
 40
1.832595714594046
  0
TABLESTYLE
  5
65
102
{ACAD_XDICTIONARY
360
AA
102
}
102
{ACAD_REACTORS
330
64
102
}
330
64
100
AcDbTableStyle
280
     0
  3
Standard
 70
     0
 71
     0
 40
0.06
 41
0.06
280
     0
281
     0
  7
Standard
140
0.18
170
     2
 62
     0
 63
     7
283
     0
 90
      512
 91
        0
  1

274
    -2
284
     1
 64
     0
275
    -2
285
     1
 65
     0
276
    -2
286
     1
 66
     0
277
    -2
287
     1
 67
     0
278
    -2
288
     1
 68
     0
279
    -2
289
     1
 69
     0
  7
Standard
140
0.25
170
     5
 62
     0
 63
     7
283
     0
 90
      512
 91
        0
  1

274
    -2
284
     1
 64
     0
275
    -2
285
     1
 65
     0
276
    -2
286
     1
 66
     0
277
    -2
287
     1
 67
     0
278
    -2
288
     1
 68
     0
279
    -2
289
     1
 69
     0
  7
Standard
140
0.18
170
     5
 62
     0
 63
     7
283
     0
 90
      512
 91
        0
  1

274
    -2
284
     1
 64
     0
275
    -2
285
     1
 65
     0
276
    -2
286
     1
 66
     0
277
    -2
287
     1
 67
     0
278
    -2
288
     1
 68
     0
279
    -2
289
     1
 69
     0
  0
VISUALSTYLE
  5
2F
102
{ACAD_REACTORS
330
29
102
}
330
29
100
AcDbVisualStyle
  2
2dWireframe
 70
     4
177
     3
291
     0
 70
    58
 90
        0
176
     1
 90
        2
176
     1
 90
        0
176
     1
 90
        0
176
     1
 40
0.6
176
     1
 40
30.0
176
     1
 62
     7
420
 16777215
176
     1
 90
        1
176
     1
 90
        4
176
     1
 62
     7
176
     1
 62
   257
176
     1
 90
        1
176
     1
 90
        1
176
     1
 40
1.0
176
     1
 90
        0
176
     1
 62
   257
176
     1
 40
1.0
176
     1
 90
        1
176
     1
 90
        6
176
     1
 90
        2
176
     1
 62
     7
176
     1
 90
        5
176
     1
 90
        0
176
     1
 90
        0
176
     1
290
     0
176
     1
 90
        1
176
     1
 40
0.0
176
     1
 90
        0
176
     1
290
     1
176
     1
290
     1
176
     1
290
     0
176
     1
290
     0
176
     1
290
     0
176
     1
290
     0
176
     1
290
     0
176
     1
290
     0
176
     1
290
     0
176
     1
 90
       50
176
     1
 40
0.0
176
     1
 40
1.0
176
     1
 90
        0
176
     1
 62
    18
420
        0
176
     1
 90
       50
176
     1
 90
        3
176
     1
 62
     5
420
      255
176
     1
290
     0
176
     1
 90
       50
176
     1
 90
       50
176
     1
 90
       50
176
     1
290
     0
176
     1
 90
       50
176
     1
 62
   256
176
     0
 40
1.0
176
     0
 90
        2
176
     1
  1
strokes_ogs.tif
176
     1
290
     0
176
     1
 40
1.0
176
     1
 40
1.0
176
     1
  0
VISUALSTYLE
  5
2E
102
{ACAD_REACTORS
330
29
102
}
330
29
100
AcDbVisualStyle
  2
Basic
 70
     7
177
     3
291
     1
 70
    58
 90
        1
176
     1
 90
        0
176
     1
 90
        1
176
     1
 90
        0
176
     1
 40
0.6
176
     1
 40
30.0
176
     1
 62
     7
420
 16777215
176
     1
 90
        0
176
     1
 90
        4
176
     1
 62
     7
176
     1
 62
   257
176
     1
 90
        1
176
     1
 90
        1
176
     1
 40
1.0
176
     1
 90
        8
176
     1
 62
     7
176
     1
 40
1.0
176
     1
 90
        1
176
     1
 90
        6
176
     1
 90
        2
176
     1
 62
     7
176
     1
 90
        5
176
     1
 90
        0
176
     1
 90
        0
176
     1
290
     0
176
     1
 90
        1
176
     1
 40
0.0
176
     1
 90
        0
176
     1
290
     0
176
     1
290
     1
176
     1
290
     1
176
     1
290
     0
176
     1
290
     0
176
     1
290
     0
176
     1
290
     0
176
     1
290
     0
176
     1
290
     0
176
     1
 90
       50
176
     1
 40
0.0
176
     1
 40
1.0
176
     1
 90
        0
176
     1
 62
    18
420
        0
176
     1
 90
       50
176
     1
 90
        3
176
     1
 62
     5
420
      255
176
     1
290
     0
176
     1
 90
       50
176
     1
 90
       50
176
     1
 90
       50
176
     1
290
     0
176
     1
 90
       50
176
     1
 62
   256
176
     0
 40
1.0
176
     0
 90
        2
176
     1
  1
strokes_ogs.tif
176
     1
290
     0
176
     1
 40
1.0
176
     1
 40
1.0
176
     1
  0
VISUALSTYLE
  5
35
102
{ACAD_REACTORS
330
29
102
}
330
29
100
AcDbVisualStyle
  2
Brighten
 70
    12
177
     3
291
     1
 70
    58
 90
        2
176
     1
 90
        2
176
     1
 90
        0
176
     1
 90
        0
176
     1
 40
0.6
176
     1
 40
30.0
176
     1
 62
     7
420
 16777215
176
     1
 90
        1
176
     1
 90
        4
176
     1
 62
     7
176
     1
 62
   257
176
     1
 90
        1
176
     1
 90
        1
176
     1
 40
1.0
176
     1
 90
        8
176
     1
 62
     7
176
     1
 40
1.0
176
     1
 90
        1
176
     1
 90
        6
176
     1
 90
        2
176
     1
 62
     7
176
     1
 90
        5
176
     1
 90
        0
176
     1
 90
        0
176
     1
290
     0
176
     1
 90
        1
176
     1
 40
50.0
176
     1
 90
        0
176
     1
290
     0
176
     1
290
     1
176
     1
290
     1
176
     1
290
     0
176
     1
290
     0
176
     1
290
     0
176
     1
290
     0
176
     1
290
     0
176
     1
290
     0
176
     1
 90
       50
176
     1
 40
0.0
176
     1
 40
1.0
176
     1
 90
        0
176
     1
 62
    18
420
        0
176
     1
 90
       50
176
     1
 90
        3
176
     1
 62
     5
420
      255
176
     1
290
     0
176
     1
 90
       50
176
     1
 90
       50
176
     1
 90
       50
176
     1
290
     0
176
     1
 90
       50
176
     1
 62
   256
176
     0
 40
1.0
176
     0
 90
        2
176
     1
  1
strokes_ogs.tif
176
     1
290
     0
176
     1
 40
1.0
176
     1
 40
1.0
176
     1
  0
VISUALSTYLE
  5
39
102
{ACAD_REACTORS
330
29
102
}
330
29
100
AcDbVisualStyle
  2
ColorChange
 70
    16
177
     3
291
     1
 70
    58
 90
        2
176
     1
 90
        2
176
     1
 90
        3
176
     1
 90
        0
176
     1
 40
0.6
176
     1
 40
30.0
176
     1
 62
     8
420
  8421504
176
     1
 90
        1
176
     1
 90
        4
176
     1
 62
     7
176
     1
 62
   257
176
     1
 90
        1
176
     1
 90
        1
176
     1
 40
1.0
176
     1
 90
        8
176
     1
 62
     8
420
  8421504
176
     1
 40
1.0
176
     1
 90
        1
176
     1
 90
        6
176
     1
 90
        2
176
     1
 62
     7
176
     1
 90
        5
176
     1
 90
        0
176
     1
 90
        0
176
     1
290
     0
176
     1
 90
        1
176
     1
 40
0.0
176
     1
 90
        0
176
     1
290
     0
176
     1
290
     1
176
     1
290
     1
176
     1
290
     0
176
     1
290
     0
176
     1
290
     0
176
     1
290
     0
176
     1
290
     0
176
     1
290
     0
176
     1
 90
       50
176
     1
 40
0.0
176
     1
 40
1.0
176
     1
 90
        0
176
     1
 62
    18
420
        0
176
     1
 90
       50
176
     1
 90
        3
176
     1
 62
     5
420
      255
176
     1
290
     0
176
     1
 90
       50
176
     1
 90
       50
176
     1
 90
       50
176
     1
290
     0
176
     1
 90
       50
176
     1
 62
   256
176
     0
 40
1.0
176
     0
 90
        2
176
     1
  1
strokes_ogs.tif
176
     1
290
     0
176
     1
 40
1.0
176
     1
 40
1.0
176
     1
  0
VISUALSTYLE
  5
32
102
{ACAD_REACTORS
330
29
102
}
330
29
100
AcDbVisualStyle
  2
Conceptual
 70
     9
177
     3
291
     0
 70
    58
 90
        3
176
     1
 90
        2
176
     1
 90
        0
176
     1
 90
        0
176
     1
 40
0.6
176
     1
 40
30.0
176
     1
 62
     7
420
 16777215
176
     1
 90
        2
176
     1
 90
        2
176
     1
 62
     7
176
     1
 62
   257
176
     1
 90
        1
176
     1
 90
        1
176
     1
 40
179.0
176
     1
 90
        8
176
     1
 62
     7
176
     1
 40
1.0
176
     1
 90
        1
176
     1
 90
        6
176
     1
 90
        2
176
     1
 62
     7
176
     1
 90
        3
176
     1
 90
        0
176
     1
 90
        0
176
     1
290
     0
176
     1
 90
        1
176
     1
 40
0.0
176
     1
 90
        0
176
     1
290
     0
176
     1
290
     1
176
     1
290
     1
176
     1
290
     0
176
     1
290
     0
176
     1
290
     0
176
     1
290
     0
176
     1
290
     0
176
     1
290
     0
176
     1
 90
       50
176
     1
 40
0.0
176
     1
 40
1.0
176
     1
 90
        0
176
     1
 62
    18
420
        0
176
     1
 90
       50
176
     1
 90
        3
176
     1
 62
     5
420
      255
176
     1
290
     0
176
     1
 90
       50
176
     1
 90
       50
176
     1
 90
       50
176
     1
290
     0
176
     1
 90
       50
176
     1
 62
   256
176
     0
 40
1.0
176
     0
 90
        2
176
     1
  1
strokes_ogs.tif
176
     1
290
     0
176
     1
 40
1.0
176
     1
 40
1.0
176
     1
  0
VISUALSTYLE
  5
34
102
{ACAD_REACTORS
330
29
102
}
330
29
100
AcDbVisualStyle
  2
Dim
 70
    11
177
     3
291
     1
 70
    58
 90
        2
176
     1
 90
        2
176
     1
 90
        0
176
     1
 90
        0
176
     1
 40
0.6
176
     1
 40
30.0
176
     1
 62
     7
420
 16777215
176
     1
 90
        1
176
     1
 90
        4
176
     1
 62
     7
176
     1
 62
   257
176
     1
 90
        1
176
     1
 90
        1
176
     1
 40
1.0
176
     1
 90
        8
176
     1
 62
     7
176
     1
 40
1.0
176
     1
 90
        1
176
     1
 90
        6
176
     1
 90
        2
176
     1
 62
     7
176
     1
 90
        5
176
     1
 90
        0
176
     1
 90
        0
176
     1
290
     0
176
     1
 90
        1
176
     1
 40
-50.0
176
     1
 90
        0
176
     1
290
     0
176
     1
290
     1
176
     1
290
     1
176
     1
290
     0
176
     1
290
     0
176
     1
290
     0
176
     1
290
     0
176
     1
290
     0
176
     1
290
     0
176
     1
 90
       50
176
     1
 40
0.0
176
     1
 40
1.0
176
     1
 90
        0
176
     1
 62
    18
420
        0
176
     1
 90
       50
176
     1
 90
        3
176
     1
 62
     5
420
      255
176
     1
290
     0
176
     1
 90
       50
176
     1
 90
       50
176
     1
 90
       50
176
     1
290
     0
176
     1
 90
       50
176
     1
 62
   256
176
     0
 40
1.0
176
     0
 90
        2
176
     1
  1
strokes_ogs.tif
176
     1
290
     0
176
     1
 40
1.0
176
     1
 40
1.0
176
     1
  0
VISUALSTYLE
  5
41
102
{ACAD_REACTORS
330
29
102
}
330
29
100
AcDbVisualStyle
  2
EdgeColorOff
 70
    22
177
     3
291
     1
 70
    58
 90
        2
176
     0
 90
        2
176
     0
 90
        0
176
     0
 90
        0
176
     0
 40
0.6
176
     0
 40
30.0
176
     0
 62
     7
420
 16777215
176
     0
 90
        1
176
     0
 90
        4
176
     0
 62
     7
176
     0
 62
   257
176
     0
 90
        1
176
     0
 90
        1
176
     0
 40
1.0
176
     0
 90
        8
176
     2
 62
     7
176
     0
 40
1.0
176
     0
 90
        1
176
     0
 90
        6
176
     0
 90
        2
176
     0
 62
     7
176
     0
 90
        5
176
     0
 90
        0
176
     0
 90
        0
176
     0
290
     0
176
     0
 90
        1
176
     0
 40
0.0
176
     0
 90
        0
176
     0
290
     0
176
     0
290
     1
176
     0
290
     1
176
     0
290
     0
176
     0
290
     0
176
     0
290
     0
176
     0
290
     0
176
     0
290
     0
176
     0
290
     0
176
     0
 90
       50
176
     0
 40
0.0
176
     0
 40
1.0
176
     0
 90
        0
176
     0
 62
    18
420
        0
176
     0
 90
       50
176
     0
 90
        3
176
     0
 62
     5
420
      255
176
     0
290
     0
176
     0
 90
       50
176
     0
 90
       50
176
     0
 90
       50
176
     0
290
     0
176
     0
 90
       50
176
     0
 62
   256
176
     0
 40
1.0
176
     0
 90
        2
176
     0
  1
strokes_ogs.tif
176
     0
290
     0
176
     0
 40
1.0
176
     0
 40
1.0
176
     0
  0
VISUALSTYLE
  5
38
102
{ACAD_REACTORS
330
29
102
}
330
29
100
AcDbVisualStyle
  2
Facepattern
 70
    15
177
     3
291
     1
 70
    58
 90
        2
176
     1
 90
        2
176
     1
 90
        0
176
     1
 90
        0
176
     1
 40
0.6
176
     1
 40
30.0
176
     1
 62
     7
420
 16777215
176
     1
 90
        1
176
     1
 90
        4
176
     1
 62
     7
176
     1
 62
   257
176
     1
 90
        1
176
     1
 90
        1
176
     1
 40
1.0
176
     1
 90
        8
176
     1
 62
     7
176
     1
 40
1.0
176
     1
 90
        1
176
     1
 90
        6
176
     1
 90
        2
176
     1
 62
     7
176
     1
 90
        5
176
     1
 90
        0
176
     1
 90
        0
176
     1
290
     0
176
     1
 90
        1
176
     1
 40
0.0
176
     1
 90
        0
176
     1
290
     0
176
     1
290
     1
176
     1
290
     1
176
     1
290
     0
176
     1
290
     0
176
     1
290
     0
176
     1
290
     0
176
     1
290
     0
176
     1
290
     0
176
     1
 90
       50
176
     1
 40
0.0
176
     1
 40
1.0
176
     1
 90
        0
176
     1
 62
    18
420
        0
176
     1
 90
       50
176
     1
 90
        3
176
     1
 62
     5
420
      255
176
     1
290
     0
176
     1
 90
       50
176
     1
 90
       50
176
     1
 90
       50
176
     1
290
     0
176
     1
 90
       50
176
     1
 62
   256
176
     0
 40
1.0
176
     0
 90
        2
176
     1
  1
strokes_ogs.tif
176
     1
290
     0
176
     1
 40
1.0
176
     1
 40
1.0
176
     1
  0
VISUALSTYLE
  5
2A
102
{ACAD_REACTORS
330
29
102
}
330
29
100
AcDbVisualStyle
  2
Flat
 70
     0
177
     3
291
     1
 70
    58
 90
        2
176
     1
 90
        1
176
     1
 90
        1
176
     1
 90
        2
176
     1
 40
0.6
176
     1
 40
30.0
176
     1
 62
     7
420
 16777215
176
     1
 90
        0
176
     1
 90
        0
176
     1
 62
     7
176
     1
 62
   257
176
     1
 90
        1
176
     1
 90
        1
176
     1
 40
1.0
176
     1
 90
        8
176
     1
 62
     7
176
     1
 40
1.0
176
     1
 90
        1
176
     1
 90
        6
176
     1
 90
        2
176
     1
 62
     7
176
     1
 90
        5
176
     1
 90
        0
176
     1
 90
        0
176
     1
290
     0
176
     1
 90
       13
176
     1
 40
0.0
176
     1
 90
        0
176
     1
290
     0
176
     1
290
     1
176
     1
290
     1
176
     1
290
     0
176
     1
290
     0
176
     1
290
     0
176
     1
290
     0
176
     1
290
     0
176
     1
290
     0
176
     1
 90
       50
176
     1
 40
0.0
176
     1
 40
1.0
176
     1
 90
        0
176
     1
 62
    18
420
        0
176
     1
 90
       50
176
     1
 90
        3
176
     1
 62
     5
420
      255
176
     1
290
     0
176
     1
 90
       50
176
     1
 90
       50
176
     1
 90
       50
176
     1
290
     0
176
     1
 90
       50
176
     1
 62
   256
176
     0
 40
1.0
176
     0
 90
        2
176
     1
  1
strokes_ogs.tif
176
     1
290
     0
176
     1
 40
1.0
176
     1
 40
1.0
176
     1
  0
VISUALSTYLE
  5
2B
102
{ACAD_REACTORS
330
29
102
}
330
29
100
AcDbVisualStyle
  2
FlatWithEdges
 70
     1
177
     3
291
     1
 70
    58
 90
        2
176
     1
 90
        1
176
     1
 90
        1
176
     1
 90
        2
176
     1
 40
0.6
176
     1
 40
30.0
176
     1
 62
     7
420
 16777215
176
     1
 90
        1
176
     1
 90
        0
176
     1
 62
     7
176
     1
 62
   257
176
     1
 90
        1
176
     1
 90
        1
176
     1
 40
1.0
176
     1
 90
        0
176
     1
 62
   257
176
     1
 40
1.0
176
     1
 90
        1
176
     1
 90
        6
176
     1
 90
        2
176
     1
 62
     7
176
     1
 90
        5
176
     1
 90
        0
176
     1
 90
        0
176
     1
290
     0
176
     1
 90
       13
176
     1
 40
0.0
176
     1
 90
        0
176
     1
290
     0
176
     1
290
     1
176
     1
290
     1
176
     1
290
     0
176
     1
290
     0
176
     1
290
     0
176
     1
290
     0
176
     1
290
     0
176
     1
290
     0
176
     1
 90
       50
176
     1
 40
0.0
176
     1
 40
1.0
176
     1
 90
        0
176
     1
 62
    18
420
        0
176
     1
 90
       50
176
     1
 90
        3
176
     1
 62
     5
420
      255
176
     1
290
     0
176
     1
 90
       50
176
     1
 90
       50
176
     1
 90
       50
176
     1
290
     0
176
     1
 90
       50
176
     1
 62
   256
176
     0
 40
1.0
176
     0
 90
        2
176
     1
  1
strokes_ogs.tif
176
     1
290
     0
176
     1
 40
1.0
176
     1
 40
1.0
176
     1
  0
VISUALSTYLE
  5
2C
102
{ACAD_REACTORS
330
29
102
}
330
29
100
AcDbVisualStyle
  2
Gouraud
 70
     2
177
     3
291
     1
 70
    58
 90
        2
176
     1
 90
        2
176
     1
 90
        1
176
     1
 90
        2
176
     1
 40
0.6
176
     1
 40
30.0
176
     1
 62
     7
420
 16777215
176
     1
 90
        0
176
     1
 90
        0
176
     1
 62
     7
176
     1
 62
   257
176
     1
 90
        1
176
     1
 90
        1
176
     1
 40
1.0
176
     1
 90
        0
176
     1
 62
     7
176
     1
 40
1.0
176
     1
 90
        1
176
     1
 90
        6
176
     1
 90
        2
176
     1
 62
     7
176
     1
 90
        5
176
     1
 90
        0
176
     1
 90
        0
176
     1
290
     0
176
     1
 90
       13
176
     1
 40
0.0
176
     1
 90
        0
176
     1
290
     0
176
     1
290
     1
176
     1
290
     1
176
     1
290
     0
176
     1
290
     0
176
     1
290
     0
176
     1
290
     0
176
     1
290
     0
176
     1
290
     0
176
     1
 90
       50
176
     1
 40
0.0
176
     1
 40
1.0
176
     1
 90
        0
176
     1
 62
    18
420
        0
176
     1
 90
       50
176
     1
 90
        3
176
     1
 62
     5
420
      255
176
     1
290
     0
176
     1
 90
       50
176
     1
 90
       50
176
     1
 90
       50
176
     1
290
     0
176
     1
 90
       50
176
     1
 62
   256
176
     0
 40
1.0
176
     0
 90
        2
176
     1
  1
strokes_ogs.tif
176
     1
290
     0
176
     1
 40
1.0
176
     1
 40
1.0
176
     1
  0
VISUALSTYLE
  5
2D
102
{ACAD_REACTORS
330
29
102
}
330
29
100
AcDbVisualStyle
  2
GouraudWithEdges
 70
     3
177
     3
291
     1
 70
    58
 90
        2
176
     1
 90
        2
176
     1
 90
        1
176
     1
 90
        2
176
     1
 40
0.6
176
     1
 40
30.0
176
     1
 62
     7
420
 16777215
176
     1
 90
        1
176
     1
 90
        0
176
     1
 62
     7
176
     1
 62
   257
176
     1
 90
        1
176
     1
 90
        1
176
     1
 40
1.0
176
     1
 90
        0
176
     1
 62
   257
176
     1
 40
1.0
176
     1
 90
        1
176
     1
 90
        6
176
     1
 90
        2
176
     1
 62
     7
176
     1
 90
        5
176
     1
 90
        0
176
     1
 90
        0
176
     1
290
     0
176
     1
 90
       13
176
     1
 40
0.0
176
     1
 90
        0
176
     1
290
     0
176
     1
290
     1
176
     1
290
     1
176
     1
290
     0
176
     1
290
     0
176
     1
290
     0
176
     1
290
     0
176
     1
290
     0
176
     1
290
     0
176
     1
 90
       50
176
     1
 40
0.0
176
     1
 40
1.0
176
     1
 90
        0
176
     1
 62
    18
420
        0
176
     1
 90
       50
176
     1
 90
        3
176
     1
 62
     5
420
      255
176
     1
290
     0
176
     1
 90
       50
176
     1
 90
       50
176
     1
 90
       50
176
     1
290
     0
176
     1
 90
       50
176
     1
 62
   256
176
     0
 40
1.0
176
     0
 90
        2
176
     1
  1
strokes_ogs.tif
176
     1
290
     0
176
     1
 40
1.0
176
     1
 40
1.0
176
     1
  0
VISUALSTYLE
  5
31
102
{ACAD_REACTORS
330
29
102
}
330
29
100
AcDbVisualStyle
  2
Hidden
 70
     6
177
     3
291
     0
 70
    58
 90
        1
176
     1
 90
        2
176
     1
 90
        2
176
     1
 90
        0
176
     1
 40
0.6
176
     1
 40
30.0
176
     1
 62
     7
420
 16777215
176
     1
 90
        2
176
     1
 90
        2
176
     1
 62
     7
176
     1
 62
   257
176
     1
 90
        2
176
     1
 90
        1
176
     1
 40
40.0
176
     1
 90
        0
176
     1
 62
   257
176
     1
 40
1.0
176
     1
 90
        1
176
     1
 90
        6
176
     1
 90
        2
176
     1
 62
     7
176
     1
 90
        3
176
     1
 90
        0
176
     1
 90
        0
176
     1
290
     0
176
     1
 90
        1
176
     1
 40
0.0
176
     1
 90
        0
176
     1
290
     0
176
     1
290
     1
176
     1
290
     1
176
     1
290
     0
176
     1
290
     0
176
     1
290
     0
176
     1
290
     0
176
     1
290
     0
176
     1
290
     0
176
     1
 90
       50
176
     1
 40
0.0
176
     1
 40
1.0
176
     1
 90
        0
176
     1
 62
    18
420
        0
176
     1
 90
       50
176
     1
 90
        3
176
     1
 62
     5
420
      255
176
     1
290
     0
176
     1
 90
       50
176
     1
 90
       50
176
     1
 90
       50
176
     1
290
     0
176
     1
 90
       50
176
     1
 62
   256
176
     0
 40
1.0
176
     0
 90
        2
176
     1
  1
strokes_ogs.tif
176
     1
290
     0
176
     1
 40
1.0
176
     1
 40
1.0
176
     1
  0
VISUALSTYLE
  5
3F
102
{ACAD_REACTORS
330
29
102
}
330
29
100
AcDbVisualStyle
  2
JitterOff
 70
    20
177
     3
291
     1
 70
    58
 90
        2
176
     0
 90
        2
176
     0
 90
        0
176
     0
 90
        0
176
     0
 40
0.6
176
     0
 40
30.0
176
     0
 62
     7
420
 16777215
176
     0
 90
        1
176
     0
 90
        4
176
     0
 62
     7
176
     0
 62
   257
176
     0
 90
        1
176
     0
 90
        1
176
     0
 40
1.0
176
     0
 90
       10
176
     2
 62
     7
176
     0
 40
1.0
176
     0
 90
        1
176
     0
 90
        6
176
     0
 90
        2
176
     0
 62
     7
176
     0
 90
        5
176
     0
 90
        0
176
     0
 90
        0
176
     0
290
     0
176
     0
 90
        1
176
     0
 40
0.0
176
     0
 90
        0
176
     0
290
     0
176
     0
290
     1
176
     0
290
     1
176
     0
290
     0
176
     0
290
     0
176
     0
290
     0
176
     0
290
     0
176
     0
290
     0
176
     0
290
     0
176
     0
 90
       50
176
     0
 40
0.0
176
     0
 40
1.0
176
     0
 90
        0
176
     0
 62
    18
420
        0
176
     0
 90
       50
176
     0
 90
        3
176
     0
 62
     5
420
      255
176
     0
290
     0
176
     0
 90
       50
176
     0
 90
       50
176
     0
 90
       50
176
     0
290
     0
176
     0
 90
       50
176
     0
 62
   256
176
     0
 40
1.0
176
     0
 90
        2
176
     0
  1
strokes_ogs.tif
176
     0
290
     0
176
     0
 40
1.0
176
     0
 40
1.0
176
     0
  0
VISUALSTYLE
  5
37
102
{ACAD_REACTORS
330
29
102
}
330
29
100
AcDbVisualStyle
  2
Linepattern
 70
    14
177
     3
291
     1
 70
    58
 90
        2
176
     1
 90
        2
176
     1
 90
        0
176
     1
 90
        0
176
     1
 40
0.6
176
     1
 40
30.0
176
     1
 62
     7
420
 16777215
176
     1
 90
        1
176
     1
 90
        4
176
     1
 62
     7
176
     1
 62
   257
176
     1
 90
        7
176
     1
 90
        7
176
     1
 40
1.0
176
     1
 90
        8
176
     1
 62
     7
176
     1
 40
1.0
176
     1
 90
        1
176
     1
 90
        6
176
     1
 90
        2
176
     1
 62
     7
176
     1
 90
        5
176
     1
 90
        0
176
     1
 90
        0
176
     1
290
     0
176
     1
 90
        1
176
     1
 40
0.0
176
     1
 90
        0
176
     1
290
     0
176
     1
290
     1
176
     1
290
     1
176
     1
290
     0
176
     1
290
     0
176
     1
290
     0
176
     1
290
     0
176
     1
290
     0
176
     1
290
     0
176
     1
 90
       50
176
     1
 40
0.0
176
     1
 40
1.0
176
     1
 90
        0
176
     1
 62
    18
420
        0
176
     1
 90
       50
176
     1
 90
        3
176
     1
 62
     5
420
      255
176
     1
290
     0
176
     1
 90
       50
176
     1
 90
       50
176
     1
 90
       50
176
     1
290
     0
176
     1
 90
       50
176
     1
 62
   256
176
     0
 40
1.0
176
     0
 90
        2
176
     1
  1
strokes_ogs.tif
176
     1
290
     0
176
     1
 40
1.0
176
     1
 40
1.0
176
     1
  0
VISUALSTYLE
  5
40
102
{ACAD_REACTORS
330
29
102
}
330
29
100
AcDbVisualStyle
  2
OverhangOff
 70
    21
177
     3
291
     1
 70
    58
 90
        2
176
     0
 90
        2
176
     0
 90
        0
176
     0
 90
        0
176
     0
 40
0.6
176
     0
 40
30.0
176
     0
 62
     7
420
 16777215
176
     0
 90
        1
176
     0
 90
        4
176
     0
 62
     7
176
     0
 62
   257
176
     0
 90
        1
176
     0
 90
        1
176
     0
 40
1.0
176
     0
 90
        9
176
     2
 62
     7
176
     0
 40
1.0
176
     0
 90
        1
176
     0
 90
        6
176
     0
 90
        2
176
     0
 62
     7
176
     0
 90
        5
176
     0
 90
        0
176
     0
 90
        0
176
     0
290
     0
176
     0
 90
        1
176
     0
 40
0.0
176
     0
 90
        0
176
     0
290
     0
176
     0
290
     1
176
     0
290
     1
176
     0
290
     0
176
     0
290
     0
176
     0
290
     0
176
     0
290
     0
176
     0
290
     0
176
     0
290
     0
176
     0
 90
       50
176
     0
 40
0.0
176
     0
 40
1.0
176
     0
 90
        0
176
     0
 62
    18
420
        0
176
     0
 90
       50
176
     0
 90
        3
176
     0
 62
     5
420
      255
176
     0
290
     0
176
     0
 90
       50
176
     0
 90
       50
176
     0
 90
       50
176
     0
290
     0
176
     0
 90
       50
176
     0
 62
   256
176
     0
 40
1.0
176
     0
 90
        2
176
     0
  1
strokes_ogs.tif
176
     0
290
     0
176
     0
 40
1.0
176
     0
 40
1.0
176
     0
  0
VISUALSTYLE
  5
33
102
{ACAD_REACTORS
330
29
102
}
330
29
100
AcDbVisualStyle
  2
Realistic
 70
     8
177
     3
291
     0
 70
    58
 90
        2
176
     1
 90
        3
176
     1
 90
        0
176
     1
 90
        2
176
     1
 40
0.6
176
     1
 40
30.0
176
     1
 62
     7
420
 16777215
176
     1
 90
        0
176
     1
 90
        0
176
     1
 62
     7
176
     1
 62
   257
176
     1
 90
        1
176
     1
 90
        1
176
     1
 40
1.0
176
     1
 90
        8
176
     1
 62
   257
176
     1
 40
1.0
176
     1
 90
        1
176
     1
 90
        6
176
     1
 90
        2
176
     1
 62
     7
176
     1
 90
        3
176
     1
 90
        0
176
     1
 90
        0
176
     1
290
     0
176
     1
 90
       13
176
     1
 40
0.0
176
     1
 90
        0
176
     1
290
     0
176
     1
290
     1
176
     1
290
     1
176
     1
290
     0
176
     1
290
     0
176
     1
290
     0
176
     1
290
     0
176
     1
290
     0
176
     1
290
     0
176
     1
 90
       50
176
     1
 40
0.0
176
     1
 40
1.0
176
     1
 90
        0
176
     1
 62
    18
420
        0
176
     1
 90
       50
176
     1
 90
        3
176
     1
 62
     5
420
      255
176
     1
290
     0
176
     1
 90
       50
176
     1
 90
       50
176
     1
 90
       50
176
     1
290
     0
176
     1
 90
       50
176
     1
 62
   256
176
     0
 40
1.0
176
     0
 90
        2
176
     1
  1
strokes_ogs.tif
176
     1
290
     0
176
     1
 40
1.0
176
     1
 40
1.0
176
     1
  0
VISUALSTYLE
  5
3E
102
{ACAD_REACTORS
330
29
102
}
330
29
100
AcDbVisualStyle
  2
Shaded
 70
    27
177
     3
291
     0
 70
    58
 90
        2
176
     1
 90
        2
176
     1
 90
        1
176
     1
 90
        2
176
     1
 40
0.6
176
     1
 40
30.0
176
     1
 62
     7
420
 16777215
176
     1
 90
        0
176
     1
 90
        4
176
     1
 62
     7
176
     1
 62
   257
176
     1
 90
        1
176
     1
 90
        1
176
     1
 40
1.0
176
     1
 90
        8
176
     1
 62
   257
176
     1
 40
1.0
176
     1
 90
        1
176
     1
 90
        6
176
     1
 90
        2
176
     1
 62
     8
420
  7895160
176
     1
 90
        3
176
     1
 90
        0
176
     1
 90
        0
176
     1
290
     0
176
     1
 90
        5
176
     1
 40
0.0
176
     1
 90
        0
176
     1
290
     0
176
     1
290
     1
176
     1
290
     1
176
     1
290
     0
176
     1
290
     0
176
     1
290
     0
176
     1
290
     0
176
     1
290
     0
176
     1
290
     0
176
     1
 90
       50
176
     1
 40
0.0
176
     1
 40
1.0
176
     1
 90
        0
176
     1
 62
    18
420
        0
176
     1
 90
       50
176
     1
 90
        3
176
     1
 62
     5
420
      255
176
     1
290
     0
176
     1
 90
       50
176
     1
 90
       50
176
     1
 90
       50
176
     1
290
     0
176
     1
 90
       50
176
     1
 62
   256
176
     0
 40
1.0
176
     0
 90
        2
176
     1
  1
strokes_ogs.tif
176
     1
290
     0
176
     1
 40
1.0
176
     1
 40
1.0
176
     1
  0
VISUALSTYLE
  5
3D
102
{ACAD_REACTORS
330
29
102
}
330
29
100
AcDbVisualStyle
  2
Shaded with edges
 70
    26
177
     3
291
     0
 70
    58
 90
        2
176
     1
 90
        2
176
     1
 90
        1
176
     1
 90
        2
176
     1
 40
0.6
176
     1
 40
30.0
176
     1
 62
     7
420
 16777215
176
     1
 90
        1
176
     1
 90
        2
176
     1
 62
     7
176
     1
 62
   257
176
     1
 90
        2
176
     1
 90
        1
176
     1
 40
1.0
176
     1
 90
        8
176
     1
 62
   257
176
     1
 40
1.0
176
     1
 90
        1
176
     1
 90
        6
176
     1
 90
        2
176
     1
 62
     7
176
     1
 90
        3
176
     1
 90
        0
176
     1
 90
        0
176
     1
290
     0
176
     1
 90
        5
176
     1
 40
0.0
176
     1
 90
        0
176
     1
290
     0
176
     1
290
     1
176
     1
290
     1
176
     1
290
     0
176
     1
290
     0
176
     1
290
     0
176
     1
290
     0
176
     1
290
     0
176
     1
290
     0
176
     1
 90
       50
176
     1
 40
0.0
176
     1
 40
1.0
176
     1
 90
        0
176
     1
 62
    18
420
        0
176
     1
 90
       50
176
     1
 90
        3
176
     1
 62
     5
420
      255
176
     1
290
     0
176
     1
 90
       50
176
     1
 90
       50
176
     1
 90
       50
176
     1
290
     0
176
     1
 90
       50
176
     1
 62
   256
176
     0
 40
1.0
176
     0
 90
        2
176
     1
  1
strokes_ogs.tif
176
     1
290
     0
176
     1
 40
1.0
176
     1
 40
1.0
176
     1
  0
VISUALSTYLE
  5
3A
102
{ACAD_REACTORS
330
29
102
}
330
29
100
AcDbVisualStyle
  2
Shades of Gray
 70
    23
177
     3
291
     0
 70
    58
 90
        2
176
     1
 90
        2
176
     1
 90
        3
176
     1
 90
        0
176
     1
 40
0.6
176
     1
 40
30.0
176
     1
 62
     7
420
 16777215
176
     1
 90
        2
176
     1
 90
        2
176
     1
 62
     7
176
     1
 62
     7
176
     1
 90
        1
176
     1
 90
        1
176
     1
 40
40.0
176
     1
 90
        8
176
     1
 62
     7
176
     1
 40
1.0
176
     1
 90
        1
176
     1
 90
        6
176
     1
 90
        2
176
     1
 62
     7
176
     1
 90
        3
176
     1
 90
        0
176
     1
 90
        0
176
     1
290
     0
176
     1
 90
        1
176
     1
 40
0.0
176
     1
 90
        0
176
     1
290
     0
176
     1
290
     1
176
     1
290
     1
176
     1
290
     0
176
     1
290
     0
176
     1
290
     0
176
     1
290
     0
176
     1
290
     0
176
     1
290
     0
176
     1
 90
       50
176
     1
 40
0.0
176
     1
 40
1.0
176
     1
 90
        0
176
     1
 62
    18
420
        0
176
     1
 90
       50
176
     1
 90
        3
176
     1
 62
     5
420
      255
176
     1
290
     0
176
     1
 90
       50
176
     1
 90
       50
176
     1
 90
       50
176
     1
290
     0
176
     1
 90
       50
176
     1
 62
   256
176
     0
 40
1.0
176
     0
 90
        2
176
     1
  1
strokes_ogs.tif
176
     1
290
     0
176
     1
 40
1.0
176
     1
 40
1.0
176
     1
  0
VISUALSTYLE
  5
3B
102
{ACAD_REACTORS
330
29
102
}
330
29
100
AcDbVisualStyle
  2
Sketchy
 70
    24
177
     3
291
     0
 70
    58
 90
        1
176
     1
 90
        2
176
     1
 90
        2
176
     1
 90
        0
176
     1
 40
0.6
176
     1
 40
30.0
176
     1
 62
     7
420
 16777215
176
     1
 90
        2
176
     1
 90
        2
176
     1
 62
     7
176
     1
 62
     7
176
     1
 90
        1
176
     1
 90
        1
176
     1
 40
40.0
176
     1
 90
       11
176
     1
 62
     7
176
     1
 40
1.0
176
     1
 90
        1
176
     1
 90
        6
176
     1
 90
        2
176
     1
 62
     7
176
     1
 90
        6
176
     1
 90
        0
176
     1
 90
        0
176
     1
290
     0
176
     1
 90
        1
176
     1
 40
0.0
176
     1
 90
        0
176
     1
290
     0
176
     1
290
     1
176
     1
290
     1
176
     1
290
     0
176
     1
290
     0
176
     1
290
     0
176
     1
290
     0
176
     1
290
     0
176
     1
290
     0
176
     1
 90
       50
176
     1
 40
0.0
176
     1
 40
1.0
176
     1
 90
        0
176
     1
 62
    18
420
        0
176
     1
 90
       50
176
     1
 90
        3
176
     1
 62
     5
420
      255
176
     1
290
     0
176
     1
 90
       50
176
     1
 90
       50
176
     1
 90
       50
176
     1
290
     0
176
     1
 90
       50
176
     1
 62
   256
176
     0
 40
1.0
176
     0
 90
        2
176
     1
  1
strokes_ogs.tif
176
     1
290
     0
176
     1
 40
1.0
176
     1
 40
1.0
176
     1
  0
VISUALSTYLE
  5
36
102
{ACAD_REACTORS
330
29
102
}
330
29
100
AcDbVisualStyle
  2
Thicken
 70
    13
177
     3
291
     1
 70
    58
 90
        2
176
     1
 90
        2
176
     1
 90
        0
176
     1
 90
        0
176
     1
 40
0.6
176
     1
 40
30.0
176
     1
 62
     7
420
 16777215
176
     1
 90
        1
176
     1
 90
        4
176
     1
 62
     7
176
     1
 62
   257
176
     1
 90
        1
176
     1
 90
        1
176
     1
 40
1.0
176
     1
 90
       12
176
     1
 62
     7
176
     1
 40
1.0
176
     1
 90
        1
176
     1
 90
        6
176
     1
 90
        2
176
     1
 62
     7
176
     1
 90
        5
176
     1
 90
        0
176
     1
 90
        0
176
     1
290
     0
176
     1
 90
        1
176
     1
 40
0.0
176
     1
 90
        0
176
     1
290
     0
176
     1
290
     1
176
     1
290
     1
176
     1
290
     0
176
     1
290
     0
176
     1
290
     0
176
     1
290
     0
176
     1
290
     0
176
     1
290
     0
176
     1
 90
       50
176
     1
 40
0.0
176
     1
 40
1.0
176
     1
 90
        0
176
     1
 62
    18
420
        0
176
     1
 90
       50
176
     1
 90
        3
176
     1
 62
     5
420
      255
176
     1
290
     0
176
     1
 90
       50
176
     1
 90
       50
176
     1
 90
       50
176
     1
290
     0
176
     1
 90
       50
176
     1
 62
   256
176
     0
 40
1.0
176
     0
 90
        2
176
     1
  1
strokes_ogs.tif
176
     1
290
     0
176
     1
 40
1.0
176
     1
 40
1.0
176
     1
  0
VISUALSTYLE
  5
30
102
{ACAD_REACTORS
330
29
102
}
330
29
100
AcDbVisualStyle
  2
Wireframe
 70
     5
177
     3
291
     0
 70
    58
 90
        0
176
     1
 90
        2
176
     1
 90
        0
176
     1
 90
        0
176
     1
 40
0.6
176
     1
 40
30.0
176
     1
 62
     7
420
 16777215
176
     1
 90
        1
176
     1
 90
        4
176
     1
 62
     7
176
     1
 62
   257
176
     1
 90
        1
176
     1
 90
        1
176
     1
 40
1.0
176
     1
 90
        0
176
     1
 62
   257
176
     1
 40
1.0
176
     1
 90
        1
176
     1
 90
        6
176
     1
 90
        2
176
     1
 62
     7
176
     1
 90
        3
176
     1
 90
        0
176
     1
 90
        0
176
     1
290
     0
176
     1
 90
        1
176
     1
 40
0.0
176
     1
 90
        0
176
     1
290
     0
176
     1
290
     1
176
     1
290
     1
176
     1
290
     0
176
     1
290
     0
176
     1
290
     0
176
     1
290
     0
176
     1
290
     0
176
     1
290
     0
176
     1
 90
       50
176
     1
 40
0.0
176
     1
 40
1.0
176
     1
 90
        0
176
     1
 62
    18
420
        0
176
     1
 90
       50
176
     1
 90
        3
176
     1
 62
     5
420
      255
176
     1
290
     0
176
     1
 90
       50
176
     1
 90
       50
176
     1
 90
       50
176
     1
290
     0
176
     1
 90
       50
176
     1
 62
   256
176
     0
 40
1.0
176
     0
 90
        2
176
     1
  1
strokes_ogs.tif
176
     1
290
     0
176
     1
 40
1.0
176
     1
 40
1.0
176
     1
  0
VISUALSTYLE
  5
3C
102
{ACAD_REACTORS
330
29
102
}
330
29
100
AcDbVisualStyle
  2
X-Ray
 70
    25
177
     3
291
     0
 70
    58
 90
        2
176
     1
 90
        2
176
     1
 90
        1
176
     1
 90
        1
176
     1
 40
0.5
176
     1
 40
30.0
176
     1
 62
     7
420
 16777215
176
     1
 90
        1
176
     1
 90
        0
176
     1
 62
     7
176
     1
 62
   257
176
     1
 90
        1
176
     1
 90
        1
176
     1
 40
1.0
176
     1
 90
        8
176
     1
 62
     7
176
     1
 40
1.0
176
     1
 90
        1
176
     1
 90
        6
176
     1
 90
        2
176
     1
 62
     7
176
     1
 90
        3
176
     1
 90
        0
176
     1
 90
        0
176
     1
290
     0
176
     1
 90
       13
176
     1
 40
0.0
176
     1
 90
        0
176
     1
290
     0
176
     1
290
     1
176
     1
290
     1
176
     1
290
     0
176
     1
290
     0
176
     1
290
     0
176
     1
290
     0
176
     1
290
     0
176
     1
290
     0
176
     1
 90
       50
176
     1
 40
0.0
176
     1
 40
1.0
176
     1
 90
        0
176
     1
 62
    18
420
        0
176
     1
 90
       50
176
     1
 90
        3
176
     1
 62
     5
420
      255
176
     1
290
     0
176
     1
 90
       50
176
     1
 90
       50
176
     1
 90
       50
176
     1
290
     0
176
     1
 90
       50
176
     1
 62
   256
176
     0
 40
1.0
176
     0
 90
        2
176
     1
  1
strokes_ogs.tif
176
     1
290
     0
176
     1
 40
1.0
176
     1
 40
1.0
176
     1
  0
DICTIONARYVAR
  5
A9
102
{ACAD_REACTORS
330
A4
102
}
330
A4
100
DictionaryVariables
280
     0
  1
1:1
  0
DICTIONARYVAR
  5
A6
102
{ACAD_REACTORS
330
A4
102
}
330
A4
100
DictionaryVariables
280
     0
  1
STANDARD
  0
DICTIONARYVAR
  5
A5
102
{ACAD_REACTORS
330
A4
102
}
330
A4
100
DictionaryVariables
280
     0
  1
STANDARD
  0
DICTIONARYVAR
  5
A7
102
{ACAD_REACTORS
330
A4
102
}
330
A4
100
DictionaryVariables
280
     0
  1
Imperial24
  0
DICTIONARYVAR
  5
A8
102
{ACAD_REACTORS
330
A4
102
}
330
A4
100
DictionaryVariables
280
     0
  1
Imperial24
  0
DICTIONARY
  5
1A
330
19
100
AcDbDictionary
280
     1
281
     1
  3
BUMPTILE
360
1C
  3
DIFFUSETILE
360
1B
  3
OPACITYTILE
360
1F
  3
REFLECTIONTILE
360
1E
  3
REFRACTIONTILE
360
20
  3
SPECULARTILE
360
1D
  0
DICTIONARY
  5
12
330
11
100
AcDbDictionary
280
     1
281
     1
  3
BUMPTILE
360
14
  3
DIFFUSETILE
360
13
  3
OPACITYTILE
360
17
  3
REFLECTIONTILE
360
16
  3
REFRACTIONTILE
360
18
  3
SPECULARTILE
360
15
  0
DICTIONARY
  5
22
330
21
100
AcDbDictionary
280
     1
281
     1
  3
BUMPTILE
360
24
  3
DIFFUSETILE
360
23
  3
OPACITYTILE
360
27
  3
REFLECTIONTILE
360
26
  3
REFRACTIONTILE
360
28
  3
SPECULARTILE
360
25
  0
DICTIONARY
  5
AA
330
65
100
AcDbDictionary
280
     1
281
     1
  3
ACAD_ROUNDTRIP_2008_TABLESTYLE_CELLSTYLEMAP
360
AB
  0
XRECORD
  5
1C
102
{ACAD_REACTORS
330
1A
102
}
330
1A
100
AcDbXrecord
280
     1
270
     1
271
     1
  0
XRECORD
  5
1B
102
{ACAD_REACTORS
330
1A
102
}
330
1A
100
AcDbXrecord
280
     1
270
     1
271
     1
  0
XRECORD
  5
1F
102
{ACAD_REACTORS
330
1A
102
}
330
1A
100
AcDbXrecord
280
     1
270
     1
271
     1
  0
XRECORD
  5
1E
102
{ACAD_REACTORS
330
1A
102
}
330
1A
100
AcDbXrecord
280
     1
270
     1
271
     1
  0
XRECORD
  5
20
102
{ACAD_REACTORS
330
1A
102
}
330
1A
100
AcDbXrecord
280
     1
270
     1
271
     1
  0
XRECORD
  5
1D
102
{ACAD_REACTORS
330
1A
102
}
330
1A
100
AcDbXrecord
280
     1
270
     1
271
     1
  0
XRECORD
  5
14
102
{ACAD_REACTORS
330
12
102
}
330
12
100
AcDbXrecord
280
     1
270
     1
271
     1
  0
XRECORD
  5
13
102
{ACAD_REACTORS
330
12
102
}
330
12
100
AcDbXrecord
280
     1
270
     1
271
     1
  0
XRECORD
  5
17
102
{ACAD_REACTORS
330
12
102
}
330
12
100
AcDbXrecord
280
     1
270
     1
271
     1
  0
XRECORD
  5
16
102
{ACAD_REACTORS
330
12
102
}
330
12
100
AcDbXrecord
280
     1
270
     1
271
     1
  0
XRECORD
  5
18
102
{ACAD_REACTORS
330
12
102
}
330
12
100
AcDbXrecord
280
     1
270
     1
271
     1
  0
XRECORD
  5
15
102
{ACAD_REACTORS
330
12
102
}
330
12
100
AcDbXrecord
280
     1
270
     1
271
     1
  0
XRECORD
  5
24
102
{ACAD_REACTORS
330
22
102
}
330
22
100
AcDbXrecord
280
     1
270
     1
271
     1
  0
XRECORD
  5
23
102
{ACAD_REACTORS
330
22
102
}
330
22
100
AcDbXrecord
280
     1
270
     1
271
     1
  0
XRECORD
  5
27
102
{ACAD_REACTORS
330
22
102
}
330
22
100
AcDbXrecord
280
     1
270
     1
271
     1
  0
XRECORD
  5
26
102
{ACAD_REACTORS
330
22
102
}
330
22
100
AcDbXrecord
280
     1
270
     1
271
     1
  0
XRECORD
  5
28
102
{ACAD_REACTORS
330
22
102
}
330
22
100
AcDbXrecord
280
     1
270
     1
271
     1
  0
XRECORD
  5
25
102
{ACAD_REACTORS
330
22
102
}
330
22
100
AcDbXrecord
280
     1
270
     1
271
     1
  0
CELLSTYLEMAP
  5
AB
102
{ACAD_REACTORS
330
AA
102
}
330
AA
100
AcDbCellStyleMap
 90
        3
300
CELLSTYLE
  1
TABLEFORMAT_BEGIN
 90
        5
170
     1
 91
        0
 92
    32768
 62
   257
 93
        1
300
CONTENTFORMAT
  1
CONTENTFORMAT_BEGIN
 90
        0
 91
        0
 92
      512
 93
        0
300

 40
0.0
140
1.0
 94
        5
 62
     0
340
55
144
0.25
309
CONTENTFORMAT_END
171
     0
 94
        0
309
TABLEFORMAT_END
  1
CELLSTYLE_BEGIN
 90
        1
 91
        1
300
_TITLE
309
CELLSTYLE_END
300
CELLSTYLE
  1
TABLEFORMAT_BEGIN
 90
        5
170
     1
 91
        0
 92
        0
 62
   257
 93
        1
300
CONTENTFORMAT
  1
CONTENTFORMAT_BEGIN
 90
        0
 91
        0
 92
      512
 93
        0
300

 40
0.0
140
1.0
 94
        5
 62
     0
340
55
144
0.18
309
CONTENTFORMAT_END
171
     0
 94
        0
309
TABLEFORMAT_END
  1
CELLSTYLE_BEGIN
 90
        2
 91
        1
300
_HEADER
309
CELLSTYLE_END
300
CELLSTYLE
  1
TABLEFORMAT_BEGIN
 90
        5
170
     1
 91
        0
 92
        0
 62
   257
 93
        1
300
CONTENTFORMAT
  1
CONTENTFORMAT_BEGIN
 90
        0
 91
        0
 92
      512
 93
        0
300

 40
0.0
140
1.0
 94
        2
 62
     0
340
55
144
0.18
309
CONTENTFORMAT_END
171
     0
 94
        0
309
TABLEFORMAT_END
  1
CELLSTYLE_BEGIN
 90
        3
 91
        2
300
_DATA
309
CELLSTYLE_END
  0
ENDSEC
  0
EOF
