<?xml version="1.0" encoding="UTF-8"?>
<svg id="Layer_1" xmlns="http://www.w3.org/2000/svg" version="1.1" viewBox="0 0 190 190">
  <!-- Generator: Adobe Illustrator 30.2.1, SVG Export Plug-In . SVG Version: 2.1.1 Build 1)  -->
  <path d="M147.88,85.75c-.5-7-1.75-14.25-3.25-20.5,6.5-1.25,12.75-3,18-5,4.25,7.75,7,16.5,8,25.5h-22.75ZM128.38,29.75c8.75,3.75,16.5,9,22.5,15-3.5,1-7.5,2-12,2.75-3-6.75-6.5-12.5-10.5-17.75ZM144.62,124.75c1.5-6.25,2.75-13.5,3.25-20.5h22.75c-1,9-3.75,17.75-8,25.5-5.25-2-11.5-3.75-18-5ZM128.38,160.25c4-5.25,7.5-11,10.5-17.75,4.5.75,8.5,1.75,12,2.75-6,6-13.75,11.25-22.5,15ZM104.12,50.25v-23.75c6.25,4,12.5,12.25,17,23-5,.25-10.5.5-17,.75ZM104.12,85.75v-17c8.5-.25,15.75-.5,22.75-1.25,1.25,5.75,2,11.75,2.5,18.25h-25.25ZM104.12,121.25v-17h25.25c-.5,6.5-1.25,12.5-2.5,18.25-7-.75-14.25-1-22.75-1.25ZM104.12,163.5v-23.75c6.5.25,12,.5,17,.75-4.5,10.75-10.75,19-17,23ZM68.62,49.5c4.5-11,10.5-19,17-23v23.75c-6.5-.25-12-.5-17-.75ZM60.62,85.75c.5-6.5,1.25-12.25,2.5-18,6.5.5,14,.75,22.5,1v17h-25ZM68.62,140.5c5-.25,10.5-.5,17-.75v23.75c-6.5-4-12.5-12-17-23ZM63.12,122.25c-1.25-5.75-2-11.5-2.5-18h25v17c-8.5.25-16,.5-22.5,1ZM38.88,44.75c6.25-6.25,14-11.25,22.5-14.75-3.75,4.75-7.5,11.25-10.25,17.5-4.5-.75-8.75-1.75-12.25-2.75ZM38.88,145.25c3.75-1.25,7.75-2,12.25-2.75,3,6.75,6.5,12.75,10.5,17.75-9-3.75-16.25-8.75-22.75-15ZM19.38,85.75c1-9,4-18,8-25.5,5,2,11.25,3.75,18,5-1.5,6.25-2.75,13.25-3.25,20.5h-22.75ZM19.38,104.25h22.75c.5,7.25,1.75,14.25,3.25,20.5-6.75,1.25-13,3-18,5-4-7.5-7-16.5-8-25.5ZM94.88,185c55,0,94.75-38,94.75-90S149.88,5,94.88,5,.38,43,.38,95s39.75,90,94.5,90Z"/>
</svg>